<svg width="136" height="136" viewBox="0 0 136 136" fill="none" xmlns="http://www.w3.org/2000/svg">
<path d="M136 68C136 105.555 105.555 136 68 136C30.4451 136 0 105.555 0 68C0 30.445 30.4451 0 68 0C105.555 0 136 30.445 136 68Z" fill="#F3EDE6"/>
<path d="M47.7288 59.1002L47.6075 59.1548C46.8622 60.8268 46.7634 62.6322 46.4208 64.4722C46.3408 65.1642 46.2928 65.9162 46.2715 66.6788C46.3195 67.4428 46.3888 68.2175 46.4581 68.9601C46.8595 71.7268 47.6781 74.4455 48.9581 76.9095C50.0115 78.8922 51.3301 80.7375 52.9181 82.3215C54.5181 83.8935 56.3274 85.2361 58.2848 86.3308C60.4301 87.4881 62.7888 88.1961 65.1581 88.6535C68.0155 89.1935 70.9368 88.9815 73.7661 88.4241C75.7488 88.0428 77.6075 87.2042 79.3795 86.2762C82.0888 84.8028 84.5221 82.7761 86.3261 80.2801C86.5914 79.8788 86.8648 79.4641 87.1368 79.0535C87.3835 78.6281 87.6288 78.2068 87.9382 77.8402C88.5968 77.1095 88.9168 76.1868 89.3314 75.3135C89.7288 74.1521 90.2048 73.0455 90.5568 71.9148C90.8154 71.2601 90.9328 70.5775 91.0488 69.8935C91.1861 69.2108 91.2275 68.5148 91.2248 67.8082C91.2355 67.1375 91.1208 66.8908 90.9355 66.7375C90.5541 66.4268 90.1248 67.1681 89.9995 68.3241C89.9715 68.7455 89.9062 69.1748 89.7462 69.5228C89.6808 69.1615 89.7808 68.7175 89.7421 68.3055C89.7101 67.6708 89.6421 67.0281 89.3541 66.9535C89.0954 66.8881 88.8608 67.2441 88.6661 67.7148C88.5341 68.0228 88.5448 68.4028 88.5128 68.7601C88.4208 69.3561 88.3275 69.9375 88.0968 70.4228C87.9408 70.7561 87.8288 71.1762 87.7514 71.5682C87.6261 72.2588 87.4061 72.9242 87.1581 73.5788C86.9515 74.2508 86.6128 74.8695 86.2995 75.4975C84.8941 78.2348 82.9448 80.7428 80.3995 82.5548C78.9221 83.5948 77.3448 84.5895 75.6314 85.1655C74.7181 85.5388 73.7555 85.7348 72.8141 86.0028C71.8475 86.1522 70.8915 86.3775 69.9048 86.3961C68.9928 86.4975 68.0662 86.3708 67.1768 86.4948C65.4702 86.0175 63.6248 85.9801 61.9555 85.2201C59.7208 84.2615 57.3995 83.2215 55.5728 81.3988C54.3048 80.1788 53.0061 78.8015 52.0448 77.2308C51.1275 75.8268 50.4768 74.2815 49.8861 72.7175C49.3941 71.1228 48.9901 69.4735 48.9608 67.7801C48.8421 64.7068 49.3035 61.5641 50.6061 58.7535C51.9715 55.8588 53.9501 53.2242 56.4821 51.2682C60.9288 47.8015 66.8314 46.3615 72.3208 47.4241C74.0728 47.7748 75.8035 48.2975 77.3941 49.1228C78.2181 49.4775 78.9514 49.9988 79.7181 50.4561C80.4194 51.0081 81.1768 51.4935 81.8008 52.1375C83.8408 54.0202 85.5608 56.2775 86.7102 58.8201C87.3515 60.3081 87.8821 61.8548 88.1448 63.4641C88.2821 64.2295 88.4502 64.9175 88.8435 64.9241C89.0022 64.9241 89.0168 65.1761 89.0675 65.4521C89.2928 66.6415 89.5128 66.9335 89.9795 66.4295C90.2022 66.1868 90.4155 66.0815 90.6674 66.0641C91.2101 66.0361 91.4781 65.3802 91.2555 63.9082C90.9208 61.5268 90.1755 59.2028 89.1141 57.0668C87.8075 54.4921 86.0728 52.1802 84.0035 50.1775C82.5888 48.7562 80.8661 47.6295 79.0941 46.7375C77.7501 46.0815 76.3688 45.4735 74.9061 45.1175C74.4355 45.0081 73.9382 44.8948 73.4408 44.7801C72.9368 44.6921 72.4328 44.6028 71.9528 44.4562L71.9648 44.4482C71.7328 44.5002 71.5155 44.4362 71.2995 44.3482L71.3115 44.3575C70.8461 44.1668 70.5208 44.4481 70.0195 44.3388C68.8928 44.0668 67.6714 44.2468 66.4874 44.3122C65.3794 44.4788 64.1595 44.3321 63.1635 44.9828C63.0821 45.0321 62.7848 45.0295 62.5915 45.0762C61.1728 45.4682 59.6048 45.7375 58.4742 46.7788C58.3608 46.8682 58.0195 46.9828 57.7995 47.1002C57.3915 47.2962 56.9781 47.4708 56.5755 47.7402L56.5594 47.9161C56.2914 47.9775 56.5288 47.8215 56.6061 47.7348C56.3408 47.7922 56.0955 47.9322 55.8448 48.1642C54.7008 49.1388 53.5328 50.0948 52.4781 51.1855C52.1408 51.5415 51.7661 51.8202 51.4621 52.2668C51.0154 53.1122 50.5288 53.8722 49.8021 54.6348C49.5261 54.9108 49.2822 55.5122 49.1715 55.9402L49.1874 55.9122C48.9874 56.2935 48.8208 56.7135 48.5462 56.8948L48.5661 56.8748C48.2808 57.5135 47.8128 58.0895 47.7448 58.8175C47.7648 58.8881 47.8154 58.9388 47.7288 59.1002Z" fill="#1A1818"/>
<path d="M53.5449 61.1815L53.4796 61.2295C52.9676 62.4455 52.8396 63.7402 52.6182 65.0775C52.5702 65.5802 52.5382 66.1228 52.5195 66.6762C52.5595 67.2255 52.5996 67.7868 52.6369 68.3282C52.9009 70.3362 53.4942 72.3108 54.4209 74.0988C55.1849 75.5375 56.1355 76.8802 57.2862 78.0348C58.4462 79.1775 59.7582 80.1575 61.1796 80.9521C62.7382 81.7895 64.4489 82.3202 66.1729 82.6415C68.2476 83.0175 70.3729 82.8988 72.4275 82.4762C73.8649 82.1882 75.2222 81.6002 76.5129 80.9295C78.4889 79.8642 80.2502 78.3815 81.5849 76.5828C81.7836 76.2948 81.9902 75.9948 82.1929 75.7015C82.3769 75.3935 82.5582 75.0868 82.7662 74.8095C83.2182 74.2602 83.4529 73.5922 83.7622 72.9602C84.0596 72.1188 84.3942 71.3068 84.6236 70.4788C84.7969 70.0015 84.8742 69.5042 84.9555 69.0068C85.0542 68.5108 85.0849 68.0082 85.0902 67.4948C85.1036 67.0082 85.0515 66.8295 84.9635 66.7188C84.7862 66.4908 84.5702 67.0335 84.4956 67.8935C84.4809 68.2042 84.4316 68.5215 84.3396 68.7841C84.3222 68.5188 84.3902 68.1895 84.3715 67.8841C84.3649 67.4135 84.3409 66.9361 84.2036 66.8815C84.0809 66.8335 83.9636 67.1015 83.8622 67.4602C83.7942 67.6962 83.7969 67.9828 83.7729 68.2548C83.7036 68.7068 83.6342 69.1468 83.5022 69.5242C83.4115 69.7842 83.3209 70.1042 83.2569 70.4015C83.1556 70.9255 82.9849 71.4308 82.7929 71.9295C82.6342 72.4415 82.3796 72.9122 82.1436 73.3922C81.0836 75.4882 79.5582 77.3602 77.6329 78.7455C76.5142 79.5428 75.3009 80.2708 74.0049 80.7122C72.6022 81.2308 71.1422 81.5562 69.6542 81.6282C68.9622 81.7002 68.2582 81.6202 67.5889 81.6655C66.2862 81.3882 64.8982 81.2775 63.6289 80.7268C61.9182 80.0282 60.2035 79.1695 58.8022 77.8202C57.8249 76.9135 56.8662 75.8442 56.1355 74.6628C54.8062 72.5162 53.9156 70.0682 53.8236 67.5082C53.7209 65.1855 54.0835 62.8122 55.0529 60.6788C56.0675 58.4802 57.5649 56.4828 59.4729 54.9882C62.8289 52.3348 67.3155 51.2241 71.4969 52.0148C72.8329 52.2748 74.1516 52.6722 75.3649 53.2962C76.5969 53.8815 77.7329 54.6615 78.7329 55.5841C80.2982 57.0095 81.6009 58.7428 82.4715 60.6841C82.9582 61.8188 83.3542 63.0028 83.5475 64.2282C83.6489 64.8122 83.7555 65.3375 83.9382 65.3521C84.0142 65.3561 84.0249 65.5455 84.0542 65.7535C84.1782 66.6508 84.2875 66.8642 84.5049 66.4908C84.6089 66.3122 84.7089 66.2362 84.8289 66.2255C85.0836 66.2068 85.2209 65.7348 85.0729 64.6695C84.8529 62.9415 84.3102 61.2575 83.5555 59.7028C82.6249 57.8268 81.3662 56.1415 79.8502 54.7015C78.8169 53.6788 77.5689 52.8615 76.2876 52.2068C75.3142 51.7242 74.3089 51.2948 73.2502 51.0268C72.9089 50.9455 72.5489 50.8588 72.1876 50.7735C71.8236 50.7082 71.4542 50.6495 71.1049 50.5602L71.1156 50.5562C70.9489 50.5722 70.7902 50.5348 70.6316 50.4828L70.6409 50.4882C70.3009 50.3842 70.0689 50.5202 69.7036 50.4602C68.8849 50.3028 68.0009 50.4175 67.1423 50.4642C66.3369 50.5868 65.4716 50.5495 64.7316 50.9415C64.6702 50.9708 64.4582 50.9868 64.3195 51.0215C63.2889 51.3108 62.1942 51.5802 61.3316 52.2455C61.2449 52.3002 61.0049 52.3962 60.8462 52.4868C60.5569 52.6388 60.2662 52.7788 59.9729 52.9695L59.9423 53.0682C59.7596 53.1295 59.9329 53.0188 59.9929 52.9628C59.8102 53.0215 59.6369 53.1255 59.4529 53.2882C58.6075 53.9682 57.7622 54.6668 57.0049 55.4602C56.7622 55.7202 56.5076 55.9361 56.2742 56.2481C55.9276 56.8388 55.5409 57.3708 55.0662 57.9575C54.8862 58.1695 54.6876 58.5908 54.5796 58.8855L54.5929 58.8668C54.4476 59.1428 54.3222 59.4455 54.1596 59.5935L54.1729 59.5788C53.9556 60.0375 53.6623 60.4721 53.5756 60.9841L53.5449 61.1815Z" fill="#1A1818"/>
<path d="M70.4111 31.4482L70.4564 31.4361C70.5271 31.1508 70.4231 30.8641 70.4951 30.5681C70.5485 30.3481 70.5298 30.0922 70.5124 29.8535C70.4804 29.4068 70.4991 28.9575 70.5178 28.5148C70.5484 27.7962 70.5444 27.0761 70.5857 26.3575C70.6084 25.9681 70.5911 25.5748 70.6351 25.1881C70.6871 24.7241 70.6405 24.2588 70.6978 23.7961C70.7378 23.4748 70.7071 23.1495 70.7137 22.8255C70.7244 22.3282 70.7698 21.8321 70.7391 21.3321C70.7311 21.1748 70.6711 21.0081 70.7445 20.8575C70.8205 20.7055 70.8164 20.5508 70.8098 20.3935C70.7991 20.1948 70.8378 20.0015 70.8964 19.8135C70.9658 19.5935 70.9778 19.3748 70.9658 19.1482L70.8098 18.9694C70.6218 18.9094 70.4297 19.0228 70.3884 19.2188L70.3204 19.4228L70.2645 19.2135C70.2391 19.1041 70.1964 18.9908 70.0577 18.9721C69.9324 18.9561 69.8271 19.0135 69.7391 19.0961L69.6857 19.2855L69.5937 19.5922L69.5524 19.8095C69.5617 20.0682 69.5538 20.3241 69.5285 20.5801C69.4738 21.1455 69.5444 21.7135 69.4937 22.2801C69.4631 22.6095 69.5005 22.9481 69.4778 23.2748C69.4525 23.6321 69.4618 23.9868 69.4591 24.3441C69.4578 24.5095 69.4258 24.6775 69.4991 24.8388C69.3391 25.1495 69.4631 25.4842 69.4058 25.8095C69.3285 26.2508 69.4524 26.7055 69.3658 27.1628C69.3071 27.4775 69.3551 27.8202 69.3285 28.1508C69.2765 28.7522 69.3311 29.3561 69.2804 29.9601C69.2311 30.5121 69.2298 31.0682 69.1725 31.6228C69.1125 32.1988 69.0791 32.7775 69.0231 33.3548C68.9244 34.3721 68.8591 35.3908 68.7778 36.4108C68.7258 37.0655 68.7005 37.7228 68.6391 38.3788C68.5911 38.8882 68.5924 39.4028 68.5764 39.9161C68.5671 40.2148 68.5658 40.5135 68.5645 40.8122C68.5645 40.9548 68.5924 41.0841 68.7898 41.1015L68.8818 41.2015C68.9511 41.4188 69.0471 41.4708 69.2857 41.3961L69.6244 41.3535C69.8964 41.3628 70.0125 41.2681 69.9978 41.0308C69.9725 40.6468 69.9937 40.2642 69.9831 39.8815C69.9684 39.4175 69.9818 38.9588 70.0391 38.5001C70.0791 38.1814 70.0911 37.8575 70.0884 37.5388C70.0871 37.2975 70.1231 37.0601 70.1164 36.8188C70.1111 36.6628 70.0871 36.4908 70.1631 36.3361L70.1671 36.3375L70.1725 36.2308L70.1684 36.2321L70.1484 36.0241C70.2364 35.8468 70.2124 35.6508 70.2231 35.4615C70.2311 35.2815 70.3818 35.1055 70.2298 34.9202L70.2591 34.8295C70.2804 34.5935 70.4551 34.3602 70.2711 34.1175L70.2964 33.9988L70.3497 33.7815L70.2844 33.7615L70.3445 33.7868L70.3857 33.6495C70.3364 33.4095 70.3604 33.1695 70.3844 32.9295L70.4071 32.6948C70.3524 32.5442 70.2871 32.3935 70.4164 32.2348L70.3618 32.0015V32.0068L70.4404 31.8241L70.4351 31.8282L70.4484 31.4935L70.4111 31.4482Z" fill="#1A1818"/>
<path d="M66.5017 113.371L66.547 113.361C66.615 113.143 66.507 112.92 66.5737 112.693C66.6244 112.524 66.6057 112.325 66.5844 112.141C66.5484 111.796 66.5617 111.451 66.5751 111.109C66.5977 110.555 66.5857 109.999 66.619 109.445C66.6377 109.145 66.6177 108.841 66.6564 108.543C66.7044 108.187 66.6524 107.827 66.7044 107.471C66.7404 107.223 66.7057 106.971 66.7084 106.721C66.7137 106.337 66.7537 105.955 66.719 105.569C66.707 105.448 66.6457 105.317 66.719 105.203C66.791 105.087 66.7871 104.967 66.7791 104.845C66.7671 104.692 66.8004 104.543 66.8577 104.4C66.9257 104.231 66.9351 104.063 66.9204 103.887L66.763 103.748C66.575 103.699 66.383 103.784 66.343 103.935L66.2791 104.092L66.2204 103.929C66.1937 103.844 66.1497 103.757 66.0097 103.741C65.887 103.727 65.7804 103.771 65.6951 103.833L65.643 103.979L65.555 104.215L65.5137 104.381C65.527 104.58 65.5217 104.779 65.5004 104.976C65.4511 105.412 65.527 105.851 65.483 106.287C65.4564 106.541 65.4977 106.803 65.4777 107.055C65.4564 107.331 65.4697 107.604 65.471 107.879C65.4724 108.007 65.4431 108.136 65.5151 108.261C65.3604 108.5 65.4897 108.759 65.435 109.009C65.3617 109.349 65.4897 109.701 65.4097 110.053C65.3537 110.296 65.4057 110.56 65.3817 110.815C65.3377 111.279 65.3977 111.745 65.3524 112.211C65.3124 112.636 65.3164 113.065 65.2644 113.492C65.2097 113.936 65.1844 114.381 65.1337 114.827C65.0471 115.611 64.9924 116.397 64.9217 117.181C64.8764 117.687 64.859 118.193 64.8044 118.699C64.763 119.092 64.7697 119.488 64.7591 119.884C64.7537 120.115 64.7564 120.344 64.7577 120.575C64.7577 120.685 64.7871 120.787 64.9871 120.801L65.0777 120.88C65.1497 121.048 65.2457 121.089 65.4844 121.035L65.8231 121.005C66.0937 121.015 66.2097 120.943 66.191 120.759C66.163 120.463 66.1791 120.168 66.1644 119.872C66.1457 119.515 66.1537 119.161 66.2057 118.808C66.2417 118.563 66.2497 118.312 66.2444 118.065C66.2404 117.88 66.2751 117.697 66.2644 117.511C66.2564 117.391 66.2311 117.257 66.3057 117.139L66.3097 117.141L66.3137 117.059L66.3097 117.06L66.2871 116.899C66.3751 116.763 66.347 116.612 66.355 116.465C66.363 116.327 66.5111 116.192 66.3564 116.047L66.3857 115.977C66.403 115.796 66.5764 115.619 66.3897 115.428L66.4151 115.337L66.4644 115.171L66.3977 115.153L66.4591 115.175L66.499 115.069C66.447 114.883 66.4684 114.699 66.491 114.513L66.5111 114.332C66.4537 114.215 66.3884 114.099 66.5151 113.979L66.4577 113.797L66.4564 113.801L66.5324 113.661L66.5284 113.664L66.5377 113.405L66.5017 113.371Z" fill="#1A1818"/>
<path d="M67.349 95.6001H67.3957L67.3984 95.4428L67.389 95.3121L67.3424 95.0668C67.3437 94.9374 67.3117 94.8054 67.325 94.6761L67.329 94.4628L67.3383 94.2108L67.3157 94.0334L67.2837 93.7601L67.269 93.6748L67.3157 93.5921L67.3797 93.4894L67.4237 93.3694L67.261 93.3308C67.0717 93.3134 66.8837 93.3254 66.849 93.3601L66.789 93.3948L66.7264 93.3548C66.6957 93.3334 66.649 93.3121 66.509 93.3028C66.385 93.2948 66.281 93.3014 66.1984 93.3134L66.1517 93.3454L66.0717 93.3974L66.0383 93.4361L66.0451 93.5761L66.0757 93.8854L66.0984 94.0668L66.1223 94.2628L66.1797 94.3548C66.033 94.4054 66.1717 94.4721 66.1264 94.5294L66.1397 94.7748V94.9534L66.1624 95.2841L66.1197 95.5841L66.0383 95.8961C65.9797 96.0774 65.9544 96.2614 65.9117 96.4454L65.8503 96.8001L65.8477 97.0788L65.8717 97.2428C65.8757 97.2694 65.909 97.2934 66.109 97.3041L66.2037 97.3268C66.281 97.3694 66.3783 97.3828 66.6143 97.3774L66.9517 97.3828C67.2224 97.3961 67.3357 97.3828 67.3104 97.3388L67.2503 97.1281L67.253 96.8774L67.265 96.7028L67.2637 96.5721L67.2917 96.4854H67.2957L67.297 96.4668H67.293L67.265 96.4281L67.3184 96.3281C67.321 96.2948 67.4623 96.2681 67.3023 96.2294L67.329 96.2134C67.341 96.1708 67.5077 96.1348 67.3143 96.0841L67.3357 96.0628L67.3797 96.0254L67.313 96.0188L67.3743 96.0254L67.409 96.0028L67.381 95.8708L67.3957 95.8281C67.3344 95.7988 67.2637 95.7681 67.3863 95.7441L67.3223 95.7001V95.7014L67.393 95.6708H67.3877V95.6108L67.349 95.6001Z" fill="#1A1818"/>
<path d="M106.279 69.8802L106.293 69.9255C106.645 70.0002 106.999 69.8975 107.364 69.9735C107.635 70.0282 107.952 70.0135 108.245 70.0002C108.796 69.9722 109.349 69.9948 109.897 70.0188C110.784 70.0575 111.672 70.0615 112.557 70.1109C113.037 70.1389 113.521 70.1255 114 70.1735C114.572 70.2309 115.145 70.1895 115.717 70.2522C116.115 70.2948 116.515 70.2682 116.913 70.2789C117.528 70.2935 118.14 70.3455 118.756 70.3202C118.951 70.3135 119.156 70.2549 119.343 70.3309C119.531 70.4082 119.721 70.4069 119.915 70.4015C120.16 70.3949 120.399 70.4335 120.629 70.4948C120.901 70.5668 121.172 70.5815 121.452 70.5709C121.584 70.5669 121.635 70.5082 121.671 70.4175C121.743 70.2308 121.601 70.0362 121.357 69.9922L121.107 69.9228L121.364 69.8695C121.499 69.8442 121.636 69.8029 121.659 69.6642C121.677 69.5402 121.605 69.4335 121.501 69.3455L121.268 69.2895C121.133 69.2842 121.003 69.2748 120.889 69.1948L120.62 69.1495C120.303 69.1562 119.987 69.1455 119.671 69.1175C118.972 69.0562 118.272 69.1202 117.572 69.0642C117.167 69.0309 116.749 69.0629 116.345 69.0362C115.904 69.0082 115.467 69.0122 115.028 69.0069C114.824 69.0042 114.617 68.9695 114.417 69.0402C114.033 68.8775 113.62 68.9989 113.22 68.9375C112.676 68.8549 112.117 68.9722 111.552 68.8828C111.161 68.8202 110.739 68.8642 110.333 68.8322C109.589 68.7749 108.845 68.8229 108.1 68.7642C107.419 68.7109 106.732 68.7029 106.049 68.6375C105.339 68.5709 104.624 68.5335 103.912 68.4709C102.657 68.3602 101.399 68.2842 100.14 68.1908C99.3319 68.1308 98.5212 68.0975 97.7132 68.0295C97.0826 67.9762 96.4492 67.9722 95.8159 67.9508C95.4479 67.9375 95.0786 67.9335 94.7106 67.9282C94.5346 67.9255 94.3745 67.9535 94.3559 68.1508L94.2319 68.2415C93.9666 68.3069 93.9039 68.4029 93.9986 68.6429C94.0426 68.7589 94.0586 68.8628 94.0546 68.9828C94.0452 69.2535 94.1652 69.3722 94.4559 69.3602C94.9305 69.3388 95.4026 69.3642 95.8746 69.3575C96.4452 69.3482 97.0106 69.3669 97.5786 69.4295C97.9719 69.4735 98.3719 69.4882 98.7653 69.4895C99.0613 69.4908 99.3546 69.5308 99.6519 69.5242C99.8439 69.5202 100.057 69.4989 100.248 69.5775L100.245 69.5815L100.379 69.5882L100.376 69.5842L100.632 69.5655C100.852 69.6575 101.092 69.6335 101.327 69.6468C101.549 69.6588 101.768 69.8095 101.996 69.6588L102.108 69.6895C102.399 69.7135 102.687 69.8922 102.985 69.7095L103.131 69.7375L103.399 69.7922L103.424 69.7268L103.395 69.7868L103.564 69.8295C103.859 69.7829 104.155 69.8095 104.452 69.8375L104.74 69.8629C104.927 69.8095 105.112 69.7469 105.308 69.8762L105.595 69.8242H105.588L105.815 69.9042L105.809 69.8989C105.948 69.8882 106.081 69.9882 106.224 69.9162L106.279 69.8802Z" fill="#1A1818"/>
<path d="M15.7108 65.5575V65.6015L15.8348 65.6041L15.9362 65.5921L16.1282 65.5428L16.4362 65.5228L16.6028 65.5241L16.8002 65.5308L16.9388 65.5068L17.1535 65.4708L17.2215 65.4561L17.2855 65.5028L17.3642 65.5641L17.4575 65.6081L17.4895 65.4455C17.5068 65.2561 17.4975 65.0668 17.4708 65.0335L17.4455 64.9748L17.4775 64.9108C17.4935 64.8801 17.5108 64.8335 17.5202 64.6935C17.5268 64.5681 17.5228 64.4641 17.5148 64.3814L17.4908 64.3361L17.4508 64.2575L17.4202 64.2241L17.3108 64.2308L17.0668 64.2655L16.9242 64.2908L16.7722 64.3161L16.6988 64.3748C16.6615 64.2295 16.6082 64.3681 16.5642 64.3228L16.3695 64.3388L16.2308 64.3415L15.9708 64.3668L15.7362 64.3268L15.4935 64.2494C15.3508 64.1921 15.2068 64.1695 15.0642 64.1295L14.7868 64.0708L14.5668 64.0721L14.4402 64.0961C14.4188 64.1015 14.3988 64.1348 14.3895 64.3335L14.3708 64.4281C14.3362 64.5068 14.3255 64.6041 14.3255 64.8401C14.3268 64.9535 14.3242 65.0575 14.3175 65.1775C14.3055 65.4481 14.3148 65.5601 14.3482 65.5361L14.5148 65.4735H14.7122L14.8468 65.4841L14.9508 65.4814L15.0175 65.5081V65.5134H15.0322V65.5095L15.0642 65.4801L15.1415 65.5321C15.1668 65.5348 15.1855 65.6761 15.2188 65.5161L15.2308 65.5428C15.2642 65.5535 15.2895 65.7201 15.3335 65.5255L15.3482 65.5468L15.3775 65.5908L15.3842 65.5241L15.3775 65.5868L15.3962 65.6201L15.4988 65.5908L15.5322 65.6041C15.5562 65.5428 15.5802 65.4721 15.5975 65.5948L15.6335 65.5308H15.6322L15.6562 65.6001L15.6548 65.5948H15.7028L15.7108 65.5575Z" fill="#1A1818"/>
<path d="M30.9792 66.2853L30.9899 66.3307C31.2419 66.4 31.4979 66.2947 31.7593 66.364C31.9539 66.416 32.1806 66.3974 32.3939 66.3787C32.7899 66.344 33.1872 66.36 33.5806 66.376C34.2179 66.4027 34.8566 66.3947 35.4939 66.432C35.8393 66.4533 36.1872 66.4333 36.5312 66.476C36.9419 66.5253 37.3552 66.4773 37.7659 66.532C38.0512 66.5693 38.3393 66.536 38.6259 66.5413C39.0673 66.548 39.5086 66.592 39.9513 66.5587C40.0899 66.5493 40.2392 66.488 40.3726 66.5613C40.5072 66.636 40.6432 66.632 40.7846 66.624C40.9592 66.6133 41.1313 66.6493 41.2966 66.7067C41.4913 66.776 41.6846 66.7867 41.8873 66.7733L42.0459 66.6173C42.1006 66.4293 42.0019 66.236 41.8273 66.196L41.6472 66.1293L41.8339 66.0733C41.9299 66.0467 42.0299 66.004 42.0486 65.864C42.0646 65.74 42.0112 65.6333 41.9392 65.548L41.7726 65.4947L41.5006 65.4053L41.3072 65.364C41.0792 65.3747 40.8513 65.368 40.6233 65.344C40.1233 65.292 39.6192 65.3667 39.1166 65.3187C38.8246 65.2907 38.5246 65.3293 38.2339 65.308C37.9166 65.2853 37.6019 65.296 37.2873 65.2947C37.1393 65.2947 36.9912 65.264 36.8459 65.3373C36.5712 65.1787 36.2739 65.3067 35.9859 65.2507C35.5953 65.1747 35.1913 65.3 34.7873 65.2173C34.5073 65.1613 34.2032 65.2107 33.9099 65.184C33.3766 65.136 32.8419 65.1947 32.3046 65.1467C31.8152 65.1013 31.3219 65.1027 30.8312 65.0467C30.3206 64.9907 29.8073 64.9613 29.2953 64.908C28.3939 64.8147 27.4886 64.756 26.5859 64.6787C26.0046 64.6294 25.4219 64.608 24.8419 64.5507C24.3886 64.5067 23.9326 64.5093 23.4779 64.4973C23.2126 64.4893 22.9486 64.4893 22.6819 64.4893C22.5566 64.4893 22.4406 64.5187 22.4246 64.7173L22.3352 64.8093C22.1419 64.8787 22.0953 64.9747 22.1606 65.2133L22.1953 65.5533C22.1859 65.824 22.2712 65.94 22.4806 65.924C22.8219 65.8973 23.1619 65.916 23.5019 65.9027C23.9112 65.8867 24.3179 65.8973 24.7259 65.952C25.0086 65.9893 25.2952 66 25.5779 65.996C25.7912 65.9933 26.0032 66.0293 26.2166 66.0187C26.3539 66.012 26.5086 65.988 26.6446 66.064L26.6432 66.068L26.7379 66.072L26.7352 66.068L26.9206 66.0467C27.0779 66.136 27.2513 66.1093 27.4193 66.1187C27.5793 66.1267 27.7339 66.276 27.8992 66.1213L27.9806 66.1507C28.1899 66.1707 28.3952 66.3453 28.6126 66.16L28.7179 66.1853L28.9086 66.236L28.9286 66.1707L28.9046 66.232L29.0259 66.272C29.2393 66.2213 29.4526 66.244 29.6659 66.2667L29.8739 66.2893C30.0086 66.2333 30.1406 66.168 30.2819 66.2947L30.4886 66.2387H30.4832L30.6446 66.316L30.6419 66.3107L30.9392 66.3227L30.9792 66.2853Z" fill="#1A1818"/>
<path d="M96.2458 41.5547L96.2898 41.5746C96.5871 41.3733 96.7592 41.0493 97.0658 40.8373C97.2938 40.68 97.5045 40.4427 97.6978 40.22C98.0605 39.8054 98.4591 39.4227 98.8565 39.0453C99.5005 38.4333 100.119 37.7973 100.77 37.1933C101.122 36.8667 101.45 36.508 101.815 36.1987C102.254 35.8267 102.622 35.384 103.064 35.016C103.37 34.76 103.629 34.4533 103.913 34.172C104.35 33.74 104.812 33.336 105.222 32.8746C105.35 32.7293 105.452 32.5413 105.635 32.46C105.822 32.3773 105.954 32.24 106.083 32.096C106.247 31.916 106.442 31.7706 106.646 31.6466C106.887 31.5013 107.084 31.316 107.272 31.108L107.314 30.844C107.23 30.6626 106.991 30.6293 106.79 30.7733L106.566 30.9067L106.706 30.684L106.763 30.3293C106.686 30.2293 106.559 30.208 106.424 30.2213L106.223 30.3507C106.123 30.444 106.027 30.532 105.891 30.5573L105.672 30.72C105.455 30.9534 105.228 31.1733 104.988 31.3813C104.46 31.8413 104.02 32.3907 103.495 32.8547C103.188 33.124 102.923 33.4467 102.624 33.7187C102.296 34.016 101.998 34.336 101.688 34.6466C101.544 34.792 101.376 34.9186 101.288 35.1106C100.904 35.2746 100.707 35.656 100.384 35.9013C99.9458 36.236 99.6431 36.7213 99.1858 37.0653C98.8711 37.3027 98.6112 37.6373 98.3045 37.908C97.7485 38.4026 97.2672 38.972 96.7072 39.468C96.1952 39.9227 95.7138 40.4093 95.1925 40.8573C94.6511 41.3227 94.1285 41.8106 93.5898 42.28C92.6378 43.108 91.7098 43.9613 90.7712 44.8027C90.1672 45.3427 89.5805 45.904 88.9698 46.4387C88.4951 46.8547 88.0525 47.3093 87.5978 47.7493C87.3338 48.0053 87.0738 48.268 86.8151 48.5293C86.6898 48.656 86.5992 48.7893 86.7298 48.94L86.7085 49.0907C86.5711 49.328 86.5965 49.44 86.8352 49.5387L87.1191 49.7347C87.3071 49.928 87.4751 49.924 87.6698 49.7053C87.9831 49.3507 88.3284 49.028 88.6511 48.6826C89.0404 48.2666 89.4471 47.872 89.8858 47.5067C90.1898 47.2533 90.4778 46.976 90.7511 46.6947C90.9578 46.4813 91.1898 46.2973 91.3938 46.0787C91.5232 45.9387 91.6552 45.7707 91.8432 45.6867L91.8445 45.6907L91.9418 45.6L91.9378 45.5987L92.1018 45.4013C92.3205 45.308 92.4711 45.1173 92.6418 44.9587C92.8045 44.8053 93.0658 44.7533 93.1151 44.4853L93.2151 44.4267C93.4338 44.232 93.7631 44.148 93.8391 43.808L93.9605 43.7213L94.1858 43.5666L94.1552 43.5026L94.1778 43.568L94.3258 43.4746C94.4978 43.2293 94.7231 43.0347 94.9484 42.84L95.1671 42.6493C95.2578 42.4786 95.3405 42.3027 95.5698 42.2507L95.7325 42.008L95.7285 42.012L95.9418 41.9053H95.9352C96.0232 41.7986 96.1871 41.7707 96.2338 41.62L96.2458 41.5547Z" fill="#1A1818"/>
<path d="M35.1897 99.1522L35.231 99.1775C35.439 99.0588 35.5243 98.8148 35.7403 98.6895C35.9003 98.5975 36.0323 98.4335 36.1537 98.2788C36.379 97.9922 36.643 97.7388 36.903 97.4895C37.327 97.0868 37.7257 96.6562 38.1563 96.2602C38.3897 96.0455 38.5977 95.8015 38.8443 95.6028C39.1403 95.3655 39.367 95.0562 39.667 94.8228C39.8737 94.6602 40.0337 94.4455 40.219 94.2588C40.5043 93.9708 40.8137 93.7095 41.071 93.3922C41.1523 93.2922 41.203 93.1521 41.3403 93.1148C41.4777 93.0775 41.563 92.9828 41.6443 92.8855C41.7483 92.7615 41.8843 92.6722 42.0297 92.6028C42.203 92.5215 42.3337 92.4002 42.4523 92.2588L42.4404 92.0428C42.3404 91.8762 42.139 91.8082 42.0003 91.8962L41.8377 91.9682L41.915 91.8055L41.9003 91.5175L41.6057 91.3695L41.4617 91.4428L41.2257 91.5615L41.0723 91.6602C40.9363 91.8188 40.787 91.9642 40.6257 92.0988C40.2723 92.3962 40.0057 92.7815 39.6523 93.0815C39.4483 93.2561 39.2857 93.4815 39.0857 93.6588C38.8683 93.8535 38.6763 94.0708 38.4763 94.2801C38.383 94.3761 38.267 94.4535 38.2283 94.6002C37.9417 94.6722 37.843 94.9588 37.6203 95.1108C37.319 95.3162 37.1523 95.6722 36.8377 95.8842C36.619 96.0295 36.4617 96.2655 36.2577 96.4415C35.8857 96.7615 35.587 97.1575 35.2137 97.4801C34.871 97.7735 34.559 98.1002 34.2083 98.3882C33.843 98.6868 33.499 99.0082 33.1363 99.3095C32.4977 99.8428 31.8817 100.401 31.255 100.948C30.851 101.299 30.4657 101.671 30.0577 102.015C29.7377 102.284 29.4523 102.589 29.155 102.881C28.9817 103.052 28.8137 103.23 28.6457 103.404C28.5657 103.488 28.5123 103.585 28.6457 103.733L28.655 103.857C28.5817 104.033 28.6217 104.131 28.8337 104.255L29.1003 104.468C29.287 104.663 29.4257 104.688 29.547 104.536C29.743 104.292 29.971 104.08 30.1763 103.846C30.4257 103.563 30.691 103.299 30.9897 103.067C31.195 102.907 31.3843 102.723 31.5617 102.533C31.6937 102.389 31.8523 102.275 31.9817 102.125C32.0657 102.029 32.1443 101.911 32.2857 101.872L32.287 101.876L32.3497 101.816L32.3457 101.815L32.4483 101.678C32.611 101.635 32.7017 101.503 32.815 101.397C32.923 101.297 33.127 101.297 33.1217 101.08L33.1937 101.048C33.3417 100.923 33.5963 100.908 33.6003 100.635L33.6843 100.583L33.843 100.491L33.8083 100.432L33.839 100.491L33.943 100.438C34.0417 100.26 34.1923 100.136 34.3443 100.011L34.4923 99.8882C34.5377 99.7602 34.5737 99.6255 34.755 99.6215L34.8457 99.4455L34.843 99.4495L35.0003 99.3948H34.995L35.191 99.2042L35.1897 99.1522Z" fill="#1A1818"/>
<path d="M47.1484 87.8707L47.1817 87.9014L47.3417 87.7467L47.4631 87.6094L47.6724 87.332C47.8017 87.204 47.9084 87.0494 48.0484 86.928L48.2617 86.7187L48.5177 86.4721L48.6764 86.28C48.7604 86.1827 48.8684 86.112 48.923 85.984L48.9991 85.8894L49.1164 85.8387L49.2644 85.7787L49.4137 85.6894L49.3337 85.5401C49.2124 85.3934 49.0617 85.2774 49.003 85.2894L48.9244 85.284L48.9177 85.2L48.8098 85L48.5711 84.7987H48.5057L48.395 84.7974L48.3324 84.8134L48.1977 84.9574C48.0724 85.036 48.0351 85.2067 47.9124 85.288L47.7497 85.4854L47.5737 85.6974L47.5257 85.8294C47.367 85.78 47.4017 85.94 47.3137 85.9667C47.1911 86.0027 47.2071 86.1867 47.0777 86.2214L46.9004 86.4014C46.7737 86.4907 46.7191 86.656 46.5911 86.7467C46.4737 86.828 46.387 86.9427 46.2617 87.0174C46.131 87.0947 46.0204 87.1934 45.895 87.2747C45.6697 87.4174 45.4684 87.5841 45.2551 87.7387C45.1191 87.8387 45.0017 87.9587 44.8577 88.052L44.5804 88.3307L44.4351 88.5094C44.4124 88.5387 44.4124 88.5867 44.5484 88.732L44.595 88.8187C44.6097 88.9134 44.6698 88.9934 44.8458 89.1494L45.0884 89.3854C45.2751 89.5814 45.371 89.6454 45.3977 89.584L45.5631 89.332L45.8124 89.084L45.9937 88.9174L46.1217 88.7854L46.2297 88.7187L46.2324 88.7214L46.251 88.7027L46.2484 88.7014L46.2657 88.6427L46.403 88.5774C46.439 88.5467 46.5684 88.6174 46.4924 88.4694L46.5257 88.4707C46.5764 88.4361 46.7338 88.5134 46.6431 88.3307L46.6791 88.324L46.7497 88.316L46.7071 88.264L46.7444 88.3147H46.7937L46.903 88.1627L46.9551 88.1307L47.0324 88.0401L47.0297 87.952L47.0284 87.9534L47.1111 87.9707L47.1071 87.968L47.1684 87.9067L47.1484 87.8707Z" fill="#1A1818"/>
<path d="M92.2288 94.1614L92.2048 94.2041C92.3648 94.4561 92.6475 94.5841 92.8155 94.8441C92.9395 95.0388 93.1394 95.2081 93.3274 95.3654C93.6768 95.6574 93.9941 95.9881 94.3061 96.3161C94.8115 96.8467 95.3421 97.3534 95.8408 97.8921C96.1114 98.1841 96.4101 98.4507 96.6648 98.7561C96.9675 99.1214 97.3421 99.4187 97.6421 99.7867C97.8501 100.043 98.1101 100.252 98.3421 100.485C98.7008 100.844 99.0328 101.229 99.4208 101.561C99.5421 101.665 99.7074 101.741 99.7661 101.901C99.8248 102.064 99.9408 102.171 100.062 102.277C100.213 102.411 100.33 102.575 100.426 102.749C100.538 102.955 100.69 103.119 100.865 103.271L101.105 103.285C101.279 103.193 101.33 102.973 101.214 102.804L101.113 102.612L101.303 102.72L101.623 102.74C101.723 102.663 101.754 102.545 101.753 102.424L101.653 102.252C101.575 102.171 101.503 102.091 101.491 101.968L101.361 101.784C101.166 101.608 100.983 101.42 100.811 101.221C100.435 100.781 99.9688 100.429 99.5888 99.9921C99.3674 99.7374 99.0941 99.5241 98.8701 99.2761C98.6248 99.0054 98.3581 98.7601 98.0994 98.5068C97.9781 98.3881 97.8768 98.2467 97.7088 98.1841C97.5915 97.8494 97.2594 97.7027 97.0608 97.4307C96.7901 97.0614 96.3728 96.8281 96.0955 96.4441C95.9048 96.1774 95.6195 95.9694 95.3981 95.7161C94.9928 95.2534 94.5101 94.8654 94.1035 94.4001C93.7315 93.9747 93.3248 93.5788 92.9581 93.1454C92.5781 92.6934 92.1754 92.2601 91.7914 91.8121C91.1141 91.0201 90.4101 90.2508 89.7208 89.4708C89.2768 88.9681 88.8115 88.4854 88.3728 87.9774C88.0315 87.5814 87.6541 87.2188 87.2875 86.8441C87.0755 86.6254 86.8568 86.4134 86.6395 86.2014C86.5355 86.0988 86.4195 86.0267 86.2701 86.1587L86.1328 86.1521C85.9274 86.0494 85.8221 86.0814 85.7115 86.3068L85.5074 86.5814C85.3114 86.7694 85.3008 86.9228 85.4861 87.0788C85.7848 87.3334 86.0515 87.6187 86.3395 87.8814C86.6875 88.2001 87.0155 88.5347 87.3128 88.9001C87.5181 89.1547 87.7488 89.3934 87.9834 89.6174C88.1621 89.7867 88.3101 89.9814 88.4941 90.1467C88.6114 90.2521 88.7541 90.3574 88.8155 90.5227L88.8101 90.5241L88.8861 90.6028L88.8875 90.5987L89.0541 90.7307C89.1208 90.9227 89.2834 91.0414 89.4141 91.1841C89.5394 91.3187 89.5648 91.5508 89.8074 91.5721L89.8528 91.6574C90.0114 91.8401 90.0621 92.1308 90.3675 92.1721L90.4354 92.2734L90.5595 92.4654L90.6194 92.4321L90.5595 92.4587L90.6301 92.5841C90.8421 92.7187 91.0008 92.9067 91.1595 93.0934L91.3155 93.2774C91.4648 93.3441 91.6194 93.4041 91.6474 93.6094L91.8554 93.7347L91.8515 93.7307L91.9328 93.9161V93.9094C92.0234 93.9814 92.0341 94.1281 92.1701 94.1561L92.2288 94.1614Z" fill="#1A1818"/>
<path d="M42.5272 41.4748L42.5031 41.5162C42.6218 41.7268 42.8671 41.8135 42.9951 42.0322C43.0885 42.1935 43.2538 42.3269 43.4098 42.4482C43.6992 42.6775 43.9538 42.9442 44.2072 43.2082C44.6165 43.6362 45.0498 44.0388 45.4498 44.4748C45.6672 44.7108 45.9138 44.9215 46.1151 45.1708C46.3551 45.4695 46.6671 45.7002 46.9031 46.0015C47.0671 46.2108 47.2845 46.3735 47.4725 46.5602C47.7645 46.8482 48.0285 47.1615 48.3485 47.4228C48.4498 47.5042 48.5911 47.5562 48.6285 47.6935C48.6685 47.8335 48.7618 47.9188 48.8618 48.0028C48.9871 48.1082 49.0765 48.2428 49.1472 48.3908C49.2311 48.5655 49.3525 48.6975 49.4965 48.8162L49.7125 48.8069C49.8805 48.7069 49.9472 48.5055 49.8578 48.3655L49.7845 48.2015L49.9485 48.2789L50.2365 48.2682L50.3858 47.9708L50.3098 47.8255L50.1898 47.5882L50.0898 47.4335C49.9298 47.2962 49.7832 47.1442 49.6458 46.9815C49.3458 46.6242 48.9565 46.3535 48.6538 45.9975C48.4765 45.7895 48.2485 45.6255 48.0685 45.4242C47.8738 45.2042 47.6538 45.0109 47.4432 44.8082C47.3445 44.7135 47.2658 44.5962 47.1205 44.5562C47.0445 44.2668 46.7565 44.1669 46.6031 43.9429C46.3938 43.6375 46.0352 43.4682 45.8218 43.1495C45.6738 42.9295 45.4352 42.7708 45.2578 42.5641C44.9338 42.1881 44.5338 41.8868 44.2085 41.5082C43.9111 41.1628 43.5805 40.8469 43.2885 40.4922C42.9872 40.1242 42.6631 39.7749 42.3565 39.4095C41.8178 38.7642 41.2525 38.1415 40.7005 37.5082C40.3445 37.1002 39.9698 36.7108 39.6205 36.2975C39.3485 35.9748 39.0405 35.6855 38.7445 35.3855C38.5725 35.2108 38.3952 35.0401 38.2178 34.8695C38.1325 34.7895 38.0338 34.7348 37.8858 34.8682L37.7618 34.8762C37.5845 34.8029 37.4858 34.8415 37.3632 35.0548L37.1512 35.3215C36.9552 35.5095 36.9312 35.6468 37.0832 35.7695C37.3312 35.9695 37.5445 36.2002 37.7818 36.4082C38.0672 36.6602 38.3338 36.9282 38.5671 37.2295C38.7311 37.4375 38.9165 37.6282 39.1098 37.8069C39.2538 37.9415 39.3698 38.1028 39.5205 38.2322C39.6178 38.3162 39.7365 38.3962 39.7778 38.5388L39.7725 38.5402L39.8338 38.6055L39.8351 38.6015L39.9725 38.7042C40.0165 38.8682 40.1512 38.9602 40.2578 39.0748C40.3578 39.1828 40.3591 39.3895 40.5765 39.3855L40.6111 39.4575C40.7365 39.6055 40.7538 39.8628 41.0285 39.8682L41.0805 39.9535L41.1738 40.1149L41.2325 40.0789L41.1751 40.1082L41.2285 40.2149C41.4058 40.3149 41.5325 40.4682 41.6592 40.6202L41.7832 40.7695C41.9125 40.8161 42.0472 40.8548 42.0525 41.0348L42.2298 41.1282L42.2272 41.1255L42.2818 41.2842L42.2832 41.2775L42.4738 41.4775L42.5272 41.4748Z" fill="#1A1818"/>
<path d="M80.423 31.1281L80.4724 31.1254C80.6364 30.8054 80.6311 30.4388 80.8004 30.1068C80.9257 29.8588 80.9964 29.5507 81.059 29.2627C81.1777 28.7241 81.3457 28.1974 81.5137 27.6761C81.7857 26.8308 82.0244 25.9748 82.307 25.1348C82.459 24.6774 82.575 24.2067 82.7484 23.7601C82.955 23.2227 83.067 22.6587 83.279 22.1241C83.4244 21.7534 83.5057 21.3587 83.619 20.9774C83.7963 20.3881 84.0084 19.8107 84.1484 19.2107C84.191 19.0227 84.1897 18.8081 84.3124 18.6494C84.4364 18.4881 84.4857 18.3041 84.5311 18.1148C84.5897 17.8774 84.6897 17.6561 84.8097 17.4508C84.9524 17.2068 85.0377 16.9507 85.1017 16.6774C85.1324 16.5494 85.0897 16.4841 85.0111 16.4267C84.8497 16.3081 84.6243 16.3934 84.519 16.6148L84.3857 16.8401L84.4004 16.5774C84.4137 16.4414 84.4097 16.2961 84.283 16.2387L83.9337 16.3054L83.8177 16.5161C83.7764 16.6441 83.7323 16.7681 83.6243 16.8561L83.5111 17.1041C83.4337 17.4121 83.339 17.7134 83.2297 18.0121C82.9857 18.6681 82.8617 19.3614 82.6217 20.0201C82.483 20.4041 82.4044 20.8134 82.2724 21.1961C82.1271 21.6134 82.0164 22.0374 81.8951 22.4588C81.8377 22.6561 81.7497 22.8468 81.7657 23.0561C81.507 23.3841 81.515 23.8134 81.3497 24.1841C81.1257 24.6881 81.091 25.2574 80.855 25.7788C80.6923 26.1388 80.623 26.5574 80.4857 26.9414C80.2323 27.6414 80.083 28.3721 79.8297 29.0761C79.5977 29.7201 79.407 30.3787 79.1657 31.0214C78.9124 31.6894 78.6871 32.3681 78.4391 33.0387C78.0004 34.2201 77.5937 35.4121 77.1724 36.6014C76.8991 37.3654 76.6551 38.1387 76.3751 38.9C76.1564 39.4934 75.9844 40.1041 75.7964 40.7081C75.687 41.0601 75.5857 41.4147 75.483 41.7681C75.435 41.9374 75.4177 42.0987 75.6057 42.1694L75.659 42.3121C75.6524 42.5868 75.7284 42.6721 75.9844 42.6441C76.107 42.6321 76.2124 42.6454 76.3284 42.6801C76.5857 42.7601 76.731 42.6774 76.7964 42.3907C76.9017 41.9294 77.0511 41.4801 77.1697 41.0241C77.3124 40.4707 77.479 39.9294 77.6883 39.4C77.8363 39.032 77.9551 38.6494 78.0617 38.2721C78.1404 37.9867 78.2564 37.7134 78.3297 37.4241C78.3764 37.2387 78.411 37.0281 78.5377 36.8627L78.5417 36.8681L78.5817 36.7414L78.5777 36.7428L78.627 36.4907C78.775 36.3027 78.815 36.0654 78.8897 35.8414C78.959 35.6307 79.1644 35.4601 79.0777 35.2014L79.1377 35.1014C79.2364 34.8254 79.4857 34.5947 79.3897 34.2601L79.4537 34.1254L79.5777 33.8814L79.5204 33.8401L79.571 33.8854L79.6577 33.7347C79.6897 33.4361 79.7937 33.1574 79.899 32.8788L80.0017 32.6068C79.999 32.4121 79.9857 32.2187 80.1644 32.0627L80.1897 31.7734L80.187 31.7788L80.3243 31.5827L80.319 31.5854C80.3443 31.4494 80.4764 31.3454 80.4444 31.1907L80.423 31.1281Z" fill="#1A1818"/>
<path d="M53.1769 114.68L53.2235 114.689L53.3315 114.341L53.4089 114.051C53.4169 113.857 53.4715 113.676 53.5275 113.499C53.6182 113.211 53.6755 112.912 53.7755 112.627C53.8302 112.472 53.8462 112.305 53.9222 112.157C54.0115 111.981 54.0062 111.775 54.0996 111.6C54.1649 111.48 54.1635 111.336 54.1969 111.204C54.2489 111.001 54.3355 110.809 54.3475 110.593L54.3928 110.399L54.4942 110.225L54.6262 110.012L54.7488 109.757L54.6169 109.637C54.4422 109.559 54.2475 109.549 54.1902 109.619L54.1089 109.683L54.0729 109.58C54.0595 109.527 54.0262 109.468 53.8969 109.42L53.5822 109.379L53.5142 109.441L53.4009 109.541L53.3422 109.619L53.2542 109.931C53.1542 110.148 53.1742 110.404 53.0769 110.623C53.0209 110.752 53.0262 110.901 52.9769 111.031C52.9222 111.171 52.9009 111.32 52.8689 111.467L52.8649 111.683C52.6862 111.765 52.7782 111.94 52.6942 112.057C52.5822 112.217 52.6622 112.441 52.5422 112.605C52.4582 112.719 52.4755 112.873 52.4208 113.003C52.3208 113.236 52.3222 113.501 52.2222 113.736C52.1302 113.952 52.0795 114.18 51.9782 114.393C51.8715 114.613 51.7915 114.843 51.6889 115.065C51.5102 115.457 51.3595 115.86 51.1955 116.257C51.0902 116.513 51.0102 116.777 50.8969 117.031C50.8075 117.228 50.7662 117.441 50.7076 117.648C50.6742 117.769 50.6462 117.892 50.6208 118.015C50.6075 118.075 50.6222 118.136 50.8115 118.201L50.8902 118.269C50.9368 118.379 51.0235 118.428 51.2595 118.467L51.5875 118.548C51.8448 118.631 51.9649 118.624 51.9702 118.523C51.9795 118.356 52.0315 118.204 52.0542 118.043C52.0795 117.847 52.1302 117.661 52.2262 117.488C52.2902 117.368 52.3289 117.237 52.3529 117.105L52.4409 116.815L52.5262 116.629L52.5302 116.631L52.5449 116.589L52.5409 116.588L52.5382 116.496L52.6582 116.285C52.6822 116.213 52.8409 116.184 52.7102 116.064L52.7449 116.035C52.7862 115.943 52.9728 115.897 52.8182 115.744L52.8529 115.703L52.9208 115.628L52.8595 115.6L52.9155 115.628L52.9662 115.584L53.0262 115.285L53.0689 115.195C53.0289 115.117 52.9795 115.036 53.1169 115.008L53.0835 114.896V114.897L53.1729 114.844H53.1689L53.2089 114.709L53.1769 114.68Z" fill="#1A1818"/>
<path d="M57.9064 100.176L57.953 100.181C58.065 100.017 58.0117 99.8027 58.1277 99.6307C58.2143 99.504 58.2383 99.3321 58.261 99.1734C58.301 98.8747 58.3916 98.5894 58.481 98.3081C58.625 97.8507 58.737 97.384 58.8943 96.9307C58.977 96.684 59.0237 96.4254 59.129 96.1867C59.2544 95.9014 59.285 95.588 59.413 95.3041C59.5037 95.1067 59.5263 94.888 59.5837 94.68C59.6743 94.36 59.7983 94.052 59.849 93.72L59.9303 93.4147L60.0677 93.132C60.0904 93.0014 60.157 92.8854 60.2437 92.7814C60.3463 92.6587 60.3944 92.52 60.4184 92.3694L60.297 92.2107C60.1263 92.1201 59.9237 92.1387 59.8517 92.2547L59.7544 92.368L59.7344 92.216C59.729 92.1387 59.705 92.0534 59.5743 92.0027L59.2503 91.9934L59.169 92.1014L59.0303 92.2734L58.9544 92.4027C58.9224 92.572 58.873 92.736 58.8077 92.8947C58.665 93.2454 58.641 93.6334 58.5023 93.9854C58.4197 94.1907 58.3997 94.42 58.3264 94.6254C58.2437 94.8494 58.1957 95.0827 58.1357 95.3121C58.109 95.4187 58.0517 95.5187 58.0943 95.6441C57.8917 95.8001 57.957 96.052 57.849 96.2467C57.7037 96.5094 57.749 96.8387 57.5943 97.1107C57.4863 97.2987 57.477 97.5334 57.3984 97.7387C57.2517 98.1147 57.2063 98.52 57.061 98.8974C56.9263 99.2414 56.8343 99.6014 56.689 99.9441C56.5383 100.3 56.4144 100.665 56.2677 101.023C56.009 101.653 55.7837 102.296 55.5397 102.932C55.385 103.343 55.2544 103.76 55.0904 104.168C54.9624 104.484 54.881 104.817 54.7837 105.145C54.7277 105.336 54.677 105.529 54.6264 105.723C54.6037 105.815 54.6103 105.907 54.797 105.972L54.869 106.064C54.8997 106.223 54.9837 106.284 55.225 106.303L55.5583 106.369C55.8157 106.452 55.9437 106.423 55.9663 106.264C56.0063 106.009 56.0877 105.767 56.137 105.516C56.1997 105.212 56.2863 104.919 56.4143 104.637C56.505 104.443 56.5663 104.236 56.617 104.029C56.6543 103.873 56.729 103.729 56.7583 103.571L56.881 103.271L56.8863 103.273L56.9064 103.205H56.9023L56.917 103.065L57.0797 102.723C57.1183 102.608 57.289 102.536 57.173 102.373L57.2157 102.323C57.2743 102.176 57.4797 102.075 57.3424 101.865L57.3877 101.796L57.4717 101.671L57.4117 101.639L57.4663 101.672L57.5277 101.595C57.5183 101.425 57.5797 101.277 57.6424 101.128L57.7023 100.983C57.6743 100.869 57.6357 100.755 57.7863 100.688L57.7704 100.521L57.769 100.525L57.873 100.428L57.8677 100.429L57.9344 100.216L57.9064 100.176Z" fill="#1A1818"/>
<path d="M95.7822 77.1815L95.7729 77.2268L96.0688 77.3188L96.3182 77.3828C96.4862 77.3815 96.6395 77.4282 96.7915 77.4762C97.0381 77.5522 97.2955 77.5948 97.5382 77.6828C97.6702 77.7295 97.8142 77.7388 97.9395 77.8068C98.0889 77.8882 98.2675 77.8735 98.4155 77.9575L98.7555 78.0361C98.9301 78.0788 99.0928 78.1548 99.2795 78.1588L99.4462 78.1961L99.5915 78.2881L99.7729 78.4082L99.9875 78.5188L100.097 78.3828C100.174 78.2068 100.19 78.0148 100.132 77.9628L100.079 77.8841L100.171 77.8455C100.217 77.8282 100.27 77.7948 100.317 77.6628L100.366 77.3521L100.315 77.2881L100.233 77.1801L100.169 77.1255L99.9009 77.0521C99.7169 76.9628 99.4942 76.9935 99.3075 76.9068L98.9581 76.8268C98.8395 76.7788 98.7102 76.7642 98.5848 76.7388L98.3982 76.7442C98.3342 76.5708 98.1768 76.6695 98.0795 76.5921C97.9462 76.4881 97.7475 76.5761 97.6115 76.4655L97.2715 76.3641C97.0715 76.2748 96.8422 76.2868 96.6422 76.1988C96.4595 76.1175 96.2635 76.0775 96.0835 75.9855C95.8968 75.8908 95.6995 75.8228 95.5115 75.7308C95.1782 75.5695 94.8368 75.4401 94.4982 75.2948C94.2808 75.2028 94.0555 75.1348 93.8408 75.0335C93.6728 74.9548 93.4902 74.9228 93.3115 74.8735L92.9968 74.8028C92.9475 74.7921 92.8928 74.8121 92.8288 75.0001L92.7648 75.0801C92.6688 75.1308 92.6208 75.2201 92.5768 75.4535L92.4928 75.7801C92.4102 76.0375 92.4102 76.1561 92.4995 76.1575C92.6422 76.1588 92.7729 76.2028 92.9115 76.2175C93.0795 76.2348 93.2395 76.2775 93.3861 76.3628L93.7128 76.4735L93.9595 76.5468L94.1182 76.6228L94.1168 76.6268L94.1528 76.6388V76.6348L94.2328 76.6295L94.4102 76.7375C94.4715 76.7588 94.4915 76.9135 94.6022 76.7801L94.6248 76.8135C94.7035 76.8481 94.7328 77.0322 94.8742 76.8722L94.9089 76.9055L94.9702 76.9695L94.9982 76.9082L94.9702 76.9641L95.0075 77.0122L95.2635 77.0588L95.3395 77.0961C95.4089 77.0535 95.4822 77.0015 95.5009 77.1348L95.5995 77.0975H95.5982L95.6395 77.1841V77.1788L95.7542 77.2135L95.7822 77.1815Z" fill="#1A1818"/>
<path d="M111.431 82.2853L111.426 82.3306C111.577 82.44 111.781 82.3813 111.938 82.4933C112.055 82.576 112.215 82.5973 112.363 82.616C112.642 82.6493 112.906 82.7333 113.17 82.816C113.594 82.9506 114.029 83.052 114.45 83.1973C114.677 83.276 114.919 83.316 115.139 83.416C115.405 83.5346 115.698 83.5573 115.961 83.68C116.143 83.764 116.347 83.7827 116.542 83.836C116.839 83.9187 117.125 84.036 117.434 84.08L117.719 84.1533L117.981 84.284C118.103 84.304 118.209 84.368 118.305 84.452C118.417 84.5506 118.546 84.5946 118.686 84.616L118.838 84.4933C118.927 84.3226 118.913 84.12 118.806 84.052L118.702 83.9573L118.843 83.9347C118.918 83.9253 118.998 83.9013 119.049 83.7707L119.063 83.4493L118.963 83.3693L118.805 83.236L118.686 83.164C118.527 83.136 118.377 83.0893 118.229 83.028C117.902 82.8933 117.541 82.8773 117.214 82.7466C117.023 82.6693 116.81 82.6546 116.619 82.5853C116.41 82.508 116.194 82.4667 115.981 82.412L115.671 82.376C115.529 82.1773 115.291 82.2493 115.113 82.1466C114.867 82.0066 114.561 82.0587 114.307 81.9093C114.134 81.808 113.914 81.804 113.725 81.728C113.375 81.592 112.997 81.556 112.647 81.4173C112.327 81.2906 111.993 81.2067 111.677 81.0707C111.345 80.928 111.006 80.8133 110.674 80.6747C110.089 80.4307 109.493 80.22 108.901 79.992C108.521 79.8453 108.133 79.7253 107.755 79.5707C107.461 79.4507 107.151 79.3773 106.846 79.2866C106.67 79.2346 106.49 79.1893 106.31 79.144C106.225 79.1213 106.137 79.1306 106.071 79.3186L105.986 79.3906C105.837 79.4253 105.778 79.5093 105.754 79.7493L105.685 80.0813C105.603 80.34 105.627 80.4653 105.775 80.4853C106.013 80.5186 106.237 80.5947 106.471 80.64C106.754 80.6947 107.027 80.7733 107.287 80.896C107.469 80.9813 107.661 81.04 107.853 81.0853C107.998 81.1186 108.131 81.188 108.279 81.216L108.558 81.3306L108.555 81.336L108.618 81.356V81.352L108.749 81.3626L109.066 81.516C109.173 81.552 109.235 81.7213 109.391 81.6013L109.438 81.644C109.574 81.6987 109.665 81.9 109.863 81.76L109.927 81.8027L110.043 81.884L110.074 81.824L110.042 81.8787L110.113 81.9373C110.271 81.9253 110.409 81.984 110.547 82.0427L110.681 82.0986C110.787 82.068 110.897 82.028 110.955 82.1747L111.113 82.156H111.109L111.197 82.2573L111.195 82.252L111.395 82.3133L111.431 82.2853Z" fill="#1A1818"/>
<path d="M20.943 52.7748L20.935 52.8201L21.3137 52.9401L21.6297 53.0267C21.8417 53.0387 22.0377 53.0987 22.231 53.1601C22.5457 53.2601 22.871 53.3241 23.1817 53.4334C23.351 53.4934 23.5324 53.5147 23.6937 53.5934C23.8884 53.6894 24.111 53.6894 24.3017 53.7894C24.4364 53.8574 24.591 53.8601 24.7337 53.8974C24.955 53.9547 25.167 54.0467 25.399 54.0654L25.6124 54.1174L25.8017 54.2241L26.0377 54.3627L26.3164 54.4934L26.443 54.3627C26.523 54.1881 26.5284 53.9921 26.4524 53.9347L26.3804 53.8494L26.491 53.8161C26.547 53.8027 26.6097 53.7721 26.659 53.6414L26.6937 53.3267L26.6244 53.2561L26.5124 53.1388L26.4284 53.0774L26.0884 52.9801C25.8484 52.8734 25.5723 52.8867 25.3337 52.7827C25.1923 52.7227 25.031 52.7241 24.891 52.6721C24.7364 52.6121 24.5737 52.5881 24.4137 52.5507L24.179 52.5401C24.0857 52.3574 23.899 52.4454 23.7697 52.3587C23.5937 52.2414 23.3537 52.3147 23.1737 52.1894C23.047 52.1027 22.8804 52.1161 22.739 52.0574C22.483 51.9507 22.195 51.9441 21.939 51.8361C21.7044 51.7374 21.4537 51.6814 21.2217 51.5721C20.9804 51.4588 20.7297 51.3721 20.4857 51.2627C20.0564 51.0707 19.6164 50.9094 19.1804 50.7334C18.9004 50.6201 18.6137 50.5321 18.3364 50.4108C18.119 50.3148 17.8884 50.2668 17.6617 50.2028C17.5297 50.1654 17.3964 50.1348 17.2617 50.1041C17.1977 50.0894 17.131 50.1041 17.0657 50.2921L16.995 50.3694C16.8777 50.4148 16.827 50.5014 16.7897 50.7374L16.711 51.0667C16.6284 51.3241 16.6377 51.4454 16.7497 51.4534C16.9297 51.4667 17.095 51.5241 17.271 51.5507C17.483 51.5814 17.6857 51.6388 17.8764 51.7374C18.0084 51.8068 18.151 51.8494 18.2937 51.8788L18.611 51.9734L18.815 52.0654L18.8124 52.0694L18.859 52.0841V52.0801L18.9577 52.0814L19.1897 52.2068C19.2684 52.2334 19.3043 52.3934 19.4323 52.2654L19.4643 52.3028C19.5643 52.3454 19.619 52.5361 19.7817 52.3827L19.827 52.4201L19.9097 52.4907L19.939 52.4294L19.9084 52.4854L19.959 52.5374C20.0817 52.5134 20.1817 52.5601 20.2844 52.6068L20.383 52.6507C20.4657 52.6134 20.5524 52.5654 20.5857 52.7054L20.707 52.6748L20.7057 52.6734L20.7643 52.7654V52.7601L20.911 52.8054L20.943 52.7748Z" fill="#1A1818"/>
<path d="M35.4314 57.5L35.4261 57.5454C35.5821 57.656 35.7888 57.6 35.9528 57.7133C36.0728 57.7973 36.2368 57.82 36.3901 57.84C36.6755 57.876 36.9488 57.9613 37.2181 58.0467C37.6541 58.1853 38.1008 58.2907 38.5341 58.44C38.7688 58.5214 39.0168 58.564 39.2434 58.6653C39.5154 58.7867 39.8181 58.812 40.0888 58.936C40.2768 59.024 40.4861 59.0427 40.6848 59.0987C40.9901 59.184 41.2861 59.304 41.6034 59.3507L41.8955 59.4267L42.1648 59.56C42.2888 59.5813 42.3994 59.6453 42.4994 59.7307C42.6154 59.8307 42.7474 59.876 42.8914 59.8987L43.0461 59.776C43.1354 59.6054 43.1195 59.4027 43.0088 59.3347L42.9021 59.2374L43.0488 59.216C43.1221 59.208 43.2048 59.184 43.2554 59.0533L43.2675 58.7307L43.1661 58.6507L43.0021 58.516L42.8794 58.4427C42.7168 58.412 42.5608 58.3654 42.4074 58.3027C42.0728 58.164 41.7021 58.1467 41.3648 58.0107C41.1701 57.9334 40.9515 57.916 40.7541 57.844C40.5395 57.7667 40.3168 57.7213 40.0968 57.6653L39.7808 57.6267C39.6314 57.4267 39.3901 57.4973 39.2048 57.392C38.9528 57.2507 38.6368 57.2987 38.3781 57.148C38.1994 57.044 37.9741 57.0387 37.7781 56.9613C37.4194 56.8213 37.0301 56.7814 36.6701 56.64C36.3421 56.5107 35.9981 56.424 35.6714 56.284C35.3314 56.1387 34.9821 56.0213 34.6408 55.88C34.0381 55.6307 33.4248 55.412 32.8168 55.18C32.4261 55.0293 32.0261 54.9067 31.6368 54.748C31.3354 54.6253 31.0154 54.548 30.7034 54.456C30.5208 54.4013 30.3368 54.3547 30.1515 54.308C30.0635 54.2854 29.9741 54.292 29.9088 54.4813L29.8208 54.5533C29.6688 54.5853 29.6088 54.6694 29.5875 54.9107L29.5181 55.2427C29.4368 55.5014 29.4621 55.6267 29.6141 55.648C29.8581 55.684 30.0901 55.7614 30.3301 55.8094C30.6194 55.8667 30.9008 55.948 31.1701 56.0734C31.3554 56.16 31.5528 56.22 31.7501 56.2667C31.8994 56.3013 32.0368 56.3734 32.1888 56.4014L32.4741 56.52L32.4714 56.524L32.5368 56.5454V56.5414L32.6714 56.5533L32.9994 56.7107C33.1074 56.7454 33.1754 56.916 33.3328 56.7987L33.3808 56.8414C33.5208 56.896 33.6155 57.1 33.8181 56.96L33.8834 57.0027L34.0034 57.0867L34.0341 57.0267L34.0021 57.0813L34.0741 57.1414C34.2368 57.1294 34.3795 57.1893 34.5208 57.2493L34.6608 57.308C34.7701 57.2774 34.8808 57.2387 34.9421 57.3867L35.1021 57.3694L35.0994 57.368L35.1901 57.4694L35.1888 57.464L35.3941 57.528L35.4314 57.5Z" fill="#1A1818"/>
<path d="M100.025 51.8028L100.058 51.8362C100.333 51.7602 100.522 51.5321 100.807 51.4508C101.018 51.3908 101.227 51.2521 101.419 51.1228C101.781 50.8788 102.167 50.6788 102.55 50.4815C103.171 50.1628 103.775 49.8108 104.401 49.5015C104.739 49.3335 105.063 49.1295 105.41 48.9815C105.827 48.8041 106.197 48.5388 106.615 48.3655C106.905 48.2455 107.165 48.0615 107.441 47.9122C107.865 47.6802 108.306 47.4815 108.713 47.2148C108.841 47.1308 108.951 46.9975 109.115 46.9895C109.281 46.9815 109.409 46.9055 109.538 46.8228C109.701 46.7188 109.882 46.6575 110.067 46.6201C110.287 46.5735 110.478 46.4788 110.665 46.3601L110.737 46.1375C110.695 45.9455 110.506 45.8321 110.319 45.8908L110.114 45.9308L110.263 45.7815C110.342 45.7055 110.415 45.6148 110.363 45.4841L110.102 45.2682L109.917 45.3122L109.613 45.3801L109.409 45.4481C109.195 45.5815 108.975 45.6961 108.747 45.7988C108.243 46.0241 107.799 46.3588 107.297 46.5881C107.006 46.7215 106.738 46.9148 106.453 47.0535C106.138 47.2028 105.842 47.3828 105.542 47.5521C105.401 47.6308 105.245 47.6841 105.143 47.8241C104.803 47.8361 104.582 48.1055 104.281 48.2122C103.87 48.3575 103.549 48.6828 103.119 48.8295C102.826 48.9308 102.562 49.1375 102.269 49.2722C101.737 49.5162 101.254 49.8548 100.721 50.1015C100.231 50.3268 99.7606 50.5922 99.266 50.8095C98.75 51.0335 98.2473 51.2841 97.7326 51.5135C96.8273 51.9175 95.9353 52.3522 95.0367 52.7722C94.4567 53.0415 93.8926 53.3361 93.31 53.5988C92.8553 53.8041 92.4233 54.0535 91.9833 54.2868C91.7273 54.4228 91.4753 54.5655 91.2219 54.7068C91.1019 54.7748 91.006 54.8628 91.09 55.0442L91.0499 55.1708C90.9006 55.3348 90.9046 55.4428 91.0846 55.6148L91.2886 55.8908C91.4139 56.1308 91.554 56.1855 91.7447 56.0588C92.0567 55.8521 92.39 55.6855 92.7073 55.4921C93.09 55.2561 93.4833 55.0468 93.898 54.8762C94.1873 54.7562 94.466 54.6108 94.7326 54.4561C94.9353 54.3388 95.1539 54.2561 95.3526 54.1321C95.4819 54.0521 95.6153 53.9482 95.7846 53.9402V53.9455L95.8766 53.8988L95.874 53.8961L96.038 53.7775C96.2313 53.7695 96.3846 53.6535 96.5499 53.5722C96.7059 53.4935 96.9287 53.5388 97.0087 53.3161L97.1007 53.2988C97.31 53.2015 97.5926 53.2441 97.7073 52.9655L97.8193 52.9321L98.0273 52.8735L98.0126 52.8055L98.0219 52.8708L98.1566 52.8402C98.3353 52.6815 98.55 52.5868 98.7633 52.4921L98.9727 52.4002C99.0727 52.2788 99.1673 52.1508 99.3647 52.1855L99.534 52.0268L99.53 52.0281L99.7219 52.0082L99.7166 52.0055L100.006 51.8561L100.025 51.8028Z" fill="#1A1818"/>
<path d="M23.1016 90.892L23.1243 90.9307L23.3682 90.8027L23.5629 90.6866C23.6629 90.5746 23.7869 90.508 23.9122 90.4427C24.1136 90.3373 24.2976 90.1987 24.5042 90.1027C24.6162 90.0507 24.7096 89.9627 24.8309 89.9293C24.9749 89.8907 25.0736 89.7627 25.2216 89.728L25.4802 89.5613C25.6149 89.4773 25.7642 89.4253 25.8802 89.3067L26.0056 89.2227L26.1563 89.1947L26.3469 89.164L26.5523 89.1013L26.5256 88.9307C26.4536 88.7547 26.3362 88.604 26.2656 88.604L26.1802 88.5826L26.2096 88.4947C26.2256 88.452 26.2336 88.3933 26.1749 88.2667L25.9949 88.0093L25.9203 87.996L25.7976 87.972L25.7229 87.9747L25.5109 88.0973C25.3389 88.1533 25.2243 88.3213 25.0536 88.3813L24.7869 88.552L24.5016 88.7333L24.3923 88.86C24.2363 88.7773 24.2083 88.9493 24.0963 88.9587C23.9456 88.972 23.8856 89.1653 23.7269 89.1747L23.4523 89.3227C23.2723 89.3893 23.1403 89.5506 22.9589 89.6173C22.7936 89.6773 22.6482 89.7787 22.4776 89.8293C22.3002 89.8827 22.1349 89.9626 21.9589 90.02C21.6496 90.12 21.3536 90.252 21.0509 90.3693C20.8563 90.444 20.6749 90.544 20.4749 90.6107C20.3216 90.664 20.1882 90.76 20.0482 90.8413L19.8096 90.9973C19.7722 91.0227 19.7509 91.072 19.8402 91.2506L19.8549 91.3493C19.8323 91.4506 19.8629 91.544 19.9936 91.7427L20.1629 92.0347C20.2869 92.2747 20.3656 92.3613 20.4203 92.304L20.7122 92.0773C20.8256 91.98 20.9509 91.9053 21.0963 91.8707L21.3696 91.736L21.5682 91.6267L21.7162 91.5787L21.7176 91.584L21.7469 91.568L21.7456 91.564L21.7896 91.508L21.9709 91.4693C22.0216 91.4453 22.1376 91.544 22.1149 91.3747L22.1523 91.384C22.2229 91.3586 22.3656 91.472 22.3429 91.2627L22.3856 91.264L22.4656 91.2707L22.4416 91.208L22.4629 91.2667L22.5162 91.2773L22.7042 91.144L22.7762 91.12L22.8989 91.0427L22.9349 90.952H22.9322L23.0162 90.9866L23.0122 90.9826L23.1069 90.9333L23.1016 90.892Z" fill="#1A1818"/>
<path d="M38.2261 83.2068L38.2541 83.2428C38.4381 83.2135 38.5381 83.0308 38.7274 82.9988C38.8674 82.9748 38.9941 82.8775 39.1114 82.7855C39.3301 82.6148 39.5728 82.4868 39.8141 82.3628C40.2061 82.1588 40.5808 81.9255 40.9768 81.7321C41.1914 81.6268 41.3901 81.4868 41.6141 81.4015C41.8821 81.3001 42.1034 81.1095 42.3728 81.0108C42.5608 80.9441 42.7168 80.8134 42.8888 80.7148C43.1541 80.5641 43.4368 80.4468 43.6834 80.2588L43.9355 80.1121L44.2101 80.0201C44.3088 79.9495 44.4287 79.9201 44.5541 79.9121C44.7034 79.9028 44.8234 79.8428 44.9368 79.7601L44.9554 79.5655C44.8981 79.3828 44.7461 79.2495 44.6221 79.2761L44.4834 79.2814L44.5661 79.1655C44.6128 79.1081 44.6501 79.0348 44.5941 78.9068L44.3768 78.6681L44.2528 78.6814L44.0474 78.6988L43.9128 78.7308C43.7835 78.8215 43.6448 78.8961 43.4981 78.9561C43.1768 79.0895 42.9114 79.3335 42.5914 79.4695C42.4034 79.5495 42.2435 79.6895 42.0621 79.7735C41.8621 79.8668 41.6808 79.9881 41.4941 80.1001L41.2528 80.2921C41.0128 80.2521 40.8981 80.4695 40.6994 80.5228C40.4314 80.5948 40.2514 80.8481 39.9714 80.9201C39.7781 80.9695 39.6208 81.1201 39.4354 81.2015C39.0954 81.3495 38.8048 81.5908 38.4635 81.7375C38.1528 81.8735 37.8594 82.0495 37.5421 82.1748C37.2114 82.3068 36.8928 82.4628 36.5635 82.5988C35.9821 82.8375 35.4168 83.1068 34.8434 83.3601C34.4754 83.5241 34.1194 83.7121 33.7461 83.8681C33.4554 83.9895 33.1874 84.1548 32.9114 84.3055C32.7501 84.3921 32.5928 84.4868 32.4354 84.5814C32.3608 84.6254 32.3061 84.6921 32.3928 84.8721L32.3834 84.9841C32.3021 85.1135 32.3208 85.2135 32.4741 85.4001L32.6594 85.6841C32.7848 85.9255 32.8901 85.9975 33.0074 85.9081C33.1954 85.7628 33.4061 85.6588 33.6021 85.5268C33.8381 85.3668 34.0848 85.2308 34.3528 85.1348C34.5394 85.0681 34.7154 84.9748 34.8808 84.8708C35.0061 84.7935 35.1488 84.7495 35.2701 84.6641L35.5461 84.5508L35.5474 84.5561L35.6061 84.5268L35.6034 84.5241L35.7021 84.4388C35.8381 84.4601 35.9288 84.3761 36.0328 84.3241C36.1314 84.2761 36.2954 84.3495 36.3194 84.1575L36.3821 84.1535C36.5141 84.0961 36.7221 84.1761 36.7608 83.9375L36.8354 83.9228L36.9741 83.8988L36.9541 83.8348L36.9688 83.8961L37.0608 83.8881C37.1621 83.7681 37.2994 83.7121 37.4368 83.6575L37.5714 83.6028C37.6234 83.5055 37.6728 83.4001 37.8168 83.4628L37.9128 83.3415H37.9088L38.0421 83.3521L38.0381 83.3481L38.2208 83.2535L38.2261 83.2068Z" fill="#1A1818"/>
<path d="M84.6498 101.856L84.6178 101.893C84.7271 102.235 84.9898 102.491 85.1058 102.845C85.1912 103.109 85.3604 103.376 85.5191 103.625C85.8151 104.091 86.0684 104.581 86.3191 105.069C86.7244 105.859 87.1618 106.632 87.5565 107.427C87.7711 107.857 88.0204 108.272 88.2164 108.711C88.4498 109.236 88.7698 109.715 88.9978 110.241C89.1565 110.608 89.3792 110.943 89.5672 111.295C89.8578 111.836 90.1165 112.393 90.4431 112.917C90.5458 113.081 90.6978 113.231 90.7244 113.429C90.7498 113.632 90.8444 113.797 90.9471 113.963C91.0738 114.172 91.1591 114.399 91.2191 114.629C91.2911 114.901 91.4125 115.144 91.5591 115.383L91.8005 115.496C91.9992 115.467 92.0978 115.247 92.0151 115.015L91.9524 114.761L92.1258 114.959C92.2138 115.064 92.3178 115.163 92.4498 115.113C92.5671 115.068 92.6231 114.952 92.6485 114.819L92.5818 114.589C92.5205 114.468 92.4631 114.351 92.4765 114.212L92.3831 113.956C92.2204 113.684 92.0725 113.403 91.9405 113.115C91.6485 112.479 91.2458 111.901 90.9498 111.267C90.7778 110.896 90.5431 110.551 90.3658 110.187C90.1738 109.789 89.9512 109.412 89.7392 109.027C89.6405 108.848 89.5671 108.651 89.4071 108.512C89.3591 108.097 89.0498 107.8 88.9045 107.421C88.7071 106.907 88.3285 106.48 88.1258 105.944C87.9871 105.575 87.7391 105.231 87.5658 104.86C87.2485 104.187 86.8391 103.564 86.5205 102.887C86.2298 102.268 85.8978 101.668 85.6151 101.041C85.3205 100.392 85.0018 99.7521 84.7032 99.1028C84.1765 97.9574 83.6191 96.8254 83.0791 95.6868C82.7311 94.9548 82.3578 94.2334 82.0164 93.4974C81.7511 92.9241 81.4418 92.3708 81.1471 91.8108C80.9751 91.4841 80.7964 91.1628 80.6191 90.8401C80.5338 90.6854 80.4311 90.5601 80.2498 90.6428L80.1112 90.5788C79.9218 90.3814 79.8072 90.3734 79.6445 90.5734L79.3765 90.7908C79.1378 90.9174 79.0938 91.0801 79.2498 91.3281C79.5018 91.7294 79.7138 92.1508 79.9524 92.5588C80.2431 93.0494 80.5085 93.5508 80.7338 94.0748C80.8912 94.4374 81.0751 94.7921 81.2685 95.1348C81.4138 95.3934 81.5258 95.6681 81.6778 95.9241C81.7765 96.0881 81.8991 96.2614 81.9271 96.4668H81.9218L81.9831 96.5854L81.9845 96.5814L82.1271 96.7948C82.1565 97.0321 82.2952 97.2294 82.4005 97.4388C82.5005 97.6374 82.4778 97.9028 82.7218 98.0254L82.7498 98.1388C82.8738 98.4028 82.8605 98.7414 83.1672 98.9108L83.2151 99.0521L83.2991 99.3121L83.3698 99.3014L83.3018 99.3054L83.3485 99.4721C83.5365 99.7054 83.6591 99.9774 83.7831 100.248L83.9018 100.512C84.0418 100.648 84.1872 100.776 84.1725 101.012L84.3591 101.235L84.3551 101.229L84.3978 101.465L84.3991 101.459C84.4778 101.573 84.4578 101.74 84.5898 101.827L84.6498 101.856Z" fill="#1A1818"/>
<path d="M48.5352 30.7868L48.5045 30.8228C48.6139 31.1655 48.8765 31.4214 48.9925 31.7761C49.0778 32.0388 49.2472 32.3068 49.4058 32.5561C49.7018 33.0201 49.9552 33.5121 50.2058 34.0001C50.6112 34.7894 51.0472 35.5628 51.4432 36.3574C51.6579 36.7881 51.9072 37.2027 52.1032 37.6414C52.3365 38.1681 52.6565 38.6454 52.8845 39.1721C53.0431 39.5387 53.2658 39.8735 53.4538 40.2255C53.7445 40.7668 54.0032 41.3241 54.3299 41.8467C54.4325 42.0107 54.5845 42.1615 54.6112 42.3615C54.6365 42.5628 54.7325 42.7281 54.8338 42.8934C54.9605 43.1028 55.0445 43.3294 55.1058 43.5601C55.1778 43.8334 55.2992 44.0748 55.4459 44.3121L55.6871 44.4268C55.8858 44.3974 55.9845 44.1774 55.9019 43.9454L55.8392 43.6908L56.0125 43.8895C56.1005 43.9935 56.2045 44.0934 56.3365 44.0441C56.4538 43.9987 56.5099 43.8827 56.5352 43.7494L56.4685 43.5201C56.4072 43.3988 56.3499 43.2814 56.3632 43.1428L56.2698 42.8868C56.1072 42.6148 55.9592 42.3334 55.8272 42.0454C55.5352 41.4081 55.1325 40.8321 54.8365 40.1961C54.6632 39.8268 54.4298 39.4814 54.2525 39.1174C54.0605 38.7201 53.8378 38.3414 53.6258 37.9574C53.5271 37.7788 53.4538 37.5814 53.2938 37.4441C53.2458 37.0294 52.9365 36.7308 52.7898 36.3521C52.5938 35.8374 52.2152 35.4094 52.0125 34.8747C51.8739 34.5054 51.6258 34.1601 51.4538 33.7908C51.1351 33.1174 50.7259 32.4948 50.4072 31.8174C50.1165 31.1988 49.7845 30.5987 49.5019 29.9721C49.2072 29.3227 48.8885 28.6827 48.5898 28.0334C48.0645 26.8881 47.5072 25.7561 46.9659 24.6174C46.6179 23.8854 46.2445 23.1655 45.9032 22.4281C45.6378 21.8548 45.3285 21.3014 45.0338 20.7414C44.8618 20.4147 44.6832 20.0934 44.5058 19.7694C44.4205 19.6147 44.3178 19.4894 44.1365 19.5721L43.9978 19.5107C43.8085 19.3107 43.6938 19.3041 43.5312 19.5041L43.2632 19.7214C43.0245 19.8481 42.9805 20.0108 43.1365 20.2574C43.3885 20.6588 43.6005 21.0828 43.8405 21.4895C44.1299 21.9801 44.3951 22.4801 44.6205 23.0054C44.7778 23.3681 44.9618 23.7228 45.1552 24.0654C45.3005 24.3228 45.4125 24.5988 45.5659 24.8535C45.6632 25.0188 45.7872 25.1921 45.8138 25.3988L45.8085 25.3974L45.8685 25.5161L45.8712 25.5121L46.0138 25.7255C46.0432 25.9615 46.1818 26.1588 46.2871 26.3681C46.3871 26.5681 46.3645 26.8335 46.6072 26.9561L46.6365 27.0681C46.7605 27.3334 46.7471 27.6721 47.0538 27.8414L47.1019 27.9827L47.1858 28.2428L47.2565 28.2321L47.1885 28.2348L47.2352 28.4027C47.4219 28.6361 47.5458 28.9067 47.6698 29.1774L47.7885 29.4428C47.9285 29.5774 48.0738 29.7068 48.0591 29.9428L48.2459 30.1654L48.2418 30.1601L48.2858 30.3961L48.2871 30.3895C48.3645 30.5041 48.3445 30.6695 48.4765 30.7561L48.5352 30.7868Z" fill="#1A1818"/>
<path d="M83.7701 42.4013L83.8114 42.4213L83.9701 42.1507L84.0901 41.9227C84.1261 41.7574 84.2074 41.6174 84.2888 41.4787C84.4194 41.256 84.5208 41.0133 84.6608 40.796L84.8741 40.432C84.9875 40.304 85.0141 40.1253 85.1301 40L85.2861 39.684C85.3661 39.524 85.4781 39.3813 85.5248 39.2L85.5981 39.044L85.7221 38.9227L85.8808 38.7734L86.0368 38.588L85.9288 38.4493C85.7754 38.336 85.5928 38.276 85.5275 38.32L85.4408 38.3547L85.4221 38.256L85.2781 38.072L84.9861 37.9547L84.9114 37.9907L84.7874 38.0467L84.7207 38.0987L84.5874 38.3413C84.4567 38.5027 84.4368 38.7267 84.3101 38.8907L84.1514 39.2133L83.9808 39.56L83.9435 39.744C83.7595 39.768 83.8194 39.9427 83.7221 40.0213C83.5901 40.1293 83.6301 40.3414 83.4915 40.4507L83.3141 40.76C83.1821 40.936 83.1408 41.164 83.0101 41.3387C82.8888 41.4987 82.8048 41.6827 82.6754 41.8387C82.5381 42 82.4275 42.176 82.2941 42.34C82.0621 42.6294 81.8568 42.936 81.6381 43.2347C81.4981 43.4253 81.3808 43.632 81.2328 43.8187C81.1168 43.9653 81.0434 44.1373 80.9541 44.3L80.8141 44.5907C80.7914 44.6387 80.7981 44.696 80.9674 44.8013L81.0314 44.8813C81.0594 44.9867 81.1341 45.052 81.3514 45.148L81.6514 45.304C81.8834 45.4427 81.9994 45.4707 82.0194 45.384C82.0554 45.244 82.1274 45.1267 82.1754 44.9933C82.2301 44.832 82.3074 44.6867 82.4234 44.5627L82.6075 44.2666L82.7341 44.0413L82.8448 43.904L82.8487 43.9067L82.8688 43.8734L82.8648 43.872L82.8781 43.7933L83.0234 43.644C83.0594 43.588 83.2128 43.604 83.1088 43.4666L83.1474 43.4507C83.1994 43.3827 83.3848 43.3934 83.2621 43.22L83.3008 43.1933L83.3781 43.148L83.3248 43.108L83.3728 43.1467L83.4275 43.1227L83.5314 42.8814L83.5861 42.8147C83.5608 42.7374 83.5261 42.656 83.6608 42.6666L83.6474 42.5614L83.6461 42.5627L83.7394 42.5413L83.7341 42.54L83.7954 42.4347L83.7701 42.4013Z" fill="#1A1818"/>
<path d="M91.6777 29.3133L91.723 29.3281C91.8764 29.1814 91.8791 28.9493 92.0378 28.7973C92.1564 28.684 92.2244 28.5133 92.287 28.3547C92.4044 28.056 92.5671 27.7813 92.7284 27.5107C92.9897 27.0707 93.2217 26.6134 93.4924 26.1787C93.639 25.944 93.7524 25.6867 93.9164 25.464C94.1137 25.196 94.2257 24.8787 94.4257 24.6147C94.5657 24.4307 94.6444 24.2107 94.7551 24.008C94.9271 23.6987 95.1284 23.4067 95.2658 23.076L95.4244 22.7787L95.6324 22.516C95.6898 22.3867 95.7857 22.2814 95.8977 22.1934C96.0297 22.088 96.1124 21.956 96.1764 21.8053L96.0991 21.6174C95.9538 21.4867 95.7484 21.4654 95.6484 21.568L95.523 21.6654L95.5431 21.5053L95.4404 21.2507L95.123 21.1747L95.0137 21.268L94.8351 21.4174L94.7271 21.5347C94.6511 21.7014 94.5604 21.86 94.4537 22.0107C94.223 22.3413 94.0991 22.7347 93.8697 23.068C93.7351 23.2627 93.6577 23.4934 93.5311 23.6894C93.3924 23.9027 93.2857 24.132 93.1671 24.356C93.1111 24.46 93.0284 24.552 93.0391 24.6894C92.7977 24.808 92.7977 25.08 92.6417 25.2573C92.4297 25.4987 92.3884 25.8454 92.1658 26.0934C92.0098 26.2654 91.9417 26.5053 91.8084 26.7C91.5671 27.0547 91.4191 27.464 91.1764 27.82C90.9538 28.1467 90.7711 28.4973 90.5404 28.8187C90.2991 29.1533 90.0817 29.504 89.8444 29.8413C89.4271 30.4373 89.0378 31.0507 88.6324 31.6547C88.3738 32.044 88.1364 32.4467 87.8697 32.8307C87.6631 33.1307 87.4964 33.456 87.3137 33.7734C87.2097 33.9574 87.1111 34.1454 87.0111 34.3347C86.9631 34.424 86.947 34.52 87.115 34.6267L87.1604 34.7347C87.1497 34.9054 87.2164 34.9853 87.4497 35.0547L87.7604 35.1947C87.9924 35.3321 88.1257 35.328 88.1897 35.1707C88.2937 34.916 88.4377 34.684 88.5524 34.436C88.6911 34.1373 88.8524 33.8533 89.0524 33.5907C89.1911 33.4093 89.3071 33.2093 89.4098 33.008C89.4871 32.8547 89.5964 32.7214 89.6684 32.5654L89.8658 32.2827L89.8697 32.2867L89.9084 32.2213L89.9044 32.22L89.9537 32.0787C90.091 32.0107 90.1324 31.8734 90.2031 31.76C90.2711 31.6494 90.4577 31.612 90.387 31.42L90.4417 31.3773C90.5364 31.2373 90.7657 31.1774 90.6844 30.932L90.7458 30.8707L90.8631 30.76L90.8124 30.7133L90.8564 30.76L90.9378 30.6934C90.9724 30.516 91.0711 30.3774 91.1724 30.2374L91.2684 30.1C91.2698 29.9773 91.2617 29.8507 91.4271 29.8133L91.4537 29.6387V29.6413L91.5804 29.5654H91.5738L91.6951 29.36L91.6777 29.3133Z" fill="#1A1818"/>
<path d="M48.4662 100.832L48.5129 100.843C48.7142 100.622 48.7609 100.315 48.9662 100.084C49.1196 99.9135 49.2302 99.6748 49.3302 99.4535C49.5182 99.0375 49.7515 98.6455 49.9835 98.2575C50.3595 97.6282 50.7049 96.9815 51.0903 96.3588C51.2983 96.0202 51.4743 95.6615 51.7009 95.3362C51.9716 94.9455 52.1569 94.5068 52.4316 94.1202C52.6209 93.8508 52.7529 93.5442 52.9156 93.2588C53.1662 92.8175 53.4476 92.3948 53.6636 91.9335C53.7316 91.7882 53.7596 91.6108 53.8983 91.5108C54.0383 91.4108 54.1102 91.2708 54.1796 91.1255C54.2676 90.9442 54.3943 90.7881 54.5369 90.6495C54.7049 90.4855 54.8223 90.2948 54.9209 90.0868L54.8716 89.8521C54.7342 89.7095 54.5102 89.7188 54.3796 89.8748L54.2209 90.0255L54.2729 89.8122L54.2076 89.4975L53.8676 89.4575L53.7289 89.6015L53.4996 89.8322L53.3556 90.0068C53.2396 90.2415 53.1076 90.4668 52.9609 90.6855C52.6396 91.1655 52.4263 91.7068 52.1063 92.1908C51.9209 92.4722 51.7876 92.7908 51.6102 93.0722C51.4142 93.3815 51.2502 93.7028 51.0742 94.0215C50.9942 94.1682 50.8849 94.3041 50.8689 94.4828C50.5782 94.6855 50.5262 95.0442 50.3182 95.3082C50.0356 95.6655 49.9223 96.1308 49.6263 96.5002C49.4209 96.7548 49.2969 97.0842 49.1129 97.3655C48.7769 97.8802 48.5316 98.4468 48.1929 98.9628C47.8836 99.4348 47.6116 99.9308 47.2903 100.399C46.9583 100.887 46.6503 101.39 46.3209 101.879C45.7396 102.743 45.1876 103.624 44.6209 104.497C44.2583 105.06 43.9169 105.636 43.5462 106.193C43.2556 106.627 43.0089 107.088 42.7449 107.539C42.5929 107.803 42.4476 108.069 42.2996 108.336C42.2302 108.463 42.1916 108.593 42.3582 108.703L42.3903 108.836C42.3436 109.063 42.4035 109.155 42.6502 109.203L42.9703 109.325C43.2036 109.461 43.3529 109.432 43.4543 109.212C43.6196 108.858 43.8236 108.524 43.9996 108.176C44.2116 107.756 44.4462 107.351 44.7196 106.967C44.9089 106.701 45.0756 106.416 45.2302 106.129C45.3436 105.915 45.4929 105.719 45.6022 105.499C45.6729 105.356 45.7356 105.191 45.8783 105.088L45.8809 105.092L45.9369 104.999H45.9329L46.0142 104.803C46.1795 104.687 46.2529 104.5 46.3543 104.335C46.4503 104.177 46.6676 104.092 46.6222 103.852L46.6929 103.785C46.8263 103.584 47.0929 103.46 47.0489 103.153L47.1289 103.061L47.2809 102.892L47.2316 102.842L47.2742 102.893L47.3769 102.789C47.4502 102.552 47.5876 102.348 47.7249 102.146L47.8596 101.947C47.8849 101.785 47.8996 101.62 48.0903 101.539L48.1556 101.304L48.1529 101.308L48.3089 101.181L48.3022 101.183C48.3462 101.077 48.4862 101.027 48.4769 100.889L48.4662 100.832Z" fill="#1A1818"/>
<path d="M95.3964 84.7841L95.3817 84.8268C95.5123 84.9735 95.7324 84.9681 95.871 85.1188C95.9724 85.2308 96.131 85.2908 96.2817 85.3468C96.559 85.4535 96.811 85.6028 97.063 85.7508C97.4684 85.9921 97.8923 86.2028 98.2923 86.4535C98.5097 86.5895 98.7483 86.6922 98.9537 86.8455C99.199 87.0295 99.495 87.1281 99.7377 87.3148C99.907 87.4468 100.114 87.5161 100.299 87.6188C100.586 87.7761 100.854 87.9641 101.162 88.0868L101.438 88.2321L101.676 88.4268C101.798 88.4788 101.894 88.5682 101.974 88.6762C102.068 88.8015 102.191 88.8775 102.33 88.9348L102.511 88.8521C102.638 88.7068 102.667 88.5055 102.571 88.4108L102.486 88.2908L102.635 88.3042L102.878 88.1961L102.96 87.8828L102.876 87.7801L102.742 87.6082L102.635 87.5068C102.479 87.4375 102.334 87.3535 102.195 87.2561C101.891 87.0388 101.523 86.9308 101.216 86.7188C101.038 86.5935 100.822 86.5255 100.642 86.4068C100.444 86.2788 100.232 86.1815 100.024 86.0735C99.9284 86.0228 99.8443 85.9455 99.715 85.9588C99.611 85.7281 99.3537 85.7361 99.191 85.5908C98.971 85.3908 98.6443 85.3615 98.4177 85.1508C98.2617 85.0068 98.0377 84.9455 97.8577 84.8228C97.531 84.5988 97.151 84.4668 96.8217 84.2415C96.5217 84.0362 96.1963 83.8681 95.9003 83.6508C95.5923 83.4268 95.2697 83.2268 94.959 83.0068C94.411 82.6162 93.8457 82.2561 93.2884 81.8801C92.931 81.6388 92.559 81.4215 92.2044 81.1722C91.9284 80.9788 91.6257 80.8268 91.3337 80.6601C91.1643 80.5628 90.9897 80.4735 90.815 80.3815C90.7323 80.3388 90.6404 80.3241 90.535 80.4921L90.431 80.5415C90.271 80.5362 90.1923 80.6055 90.1203 80.8361L89.9777 81.1442C89.8404 81.3775 89.839 81.5081 89.9843 81.5655C90.2217 81.6575 90.4364 81.7908 90.6657 81.8948C90.9444 82.0215 91.2057 82.1695 91.447 82.3561C91.615 82.4855 91.7977 82.5921 91.9857 82.6868C92.127 82.7575 92.2483 82.8601 92.395 82.9241L92.655 83.1095L92.651 83.1122L92.711 83.1481L92.7124 83.1455L92.8431 83.1895C92.9044 83.3201 93.031 83.3561 93.1363 83.4228C93.2377 83.4841 93.2684 83.6668 93.4524 83.5895L93.4897 83.6428C93.619 83.7308 93.6683 83.9535 93.9003 83.8655L93.9563 83.9241L94.059 84.0348L94.1044 83.9815L94.059 84.0281L94.119 84.1042C94.2844 84.1322 94.4124 84.2255 94.5417 84.3188L94.6684 84.4095C94.783 84.4055 94.9017 84.3948 94.9324 84.5535L95.0964 84.5762L95.0923 84.5735L95.1617 84.6961V84.6908L95.351 84.8015L95.3964 84.7841Z" fill="#1A1818"/>
<path d="M110.114 93.676L110.094 93.7173L110.335 93.8573L110.539 93.9627C110.689 93.9907 110.814 94.0627 110.937 94.1347C111.135 94.2507 111.353 94.3373 111.547 94.4627L111.871 94.6507L112.257 94.8787L112.539 95.0133C112.682 95.0853 112.807 95.1867 112.973 95.2227L113.113 95.2867L113.218 95.4L113.346 95.5467L113.51 95.6907L113.643 95.5787C113.755 95.4254 113.819 95.244 113.782 95.184L113.754 95.1L113.845 95.0774L114.021 94.928L114.143 94.64L114.115 94.5694L114.069 94.452L114.025 94.388L113.807 94.272C113.666 94.1534 113.459 94.144 113.317 94.0293L113.027 93.8907L112.717 93.7414L112.549 93.7133C112.537 93.5373 112.373 93.604 112.305 93.5133C112.213 93.3907 112.014 93.44 111.921 93.3094L111.645 93.152C111.491 93.0333 111.283 93.0053 111.127 92.8853C110.987 92.776 110.822 92.704 110.685 92.5853C110.543 92.46 110.387 92.3614 110.242 92.24C109.989 92.028 109.715 91.844 109.453 91.6467C109.283 91.5187 109.099 91.416 108.934 91.2813C108.805 91.176 108.651 91.1134 108.506 91.036L108.243 90.9133C108.202 90.8947 108.149 90.9027 108.043 91.072L107.967 91.1374C107.869 91.1694 107.805 91.2467 107.706 91.4613L107.547 91.76C107.409 91.992 107.378 92.1053 107.457 92.1213C107.583 92.148 107.687 92.2147 107.809 92.2533C107.953 92.2987 108.085 92.368 108.193 92.4747L108.454 92.6374L108.657 92.7507L108.778 92.8507L108.775 92.8547L108.803 92.872L108.805 92.8694L108.878 92.8774L109.009 93.012C109.058 93.0427 109.035 93.1933 109.167 93.0853L109.179 93.1213C109.239 93.1693 109.221 93.3493 109.386 93.2213L109.407 93.2587L109.447 93.332L109.486 93.2774L109.449 93.3267L109.467 93.3787L109.683 93.468L109.742 93.5173C109.815 93.488 109.893 93.452 109.875 93.5827L109.973 93.564H109.971L109.987 93.6533L109.989 93.648L110.081 93.7027L110.114 93.676Z" fill="#1A1818"/>
<path d="M32.1189 46.5535L32.1109 46.6015C32.3843 46.8335 32.7429 46.9121 33.0283 47.1508C33.2403 47.3295 33.5256 47.4668 33.7923 47.5935C34.2896 47.8321 34.7656 48.1148 35.2336 48.3961C35.9963 48.8521 36.7763 49.2788 37.5309 49.7442C37.9416 49.9962 38.3736 50.2148 38.7709 50.4841C39.2456 50.8081 39.7709 51.0442 40.2429 51.3708C40.5723 51.5988 40.9376 51.7655 41.2843 51.9628C41.8163 52.2695 42.3309 52.6055 42.8843 52.8775C43.0589 52.9615 43.2669 53.0095 43.3949 53.1641C43.5229 53.3228 43.691 53.4121 43.8643 53.4988C44.083 53.6095 44.2762 53.7561 44.4496 53.9215C44.6549 54.1135 44.8856 54.2548 45.1349 54.3801L45.4003 54.3481C45.5536 54.2188 45.5216 53.9801 45.3296 53.8268L45.1403 53.6442L45.3936 53.7201C45.5216 53.7628 45.6643 53.7921 45.7483 53.6801C45.8256 53.5801 45.8123 53.4508 45.7629 53.3255L45.5843 53.1655C45.4683 53.0948 45.3576 53.0255 45.2949 52.9015L45.0802 52.7335C44.7976 52.5881 44.5256 52.4281 44.2602 52.2535C43.6749 51.8681 43.0296 51.5908 42.4416 51.2082C42.099 50.9855 41.7176 50.8161 41.3763 50.6001C41.0016 50.3655 40.6136 50.1615 40.2309 49.9468C40.0522 49.8468 39.8856 49.7188 39.6763 49.6868C39.4163 49.3601 38.9963 49.2708 38.6736 49.0268C38.2323 48.6935 37.6843 48.5321 37.2309 48.1841C36.9176 47.9441 36.5256 47.7815 36.1829 47.5601C35.5576 47.1561 34.8803 46.8442 34.2523 46.4388C33.6776 46.0682 33.0776 45.7335 32.5083 45.3508C31.9136 44.9548 31.3043 44.5815 30.7083 44.1881C29.6563 43.4935 28.5843 42.8268 27.5229 42.1468C26.8416 41.7095 26.1429 41.2948 25.4643 40.8508C24.9363 40.5042 24.3803 40.1988 23.8349 39.8788C23.5149 39.6922 23.1936 39.5134 22.8723 39.3334C22.7189 39.2468 22.5643 39.1948 22.4536 39.3615L22.3029 39.3815C22.0376 39.3122 21.9376 39.3668 21.9043 39.6228C21.8909 39.7455 21.8523 39.8455 21.7923 39.9482C21.6563 40.1828 21.7056 40.3441 21.9683 40.4721C22.3949 40.6788 22.7976 40.9255 23.2163 41.1441C23.7229 41.4081 24.2123 41.6935 24.6803 42.0175C25.0069 42.2442 25.3496 42.4468 25.6949 42.6348C25.9549 42.7775 26.1949 42.9521 26.4589 43.0881C26.6296 43.1761 26.8269 43.2575 26.9589 43.4175L26.9536 43.4215L27.0669 43.4895V43.4842L27.3016 43.5895C27.4523 43.7762 27.6749 43.8695 27.8736 43.9922C28.0643 44.1082 28.1843 44.3455 28.4549 44.3215L28.5403 44.4015C28.7856 44.5601 28.9536 44.8548 29.3029 44.8361L29.4176 44.9308L29.6269 45.1068L29.6803 45.0601L29.6256 45.1001L29.7536 45.2175C30.0363 45.3161 30.2843 45.4815 30.5323 45.6455L30.7749 45.8068C30.9629 45.8482 31.1549 45.8801 31.2669 46.0895L31.5443 46.1788L31.5389 46.1762L31.6989 46.3535L31.6962 46.3468C31.8242 46.4028 31.8949 46.5548 32.0536 46.5575L32.1189 46.5535Z" fill="#1A1818"/>
<path d="M100.998 60.5827L101.018 60.6241C101.25 60.6294 101.439 60.4668 101.678 60.4708C101.857 60.4748 102.044 60.4014 102.219 60.3321C102.546 60.2028 102.887 60.1228 103.224 60.0454C103.771 59.9174 104.308 59.7561 104.858 59.6401C105.156 59.5761 105.447 59.4748 105.747 59.4321C106.108 59.3814 106.446 59.2348 106.807 59.1894C107.059 59.1574 107.294 59.0561 107.538 58.9921C107.914 58.8934 108.298 58.8294 108.666 58.6908C108.781 58.6468 108.891 58.5534 109.022 58.5921C109.155 58.6321 109.271 58.5947 109.387 58.5534C109.533 58.5014 109.687 58.4948 109.842 58.5108C110.025 58.5308 110.193 58.4934 110.359 58.4321L110.452 58.2428C110.451 58.0494 110.317 57.8868 110.159 57.8908L109.988 57.8694L110.131 57.7694C110.207 57.7214 110.28 57.6547 110.258 57.5161C110.239 57.3934 110.168 57.3028 110.083 57.2374L109.929 57.2268L109.675 57.2054L109.502 57.2108C109.311 57.2774 109.117 57.3241 108.918 57.3561C108.481 57.4268 108.071 57.6201 107.634 57.6948C107.381 57.7374 107.135 57.8468 106.885 57.8961C106.611 57.9494 106.346 58.0361 106.078 58.1121C105.954 58.1468 105.821 58.1521 105.718 58.2574C105.445 58.1721 105.226 58.3654 104.966 58.3801C104.617 58.4014 104.307 58.6201 103.942 58.6374C103.69 58.6494 103.447 58.7707 103.191 58.8147C102.728 58.8974 102.289 59.0828 101.823 59.1641C101.398 59.2388 100.979 59.3588 100.549 59.4228C100.102 59.4908 99.6605 59.5868 99.2138 59.6574C98.4245 59.7841 97.6432 59.9441 96.8592 60.0881C96.3539 60.1801 95.8552 60.2987 95.3485 60.3827C94.9525 60.4494 94.5685 60.5628 94.1792 60.6588C93.9539 60.7148 93.7299 60.7801 93.5059 60.8428C93.3979 60.8721 93.3072 60.9294 93.3459 61.1241L93.2938 61.2348C93.1498 61.3481 93.1352 61.4521 93.2512 61.6668L93.3712 61.9854C93.4338 62.2494 93.5352 62.3414 93.7085 62.2748C93.9899 62.1681 94.2832 62.1041 94.5658 62.0094C94.9098 61.8948 95.2578 61.8081 95.6165 61.7628C95.8658 61.7321 96.1125 61.6721 96.3498 61.6001C96.5298 61.5468 96.7178 61.5308 96.8965 61.4694C97.0112 61.4294 97.1352 61.3694 97.2712 61.4094L97.2699 61.4147L97.3512 61.3961L97.3485 61.3921L97.5005 61.3268C97.6565 61.3748 97.7952 61.3081 97.9405 61.2761C98.0778 61.2468 98.2485 61.3521 98.3485 61.1641L98.4245 61.1734C98.6072 61.1414 98.8258 61.2601 98.9605 61.0294H99.0565L99.2325 61.0334L99.2312 60.9641L99.2285 61.0294L99.3419 61.0374C99.5085 60.9374 99.6938 60.9094 99.8805 60.8801L100.063 60.8507C100.162 60.7654 100.258 60.6694 100.41 60.7588L100.57 60.6561H100.566L100.723 60.6921L100.719 60.6881L100.974 60.6281L100.998 60.5827Z" fill="#1A1818"/>
<path d="M116.859 56.9974L116.873 57.04L117.122 56.9787L117.327 56.9173C117.444 56.836 117.572 56.804 117.7 56.7734C117.907 56.7227 118.107 56.6374 118.316 56.5987L118.653 56.5147C118.793 56.5147 118.912 56.4173 119.056 56.4213L119.329 56.3267C119.469 56.2813 119.618 56.2707 119.75 56.1853L119.884 56.1374L120.028 56.148L120.209 56.168L120.411 56.1614L120.424 55.9893C120.397 55.8013 120.32 55.6254 120.256 55.608L120.183 55.5654L120.229 55.4867C120.253 55.4507 120.275 55.396 120.247 55.2587C120.223 55.136 120.181 55.0387 120.139 54.964L120.073 54.9334L119.967 54.8787L119.896 54.8614L119.676 54.924C119.507 54.9347 119.364 55.068 119.195 55.0813L118.914 55.1774L118.613 55.2787L118.484 55.372C118.36 55.2507 118.296 55.4107 118.192 55.3907C118.052 55.364 117.953 55.5347 117.807 55.5027L117.522 55.576C117.342 55.5934 117.188 55.7147 117.008 55.732C116.843 55.748 116.688 55.808 116.52 55.812C116.345 55.8187 116.177 55.852 116.004 55.8627C115.697 55.88 115.399 55.9307 115.096 55.9654C114.9 55.9867 114.712 56.036 114.514 56.0507C114.362 56.0613 114.22 56.12 114.073 56.1627L113.821 56.2507C113.781 56.2653 113.752 56.308 113.793 56.5027L113.786 56.6027C113.742 56.6934 113.751 56.792 113.828 57.016L113.919 57.3414C113.98 57.6054 114.033 57.708 114.096 57.6667L114.412 57.524C114.537 57.4587 114.669 57.42 114.809 57.424L115.089 57.3654L115.295 57.3107L115.441 57.3027V57.3067L115.472 57.3L115.471 57.296L115.524 57.2533L115.697 57.2627C115.751 57.252 115.835 57.3774 115.849 57.208L115.883 57.2267C115.953 57.22 116.059 57.3653 116.083 57.1587L116.121 57.172L116.195 57.1987L116.185 57.132L116.192 57.1947L116.24 57.2187L116.441 57.1374L116.511 57.1334L116.641 57.0907L116.693 57.0107H116.692L116.761 57.0667L116.759 57.0627L116.855 57.0387L116.859 56.9974Z" fill="#1A1818"/>
<path d="M31.3671 76.3215L31.3912 76.3642C31.6645 76.3602 31.8951 76.1868 32.1778 76.1815C32.3898 76.1775 32.6152 76.0962 32.8245 76.0188C33.2165 75.8748 33.6218 75.7802 34.0245 75.6868C34.6778 75.5362 35.3218 75.3508 35.9765 75.2108C36.3325 75.1348 36.6791 75.0188 37.0378 74.9642C37.4671 74.8975 37.8725 74.7362 38.3018 74.6748C38.6018 74.6322 38.8858 74.5202 39.1765 74.4455C39.6245 74.3295 40.0818 74.2495 40.5218 74.0948C40.6605 74.0455 40.7952 73.9468 40.9498 73.9801C41.1058 74.0135 41.2432 73.9722 41.3832 73.9255C41.5592 73.8668 41.7405 73.8535 41.9245 73.8642C42.1392 73.8762 42.3405 73.8322 42.5392 73.7628L42.6592 73.5682C42.6645 73.3722 42.5098 73.2148 42.3245 73.2242L42.1232 73.2095L42.2965 73.1028C42.3885 73.0522 42.4778 72.9815 42.4578 72.8428C42.4405 72.7188 42.3591 72.6308 42.2631 72.5682L42.0792 72.5642L41.7805 72.5522L41.5738 72.5655C41.3458 72.6402 41.1138 72.6962 40.8778 72.7375C40.3552 72.8268 39.8658 73.0375 39.3431 73.1308C39.0405 73.1855 38.7472 73.3055 38.4485 73.3655C38.1205 73.4308 37.8045 73.5308 37.4858 73.6175C37.3378 73.6575 37.1765 73.6695 37.0525 73.7801C36.7312 73.7041 36.4632 73.9095 36.1578 73.9348C35.7405 73.9708 35.3658 74.2028 34.9338 74.2362C34.6351 74.2588 34.3418 74.3921 34.0378 74.4481C33.4858 74.5495 32.9578 74.7548 32.4031 74.8562C31.8965 74.9508 31.3965 75.0882 30.8845 75.1708C30.3525 75.2575 29.8258 75.3722 29.2925 75.4628C28.3552 75.6228 27.4232 75.8175 26.4885 75.9948C25.8872 76.1095 25.2912 76.2495 24.6885 76.3562C24.2192 76.4388 23.7578 76.5682 23.2938 76.6828C23.0232 76.7495 22.7552 76.8228 22.4872 76.8962C22.3592 76.9308 22.2498 76.9922 22.2872 77.1868L22.2218 77.3002C22.0458 77.4215 22.0232 77.5268 22.1538 77.7388L22.2818 78.0562C22.3432 78.3188 22.4605 78.4082 22.6698 78.3335C23.0071 78.2135 23.3552 78.1375 23.6952 78.0295C24.1072 77.9002 24.5218 77.7975 24.9485 77.7375C25.2445 77.6962 25.5378 77.6255 25.8232 77.5428C26.0392 77.4815 26.2618 77.4562 26.4751 77.3882C26.6138 77.3428 26.7618 77.2775 26.9205 77.3122V77.3162L27.0178 77.2948L27.0152 77.2908L27.1965 77.2188C27.3791 77.2615 27.5472 77.1882 27.7205 77.1495C27.8845 77.1148 28.0818 77.2135 28.2085 77.0202L28.2965 77.0255C28.5138 76.9855 28.7685 77.0975 28.9391 76.8588L29.0512 76.8535L29.2592 76.8508L29.2605 76.7815L29.2538 76.8468L29.3885 76.8508C29.5898 76.7428 29.8111 76.7055 30.0325 76.6695L30.2498 76.6322C30.3712 76.5415 30.4885 76.4415 30.6645 76.5255L30.8578 76.4148H30.8538L31.0378 76.4442L31.0325 76.4402L31.3378 76.3695L31.3671 76.3215Z" fill="#1A1818"/>
<path d="M75.0482 102.131L75.0082 102.155C75.0109 102.433 75.1856 102.668 75.1922 102.957C75.1976 103.172 75.2803 103.401 75.3576 103.616C75.5043 104.016 75.6002 104.431 75.6949 104.841C75.8482 105.507 76.0376 106.164 76.1802 106.831C76.2589 107.193 76.3749 107.548 76.4323 107.913C76.5003 108.351 76.6642 108.764 76.7282 109.203C76.7709 109.508 76.8843 109.796 76.9603 110.093C77.0776 110.552 77.1602 111.017 77.3175 111.467C77.3655 111.608 77.4669 111.745 77.4336 111.901C77.3989 112.061 77.4429 112.201 77.4896 112.343C77.5496 112.523 77.5642 112.709 77.5549 112.896C77.5429 113.116 77.5869 113.319 77.6576 113.523L77.8522 113.645C78.0496 113.651 78.2069 113.496 78.1963 113.305L78.2096 113.101L78.3162 113.279C78.3696 113.371 78.4389 113.463 78.5776 113.444C78.7029 113.425 78.7896 113.344 78.8522 113.247L78.8549 113.06L78.8656 112.755L78.8509 112.544C78.7762 112.312 78.7189 112.075 78.6763 111.833C78.5856 111.303 78.3723 110.801 78.2763 110.271C78.2203 109.961 78.0989 109.661 78.0376 109.357C77.9709 109.023 77.8709 108.701 77.7829 108.375C77.7402 108.223 77.7296 108.061 77.6189 107.932C77.6922 107.607 77.4856 107.333 77.4576 107.02C77.4203 106.596 77.1855 106.213 77.1509 105.773C77.1269 105.468 76.9936 105.169 76.9362 104.86C76.8322 104.296 76.6242 103.759 76.5189 103.192C76.4242 102.675 76.2856 102.165 76.1989 101.644C76.1109 101.101 75.9936 100.564 75.8989 100.021C75.7349 99.0654 75.5376 98.1147 75.3549 97.1614C75.2376 96.548 75.0949 95.9414 74.9869 95.3267C74.9015 94.8467 74.7695 94.3774 74.6535 93.904C74.5855 93.6294 74.5096 93.3547 74.4362 93.0813C74.4002 92.9507 74.3402 92.84 74.1442 92.8774L74.0296 92.8094C73.9083 92.6294 73.8029 92.6067 73.5909 92.7374L73.2749 92.8667C73.0109 92.9294 72.9229 93.048 72.9989 93.26C73.1203 93.6054 73.1976 93.96 73.3069 94.308C73.4389 94.728 73.5429 95.1493 73.6056 95.5853C73.6482 95.888 73.7202 96.1867 73.8029 96.4774C73.8656 96.6974 73.8909 96.9254 73.9603 97.1427C74.0069 97.284 74.0722 97.4347 74.0389 97.596H74.0336L74.0576 97.696L74.0603 97.6934L74.1323 97.8774C74.0923 98.064 74.1669 98.2347 74.2043 98.412C74.2403 98.5787 74.1416 98.78 74.3376 98.908L74.3323 99C74.3723 99.2214 74.2616 99.48 74.5016 99.6533L74.5069 99.7694L74.5109 99.9813L74.5802 99.9827L74.5149 99.976L74.5096 100.112C74.6203 100.317 74.6576 100.544 74.6949 100.769L74.7323 100.991C74.8256 101.115 74.9256 101.233 74.8429 101.413L74.9535 101.612V101.607L74.9256 101.795L74.9282 101.789L75.0016 102.1L75.0482 102.131Z" fill="#1A1818"/>
<path d="M56.963 22.1334L56.9216 22.1535C56.911 22.3681 57.071 22.5388 57.0644 22.7615C57.0577 22.9268 57.1257 23.1001 57.1923 23.2615C57.315 23.5615 57.3897 23.8761 57.4617 24.1868C57.5803 24.6908 57.731 25.1881 57.839 25.6961C57.8977 25.9708 57.9937 26.2374 58.031 26.5161C58.075 26.8494 58.2163 27.1601 58.255 27.4948C58.2843 27.7268 58.3803 27.9441 58.4403 28.1694C58.5323 28.5147 58.5896 28.8694 58.7216 29.2081C58.763 29.3134 58.855 29.4148 58.8136 29.5374C58.7723 29.6614 58.807 29.7681 58.8457 29.8747C58.8963 30.0094 58.899 30.1521 58.8817 30.2961C58.859 30.4668 58.8923 30.6201 58.951 30.7747L59.1377 30.8574C59.331 30.8521 59.495 30.7254 59.495 30.5788L59.5177 30.4214L59.615 30.5521C59.6617 30.6201 59.727 30.6881 59.8644 30.6654C59.9883 30.6454 60.079 30.5788 60.1457 30.4988L60.159 30.3548L60.1843 30.1201L60.1817 29.9588C60.119 29.7841 60.075 29.6041 60.047 29.4201C59.983 29.0161 59.7977 28.6414 59.731 28.2361C59.6923 28.0014 59.5883 27.7774 59.543 27.5454C59.4937 27.2908 59.411 27.0481 59.3417 26.8014L59.2017 26.4694C59.291 26.2134 59.103 26.0134 59.091 25.7747C59.0763 25.4507 58.8643 25.1681 58.8523 24.8294C58.8443 24.5961 58.7283 24.3721 58.687 24.1374C58.6137 23.7081 58.4376 23.3054 58.363 22.8734C58.295 22.4801 58.183 22.0947 58.1257 21.6974C58.0657 21.2841 57.9776 20.8774 57.9136 20.4628C57.8003 19.7348 57.655 19.0135 57.5243 18.2895C57.4416 17.8228 57.331 17.3614 57.255 16.8934C57.1963 16.5294 57.0897 16.1734 57.0004 15.8148C56.9484 15.6068 56.8883 15.4001 56.8283 15.1934C56.799 15.0934 56.7457 15.0108 56.551 15.0508L56.4417 15.0027C56.331 14.8721 56.2284 14.8601 56.011 14.9721L55.691 15.0868C55.4283 15.1495 55.335 15.2454 55.3977 15.4054C55.5004 15.6641 55.559 15.9348 55.6483 16.1961C55.7563 16.5121 55.839 16.8334 55.8763 17.1654C55.903 17.3961 55.9577 17.6227 56.0257 17.8414C56.0763 18.0081 56.0897 18.1814 56.1483 18.3454C56.1843 18.4521 56.243 18.5654 56.2017 18.6908H56.1963L56.2136 18.7667L56.2177 18.7654L56.2803 18.9027C56.2296 19.0494 56.2937 19.1774 56.323 19.3107C56.3497 19.4374 56.2416 19.5988 56.427 19.6868L56.4177 19.7574C56.447 19.9268 56.3243 20.1308 56.5523 20.2535L56.551 20.3414L56.5444 20.5041L56.6123 20.5027L56.5483 20.5001L56.5377 20.6054C56.6337 20.7574 56.6603 20.9307 56.6856 21.1027L56.711 21.2708C56.795 21.3614 56.8896 21.4481 56.7963 21.5908L56.8977 21.7374V21.7348L56.859 21.8801L56.863 21.8761L56.919 22.1107L56.963 22.1334Z" fill="#1A1818"/>
<path d="M60.6545 38.4535L60.6105 38.4682L60.6731 38.7268L60.7358 38.9375C60.8198 39.0588 60.8518 39.1922 60.8851 39.3242C60.9371 39.5388 61.0225 39.7455 61.0651 39.9628C61.0865 40.0788 61.1491 40.1895 61.1504 40.3108C61.1518 40.4575 61.2504 40.5802 61.2478 40.7268L61.3425 41.0108C61.3918 41.1561 61.4024 41.3108 61.4891 41.4482L61.5384 41.5855L61.5278 41.7348L61.5092 41.9215L61.5171 42.1295L61.6891 42.1455C61.8784 42.1188 62.0531 42.0401 62.0705 41.9748L62.1144 41.8988L62.1918 41.9468C62.2291 41.9721 62.2838 41.9948 62.4198 41.9682C62.5438 41.9442 62.6398 41.9015 62.7144 41.8575L62.7452 41.7908L62.7985 41.6801L62.8158 41.6081L62.7504 41.3801C62.7384 41.2041 62.6065 41.0575 62.5905 40.8815L62.4931 40.5908L62.3891 40.2788L62.2931 40.1455C62.4131 40.0188 62.2531 39.9508 62.2731 39.8441C62.2971 39.6988 62.1265 39.5961 62.1571 39.4441L62.0811 39.1508C62.0638 38.9655 61.9411 38.8042 61.9224 38.6175C61.9051 38.4468 61.8438 38.2868 61.8384 38.1122C61.8304 37.9322 61.7944 37.7575 61.7838 37.5788C61.7638 37.2615 61.7105 36.9535 61.6745 36.6388C61.6505 36.4388 61.5998 36.2428 61.5838 36.0402C61.5718 35.8815 61.5118 35.7335 61.4691 35.5828L61.3785 35.3202C61.3638 35.2788 61.3211 35.2482 61.1251 35.2908L61.0265 35.2828C60.9358 35.2361 60.8371 35.2442 60.6131 35.3215L60.2864 35.4122C60.0224 35.4735 59.9198 35.5295 59.9625 35.5935L60.1078 35.9215C60.1745 36.0522 60.2145 36.1868 60.2105 36.3335L60.2718 36.6229L60.3278 36.8361L60.3384 36.9855L60.3331 36.9868L60.3411 37.0188L60.3425 37.0175L60.3878 37.0721L60.3798 37.2521C60.3905 37.3055 60.2651 37.3922 60.4345 37.4095L60.4158 37.4428C60.4225 37.5162 60.2785 37.6242 60.4851 37.6508L60.4731 37.6908L60.4478 37.7668L60.5131 37.7562L60.4518 37.7641L60.4278 37.8122L60.5105 38.0202L60.5144 38.0935L60.5584 38.2282L60.6384 38.2828L60.6371 38.2815L60.5825 38.3521L60.5878 38.3495L60.6131 38.4495L60.6545 38.4535Z" fill="#1A1818"/>
</svg>
