<svg width="64" height="64" viewBox="0 0 64 64" fill="none" xmlns="http://www.w3.org/2000/svg">
<g filter="url(#filter0_b_18_1096)">
<path d="M0 32C0 14.3269 14.3269 0 32 0C49.6731 0 64 14.3269 64 32C64 49.6731 49.6731 64 32 64C14.3269 64 0 49.6731 0 32Z" fill="white" fill-opacity="0.88"/>
<path d="M35.2605 42.25H28.7405C23.8305 42.25 21.7305 40.15 21.7305 35.24V35.11C21.7305 30.67 23.4805 28.53 27.4005 28.16C27.8005 28.13 28.1805 28.43 28.2205 28.84C28.2605 29.25 27.9605 29.62 27.5405 29.66C24.4005 29.95 23.2305 31.43 23.2305 35.12V35.25C23.2305 39.32 24.6705 40.76 28.7405 40.76H35.2605C39.3305 40.76 40.7705 39.32 40.7705 35.25V35.12C40.7705 31.41 39.5805 29.93 36.3805 29.66C35.9705 29.62 35.6605 29.26 35.7005 28.85C35.7405 28.44 36.0905 28.13 36.5105 28.17C40.4905 28.51 42.2705 30.66 42.2705 35.13V35.26C42.2705 40.15 40.1705 42.25 35.2605 42.25Z" fill="#136A99"/>
<path d="M32 35.63C31.59 35.63 31.25 35.29 31.25 34.88V22C31.25 21.59 31.59 21.25 32 21.25C32.41 21.25 32.75 21.59 32.75 22V34.88C32.75 35.3 32.41 35.63 32 35.63Z" fill="#136A99"/>
<path d="M31.9998 36.75C31.8098 36.75 31.6198 36.68 31.4698 36.53L28.1198 33.18C27.8298 32.89 27.8298 32.41 28.1198 32.12C28.4098 31.83 28.8898 31.83 29.1798 32.12L31.9998 34.94L34.8198 32.12C35.1098 31.83 35.5898 31.83 35.8798 32.12C36.1698 32.41 36.1698 32.89 35.8798 33.18L32.5298 36.53C32.3798 36.68 32.1898 36.75 31.9998 36.75Z" fill="#136A99"/>
</g>
<defs>
<filter id="filter0_b_18_1096" x="-12" y="-12" width="88" height="88" filterUnits="userSpaceOnUse" color-interpolation-filters="sRGB">
<feFlood flood-opacity="0" result="BackgroundImageFix"/>
<feGaussianBlur in="BackgroundImageFix" stdDeviation="6"/>
<feComposite in2="SourceAlpha" operator="in" result="effect1_backgroundBlur_18_1096"/>
<feBlend mode="normal" in="SourceGraphic" in2="effect1_backgroundBlur_18_1096" result="shape"/>
</filter>
</defs>
</svg>
