<svg width="56" height="56" viewBox="0 0 56 56" fill="none" xmlns="http://www.w3.org/2000/svg">
<rect width="56" height="56" rx="28" fill="white"/>
<path fill-rule="evenodd" clip-rule="evenodd" d="M26.4877 19.7877C27.4723 18.8031 28.8076 18.25 30.2 18.25H32.9C33.3142 18.25 33.65 18.5858 33.65 19V22.6C33.65 23.0142 33.3142 23.35 32.9 23.35H30.2C30.1602 23.35 30.1221 23.3658 30.0939 23.3939C30.0658 23.4221 30.05 23.4602 30.05 23.5V25.45H32.9C33.131 25.45 33.349 25.5564 33.4912 25.7384C33.6333 25.9205 33.6836 26.1578 33.6276 26.3819L32.7276 29.9819C32.6441 30.3158 32.3442 30.55 32 30.55H30.05V37C30.05 37.4142 29.7142 37.75 29.3 37.75H25.7C25.2858 37.75 24.95 37.4142 24.95 37V30.55H23C22.5858 30.55 22.25 30.2142 22.25 29.8V26.2C22.25 25.7858 22.5858 25.45 23 25.45H24.95V23.5C24.95 22.1076 25.5031 20.7723 26.4877 19.7877ZM30.2 19.75C29.2054 19.75 28.2516 20.1451 27.5483 20.8483C26.8451 21.5516 26.45 22.5054 26.45 23.5V26.2C26.45 26.6142 26.1142 26.95 25.7 26.95H23.75V29.05H25.7C26.1142 29.05 26.45 29.3858 26.45 29.8V36.25H28.55V29.8C28.55 29.3858 28.8858 29.05 29.3 29.05H31.4144L31.9394 26.95H29.3C28.8858 26.95 28.55 26.6142 28.55 26.2V23.5C28.55 23.0624 28.7238 22.6427 29.0333 22.3333C29.3427 22.0238 29.7624 21.85 30.2 21.85H32.15V19.75H30.2Z" fill="#136A99"/>
</svg>
