<svg width="137" height="136" viewBox="0 0 137 136" fill="none" xmlns="http://www.w3.org/2000/svg">
<path d="M136.887 68.0014C136.887 105.556 106.442 136 68.8867 136C31.3318 136 0.886719 105.556 0.886719 68.0014C0.886719 30.445 31.3318 0 68.8867 0C106.442 0 136.887 30.445 136.887 68.0014Z" fill="#F3EDE6"/>
<path d="M114.88 74.3398L113.139 74.8572C110.775 75.5585 108.927 77.6371 108.303 80.2985L107.822 82.3532C107.663 83.0265 106.814 83.0265 106.655 82.3532L106.174 80.2985C105.551 77.6371 103.703 75.5585 101.338 74.8572L99.5095 74.3131C98.9109 74.1371 98.9109 73.1798 99.5095 73.0038L101.338 72.4611C103.703 71.7585 105.551 69.6812 106.174 67.0185L106.679 64.8585C106.836 64.1932 107.674 64.1825 107.842 64.8438L108.47 67.3038C109.143 69.9398 111.02 71.9692 113.39 72.6185L114.87 73.0252C115.476 73.1918 115.484 74.1611 114.88 74.3398Z" fill="#1A1818"/>
<path d="M34.1766 52.8586L32.886 53.2413C31.1313 53.7613 29.762 55.3039 29.298 57.2773L28.942 58.8013C28.8246 59.3013 28.194 59.3013 28.0766 58.8013L27.7206 57.2773C27.258 55.3039 25.8873 53.7613 24.1326 53.2413L22.7793 52.8399C22.334 52.7079 22.334 51.9986 22.7793 51.8666L24.1326 51.4653C25.8873 50.9453 27.258 49.4026 27.7206 47.4293L28.0953 45.8266C28.2113 45.3333 28.8326 45.3253 28.9566 45.8159L29.4233 47.6399C29.922 49.5959 31.314 51.0999 33.0713 51.5826L34.17 51.884C34.6193 52.0066 34.6246 52.7253 34.1766 52.8586Z" fill="#1A1818"/>
<path d="M57.3398 97.7999L55.5998 98.3146C53.2331 99.0172 51.3865 101.096 50.7625 103.757L50.2811 105.812C50.1225 106.485 49.2732 106.485 49.1158 105.812L48.6331 103.757C48.0091 101.096 46.1625 99.0172 43.7958 98.3146L41.9705 97.7732C41.3718 97.5959 41.3718 96.6412 41.9705 96.4625L43.7958 95.9212C46.1625 95.2186 48.0091 93.1412 48.6331 90.4786L49.1398 88.3172C49.2958 87.6519 50.1331 87.6426 50.3025 88.3039L50.9305 90.7625C51.6038 93.3999 53.4798 95.4279 55.8492 96.0786L57.3305 96.4839C57.9371 96.6506 57.9451 97.6199 57.3398 97.7999Z" fill="#1A1818"/>
<path d="M92.4137 41.2786L90.2444 41.9213C87.2977 42.7946 84.9977 45.3853 84.2204 48.6999L83.6191 51.2599C83.423 52.0986 82.3643 52.0986 82.1683 51.2599L81.567 48.6999C80.7897 45.3853 78.4897 42.7946 75.5417 41.9213L73.267 41.2466C72.5204 41.0253 72.5204 39.8346 73.267 39.6133L75.5417 38.9373C78.4897 38.0626 80.7897 35.4746 81.567 32.1586L82.1991 29.4679C82.3937 28.6373 83.4363 28.6239 83.6457 29.4493L84.4284 32.5119C85.267 35.7973 87.6057 38.3239 90.5564 39.1346L92.3991 39.6413C93.1564 39.8479 93.167 41.0546 92.4137 41.2786Z" fill="#1A1818"/>
<path d="M33.3746 58.8693L33.4226 58.852L33.3866 58.7493L33.3413 58.668L33.2293 58.5253L33.1093 58.276L33.0586 58.1373L33.0026 57.9693L32.9333 57.8626L32.8279 57.6973L32.7893 57.6453L32.8186 57.576L32.8599 57.4853L32.8759 57.392L32.6933 57.4253C32.4866 57.484 32.2893 57.5613 32.2639 57.596L32.2093 57.64L32.1293 57.6373C32.0933 57.6346 32.0373 57.6373 31.8866 57.6827C31.7519 57.724 31.6426 57.7653 31.5586 57.804L31.5173 57.8413L31.4466 57.9053L31.4199 57.9426L31.4626 58.032L31.5773 58.2213L31.6479 58.3306L31.7239 58.4493L31.8093 58.488C31.6666 58.5747 31.8306 58.5667 31.7973 58.62L31.8746 58.776L31.9213 58.8933L32.0306 59.0986L32.0626 59.3093L32.0586 59.5413C32.0426 59.6813 32.0626 59.8107 32.0653 59.9453L32.0919 60.1986L32.1626 60.3813L32.2293 60.4787C32.2399 60.4947 32.2839 60.4986 32.4973 60.432L32.6039 60.412C32.6959 60.4107 32.8039 60.384 33.0533 60.2946C33.1733 60.252 33.2853 60.2146 33.4133 60.1746C33.7039 60.084 33.8213 60.0333 33.7839 60.0133L33.6653 59.8986L33.6039 59.7346L33.5706 59.616L33.5359 59.532L33.5426 59.4653L33.5479 59.464L33.5439 59.4507L33.5399 59.4533L33.4999 59.4386L33.5293 59.3533C33.5239 59.332 33.6693 59.2626 33.4879 59.2946L33.5119 59.276C33.5119 59.244 33.6799 59.1586 33.4613 59.1973L33.4799 59.1746L33.516 59.1346L33.4439 59.1547L33.5106 59.1373L33.5426 59.1093L33.4786 59.0333L33.4826 59.0013C33.4093 59.004 33.3279 59.0093 33.4519 58.9493L33.3719 58.944V58.9453L33.4386 58.8986L33.4346 58.9013L33.4173 58.8613L33.3746 58.8693Z" fill="#1A1818"/>
<path d="M36.3979 68.564L36.4459 68.5453L36.3765 68.3373L36.3045 68.1693L36.1405 67.8653C36.0819 67.692 35.9872 67.5307 35.9405 67.3533L35.8445 67.072C35.8419 66.9493 35.7325 66.86 35.7352 66.736L35.6285 66.5106L35.4672 66.1653L35.4125 66.056L35.4232 65.928L35.4432 65.768L35.4339 65.5933L35.2432 65.6066C35.0365 65.6573 34.8432 65.7506 34.8245 65.8093L34.7779 65.8786L34.6912 65.8506C34.6498 65.8346 34.5899 65.824 34.4392 65.868C34.3032 65.9066 34.1978 65.9573 34.1165 66.0053L34.0819 66.0666L34.0232 66.168L34.0059 66.232L34.0765 66.4146C34.0899 66.5613 34.2378 66.6653 34.2552 66.8106L34.3645 67.0413L34.4805 67.288L34.5845 67.3867C34.4525 67.512 34.6299 67.5453 34.6099 67.6386C34.5819 67.7653 34.7712 67.8253 34.7379 67.9573L34.8218 68.1946C34.8432 68.348 34.9779 68.4653 35.0005 68.62C35.0192 68.7613 35.0872 68.888 35.0952 69.0333C35.1045 69.184 35.1432 69.3253 35.1565 69.476C35.1778 69.74 35.2379 69.9933 35.2805 70.252C35.3072 70.4173 35.3632 70.5746 35.3819 70.744C35.3952 70.876 35.4605 70.992 35.5085 71.1133L35.6099 71.32C35.6259 71.352 35.6738 71.372 35.8885 71.3066L35.9992 71.2973C36.0992 71.3226 36.2085 71.3013 36.4538 71.2013C36.5725 71.1546 36.6832 71.116 36.8125 71.0746C37.1032 70.9826 37.2165 70.9213 37.1712 70.8733L37.0072 70.6173C36.9352 70.5186 36.8912 70.4107 36.8952 70.2867L36.8258 70.052L36.7632 69.88L36.7512 69.7547H36.7565L36.7485 69.728L36.7445 69.7293L36.6965 69.6893L36.7045 69.536C36.6925 69.492 36.8299 69.4013 36.6432 69.412L36.6645 69.3813C36.6565 69.32 36.8138 69.2066 36.5858 69.216L36.6005 69.18L36.6285 69.1133L36.5552 69.1306L36.6232 69.116L36.6498 69.0706L36.5578 68.908L36.5538 68.8466L36.5045 68.74L36.4152 68.7066L36.4165 68.708L36.4765 68.64L36.4712 68.6426L36.4432 68.5613L36.3979 68.564Z" fill="#1A1818"/>
<path d="M39.8035 79.4772L39.8502 79.4585L39.7822 79.2492L39.7102 79.0812L39.5462 78.7772C39.4875 78.6038 39.3928 78.4425 39.3448 78.2652L39.2502 77.9839C39.2475 77.8625 39.1382 77.7718 39.1408 77.6478L39.0341 77.4225L38.8728 77.0772L38.8181 76.9692L38.8288 76.8412L38.8475 76.6798L38.8395 76.5052L38.6502 76.5185C38.4422 76.5705 38.2488 76.6625 38.2301 76.7212L38.1822 76.7905L38.0968 76.7625C38.0568 76.7478 37.9955 76.7358 37.8435 76.7798C37.7102 76.8185 37.6035 76.8692 37.5208 76.9185L37.4875 76.9785L37.4288 77.0812L37.4102 77.1438L37.4822 77.3265C37.4955 77.4732 37.6435 77.5772 37.6608 77.7225L37.7701 77.9532L37.8861 78.1998L37.9901 78.2998C37.8595 78.4238 38.0355 78.4572 38.0142 78.5505C37.9875 78.6772 38.1755 78.7372 38.1435 78.8692L38.2275 79.1065C38.2488 79.2598 38.3835 79.3772 38.4048 79.5318C38.4248 79.6732 38.4928 79.7998 38.5008 79.9452C38.5088 80.0958 38.5488 80.2385 38.5621 80.3879C38.5835 80.6519 38.6435 80.9052 38.6848 81.1638C38.7128 81.3292 38.7688 81.4865 38.7861 81.6559C38.7995 81.7879 38.8662 81.9039 38.9142 82.0252L39.0142 82.2318C39.0328 82.2638 39.0795 82.2839 39.2928 82.2185L39.4035 82.2092C39.5048 82.2358 39.6141 82.2132 39.8595 82.1145C39.9781 82.0665 40.0888 82.0279 40.2181 81.9865C40.5075 81.8959 40.6208 81.8332 40.5755 81.7852L40.4128 81.5305C40.3408 81.4305 40.2955 81.3225 40.2995 81.1985L40.2301 80.9652L40.1688 80.7932L40.1568 80.6665L40.1621 80.6652L40.1541 80.6398L40.1502 80.6425L40.1021 80.6012L40.1115 80.4492C40.0982 80.4052 40.2355 80.3132 40.0488 80.3239L40.0688 80.2932C40.0621 80.2332 40.2208 80.1198 39.9928 80.1278L40.0062 80.0919L40.0341 80.0252L39.9595 80.0425L40.0288 80.0278L40.0555 79.9825L39.9621 79.8199L39.9581 79.7585L39.9088 79.6519L39.8221 79.6185V79.6199L39.8822 79.5519L39.8768 79.5545L39.8475 79.4745L39.8035 79.4772Z" fill="#1A1818"/>
<path d="M42.7326 88.8718L42.782 88.8558L42.7433 88.7532L42.7006 88.6705L42.5859 88.5291L42.4673 88.2798L42.4166 88.1412L42.3606 87.9745L42.2899 87.8651L42.1846 87.7011L42.1486 87.6492L42.1766 87.5798L42.2193 87.4892L42.234 87.3958L42.0513 87.4291C41.8446 87.4865 41.6486 87.5651 41.6206 87.5985L41.566 87.6438L41.4886 87.6412C41.4513 87.6385 41.3953 87.6412 41.2446 87.6865C41.1113 87.7265 41.0019 87.7692 40.9166 87.8078L40.8753 87.8452L40.8046 87.9092L40.7793 87.9465L40.8219 88.0345L40.9353 88.2252L41.006 88.3345L41.082 88.4532L41.1686 88.4905C41.0246 88.5785 41.1886 88.5705 41.1566 88.6238L41.2326 88.7798L41.2793 88.8958L41.3886 89.1025L41.4206 89.3118L41.4153 89.5452C41.3993 89.6852 41.4219 89.8132 41.4246 89.9492L41.4513 90.2011L41.5206 90.3838L41.5873 90.4825C41.5993 90.4972 41.6406 90.5011 41.8553 90.4358L41.9619 90.4158C42.0553 90.4158 42.162 90.3878 42.4113 90.2985C42.5313 90.2545 42.642 90.2185 42.7726 90.1785C43.062 90.0878 43.1793 90.0372 43.1419 90.0172L43.0233 89.9025L42.9606 89.7385L42.9299 89.6212L42.8939 89.5358L42.9006 89.4705L42.906 89.4691L42.902 89.4558L42.8979 89.4572L42.8579 89.4412L42.8886 89.3585C42.8833 89.3358 43.026 89.2651 42.846 89.2985L42.87 89.2785C42.8713 89.2478 43.0393 89.1625 42.8206 89.1998L42.838 89.1785L42.8753 89.1385L42.802 89.1585L42.87 89.1412L42.9006 89.1118L42.8366 89.0358L42.8393 89.0038C42.7686 89.0078 42.6846 89.0145 42.8086 88.9532L42.7286 88.9478L42.7966 88.9025L42.7913 88.9052L42.7766 88.8651L42.7326 88.8718Z" fill="#1A1818"/>
<path d="M56.1186 88.5572L56.0693 88.5372L56.0306 88.6412L56.0106 88.7305L56.0053 88.9132L55.9306 89.1785L55.8786 89.3172L55.8119 89.4799L55.7946 89.6079L55.7666 89.8012L55.76 89.8652L55.6919 89.8999L55.6026 89.9399L55.5293 90.0012L55.6893 90.0945C55.8839 90.1865 56.084 90.2559 56.1266 90.2479L56.1973 90.2492L56.2546 90.3039C56.2813 90.3292 56.3252 90.3638 56.4679 90.4265C56.5972 90.4852 56.7066 90.5252 56.796 90.5505L56.852 90.5479L56.9479 90.5465L56.9919 90.5359L57.016 90.4412L57.0546 90.2225L57.0719 90.0932L57.0919 89.9545L57.0533 89.8679C57.2186 89.8972 57.0893 89.7959 57.1493 89.7759L57.1919 89.6079L57.232 89.4892L57.2853 89.2612L57.3973 89.0825L57.5546 88.9092L57.8119 88.5972L57.9573 88.3892L58.0226 88.2052L58.0372 88.0879C58.0386 88.0692 58.0079 88.0372 57.8039 87.9479L57.7092 87.8932C57.6399 87.8332 57.5399 87.7839 57.2919 87.6892C57.1746 87.6439 57.0652 87.5972 56.9426 87.5439C56.6626 87.4225 56.5413 87.3839 56.5573 87.4225L56.5706 87.5879L56.5092 87.7532L56.4573 87.8639L56.4293 87.9505L56.3813 87.9958L56.3759 87.9932L56.3706 88.0052L56.3746 88.0065L56.396 88.0439L56.3173 88.0879C56.3066 88.1092 56.1533 88.0678 56.3106 88.1598H56.2799C56.2573 88.1838 56.076 88.1372 56.2653 88.2532L56.2372 88.2559L56.1839 88.2625L56.252 88.2958L56.1893 88.2652H56.1466V88.3652L56.1213 88.3865C56.1786 88.4319 56.2453 88.4812 56.1133 88.4465L56.1693 88.5025H56.1706L56.0893 88.4919L56.0946 88.4945L56.0799 88.5345L56.1186 88.5572Z" fill="#1A1818"/>
<path d="M60.152 79.2785L60.104 79.2611L60.02 79.4651L59.964 79.6385C59.9747 79.7651 59.9334 79.8691 59.8907 79.9745C59.8214 80.1425 59.7893 80.3265 59.7093 80.4892L59.5973 80.7638L59.46 81.0878L59.396 81.3265C59.3587 81.4478 59.2854 81.5531 59.2907 81.6931L59.2627 81.8105L59.172 81.8998L59.052 82.0078L58.9453 82.1451L59.0973 82.2585C59.288 82.3572 59.4947 82.4132 59.5467 82.3798L59.6267 82.3598L59.6733 82.4358C59.6946 82.4758 59.7333 82.5225 59.8773 82.5878C60.0053 82.6452 60.1186 82.6785 60.212 82.6958L60.2773 82.6705L60.388 82.6331L60.444 82.5958L60.5066 82.4132C60.5933 82.2932 60.5493 82.1185 60.6307 81.9971L60.6987 81.7545L60.772 81.4905L60.7574 81.3492C60.9387 81.3398 60.8266 81.1998 60.9013 81.1438L61.0133 80.8185L61.104 80.5865C61.188 80.4572 61.1627 80.2798 61.2467 80.1492L61.444 79.7771C61.536 79.6571 61.5987 79.5251 61.6867 79.4038C61.8413 79.1905 61.9614 78.9611 62.0987 78.7385C62.1867 78.5958 62.2466 78.4411 62.3426 78.3025C62.4186 78.1945 62.444 78.0638 62.4867 77.9398L62.5453 77.7198C62.5546 77.6838 62.5307 77.6385 62.3267 77.5465L62.236 77.4812C62.176 77.3972 62.08 77.3425 61.8294 77.2558C61.708 77.2145 61.5987 77.1718 61.4747 77.1185C61.1947 76.9985 61.068 76.9718 61.072 77.0371L61.0294 77.3345C61.0187 77.4585 60.9827 77.5678 60.8987 77.6585L60.7987 77.8798L60.7333 78.0505L60.66 78.1518L60.656 78.1492L60.6453 78.1745L60.6493 78.1758L60.66 78.2371L60.5533 78.3478C60.5333 78.3878 60.3707 78.3665 60.5187 78.4812L60.484 78.4905C60.4507 78.5412 60.256 78.5238 60.4346 78.6651L60.4 78.6838L60.336 78.7158L60.4027 78.7505L60.34 78.7172L60.2907 78.7345L60.2547 78.9172L60.22 78.9651C60.268 79.0278 60.328 79.0931 60.1854 79.0785L60.2307 79.1598L60.1413 79.1718L60.1467 79.1731L60.116 79.2518L60.152 79.2785Z" fill="#1A1818"/>
<path d="M64.6891 68.8425L64.6411 68.8252L64.5584 69.0292L64.5024 69.2012C64.5117 69.3279 64.4704 69.4332 64.4277 69.5372C64.3584 69.7052 64.3278 69.8905 64.2464 70.0532L64.1344 70.3265L63.9984 70.6519L63.9331 70.8905C63.8957 71.0119 63.8238 71.1159 63.8291 71.2559L63.7997 71.3745L63.709 71.4625L63.5891 71.5719L63.4824 71.7092L63.6344 71.8225C63.8264 71.9199 64.0317 71.9759 64.0837 71.9439L64.1651 71.9212L64.2117 71.9999C64.2317 72.0385 64.2717 72.0852 64.4144 72.1505C64.5424 72.2092 64.6558 72.2412 64.7491 72.2585L64.8144 72.2345L64.9251 72.1972L64.9811 72.1598L65.0451 71.9759C65.1304 71.8572 65.0864 71.6825 65.1691 71.5612L65.2357 71.3172L65.309 71.0545L65.2944 70.9119C65.4757 70.9039 65.3637 70.7639 65.4397 70.7065L65.5518 70.3825L65.6411 70.1492C65.7264 70.0199 65.6998 69.8439 65.7851 69.7132L65.9811 69.3399C66.0731 69.2212 66.1357 69.0879 66.2251 68.9679C66.3797 68.7532 66.4997 68.5239 66.6357 68.3025C66.7251 68.1599 66.7851 68.0039 66.8811 67.8652C66.9557 67.7572 66.9811 67.6265 67.0238 67.5039L67.0824 67.2825C67.0918 67.2465 67.0677 67.2012 66.8637 67.1105L66.7744 67.0452C66.7144 66.9612 66.6184 66.9052 66.3664 66.8199C66.2451 66.7785 66.1357 66.7359 66.0117 66.6825C65.7317 66.5612 65.6064 66.5345 65.6104 66.6012L65.5664 66.8985C65.5571 67.0212 65.5197 67.1319 65.437 67.2225L65.337 67.4439L65.2717 67.6145L65.1971 67.7159L65.1931 67.7132L65.1824 67.7385L65.1864 67.7399L65.1971 67.8012L65.0904 67.9105C65.0704 67.9519 64.9078 67.9305 65.0571 68.0439L65.0211 68.0545C64.9878 68.1052 64.7931 68.0878 64.9717 68.2292L64.9384 68.2479L64.873 68.2799L64.9411 68.3132L64.8784 68.2812L64.8291 68.2972L64.7917 68.4799L64.7571 68.5292C64.8051 68.5905 64.8651 68.6572 64.7238 68.6412L64.7691 68.7239V68.7225L64.6784 68.7345L64.6837 68.7359L64.6531 68.8145L64.6891 68.8425Z" fill="#1A1818"/>
<path d="M69.2275 58.4066L69.1782 58.3893L69.0956 58.592L69.0395 58.7653C69.0502 58.8919 69.0076 58.9973 68.9649 59.1013C68.8956 59.2693 68.8649 59.4533 68.7849 59.616L68.6729 59.8906L68.5355 60.2146L68.4702 60.4533C68.4342 60.5746 68.3609 60.68 68.3662 60.82L68.3382 60.9373L68.2462 61.0266L68.1262 61.1346L68.0195 61.2733L68.1729 61.3866C68.3635 61.4826 68.5689 61.5386 68.6209 61.5066L68.7022 61.4853L68.7489 61.5626C68.7702 61.6013 68.8089 61.6479 68.9516 61.7146C69.0796 61.7733 69.1929 61.8053 69.2862 61.8213L69.3516 61.7973L69.4622 61.7599L69.5182 61.724L69.5822 61.5386C69.6689 61.4199 69.6235 61.2453 69.7062 61.124L69.7742 60.8799L69.8462 60.6173L69.8329 60.4759C70.0129 60.4666 69.9009 60.3279 69.9769 60.2706L70.0889 59.9466L70.1782 59.7133C70.2635 59.5839 70.2369 59.4066 70.3222 59.2773L70.5182 58.9039C70.6116 58.7839 70.6729 58.6519 70.7622 58.5306C70.9169 58.3173 71.0369 58.0879 71.1729 57.8653C71.2622 57.7226 71.3222 57.5679 71.4182 57.4293C71.4942 57.3213 71.5182 57.1906 71.5622 57.0666L71.6195 56.8466C71.6289 56.8106 71.6062 56.7653 71.4008 56.6733L71.3115 56.6093C71.2515 56.5239 71.1555 56.4693 70.9035 56.384C70.7835 56.3413 70.6729 56.2986 70.5502 56.2453C70.2702 56.1253 70.1435 56.0973 70.1475 56.1639L70.1049 56.4613C70.0942 56.5853 70.0582 56.6946 69.9742 56.7853L69.8742 57.0066L69.8089 57.1773L69.7342 57.2799L69.7302 57.2773L69.7209 57.3013L69.7249 57.3026L69.7342 57.3653L69.6275 57.4746C69.6089 57.5146 69.4462 57.4946 69.5942 57.6079L69.5596 57.6173C69.5249 57.6693 69.3315 57.6506 69.5089 57.792L69.4755 57.8106L69.4102 57.8426L69.4782 57.8773L69.4156 57.8439L69.3662 57.8613L69.3302 58.0426L69.2942 58.092C69.3422 58.1546 69.4022 58.2213 69.2609 58.2039L69.3062 58.288V58.2866L69.2169 58.2986L69.2222 58.2999L69.1902 58.3786L69.2275 58.4066Z" fill="#1A1818"/>
<path d="M73.1368 49.4132L73.0888 49.3945L73.0501 49.4972L73.0301 49.5878L73.0221 49.7692L72.9501 50.0345L72.8968 50.1732L72.8315 50.3372L72.8141 50.4638L72.7848 50.6572L72.7795 50.7212L72.7115 50.7545L72.6208 50.7972L72.5488 50.8572L72.7088 50.9505C72.9021 51.0412 73.1035 51.1118 73.1462 51.1038L73.2168 51.1052L73.2742 51.1585C73.2995 51.1852 73.3435 51.2198 73.4875 51.2838C73.6168 51.3412 73.7262 51.3798 73.8155 51.4065L73.8715 51.4052L73.9661 51.4025L74.0102 51.3918L74.0355 51.2972L74.0728 51.0785L74.0915 50.9492L74.1115 50.8105L74.0715 50.7252C74.2368 50.7532 74.1088 50.6518 74.1688 50.6318L74.2115 50.4638L74.2515 50.3452L74.3035 50.1185L74.4168 49.9372L74.5728 49.7652L74.8315 49.4545L74.9768 49.2452L75.0421 49.0611L75.0568 48.9438C75.0582 48.9238 75.0275 48.8932 74.8235 48.8038L74.7288 48.7505C74.6582 48.6905 74.5595 48.6398 74.3115 48.5438C74.1941 48.4985 74.0848 48.4532 73.9608 48.3998C73.6808 48.2785 73.5608 48.2398 73.5755 48.2798L73.5902 48.4438L73.5288 48.6092L73.4768 48.7185L73.4488 48.8065L73.3995 48.8518L73.3955 48.8492L73.3902 48.8625L73.3941 48.8638L73.4141 48.9012L73.3368 48.9452C73.3261 48.9652 73.1728 48.9238 73.3301 49.0158H73.2982C73.2768 49.0385 73.0955 48.9932 73.2848 49.1078L73.2568 49.1132L73.2035 49.1185L73.2715 49.1518L73.2088 49.1212H73.1661V49.2212L73.1408 49.2425C73.1982 49.2878 73.2648 49.3372 73.1315 49.3025L73.1875 49.3585H73.1888L73.1088 49.3492L73.1141 49.3505L73.0995 49.3905L73.1368 49.4132Z" fill="#1A1818"/>
<path d="M90.4913 47.7758L90.5339 47.7491L90.4779 47.6545L90.4193 47.5838L90.2806 47.4664L90.1152 47.2464L90.0379 47.1185L89.9499 46.9664L89.8606 46.8744L89.7259 46.7331L89.6779 46.6891L89.6926 46.6144L89.7166 46.5185L89.7139 46.4238L89.5406 46.4931C89.3486 46.5891 89.1726 46.7038 89.1526 46.7424L89.1072 46.7971L89.0299 46.8104C88.9939 46.8131 88.9393 46.8278 88.7993 46.9011C88.6753 46.9678 88.5766 47.0305 88.5019 47.0838L88.4686 47.1291L88.4099 47.2051L88.3926 47.2478L88.4526 47.3264L88.6006 47.4905L88.6913 47.5838L88.7886 47.6851L88.8806 47.7064C88.7579 47.8184 88.9166 47.7798 88.8952 47.8384L89.0019 47.9758L89.0686 48.0811L89.2166 48.2624L89.2886 48.4624L89.3299 48.6918C89.3406 48.8318 89.3873 48.9545 89.4166 49.0865L89.4913 49.3291L89.5952 49.4944L89.6792 49.5771C89.6939 49.5904 89.7366 49.5864 89.9339 49.4784L90.0339 49.4384C90.1246 49.4198 90.2259 49.3718 90.4526 49.2358L90.7833 49.0478C91.0499 48.9024 91.1552 48.8305 91.1152 48.8185L90.9753 48.7278L90.8833 48.5798L90.8286 48.4704L90.7779 48.3944L90.7726 48.3278L90.7766 48.3251L90.7699 48.3131L90.766 48.3158L90.7246 48.3091L90.7366 48.2211C90.7273 48.1998 90.8539 48.1038 90.6846 48.1704L90.7046 48.1464C90.6992 48.1158 90.8473 48.0011 90.6393 48.0798L90.6526 48.0558L90.6806 48.0078L90.6139 48.0424L90.6766 48.0104L90.7019 47.9771L90.6232 47.9171L90.6206 47.8838L90.5806 47.8398L90.5019 47.8491V47.8505L90.5592 47.7918L90.5553 47.7958L90.5312 47.7598L90.4913 47.7758Z" fill="#1A1818"/>
<path d="M95.9066 57.7306L95.9506 57.7026L95.8279 57.4853L95.7133 57.3133L95.4706 57.008C95.3692 56.828 95.2319 56.668 95.1399 56.4813L94.9732 56.1906C94.9399 56.056 94.8079 55.9773 94.7786 55.8399L94.616 55.612C94.5333 55.4933 94.4866 55.356 94.3653 55.2586L94.2826 55.1493L94.26 55.008L94.2386 54.8306L94.1839 54.6413L93.9986 54.6853C93.804 54.7746 93.6346 54.9066 93.6306 54.9746L93.6026 55.0573L93.5079 55.0399C93.4626 55.0306 93.3999 55.0279 93.2613 55.0999C93.1359 55.1639 93.0426 55.2359 92.9719 55.3026L92.9546 55.3746L92.9213 55.4946L92.9199 55.5666L93.0386 55.7546C93.0893 55.9133 93.2626 56.0026 93.3173 56.1586L93.4853 56.3933L93.6653 56.644L93.7933 56.7359C93.6946 56.8933 93.8799 56.8999 93.8839 57.0053C93.8879 57.1479 94.092 57.1839 94.0933 57.3346L94.2372 57.5786C94.2972 57.744 94.4626 57.8506 94.524 58.016C94.5786 58.1666 94.6786 58.2933 94.7253 58.4506C94.7719 58.6146 94.8466 58.7626 94.8973 58.924C94.9893 59.2093 95.1133 59.4773 95.2213 59.752C95.2893 59.9293 95.3866 60.092 95.4479 60.2746C95.4946 60.416 95.5906 60.532 95.6706 60.656L95.8226 60.8653C95.8479 60.8986 95.9 60.9133 96.0986 60.808L96.2066 60.78C96.3132 60.792 96.4159 60.7506 96.6372 60.6026L96.9626 60.4053C97.2293 60.2599 97.3279 60.1733 97.2693 60.1279L97.0413 59.876C96.9439 59.7786 96.8706 59.6679 96.8426 59.5319L96.7146 59.2866L96.6079 59.1093L96.5639 58.9746L96.5693 58.9719L96.5559 58.9453L96.552 58.948L96.4933 58.912L96.4626 58.744C96.44 58.6973 96.5533 58.576 96.3693 58.6173L96.3812 58.58C96.3572 58.516 96.488 58.3653 96.2626 58.412L96.2666 58.3706L96.2786 58.2933L96.2092 58.3253L96.2746 58.2973L96.288 58.244L96.1546 58.0813L96.1346 58.0146L96.0586 57.9053L95.9613 57.8826V57.884L96.0053 57.7999L96.0012 57.8039L95.952 57.7213L95.9066 57.7306Z" fill="#1A1818"/>
<path d="M101.136 67.3371L101.18 67.3118L101.123 67.2171L101.064 67.1464L100.926 67.0304L100.76 66.8091L100.683 66.6811L100.596 66.5291L100.507 66.4371L100.371 66.2958L100.326 66.2531L100.34 66.1771L100.362 66.0811L100.359 65.9864L100.187 66.0558C99.9964 66.1518 99.8177 66.2664 99.7977 66.3064L99.7537 66.3598L99.6751 66.3718C99.6391 66.3771 99.5844 66.3904 99.4471 66.4638C99.3217 66.5304 99.2231 66.5931 99.1471 66.6464L99.115 66.6918L99.0577 66.7678L99.0391 66.8104L99.0977 66.8891L99.2471 67.0531L99.3391 67.1464L99.435 67.2478L99.5271 67.2691C99.4031 67.3811 99.5631 67.3424 99.5417 67.4011L99.6471 67.5384L99.715 67.6438L99.8631 67.8251L99.935 68.0251L99.9751 68.2544C99.9884 68.3944 100.034 68.5171 100.063 68.6478L100.138 68.8918L100.242 69.0571L100.327 69.1398C100.34 69.1531 100.383 69.1478 100.58 69.0424L100.68 69.0011C100.771 68.9824 100.871 68.9344 101.099 68.7984L101.428 68.6104C101.696 68.4651 101.8 68.3931 101.76 68.3811L101.622 68.2905L101.53 68.1424L101.475 68.0331L101.423 67.9571L101.418 67.8905L101.423 67.8878L101.415 67.8758L101.412 67.8784L101.37 67.8718L101.383 67.7824C101.374 67.7624 101.502 67.6664 101.331 67.7331L101.35 67.7091C101.344 67.6784 101.494 67.5624 101.286 67.6424L101.299 67.6171L101.328 67.5704L101.26 67.6051L101.323 67.5744L101.347 67.5398L101.27 67.4784L101.268 67.4464L101.227 67.4024L101.148 67.4118V67.4131L101.204 67.3544L101.2 67.3585L101.176 67.3224L101.136 67.3371Z" fill="#1A1818"/>
</svg>
