<svg width="56" height="56" viewBox="0 0 56 56" fill="none" xmlns="http://www.w3.org/2000/svg">
<rect width="56" height="56" rx="28" fill="white"/>
<path d="M31.9997 23C31.9997 22.4478 32.4474 22 32.9997 22C33.552 22 33.9997 22.4478 33.9997 23C33.9997 23.5523 33.552 24 32.9997 24C32.4474 24 31.9997 23.5523 31.9997 23Z" fill="#136A99"/>
<path fill-rule="evenodd" clip-rule="evenodd" d="M27.9997 23.25C25.3763 23.25 23.2497 25.3767 23.2497 28C23.2497 30.6234 25.3763 32.75 27.9997 32.75C30.623 32.75 32.7497 30.6234 32.7497 28C32.7497 25.3767 30.623 23.25 27.9997 23.25ZM24.7497 28C24.7497 26.2051 26.2048 24.75 27.9997 24.75C29.7946 24.75 31.2497 26.2051 31.2497 28C31.2497 29.795 29.7946 31.25 27.9997 31.25C26.2048 31.25 24.7497 29.795 24.7497 28Z" fill="#136A99"/>
<path fill-rule="evenodd" clip-rule="evenodd" d="M33.2579 18.8331C29.7914 18.4456 26.208 18.4456 22.7415 18.8331C20.7294 19.0579 19.1051 20.6429 18.8685 22.6655C18.454 26.2098 18.454 29.7903 18.8685 33.3346C19.1051 35.3571 20.7294 36.9422 22.7415 37.167C26.208 37.5545 29.7914 37.5545 33.2579 37.167C35.27 36.9422 36.8943 35.3571 37.1309 33.3346C37.5454 29.7903 37.5454 26.2098 37.1309 22.6655C36.8943 20.6429 35.27 19.0579 33.2579 18.8331ZM22.9081 20.3238C26.2639 19.9487 29.7355 19.9487 33.0913 20.3238C34.4214 20.4724 35.4869 21.5221 35.641 22.8397C36.042 26.2683 36.042 29.7318 35.641 33.1604C35.4869 34.478 34.4214 35.5277 33.0913 35.6763C29.7355 36.0514 26.2639 36.0514 22.9081 35.6763C21.578 35.5277 20.5125 34.478 20.3584 33.1604C19.9574 29.7318 19.9574 26.2683 20.3584 22.8397C20.5125 21.5221 21.578 20.4724 22.9081 20.3238Z" fill="#136A99"/>
</svg>
