<svg width="136" height="136" viewBox="0 0 136 136" fill="none" xmlns="http://www.w3.org/2000/svg">
<path d="M136 67.9999C136 105.555 105.555 136 68 136C30.4451 136 0 105.555 0 67.9999C0 30.4449 30.4451 -0.000106812 68 -0.000106812C105.555 -0.000106812 136 30.4449 136 67.9999Z" fill="#F3EDE6"/>
<path d="M37.218 67.5293L37.1033 67.3226C36.85 67.1253 36.6126 66.9066 36.3353 66.7426L35.7126 66.3466L35.6579 66.3266L35.662 66.2679C35.69 66.2373 35.6953 66.2159 35.8273 66.1093C36.0593 65.9386 36.2739 65.7399 36.5246 65.5866C37.4886 64.9266 38.5833 64.4093 39.7713 64.1013C41.0273 63.7839 42.4233 63.6119 43.8713 63.5839L44.9646 63.6093L45.2513 63.6159L45.8153 63.6786L46.9367 63.8053L48.0473 63.9293L48.5993 63.9906C48.734 64.0519 48.6526 63.8599 48.674 63.7906L48.6713 63.5013C48.6633 62.7373 48.6566 61.9773 48.6486 61.2239C48.614 58.2079 48.5806 55.1813 48.5473 52.1559C48.5406 49.2453 48.5326 46.3373 48.526 43.4426L48.5139 37.8946L48.5033 35.1226C48.3687 34.8826 48.9073 33.9746 49.298 33.3439C50.1793 32.0173 51.4219 31.0999 52.8473 30.9026C53.5633 30.8159 54.3446 30.8759 55.0126 31.0893C55.3526 31.1893 55.674 31.3386 55.966 31.5359L56.0793 31.6066L56.334 31.8146L56.8046 32.3066C57.118 32.5066 57.4353 33.3079 57.7499 33.8693C58.8553 33.8573 59.102 33.9706 59.2673 34.1013L59.3579 34.2533C59.4499 34.2239 59.6233 34.1199 59.7526 34.0573L60.59 33.6213V33.1986L60.598 27.7239C60.7286 26.7039 61.1353 25.6173 61.7246 24.7359C62.3259 23.8453 63.1339 23.1186 64.0833 22.5893C65.0459 22.0706 66.146 21.7826 67.2727 21.6039L68.774 21.4906C70.0033 21.5866 71.2766 21.7119 72.3859 22.1479C73.5019 22.5639 74.498 23.1946 75.27 24.0493C76.05 24.8906 76.586 25.9773 76.8593 27.1119C76.9273 27.3613 76.9793 27.7506 76.9859 27.8506L76.982 29.3799L76.9646 32.4799L76.9566 33.6026L77.782 34.0546C77.9113 34.1173 78.0833 34.2239 78.1753 34.2533L78.2686 34.0959C78.4353 33.9586 78.69 33.8306 79.7846 33.8133L80.3113 32.7959C80.3979 32.5986 80.486 32.4973 80.5727 32.4186L80.8326 32.1426C81.0286 31.9559 81.1313 31.7799 81.402 31.5879L81.6553 31.4226C81.9926 31.2053 82.3699 31.0613 82.7579 30.9373C83.5473 30.7226 84.458 30.7133 85.2406 30.9119C86.4793 31.2266 87.5713 32.0986 88.3566 33.2813C88.55 33.5773 88.7379 33.8826 88.8939 34.2013C88.9779 34.3586 89.0486 34.5213 89.1166 34.6799C89.1766 34.8306 89.1779 34.8053 89.1779 34.8826L89.182 37.2359C89.1873 40.4826 89.2046 43.7266 89.2606 46.9719C89.2953 49.0079 89.438 51.1533 89.298 53.1559C89.1567 55.1866 89.1767 57.1986 89.2087 59.2413C89.2127 60.0466 89.2166 60.8479 89.2193 61.6466L89.2153 63.2919L89.2139 63.4986L89.2153 63.5999L89.3139 63.5879L89.7087 63.5439L90.4966 63.4559L92.082 63.2853L92.2793 63.2653H92.39H92.6113L93.0526 63.2639C93.6406 63.2439 94.218 63.2866 94.7846 63.3573C97.454 63.6426 99.9646 64.5319 102.01 66.1693C102.958 66.9559 103.295 67.2453 103.614 67.3319C103.898 67.3946 104.035 67.2039 103.747 66.6159C103.475 66.0573 102.818 65.2359 101.773 64.4986C101.029 63.9519 100.174 63.5493 99.4686 63.1426C100.231 63.3279 101.143 63.7933 101.915 64.2813C103.151 64.9933 104.205 66.0279 104.539 65.9759C104.839 65.9306 104.439 65.0773 103.583 64.1453C103.017 63.5466 102.191 62.9759 101.357 62.5559C99.9646 61.8173 98.5286 61.3453 97.2287 60.9159C96.7806 60.7746 96.266 60.6906 95.7353 60.6066C95.206 60.5439 94.6607 60.5426 94.142 60.5146C93.686 60.4933 93.2366 60.5426 92.7846 60.5533L92.1087 60.5826L92.0033 60.5986L91.8526 60.6239L91.8473 60.5386C91.8513 59.0306 91.8566 57.5199 91.8606 56.0079C91.8886 52.3106 91.8526 48.6213 91.8153 44.9333L91.7673 39.3946L91.7566 36.6226L91.7579 35.2359L91.7593 34.8706C91.742 34.6573 91.7966 34.4306 91.7073 34.2293C91.546 33.7573 91.446 33.5573 91.338 33.3119C90.8313 32.2239 90.1579 31.2093 89.2526 30.3346C88.3619 29.4586 87.2086 28.7466 85.9326 28.4319C84.6486 28.1119 83.3766 28.1293 82.1219 28.4493C81.4993 28.6319 80.886 28.8706 80.3313 29.2133L79.9219 29.4773L79.9193 29.4879L79.8246 29.5746L79.782 29.6199L79.6139 29.8893L79.566 30.0186L79.562 29.9013L79.5553 29.6386L79.542 28.6346L79.534 28.1239L79.5299 27.8666C79.5273 27.5773 79.4873 27.3399 79.454 27.1413C79.1633 25.4826 78.4593 23.9573 77.4046 22.6519C76.606 21.6853 75.5913 20.8906 74.5007 20.3146C73.9447 20.0519 73.3886 19.7906 72.8126 19.6533C72.2446 19.4639 71.6726 19.3799 71.1126 19.3213C70.3633 19.0853 69.6207 19.0733 68.8313 18.9639C66.854 18.9866 64.9739 19.3333 63.1553 20.2679C61.3486 21.1693 59.8566 22.7613 58.9633 24.5733C58.6646 25.1373 58.4646 25.7426 58.2873 26.3546C58.2126 26.6666 58.1419 26.9799 58.0939 27.3093L58.062 27.5679L58.0486 27.8759V28.0826L58.0766 29.7879L58.1007 30.2319L58.11 30.4519L58.0473 30.2853C57.9739 30.1279 57.8633 29.9613 57.7126 29.8119L57.5779 29.6919L57.506 29.6359L57.502 29.6279L57.3566 29.5359C56.9166 29.2399 56.4313 28.9999 55.9299 28.8253C54.9166 28.4666 53.878 28.3346 52.8206 28.4226C51.5846 28.5026 50.3233 28.9666 49.298 29.7146C48.2687 30.4626 47.4779 31.4439 46.8633 32.4893C46.7113 32.7519 46.5686 33.0213 46.438 33.2959C46.3086 33.5906 46.2033 33.7919 46.0299 34.3053C45.9619 34.5106 46.0046 34.8133 45.9939 34.9653L45.9966 35.3733L46.0033 36.1866C46.0047 37.2746 46.006 38.3599 46.0087 39.4386C45.986 43.3719 46.0166 47.2959 46.0486 51.2253L46.09 57.1226L46.0966 60.0773L46.0953 60.8453L46.0926 61.0853L45.826 61.0519L45.4873 61.0053C45.4793 60.9986 45.2567 60.9919 45.1007 60.9853L44.602 60.9653C43.9366 60.9213 43.2686 60.9346 42.598 60.9866C41.258 61.0586 39.9153 61.3093 38.6206 61.7306C37.3233 62.1386 36.074 62.7413 34.9406 63.5226C34.6553 63.7239 34.394 63.9226 34.102 64.1493C33.7366 64.4946 33.3406 64.7786 33.002 65.1746C32.6313 65.5493 32.334 65.9319 32.054 66.3173L31.6406 66.8973L31.442 67.1933L31.3633 67.4319C32.2673 67.7466 33.1619 68.1106 34.0553 68.4986L34.2233 68.5693L34.3406 68.6279L34.3913 68.6586L34.546 68.7559L34.8526 68.9466C35.0646 69.0653 35.2487 69.2279 35.442 69.3746C36.2073 69.9733 36.8793 70.7039 37.454 71.5213C39.4126 74.3799 40.2606 78.0293 40.6433 81.6373C40.8246 83.4533 40.8833 85.2959 40.818 87.1226L40.7393 88.5639L40.8033 90.0573C40.8313 90.5505 40.8339 91.0453 40.8833 91.5358L41.0953 93.0025C42.0726 99.5051 45.4167 105.683 50.4673 109.972C55.466 114.313 62.034 116.783 68.67 116.877L67.2033 115.4V115.402V116.873L68.6793 116.88L68.854 116.881L70.3313 116.888V115.402V115.4L68.8633 116.879L71.0246 116.768C80.0753 116.144 88.6099 110.76 93.1939 102.921C95.0046 99.8906 96.2206 96.4921 96.7606 92.9921C96.8979 92.1145 97.034 91.2401 97.0433 90.3519L97.1033 89.0265L97.118 88.6947L97.126 88.4838L97.1073 88.2599L97.07 87.6719C96.9927 86.0759 97.0113 84.4519 97.126 82.8493C97.4033 79.1399 98.138 75.3813 99.9406 72.3693C100.801 70.9319 101.85 69.9439 101.643 69.5693C101.553 69.4199 101.974 69.0866 102.438 68.7186C103.457 67.9426 104.205 67.6386 104.482 67.3893C104.762 67.1426 104.617 67.0119 104.007 66.9733C103.418 66.9253 103.125 66.8426 102.999 66.6226C102.87 66.3906 102.418 66.3266 101.654 66.6533C100.878 66.9493 99.7913 67.6866 98.666 69.0159C96.8753 71.2053 95.8499 73.7613 95.1779 76.2973C94.5153 78.8479 94.2113 81.4319 94.126 83.9999C94.1046 84.7759 94.0979 85.5506 94.1113 86.3266L94.1513 87.4906L94.218 88.5786L94.1246 90.7025C94.1099 91.4171 93.9393 92.1161 93.8526 92.8254C93.3766 95.6358 92.4179 98.365 91.0166 100.856C89.0326 104.291 86.282 107.321 83.0647 109.6C80.6166 111.291 77.8513 112.476 74.982 113.243C73.1406 113.791 71.0073 114.062 69.046 113.997L69.07 113.985L68.8446 114.033L67.3766 114.343L67.4873 115.4V115.402L68.854 114.036L68.6793 114.049L70.034 115.402V115.4L69.9606 114.052L68.6886 114.048C68.3779 114.047 68.0646 114.002 67.7566 113.945L67.7806 113.953C66.8459 113.747 66.2193 114.057 65.2299 113.785C63.0113 113.377 60.7219 112.676 58.5553 111.785C56.5126 110.857 54.7633 109.441 52.8433 108.335C52.67 108.264 52.3046 107.82 52.0206 107.553C49.8286 105.581 48.2393 103.086 46.51 100.756C46.33 100.537 46.098 99.8639 45.9007 99.4145C45.5233 98.6067 45.2886 97.7734 44.9566 96.889L44.7499 96.7306C44.6593 96.2281 44.8593 96.7519 44.966 96.9453C44.8686 96.4494 44.6899 95.9426 44.5219 95.3051C44.0459 93.9239 43.8046 92.4666 43.6073 91.0025L43.4993 88.7838C43.466 88.5573 43.5406 88.0973 43.5486 87.6893L43.5913 86.4666C43.6126 85.4106 43.6859 84.4333 43.5446 83.2826C43.2819 81.2826 42.9153 79.3533 42.642 77.0986C42.55 76.2679 42.0646 74.9386 41.5939 74.0906L41.6166 74.1586C41.2979 73.2559 40.8366 72.3533 40.6873 71.7079L40.7087 71.7653C39.9393 70.3879 39.1059 68.8986 37.7553 67.8906C37.6179 67.8319 37.538 67.8146 37.218 67.5293Z" fill="#1A1818"/>
<path d="M60.9878 45.7479L61.0811 45.7319C61.2011 45.4265 60.9531 45.1252 61.0731 44.8079C61.1625 44.5705 61.1011 44.2985 61.0411 44.0452C60.9291 43.5719 60.9224 43.0945 60.9171 42.6199C60.9104 41.8545 60.8291 41.0879 60.8438 40.3225C60.8531 39.9052 60.7784 39.4892 60.8304 39.0745C60.8944 38.5785 60.7518 38.0852 60.8251 37.5905C60.8758 37.2452 60.7785 36.9012 60.7598 36.5572C60.7305 36.0265 60.7771 35.4959 60.6638 34.9652C60.6291 34.7985 60.4891 34.6239 60.6278 34.4599C60.7704 34.2945 60.7477 34.1292 60.7171 33.9625C60.6771 33.7519 60.7345 33.5452 60.8398 33.3425C60.9638 33.1052 60.9664 32.8719 60.9197 32.6305C60.8957 32.5159 60.7704 32.4745 60.5771 32.4479C60.1798 32.3932 59.7878 32.5239 59.7211 32.7345L59.6011 32.9545C59.4798 32.8905 59.5051 32.8092 59.4638 32.7345C59.3998 32.6199 59.2998 32.5012 59.0078 32.4892C58.7464 32.4772 58.5304 32.5452 58.3584 32.6372L58.2651 32.8399C58.2665 32.9572 58.2611 33.0705 58.1051 33.1719L58.0371 33.4052C58.0838 33.6785 58.0904 33.9519 58.0638 34.2265C58.0064 34.8319 58.2118 35.4332 58.1625 36.0385C58.1331 36.3905 58.2425 36.7479 58.2265 37.0972C58.2105 37.4799 58.2665 37.8559 58.2958 38.2359C58.3091 38.4119 58.2598 38.5932 58.4265 38.7612C58.1251 39.0999 58.4198 39.4492 58.3304 39.7985C58.2131 40.2719 58.5131 40.7492 58.3824 41.2399C58.2918 41.5799 58.4264 41.9412 58.3998 42.2932C58.3531 42.9372 58.5278 43.5759 58.4798 44.2225C58.4371 44.8119 58.4864 45.4039 58.4211 45.9972C58.3518 46.6119 58.3424 47.2292 58.2837 47.8465C58.1784 48.9345 58.1451 50.0239 58.0758 51.1119C58.0305 51.8132 58.0438 52.5119 57.9824 53.2132C57.9344 53.7585 57.9878 54.3065 58.0051 54.8519C58.0158 55.1705 58.0438 55.4892 58.0691 55.8065C58.0811 55.9585 58.1544 56.0959 58.5691 56.1039C58.7291 56.1065 58.7318 56.1545 58.7705 56.2065C58.9345 56.4332 59.1384 56.4839 59.6304 56.3919C59.8651 56.3492 60.0838 56.3319 60.3345 56.3305C60.8985 56.3265 61.1344 56.2185 61.0784 55.9665C60.9891 55.5585 60.9958 55.1505 60.9331 54.7439C60.8584 54.2519 60.8384 53.7639 60.9144 53.2719C60.9651 52.9305 60.9571 52.5852 60.9224 52.2452C60.8944 51.9905 60.9464 51.7345 60.9051 51.4785C60.8784 51.3132 60.8131 51.1305 60.9558 50.9612L60.9651 50.9639V50.8492L60.9571 50.8519C61.0945 50.7705 60.8185 50.7185 60.8931 50.6319C61.0625 50.4385 60.9918 50.2305 60.9944 50.0292C60.9958 49.8359 61.2891 49.6412 60.9531 49.4519L61.0051 49.3532C61.0251 49.1012 61.3691 48.8452 60.9611 48.5959L61.0038 48.4679L61.0918 48.2345L60.9504 48.2159L61.0811 48.2399L61.1531 48.0919C61.0251 47.8385 61.0518 47.5825 61.0798 47.3265L61.1051 47.0745C60.9744 46.9159 60.8251 46.7612 61.0771 46.5852C61.1691 46.5199 61.0665 46.4132 60.9398 46.3385V46.3452C60.9398 46.2719 60.9184 46.1945 61.0837 46.1465L61.0744 46.1519C61.0384 46.0319 61.2318 45.9119 61.0678 45.7932L60.9878 45.7479Z" fill="#1A1818"/>
<path d="M80.0161 45.3279L80.1095 45.3119C80.2295 45.0039 79.9828 44.7052 80.1028 44.3879C80.1908 44.1505 80.1294 43.8785 80.0694 43.6239C79.9574 43.1505 79.9507 42.6719 79.9454 42.1999C79.9387 41.4332 79.8575 40.6679 79.8735 39.8999C79.8828 39.4852 79.8068 39.0679 79.8601 38.6545C79.9241 38.1585 79.7788 37.6652 79.8521 37.1692C79.9028 36.8252 79.8068 36.4799 79.7881 36.1359C79.7601 35.6052 79.8068 35.0745 79.6935 34.5452C79.6588 34.3785 79.5161 34.2025 79.6575 34.0399C79.7988 33.8732 79.7761 33.7092 79.7454 33.5425C79.7067 33.3319 79.7641 33.1225 79.8694 32.9212C79.9934 32.6839 79.9961 32.4492 79.9481 32.2092C79.9254 32.0959 79.7988 32.0545 79.6068 32.0265C79.2095 31.9719 78.8174 32.1025 78.7508 32.3132L78.6295 32.5345C78.5068 32.4705 78.5335 32.3879 78.4935 32.3145C78.4295 32.1985 78.3281 32.0812 78.0361 32.0679C77.7748 32.0572 77.5588 32.1239 77.3868 32.2172L77.2935 32.4199C77.2948 32.5372 77.2894 32.6505 77.1334 32.7505L77.0655 32.9852C77.1108 33.2585 77.1188 33.5319 77.0935 33.8065C77.0361 34.4105 77.2388 35.0105 77.1908 35.6159C77.1615 35.9692 77.2708 36.3279 77.2561 36.6759C77.2388 37.0572 77.2935 37.4359 77.3241 37.8145C77.3375 37.9919 77.2881 38.1705 77.4548 38.3399C77.1535 38.6785 77.4468 39.0292 77.3601 39.3772C77.2401 39.8505 77.5428 40.3292 77.4108 40.8199C77.3201 41.1585 77.4535 41.5199 77.4295 41.8732C77.3828 42.5145 77.5548 43.1559 77.5081 43.8012C77.4654 44.3905 77.5147 44.9839 77.4481 45.5759C77.3814 46.1919 77.3721 46.8092 77.3121 47.4265C77.2081 48.5132 77.1721 49.6039 77.1041 50.6919C77.0588 51.3905 77.0721 52.0919 77.0095 52.7919C76.9615 53.3372 77.0161 53.8852 77.0348 54.4319C77.0455 54.7492 77.0721 55.0679 77.0988 55.3865C77.1095 55.5385 77.1828 55.6745 77.5988 55.6812C77.7588 55.6852 77.7601 55.7319 77.7974 55.7852C77.9614 56.0119 78.1668 56.0625 78.6601 55.9719C78.8935 55.9279 79.1121 55.9105 79.3628 55.9092C79.9281 55.9052 80.1628 55.7972 80.1068 55.5465C80.0175 55.1385 80.0228 54.7292 79.9614 54.3239C79.8868 53.8319 79.8681 53.3412 79.9414 52.8505C79.9948 52.5092 79.9868 52.1639 79.9494 51.8252C79.9241 51.5692 79.9761 51.3132 79.9348 51.0572C79.9068 50.8919 79.8414 50.7105 79.9841 50.5412L79.9948 50.5439V50.4292L79.9868 50.4305C80.1228 50.3492 79.8454 50.2972 79.9228 50.2105C80.0921 50.0159 80.0188 49.8105 80.0215 49.6092C80.0241 49.4159 80.3187 49.2212 79.9814 49.0305L80.0348 48.9332C80.0535 48.6799 80.3974 48.4239 79.9894 48.1732L80.0321 48.0479L80.1201 47.8145L79.9801 47.7945L80.1095 47.8185L80.1814 47.6705C80.0534 47.4185 80.0815 47.1625 80.1068 46.9052L80.1334 46.6545C80.0028 46.4959 79.8535 46.3385 80.1068 46.1639C80.1988 46.0999 80.0961 45.9919 79.9681 45.9185V45.9239C79.9695 45.8505 79.9454 45.7745 80.1121 45.7252L80.1028 45.7305C80.0668 45.6119 80.2614 45.4919 80.0974 45.3732L80.0161 45.3279Z" fill="#1A1818"/>
<path d="M67.0646 57.9252L66.9966 57.9279C66.3099 58.5799 65.7685 59.3412 65.0525 60.0199C64.7872 60.2719 64.5179 60.5572 64.2499 60.8532C63.9912 61.1785 63.7259 61.5105 63.4699 61.8345C62.5619 63.0625 61.7459 64.3772 61.1632 65.7825C60.1845 68.0439 59.7206 70.5012 59.6992 72.9505C59.7272 74.2799 59.8632 75.6132 60.1486 76.9079C60.4352 78.4745 61.0766 79.9399 61.7766 81.3559C62.2659 82.3465 62.9205 83.2505 63.6219 84.0972C64.7192 85.4239 65.8419 86.5385 66.9939 87.7279C67.1765 87.9039 67.3712 88.0919 67.5579 88.2732L67.8366 88.5624C67.9793 88.7196 68.1152 88.88 68.2525 89.0519C68.4392 89.2743 68.6059 89.4759 68.7726 89.6733C68.9899 89.4477 69.1979 89.2305 69.4086 89.0103L69.9299 88.4359C70.3592 87.9452 70.8179 87.4959 71.2805 87.0759C71.8272 86.5812 72.3206 86.0545 72.8099 85.4945C73.0419 85.2279 73.0846 85.0905 73.0686 84.9652C73.0392 84.7065 72.6205 84.8679 72.1525 85.3225C71.9845 85.4852 71.8219 85.6639 71.6445 85.7785C71.7325 85.5932 71.9165 85.4159 72.0579 85.2332C72.2752 84.9519 72.4873 84.6532 72.4086 84.5239C72.3366 84.4079 72.1166 84.4865 71.8592 84.6372C71.6899 84.7359 71.5432 84.9079 71.3952 85.0639C71.1512 85.3292 70.9099 85.5825 70.6393 85.7585C70.4526 85.8799 70.2819 86.0825 70.1232 86.2625L69.2726 87.2039L68.8406 87.6679L68.7846 87.7185L68.7726 87.7252L67.4859 86.3879C66.8672 85.7505 66.2485 85.1119 65.6499 84.4519C64.9339 83.6439 64.2219 82.8932 63.6632 82.0079C63.0445 81.0612 62.5325 80.0639 62.0912 79.0252C61.9045 78.5359 61.7752 78.0145 61.5352 77.5612C61.4859 77.0519 61.3819 76.5532 61.2512 76.0519C61.1619 75.5439 61.0726 75.0292 61.0232 74.5119C60.9952 73.1079 60.8459 71.6679 61.1632 70.2239C61.3712 69.2345 61.5819 68.1759 61.9459 67.1852C62.6286 65.3999 63.5286 63.6799 64.8072 62.2319C65.9886 60.9025 67.2726 59.5572 68.5286 58.2372L68.7726 57.9985L71.5393 61.0425C73.8419 63.4105 75.4645 66.2772 76.0779 69.4639C76.4899 71.4905 76.5499 73.5959 76.1966 75.6305C75.9086 77.2119 75.4619 78.7719 74.7766 80.2305L74.1139 81.4692C73.8819 81.8759 73.6019 82.2532 73.3472 82.6479C73.1112 83.0305 72.8446 83.3345 73.0019 83.4919C73.0579 83.5492 72.9672 83.6599 72.8792 83.7919C72.5019 84.3679 72.4739 84.5612 72.8339 84.5132C73.0073 84.4905 73.1245 84.5199 73.2219 84.5999C73.4392 84.7799 73.7525 84.5919 74.2552 83.9505C74.6365 83.4159 74.9899 82.8572 75.3432 82.3052C75.6392 81.7199 75.9966 81.1639 76.2313 80.5519C76.8886 79.1092 77.2832 77.5852 77.6179 76.0465C77.8192 74.9692 77.9019 73.8585 77.8792 72.7719C77.8379 71.9532 77.8272 71.1319 77.6686 70.3239C77.6059 69.7945 77.4299 69.2372 77.3792 68.6919L77.3846 68.6985C77.3166 68.5892 77.3033 68.4665 77.3033 68.3385L77.3006 68.3465C77.3166 68.0705 77.1166 67.9545 77.0712 67.6785C76.9619 67.0599 76.7299 66.4359 76.4499 65.8452C76.2259 65.2719 76.0685 64.6399 75.6112 64.1905L75.4819 63.9012C75.0819 63.2025 74.7472 62.4052 74.0819 61.9012L73.8339 61.5745C73.6926 61.3719 73.5592 61.1652 73.3819 60.9692L73.2912 60.9705C73.2312 60.8345 73.3352 60.9492 73.3872 60.9852C73.3286 60.8465 73.2352 60.7359 73.1046 60.6172C72.5246 60.0892 71.9952 59.5012 71.4632 58.9105C71.2912 58.7212 71.1619 58.5145 70.9432 58.3345C70.5579 58.0172 70.1886 57.7305 69.8926 57.2279C69.6592 56.9092 69.1672 56.4585 68.8832 56.2452L68.9033 56.2679L68.7726 56.1279C68.5273 56.3932 68.2926 56.6412 68.0965 56.7479L68.1165 56.7332C67.5379 57.3812 67.3499 57.4399 67.1326 57.7932L67.0646 57.9252Z" fill="#1A1818"/>
<path d="M50.4806 72.4584L50.4353 72.4931C50.4059 73.1251 50.6326 73.7211 50.6433 74.3744C50.6953 74.8571 50.8459 75.3971 50.9846 75.8971C51.3006 76.8171 51.5966 77.7437 51.9966 78.6237C52.6393 80.0491 53.4566 81.3971 54.4593 82.5984C54.7126 82.9397 55.0019 83.2504 55.3099 83.5464C55.6153 83.8384 55.8846 84.1691 56.2126 84.4411C56.9433 85.1464 57.8046 85.6824 58.6433 86.2477C59.2513 86.6037 59.8753 86.9384 60.5406 87.1731C61.0393 87.3851 61.5393 87.5931 62.0659 87.7264C62.5873 87.8837 63.1073 88.0304 63.6153 88.1131C63.9379 88.1731 64.2872 88.1864 64.5832 88.3304C64.8832 88.4757 65.2006 88.5408 65.5219 88.6039C65.9299 88.6809 66.3192 88.8065 66.6912 88.9503C67.1299 89.1195 67.5753 89.2304 68.0406 89.3195C68.2606 89.3612 68.3552 89.3184 68.4299 89.2372C68.5806 89.0689 68.3779 88.8195 67.9832 88.6893C67.8406 88.6424 67.6913 88.6091 67.5766 88.5279C67.7126 88.4981 67.8673 88.5492 68.0126 88.5623C68.2393 88.5851 68.4753 88.5919 68.5353 88.4544C68.5886 88.3344 68.4859 88.1984 68.3286 88.0717C68.2259 87.9891 68.0846 87.9637 67.9513 87.9317C67.7286 87.8784 67.5139 87.8237 67.3379 87.6997C67.2179 87.6144 67.0513 87.5891 66.9006 87.5584C66.374 87.4544 65.8512 87.3331 65.3299 87.1917C64.1779 86.8904 63.0019 86.7117 61.9513 86.3451C61.3486 86.0837 60.6926 85.9091 60.1233 85.5811L59.1819 85.0731L58.2886 84.4891C58.0032 84.3171 57.7619 84.0784 57.4686 83.9317C57.2753 83.6651 57.0246 83.4611 56.7753 83.2491C56.5406 83.0224 56.2926 82.8024 56.0806 82.5517C55.5246 81.8584 54.8313 81.2451 54.3953 80.4144C54.0593 79.8691 53.7099 79.2797 53.4019 78.6851C52.9086 77.5757 52.4006 76.4597 52.1552 75.2517C51.9246 74.1571 51.7299 73.0384 51.7499 71.9104C51.7312 71.3251 51.7579 70.7411 51.8233 70.1597C51.8473 69.5731 51.9593 68.9997 52.07 68.4264C52.2553 67.4171 52.5379 66.3531 52.7593 65.3184L53.1112 63.7544L53.2886 62.9717C53.3286 62.7877 53.3192 62.8437 53.3272 62.8224L53.3366 62.7971L53.342 62.7891L53.3753 62.8037C53.4006 62.8117 53.3286 62.7957 53.5539 62.8517L54.5166 63.0944L56.4393 63.5877C57.4873 63.8771 58.5273 64.0544 59.4673 64.3917C60.026 64.5864 60.5753 64.8091 61.1086 65.0664C61.3646 65.1904 61.6059 65.2837 61.7179 65.1104L61.9393 65.1197C62.3526 65.2677 62.4926 65.2371 62.47 64.9357C62.4566 64.7891 62.4833 64.6784 62.5459 64.5691C62.6846 64.3251 62.5552 64.1037 62.0859 63.8797C61.3259 63.5224 60.5526 63.1824 59.7513 62.9411C58.7699 62.6384 57.8126 62.4611 56.8953 62.1891C56.2513 62.0064 55.5913 61.8504 54.9393 61.7104C54.3766 61.5771 53.8286 61.4451 53.2593 61.3104C52.9393 61.2397 52.6046 61.1651 52.2726 61.0904C52.214 61.3611 52.1473 61.6157 52.0619 61.8651L52.0593 61.8544C52.0686 62.0184 52.0286 62.1384 51.9726 62.2664L51.9779 62.2611C51.8406 62.5824 51.9659 62.6571 51.8912 62.8224C51.7299 63.1771 51.6819 63.5811 51.5993 63.9691C51.5193 64.3384 51.2966 64.6824 51.3832 65.0824L51.3192 65.2651C51.2072 65.7477 50.9353 66.2051 51.034 66.7264L50.9606 66.9664C50.9086 67.1104 50.8459 67.2464 50.8233 67.4064L50.8832 67.4571L50.8299 67.3971C50.7726 67.4731 50.742 67.5571 50.7393 67.6784C50.7166 68.2037 50.6206 68.7184 50.5246 69.2344C50.4939 69.4024 50.4473 69.5571 50.4686 69.7464C50.5113 70.0757 50.5659 70.3944 50.4166 70.7477C50.3592 70.8784 50.3966 71.1011 50.4713 71.2504V71.2384C50.4753 71.3891 50.4913 71.5451 50.4099 71.6451L50.4153 71.6344C50.4393 71.8784 50.3486 72.1264 50.4379 72.3664L50.4806 72.4584Z" fill="#1A1818"/>
<path d="M48.3845 84.3157L48.3605 84.3637C48.5952 84.8504 49.0472 85.1638 49.3312 85.6398C49.5512 85.9918 49.9232 86.2971 50.2419 86.5984C50.5339 86.8891 50.8739 87.1264 51.1859 87.3931C51.4965 87.6664 51.8205 87.9184 52.1632 88.1424C53.2272 88.9399 54.4498 89.4877 55.6792 89.9705C56.3592 90.2101 57.0565 90.3888 57.7592 90.5383C58.1725 90.6612 58.6032 90.6894 59.0285 90.7238C59.4538 90.7706 59.8806 90.7919 60.3099 90.7946C60.6072 90.8066 60.9059 90.8039 61.2032 90.7878L62.0885 90.6648C62.5472 90.6263 62.9939 90.5315 63.4392 90.4252C63.8899 90.329 64.3285 90.217 64.7339 90.0664C64.9939 89.9768 65.2539 89.8315 65.5339 89.8279C65.8165 89.8227 66.0752 89.7399 66.3365 89.6517C66.6672 89.5408 67.0059 89.4768 67.3406 89.4383C67.7366 89.393 68.1085 89.2919 68.4859 89.1638C68.6632 89.1039 68.7152 89.0227 68.7312 88.9184C68.7659 88.7039 68.5045 88.5716 68.1618 88.6315C68.0365 88.6544 67.9125 88.6919 67.7939 88.6705L68.1258 88.5075C68.3005 88.4264 68.4738 88.3278 68.4565 88.1798C68.4405 88.0491 68.3045 87.9744 68.1339 87.9331L67.7979 87.9771C67.6112 88.0291 67.4312 88.0758 67.2485 88.0451C67.1232 88.0238 66.9912 88.0744 66.8686 88.1144C66.4392 88.2571 66.0032 88.3824 65.5632 88.4894C64.5926 88.729 63.6539 89.1039 62.7365 89.2571C62.1965 89.3638 61.6392 89.4347 61.0952 89.4982C60.4965 89.468 59.9019 89.5623 59.3099 89.4809C59.0326 89.4585 58.7552 89.4039 58.4779 89.4586C57.9859 89.1919 57.4085 89.2586 56.8939 89.0451C56.5499 88.8956 56.1818 88.8159 55.8205 88.7023C55.4658 88.569 55.1059 88.4331 54.7645 88.2478C54.3192 87.9464 53.7738 87.7451 53.3205 87.4184C52.4965 86.8291 51.6352 86.2638 50.9525 85.4891C50.6259 85.1504 50.3139 84.8011 50.0352 84.4198C49.7312 84.0584 49.4592 83.6731 49.2312 83.2598C48.9672 82.8464 48.7366 82.4157 48.5326 81.9691C48.3006 81.5371 48.1192 81.0824 47.9618 80.6171C47.3872 79.0211 47.0725 77.2397 46.6672 75.4811L46.3538 74.0971L46.2085 73.4651L46.2139 73.4438L46.2365 73.4504L46.2659 73.4464L46.4285 73.4051L46.7552 73.3184L47.4072 73.1344L48.7085 72.7571L50.2152 72.3144C50.4432 72.2557 50.6445 72.1704 50.6085 71.9664L50.7485 71.8317C51.0845 71.6691 51.1512 71.5504 50.9592 71.3411C50.8672 71.2424 50.8165 71.1424 50.7885 71.0198C50.7285 70.7437 50.5206 70.6704 50.0992 70.7958C49.4339 71.0011 48.8005 71.1931 48.1472 71.3931C47.3565 71.6504 46.6352 71.8584 45.7659 72.0598C45.3246 72.1758 44.8872 72.2891 44.4512 72.4038C44.5845 72.9371 44.7165 73.4638 44.8472 73.9931C44.9592 74.3998 45.0312 74.8171 45.1512 75.2238C45.2272 75.4864 45.3298 75.7718 45.3258 76.0584L45.3205 76.0571L45.3645 76.2398L45.3672 76.2357C45.3312 76.3837 45.4872 76.4344 45.4832 76.5824C45.4752 76.9131 45.5899 77.2358 45.6659 77.5611C45.7392 77.8704 45.6712 78.2184 45.9085 78.4837L45.9205 78.6477C46.0018 79.0504 45.9819 79.5371 46.2912 79.8904L46.3312 80.1078C46.3499 80.2398 46.3512 80.3771 46.4072 80.5064L46.4859 80.5131L46.4099 80.4971L46.4699 80.7464C46.6925 81.1317 46.8392 81.5491 46.9965 81.9651C47.0579 82.0957 47.0778 82.2344 47.1845 82.3584C47.3685 82.5744 47.5552 82.7771 47.5845 83.1078C47.5938 83.2291 47.7245 83.3704 47.8525 83.4424L47.8472 83.4344L47.9712 83.7598V83.7504C48.0979 83.9144 48.1272 84.1424 48.3085 84.2718L48.3845 84.3157Z" fill="#1A1818"/>
<path d="M85.6332 72.3759L85.5852 72.4012C85.4972 72.9692 85.5225 73.5399 85.4025 74.1279C85.2692 74.5559 85.1892 75.0572 85.1198 75.5319C84.9318 76.4025 84.6638 77.2679 84.2972 78.0812C83.7118 79.3959 83.0225 80.6879 82.0812 81.7892C81.8452 82.1039 81.5892 82.3999 81.3132 82.6786C81.0372 82.9572 80.7919 83.2705 80.4732 83.4999C79.7626 84.1012 79.0506 84.7052 78.2399 85.1679C77.6572 85.4492 77.1305 85.8426 76.5212 86.0746C76.0665 86.2826 75.6052 86.4732 75.1198 86.5999C74.6452 86.7479 74.1679 86.9012 73.6599 87.0439C73.3452 87.1372 73.0278 87.2879 72.6998 87.2959C72.3665 87.3039 72.0546 87.3906 71.7399 87.4826C71.3426 87.5999 70.9399 87.6679 70.5426 87.7106C70.0746 87.7612 69.6279 87.8665 69.1732 88.0012C68.9586 88.0652 68.8932 88.1466 68.8665 88.2532C68.8092 88.4707 69.1038 88.6015 69.5145 88.5358C69.6625 88.5119 69.8105 88.4734 69.9492 88.492C69.8425 88.5811 69.6812 88.6067 69.5452 88.6614C69.3332 88.7452 69.1212 88.8478 69.1305 88.9972C69.1385 89.128 69.2932 89.2024 69.4905 89.2425C69.6185 89.2691 69.7572 89.2254 69.8879 89.1931C70.1105 89.14 70.3279 89.0895 70.5399 89.1186C70.6852 89.1384 70.8452 89.0852 70.9932 89.0436C71.5092 88.8931 72.0305 88.7639 72.5572 88.6494C73.7132 88.4026 74.8332 88.0346 76.0465 87.6679C76.7225 87.4105 77.3972 87.1106 78.0252 86.7692L79.0465 86.1972L79.9905 85.5159C80.2892 85.3159 80.5879 85.0972 80.7932 84.8066C81.1025 84.6386 81.3785 84.4159 81.6292 84.1679C81.8679 83.9039 82.0958 83.6292 82.3585 83.3892C83.0558 82.7159 83.5532 81.8639 84.1319 81.0559C84.5719 80.5159 84.8292 79.8172 85.1785 79.1919C85.7558 78.0186 86.1265 76.7679 86.4358 75.4999C86.7238 74.3399 86.8798 73.1439 86.9278 71.9452C86.9812 71.3226 86.9732 70.6959 86.9239 70.0706C86.9145 69.4426 86.8132 68.8239 86.7239 68.2026C86.5745 67.1012 86.3386 66.0892 86.1426 65.0292L85.3959 61.2759L85.3358 60.9759C83.7972 61.3346 82.2652 61.6905 80.7225 62.0505C79.6972 62.2852 78.6185 62.5212 77.5412 62.9252C76.9239 63.1519 76.3252 63.4265 75.7465 63.7359C75.4692 63.8839 75.2399 64.0546 75.3292 64.2426L75.1985 64.4332C74.8439 64.7345 74.8198 64.8759 75.0998 64.9919C75.2332 65.0479 75.3185 65.1239 75.3852 65.2292C75.5399 65.4679 75.7692 65.4612 76.1652 65.2145C76.8145 64.8159 77.5172 64.5105 78.2265 64.2359C79.0705 63.8999 80.0039 63.7052 80.9572 63.5012C81.6145 63.3692 82.2732 63.2052 82.9159 63.0305L83.6465 62.8505C83.8785 62.7972 84.2132 62.7185 84.1625 62.7199L84.2652 62.6732L84.2439 62.7852L84.2385 62.7879L84.2452 62.8159L84.2492 62.8145C84.1772 62.8065 84.3439 62.9292 84.3412 63.0985C84.3359 63.4879 84.4559 63.8759 84.5372 64.2652C84.6132 64.6345 84.5492 65.0399 84.7905 65.3706L84.8039 65.5626C84.8972 66.0506 84.8319 66.5772 85.1345 67.0159L85.1638 67.2652C85.1745 67.4159 85.1718 67.5666 85.2172 67.7226L85.2918 67.7439L85.2185 67.7119L85.2385 67.9999C85.3772 68.4545 85.4398 68.9372 85.5052 69.4132C85.5252 69.5679 85.4785 69.7185 85.5305 69.8852C85.6145 70.1732 85.7092 70.4665 85.6066 70.8012C85.5692 70.9239 85.6332 71.1226 85.6865 71.2612V71.2505C85.6825 71.3892 85.6892 71.5346 85.6052 71.6226L85.6092 71.6145C85.6212 71.8385 85.5185 72.0599 85.5945 72.2852L85.6332 72.3759Z" fill="#1A1818"/>
<path d="M58.7493 82.3437L58.7239 82.3877C58.8773 82.6277 59.1573 82.7384 59.3173 82.9877C59.4373 83.1717 59.6333 83.3291 59.8159 83.4717C60.1639 83.7304 60.4986 84.0064 60.82 84.2931C61.332 84.7664 61.9306 85.1277 62.464 85.5704C62.7706 85.7877 63.1013 85.9731 63.3933 86.2091C63.7386 86.5011 64.1666 86.6557 64.5239 86.9304C64.7719 87.1197 65.0692 87.2277 65.3439 87.3744C65.7639 87.6024 66.1786 87.8424 66.6306 88.0091C66.772 88.0624 66.9426 88.0691 67.0479 88.1931C67.1533 88.3224 67.292 88.3757 67.436 88.4251C67.6133 88.4904 67.7759 88.5893 67.9239 88.7101C68.0973 88.8544 68.2972 88.9372 68.5132 88.9971L68.7373 88.8971C68.8533 88.7279 68.8013 88.5039 68.6426 88.4024L68.484 88.2757L68.6893 88.2824C68.796 88.2917 68.9093 88.2797 68.9693 88.1464L68.9679 87.7984L68.8266 87.6917L68.5973 87.5104L68.428 87.3997C68.204 87.3331 67.9906 87.2357 67.7826 87.1224C67.3253 86.8837 66.8226 86.7277 66.3733 86.4624C66.1146 86.3011 65.8213 86.1971 65.5613 86.0424C65.2813 85.8677 64.9946 85.7144 64.708 85.5544C64.576 85.4784 64.4546 85.3784 64.2879 85.3664C64.1319 85.0744 63.8026 85.0237 63.5799 84.8157C63.2732 84.5424 62.8626 84.4037 62.5679 84.0904C62.3693 83.8704 62.0693 83.7437 61.8533 83.5277C61.4613 83.1371 60.9693 82.8544 60.5959 82.4397C60.2599 82.0571 59.8706 81.7211 59.556 81.3184C59.2293 80.8904 58.9173 80.4811 58.5933 80.0557C58.1039 79.2611 57.5692 78.5011 57.1799 77.6624C56.8852 77.1451 56.652 76.6011 56.4506 76.0424C56.284 75.6131 56.076 75.1997 55.9533 74.7531L55.6879 73.9917C55.6453 73.8691 55.5759 73.7677 55.3733 73.8144L55.2506 73.7544C55.1133 73.5877 55 73.5677 54.784 73.7024C54.6813 73.7677 54.5813 73.8091 54.4586 73.8397C54.1866 73.9117 54.1013 74.0357 54.1946 74.2504C54.3466 74.5984 54.4533 74.9571 54.592 75.3051C54.7413 75.7317 54.9319 76.1357 55.0786 76.5624C55.1786 76.8611 55.3093 77.1517 55.4479 77.4291C55.5453 77.6424 55.6426 77.8544 55.7746 78.0504C55.8613 78.1757 55.9719 78.3051 55.9853 78.4744H55.9799L56.0306 78.5664L56.0333 78.5624L56.1599 78.7237C56.1733 78.9197 56.2973 79.0664 56.3866 79.2291C56.4666 79.3877 56.4559 79.6077 56.6933 79.6611L56.7226 79.7491C56.8453 79.9437 56.8399 80.2344 57.1373 80.3064L57.1866 80.4131L57.2733 80.6144L57.3399 80.5877L57.2746 80.6091L57.3253 80.7397C57.5013 80.8984 57.6453 81.0824 57.7853 81.2717L57.9226 81.4557C58.0653 81.5264 58.2146 81.5864 58.22 81.7904L58.4159 81.9184L58.4132 81.9144L58.4759 82.1011V82.0944C58.5599 82.1664 58.556 82.3171 58.6893 82.3411L58.7493 82.3437Z" fill="#1A1818"/>
<path d="M77.9668 81.3852L77.9228 81.3625C77.6975 81.5078 77.6068 81.7772 77.3734 81.9292C77.2014 82.0425 77.0601 82.2292 76.9308 82.4065C76.6761 82.7278 76.3628 82.9958 76.0628 83.2692C75.5854 83.7225 75.0614 84.1278 74.5454 84.5385C74.2481 84.7385 73.9735 84.9758 73.6641 85.1585C73.3028 85.3852 72.9668 85.6518 72.5895 85.8532C72.3268 85.9945 72.0894 86.1772 71.8348 86.3332C71.4454 86.5772 71.0281 86.7678 70.6441 87.0238C70.5241 87.1078 70.4188 87.2385 70.2601 87.2332C70.1001 87.2305 69.9761 87.3012 69.8521 87.3772C69.6961 87.4745 69.5188 87.5158 69.3401 87.5372C69.1294 87.5625 68.9468 87.6345 68.7681 87.7305L68.6895 87.9438C68.7135 88.1452 68.8815 88.2958 69.0668 88.2558L69.2708 88.2398L69.1134 88.3758C69.0321 88.4452 68.9508 88.528 68.9895 88.669C69.0215 88.7957 69.1215 88.8758 69.2335 88.9238L69.4241 88.8972L69.7361 88.8561L69.9454 88.8024C70.1681 88.6837 70.3908 88.5742 70.6228 88.48C71.1361 88.2785 71.5694 87.9292 72.0654 87.6945C72.3508 87.5505 72.6054 87.3425 72.8827 87.1945C73.1854 87.0265 73.4575 86.8172 73.7415 86.6238C73.8721 86.5332 74.0255 86.4705 74.1055 86.3172C74.4401 86.2678 74.6174 85.9638 74.9014 85.8212C75.2934 85.6318 75.5401 85.2398 75.9294 85.0198C76.1948 84.8625 76.4215 84.6225 76.6641 84.4172C77.1095 84.0425 77.5028 83.6145 77.9281 83.2172C78.3095 82.8345 78.6735 82.4705 79.0641 82.0798C79.4455 81.6585 79.8121 81.2518 80.1921 80.8318C80.8041 80.0518 81.4055 79.2532 81.8921 78.3772C82.2508 77.8372 82.4948 77.2412 82.7734 76.6585C83.0028 76.2078 83.1761 75.7318 83.2948 75.2398C83.3695 74.9585 83.4441 74.6732 83.5201 74.3905C83.5548 74.2532 83.5561 74.1225 83.3574 74.0638L83.2868 73.9505C83.2681 73.7345 83.1801 73.6678 82.9187 73.6865C82.7921 73.6958 82.6828 73.6838 82.5601 73.6558C82.2854 73.5905 82.1455 73.6492 82.1081 73.8585C82.0508 74.1998 81.9481 74.5305 81.8774 74.8718C81.8107 75.2892 81.6468 75.6732 81.4428 76.0425C81.3054 76.2985 81.1934 76.5692 81.0961 76.8412C81.0308 77.0518 80.8921 77.2238 80.8055 77.4252C80.7481 77.5545 80.7001 77.7052 80.5668 77.7958L80.5641 77.7918L80.5161 77.8772H80.5214L80.4561 78.0572C80.3028 78.1585 80.2494 78.3292 80.1628 78.4785C80.0894 78.6238 79.8601 78.6732 79.9121 78.8985L79.8415 78.9532C79.7108 79.1252 79.4455 79.2038 79.4921 79.4972L79.4121 79.5718L79.2641 79.7092L79.3107 79.7638L79.2708 79.7092L79.1695 79.7905C79.1055 80.0092 78.9481 80.1678 78.7988 80.3265L78.6521 80.4825C78.6147 80.6252 78.5868 80.7785 78.3934 80.8105L78.3121 81.0158L78.3161 81.0118L78.1535 81.0945L78.1601 81.0958C78.1068 81.1838 77.9721 81.1998 77.9654 81.3305L77.9668 81.3852Z" fill="#1A1818"/>
<path d="M68.0858 75.7479L68.0392 75.7639C67.9819 76.0559 68.1071 76.3399 68.0498 76.6439C68.0085 76.8692 68.0418 77.1279 68.0738 77.3705C68.1352 77.8212 68.1418 78.2772 68.1498 78.7265C68.1605 79.4572 68.2072 80.1865 68.2072 80.9172C68.2058 81.3132 68.2472 81.7105 68.2232 82.1052C68.1965 82.5772 68.2725 83.0479 68.2419 83.5185C68.2192 83.8479 68.2711 84.1759 68.2831 84.5039C68.3031 85.0079 68.2831 85.5145 68.3445 86.0199C68.3645 86.1772 68.4378 86.3439 68.3685 86.5012C68.2991 86.6599 68.3112 86.8159 68.3285 86.9745C68.3498 87.1745 68.3232 87.3745 68.2725 87.5665C68.2139 87.7932 68.2139 88.0159 68.2392 88.2452L68.4125 88.4172C68.6098 88.4681 68.8058 88.3412 68.8365 88.1399L68.8952 87.9305L68.9658 88.1385C68.9978 88.2479 69.0498 88.3599 69.1965 88.3705C69.3271 88.3812 69.4351 88.3159 69.5191 88.2252L69.5645 88.0319L69.6419 87.7159L69.6725 87.4932C69.6485 87.2319 69.6418 86.9719 69.6525 86.7105C69.6751 86.1345 69.5672 85.5625 69.5872 84.9865C69.5992 84.6492 69.5405 84.3092 69.5458 83.9772C69.5498 83.6119 69.5178 83.2532 69.4991 82.8919C69.4925 82.7239 69.5138 82.5532 69.4298 82.3919C69.5778 82.0679 69.4272 81.7359 69.4672 81.4039C69.5232 80.9519 69.3685 80.4985 69.4298 80.0305C69.4711 79.7065 69.4005 79.3625 69.4098 79.0265C69.4285 78.4132 69.3351 77.8052 69.3525 77.1892C69.3698 76.6265 69.3392 76.0625 69.3672 75.4985C69.3938 74.9105 69.3938 74.3225 69.4178 73.7345C69.4605 72.6985 69.4672 71.6612 69.4925 70.6225C69.5072 69.9545 69.4951 69.2879 69.5191 68.6199C69.5391 68.1012 69.5071 67.5799 69.4938 67.0585C69.4845 66.7559 69.4685 66.4519 69.4525 66.1505C69.4445 66.0039 69.4071 65.8745 69.1991 65.8705L69.0991 65.7732C69.0138 65.5572 68.9111 65.5092 68.6658 65.5999C68.5498 65.6412 68.4392 65.6599 68.3152 65.6625C68.0325 65.6679 67.9165 65.7732 67.9458 66.0119C67.9952 66.3986 67.9951 66.7879 68.0298 67.1759C68.0725 67.6439 68.0858 68.1105 68.0525 68.5785C68.0311 68.9039 68.0378 69.2332 68.0578 69.5572C68.0738 69.7999 68.0498 70.0439 68.0738 70.2865C68.0885 70.4452 68.1231 70.6172 68.0525 70.7785H68.0498V70.8879L68.0525 70.8852L68.0872 71.0945C68.0045 71.2785 68.0432 71.4759 68.0432 71.6679C68.0445 71.8519 67.8978 72.0399 68.0685 72.2185L68.0432 72.3119C68.0365 72.5532 67.8659 72.7985 68.0725 73.0345L68.0512 73.1559L68.0098 73.3799L68.0805 73.3959L68.0152 73.3745L67.9818 73.5145C68.0472 73.7559 68.0365 74.0012 68.0245 74.2452L68.0138 74.4839C68.0805 74.6345 68.1578 74.7812 68.0325 74.9505L68.1045 75.1839V75.1785L68.0338 75.3679L68.0392 75.3639L68.0445 75.7039L68.0858 75.7479Z" fill="#1A1818"/>
<path d="M86.0886 87.6506L86.1393 87.6679C86.5699 87.3546 86.9206 86.9599 87.3259 86.5879C87.6339 86.3173 87.9632 85.9719 88.2099 85.6066C88.4419 85.2653 88.6846 84.9333 88.9326 84.6053L89.5899 83.5666C90.2673 82.4306 90.7793 81.2066 91.1646 79.9493C91.3806 79.2599 91.5286 78.5693 91.7006 77.9173C91.9219 77.1279 92.0432 76.3186 92.2686 75.5319C92.4259 74.9852 92.5112 74.4199 92.6352 73.8639L92.9619 72.4759L91.5525 72.0946C91.2686 72.0279 90.9832 71.9599 90.6886 71.8906C90.4192 71.8346 90.1206 71.8266 89.8792 71.6866C89.6339 71.5466 89.3699 71.4839 89.0992 71.4266C88.7579 71.3519 88.4352 71.2333 88.1272 71.0946C87.7766 70.9253 87.3619 70.8399 86.9539 70.7679C86.7593 70.7346 86.6765 70.7799 86.6139 70.8652C86.4885 71.0399 86.6672 71.2813 86.9992 71.3919C87.1206 71.4333 87.2473 71.4586 87.3419 71.5333C87.2246 71.5693 87.0966 71.5253 86.9726 71.5186C86.7806 71.5066 86.5832 71.5133 86.5352 71.6519C86.4926 71.7759 86.5779 71.9066 86.7019 72.0226L87.0033 72.1413C87.1833 72.1826 87.3539 72.2213 87.4926 72.3373C87.5899 72.4213 87.7286 72.4453 87.8552 72.4733C88.2979 72.5706 88.7339 72.6866 89.1673 72.8213C89.6446 72.9666 90.1285 73.0813 90.6139 73.1959L91.3233 73.3666L91.4126 73.3906L91.4006 73.4426V73.4693L91.3819 73.5839C91.3232 73.8706 91.2673 74.1573 91.1953 74.4373C91.0406 75.0493 90.9219 75.6613 90.7899 76.2746C90.7286 76.5573 90.6352 76.8426 90.6525 77.1319C90.3712 77.6359 90.3899 78.2479 90.1979 78.7786C89.9406 79.4853 89.8699 80.2613 89.4926 80.9559C89.2753 81.4493 89.0299 81.9679 88.7739 82.4679C88.5246 82.9133 88.2365 83.3346 87.9832 83.7786C87.6925 84.1959 87.3832 84.6079 87.0512 84.9999L86.0632 86.0026C85.7019 86.3039 85.3579 86.6279 84.9726 86.8973C84.1659 87.4466 83.3366 87.9693 82.4366 88.3399C80.8633 89.0134 79.1713 89.4025 77.4753 89.4213C76.9286 89.4067 76.3833 89.4281 75.8419 89.3374C75.2979 89.2958 74.7633 89.1879 74.2366 89.0426C73.4219 88.8494 72.5085 88.5853 71.6472 88.3693L70.1179 87.9813C69.8752 87.9199 69.6472 87.8933 69.5805 88.0919L69.3886 88.1426C69.0059 88.1213 68.8979 88.1986 68.9779 88.4759C69.0152 88.6093 69.0152 88.7213 68.9846 88.8426C68.9152 89.1161 69.0552 89.277 69.4632 89.3614C70.1232 89.4973 70.7739 89.6786 71.4313 89.8281C72.2353 90.0015 72.9779 90.2306 73.8046 90.4478C74.3766 90.6041 74.9633 90.7358 75.5539 90.7587C75.9966 90.7947 76.4365 90.8743 76.8832 90.8358C77.1699 90.8229 77.4845 90.7895 77.7805 90.8598L77.7766 90.865L77.9753 90.8494L77.9712 90.8467C78.1179 90.8999 78.1966 90.7519 78.3486 90.7743C78.6912 90.8186 79.0499 90.7598 79.3953 90.7015C79.7193 90.6333 80.0886 90.7051 80.3739 90.4718L80.5459 90.4614C80.9726 90.3707 81.4486 90.3718 81.7992 90.0505L82.0165 90.0015C82.1525 89.9853 82.2792 89.9505 82.4072 89.8879L82.4112 89.8093L82.3979 89.8863L82.6472 89.8161C83.0245 89.5743 83.4473 89.4281 83.8339 89.2025C83.9619 89.1358 84.1033 89.1093 84.2206 88.9983C84.4273 88.8015 84.6299 88.6229 84.9419 88.5437C85.0593 88.5171 85.1846 88.3666 85.2526 88.2413L85.2445 88.2466L85.5673 88.1079H85.5566C85.7126 87.9706 85.9526 87.9399 86.0525 87.7333L86.0886 87.6506Z" fill="#1A1818"/>
<path d="M73.2069 97.3014L72.1562 97.6132C70.7242 98.0383 69.6082 99.293 69.2308 100.902L68.9402 102.144C68.8455 102.552 68.3308 102.552 68.2362 102.144L67.9442 100.902C67.5682 99.293 66.4509 98.0383 65.0215 97.6132L63.9175 97.2851C63.5562 97.1784 63.5562 96.6014 63.9175 96.4946L65.0215 96.1664C66.4509 95.7424 67.5682 94.4862 67.9442 92.8768L68.2508 91.5716C68.3455 91.168 68.8508 91.1638 68.9535 91.5623L69.3322 93.0492C69.7389 94.6424 70.8748 95.869 72.3055 96.2623L73.2002 96.5066C73.5668 96.6091 73.5722 97.193 73.2069 97.3014Z" fill="#1A1818"/>
<path d="M72.1063 46.3997L71.3049 46.6384C70.2129 46.9611 69.3609 47.9211 69.073 49.1491L68.8502 50.0971C68.7769 50.4077 68.3849 50.4077 68.3129 50.0971L68.0903 49.1491C67.8023 47.9211 66.9503 46.9611 65.8596 46.6384L65.0156 46.3891C64.7396 46.3064 64.7396 45.8651 65.0156 45.7824L65.8596 45.5331C66.9503 45.2104 67.8023 44.2504 68.0903 43.0224L68.3249 42.0251C68.3956 41.7184 68.7822 41.7144 68.8609 42.0184L69.1502 43.1544C69.4609 44.3704 70.3276 45.3064 71.4196 45.6064L72.1036 45.7931C72.3836 45.8704 72.3863 46.3171 72.1063 46.3997Z" fill="#1A1818"/>
<path d="M51.2274 53.0518L51.2114 53.0371C51.0007 53.1105 50.9434 53.1718 50.5327 53.2691C50.1301 53.3385 49.9568 53.5185 49.9395 53.8225C49.9475 54.1091 50.0634 54.2825 50.3501 54.3838C50.5781 54.4505 50.7994 54.5158 51.0221 54.5811C51.4847 54.7411 51.8941 55.0878 52.1341 55.5411C52.2008 55.6625 52.2594 55.7878 52.3048 55.9198C52.3581 56.0865 52.4087 56.2424 52.4634 56.4158C52.5501 56.6571 52.6328 56.9464 52.7341 57.1318C52.8621 57.2704 53.2328 57.2305 53.3035 57.0771L53.4768 56.7798C53.5261 56.5491 53.5807 56.2985 53.6301 56.0691C53.7167 55.7225 53.8901 55.4011 54.1048 55.1185L54.3395 54.8745L54.6194 54.6984C54.7354 54.6198 54.8674 54.5718 54.9981 54.5558C55.1581 54.5318 55.3367 54.4825 55.5021 54.4211L55.6114 54.3118C55.6261 54.2171 55.5088 54.1625 55.3541 54.1931L55.1887 54.2144L55.3368 54.1398L55.4848 53.9918L55.3381 53.8878L55.1874 53.9118L54.9408 53.9478L54.7541 53.9931C54.5354 54.0825 54.3288 54.1931 54.1368 54.3265C53.7075 54.6198 53.4261 55.0638 53.2221 55.5171C53.1634 55.6518 53.1167 55.7905 53.0861 55.9345L53.0474 56.1238L53.0408 56.1491L52.9661 56.2505L52.9181 56.1865L52.9114 56.0425C52.8727 55.9171 52.8368 55.8091 52.7928 55.6678C52.6768 55.2918 52.4207 54.9825 52.1607 54.6771C51.9807 54.4598 51.7167 54.3025 51.4554 54.1691C51.3287 54.1025 51.1821 54.0518 51.0501 54.0144L50.8648 53.9638L50.8061 53.9518L50.7048 53.8198L50.8048 53.7811L50.9914 53.7265C51.2061 53.6678 51.4514 53.5718 51.6607 53.4491C52.1061 53.1958 52.4514 52.7945 52.6848 52.3451C52.7754 52.1731 52.8461 51.9918 52.8994 51.8051L52.9755 51.5398L53.0341 51.5771C53.0501 51.6585 53.1408 52.0598 53.2514 52.2971C53.3661 52.5664 53.5221 52.8211 53.7128 53.0491C54.0074 53.4051 54.4167 53.6771 54.8687 53.8171L55.2261 53.9118L55.3981 53.9558L55.4408 53.9665L55.4634 53.9718L55.4981 53.8558V53.8491L55.4914 53.8851L55.5274 53.9131L55.5941 54.0984L55.7314 54.1905C55.7754 54.3038 56.1074 54.1718 56.0208 53.7358C55.9848 53.5718 55.8275 53.3918 55.6368 53.3478L55.4154 53.2945C55.2768 53.2598 55.1434 53.2238 54.9981 53.1878C54.6968 53.0971 54.4234 52.9078 54.2181 52.6585C54.0781 52.4851 53.9514 52.2958 53.8488 52.0958C53.7728 51.9411 53.7327 51.7838 53.6781 51.6091L53.6208 51.4185C53.5914 51.3038 53.5661 51.1891 53.5501 51.0625L53.5527 51.0638L53.5128 50.9091V50.9144C53.5048 50.7718 53.4368 50.7811 53.4035 50.6971C53.3275 50.5184 53.2167 50.4478 52.9834 50.4411C52.7714 50.4558 52.6501 50.4825 52.5954 50.7411L52.5408 50.8078L52.4954 50.8745C52.4274 51.0918 52.2981 51.4318 52.3301 51.6251L52.2994 51.7051L52.2341 51.8451L52.2594 51.8678L52.2368 51.8425L52.1874 51.9265C52.1514 52.0905 52.0648 52.2385 51.9674 52.3718L51.8661 52.4984C51.8247 52.5944 51.7767 52.6971 51.6554 52.7304L51.5527 52.8558L51.5568 52.8545L51.4368 52.9038H51.4395L51.2461 53.0225L51.2274 53.0518Z" fill="#1A1818"/>
<path d="M82.7913 53.0518L82.774 53.0371C82.5646 53.1105 82.5073 53.1718 82.0966 53.2691C81.6939 53.3385 81.5206 53.5185 81.502 53.8225C81.5113 54.1091 81.6273 54.2825 81.9139 54.3838C82.1419 54.4505 82.3633 54.5158 82.5859 54.5811C83.0486 54.7411 83.4579 55.0878 83.6979 55.5411C83.7632 55.6625 83.8233 55.7878 83.8686 55.9198C83.922 56.0865 83.9713 56.2424 84.0273 56.4158C84.1126 56.6571 84.1966 56.9464 84.2979 57.1318C84.4259 57.2704 84.7966 57.2305 84.8673 57.0771L85.0406 56.7798C85.09 56.5491 85.1432 56.2985 85.1926 56.0691C85.2806 55.7225 85.4526 55.4011 85.6673 55.1185L85.9033 54.8745L86.1833 54.6984C86.2979 54.6198 86.4312 54.5718 86.5619 54.5558C86.7206 54.5318 86.9006 54.4825 87.066 54.4211L87.174 54.3118C87.19 54.2171 87.0712 54.1625 86.9179 54.1931L86.7526 54.2144L86.9006 54.1398L87.0486 53.9918L86.902 53.8878L86.7512 53.9118L86.5046 53.9478L86.3179 53.9931C86.0992 54.0825 85.8926 54.1931 85.6993 54.3265C85.27 54.6198 84.9899 55.0638 84.7859 55.5171C84.7273 55.6518 84.6806 55.7905 84.6499 55.9345L84.61 56.1238L84.6046 56.1491L84.5299 56.2505L84.4806 56.1865L84.4753 56.0425C84.4366 55.9171 84.4006 55.8091 84.3553 55.6678C84.2406 55.2918 83.9846 54.9825 83.7232 54.6771C83.5432 54.4598 83.2793 54.3025 83.0193 54.1691C82.8913 54.1025 82.7459 54.0518 82.6139 54.0144L82.4286 53.9638L82.3686 53.9518L82.2686 53.8198L82.3686 53.7811L82.5539 53.7265C82.7699 53.6678 83.0152 53.5718 83.2232 53.4491C83.6686 53.1958 84.0153 52.7945 84.2473 52.3451C84.3379 52.1731 84.4099 51.9918 84.4633 51.8051L84.5393 51.5398L84.5979 51.5771C84.6139 51.6585 84.7046 52.0598 84.8152 52.2971C84.9299 52.5664 85.0846 52.8211 85.2753 53.0491C85.5699 53.4051 85.9806 53.6771 86.4326 53.8171L86.7899 53.9118L86.9619 53.9558L87.0046 53.9665L87.0273 53.9718L87.0619 53.8558V53.8491L87.0539 53.8851L87.0913 53.9131L87.1579 54.0984L87.2952 54.1905C87.3392 54.3038 87.6712 54.1718 87.5846 53.7358C87.5486 53.5718 87.3899 53.3918 87.2006 53.3478L86.9792 53.2945C86.8406 53.2598 86.7072 53.2238 86.5619 53.1878C86.2606 53.0971 85.9859 52.9078 85.7819 52.6585C85.6419 52.4851 85.5152 52.2958 85.4126 52.0958C85.3352 51.9411 85.2953 51.7838 85.2419 51.6091L85.1846 51.4185C85.1552 51.3038 85.1299 51.1891 85.1139 51.0625L85.1152 51.0638L85.0766 50.9091V50.9144C85.0686 50.7718 84.9993 50.7811 84.966 50.6971C84.8886 50.5184 84.7806 50.4478 84.5473 50.4411C84.3339 50.4558 84.2139 50.4825 84.1592 50.7411L84.1046 50.8078L84.0579 50.8745C83.9913 51.0918 83.8619 51.4318 83.8939 51.6251L83.8633 51.7051L83.7979 51.8451L83.8232 51.8678L83.8006 51.8425L83.7512 51.9265C83.7152 52.0905 83.6286 52.2385 83.5312 52.3718L83.4286 52.4984C83.3859 52.5944 83.3406 52.6971 83.2179 52.7304L83.1166 52.8558L83.1193 52.8545L82.9993 52.9038H83.002L82.81 53.0225L82.7913 53.0518Z" fill="#1A1818"/>
<path d="M78.4707 101.745L78.4507 101.738C78.2534 101.852 78.0987 102.018 77.8934 102.137C77.744 102.228 77.5774 102.342 77.4254 102.452C77.1374 102.654 76.844 102.857 76.532 103.018C76.0414 103.305 75.5374 103.569 75.0187 103.805C74.74 103.94 74.4521 104.054 74.1641 104.165C73.8241 104.301 73.4814 104.433 73.1281 104.54C72.8841 104.616 72.6454 104.709 72.3974 104.774C72.0174 104.883 71.6374 104.986 71.2534 105.076C71.1334 105.107 71.0107 105.16 70.8854 105.159C70.76 105.157 70.6427 105.188 70.5214 105.216C70.3667 105.245 70.212 105.257 70.06 105.259C69.8827 105.261 69.7121 105.284 69.5361 105.319L69.4081 105.401C69.3761 105.481 69.4814 105.541 69.64 105.53L69.8067 105.529L69.6454 105.578L69.4721 105.689L69.5987 105.793L69.7534 105.789L70.0067 105.783L70.1854 105.771C70.4094 105.731 70.592 105.702 70.804 105.666C71.256 105.576 71.7027 105.471 72.1481 105.345C72.4081 105.271 72.6681 105.195 72.9227 105.121L73.7414 104.833C73.8681 104.786 74.0014 104.754 74.1081 104.673C74.3681 104.629 74.596 104.478 74.8467 104.393C75.192 104.281 75.4894 104.057 75.8387 103.925C76.0827 103.835 76.308 103.671 76.5467 103.549C76.9854 103.33 77.3787 103.04 77.7974 102.784C78.1827 102.554 78.5333 102.269 78.9107 102.022C79.2813 101.736 79.6614 101.459 80.016 101.152C80.6507 100.618 81.2547 100.047 81.8134 99.4315C82.1827 99.0466 82.5107 98.6238 82.8507 98.2118C83.1147 97.8904 83.3374 97.5347 83.58 97.1956C83.7067 96.9919 83.8334 96.7826 83.9614 96.5758L84.0014 96.3347L84.012 96.2503C84.0774 96.0894 84.0641 96.0383 83.9481 96.0492L83.8107 96.0195C83.7173 95.968 83.6387 96.0132 83.5481 96.1758C83.3974 96.4399 83.244 96.7014 83.0787 96.9544C82.8774 97.2586 82.6761 97.5623 82.4414 97.8435C82.2761 98.0372 82.1174 98.2383 81.9667 98.4399C81.8561 98.5946 81.7187 98.7263 81.6001 98.8742L81.3361 99.156V99.1528L81.28 99.217H81.2814L81.1827 99.3466L80.8587 99.656C80.7574 99.756 80.6161 99.8195 80.5614 99.9638L80.5027 100.008C80.3707 100.142 80.188 100.224 80.1014 100.402L80.0254 100.459L79.8841 100.562L79.8921 100.592L79.888 100.561L79.7987 100.625C79.672 100.766 79.5347 100.897 79.3814 101.009L79.232 101.121C79.1574 101.214 79.0827 101.309 78.952 101.353L78.8267 101.488L78.8281 101.485L78.6987 101.556H78.7027L78.4907 101.714L78.4707 101.745Z" fill="#1A1818"/>
<path d="M87.3715 90.3119L87.3875 90.3229C87.5435 90.2426 87.6768 90.1562 87.8048 90.1947L88.0928 90.3453C88.2542 90.4598 88.2435 90.7442 88.1595 91.0186C88.0142 91.4707 87.7355 91.9213 87.4328 92.3374C87.2621 92.5614 87.0982 92.7947 86.9062 93.0041C86.6795 93.2573 86.4728 93.5265 86.2301 93.7666C86.0608 93.9505 85.9061 94.1161 85.7475 94.2879C85.4941 94.5478 85.2728 94.7718 84.9781 95.0707L84.7288 95.3161L84.4661 95.5374L84.1342 95.8067C83.9968 95.8983 83.8768 96.0051 83.7581 96.1197L83.7062 96.2505L83.9595 96.2426L84.0888 96.1587L83.9915 96.2786L83.9182 96.4546L84.0755 96.4801L84.1955 96.3983L84.3875 96.2682L84.5182 96.1682C84.6728 96.0239 84.7929 95.9119 84.9395 95.777C85.2555 95.4973 85.5328 95.1786 85.8382 94.8879C86.0182 94.7171 86.1782 94.5239 86.3488 94.3494C86.5368 94.1587 86.7101 93.9562 86.8835 93.7562L87.1075 93.4625C87.3062 93.3197 87.4222 93.0931 87.5875 92.9109C87.8102 92.6587 87.9648 92.3546 88.1715 92.0691C88.3128 91.8707 88.4221 91.6306 88.5248 91.389C88.7115 90.9958 88.8301 90.3161 88.3355 89.9145C88.1488 89.7587 87.8582 89.6666 87.6035 89.7161C87.3448 89.7587 87.1355 89.8838 86.9568 90.0171C86.5795 90.2983 86.3049 90.653 86.0422 91.0051C85.5862 91.6349 85.2168 92.3077 84.8688 92.9895C84.6461 93.4265 84.4448 93.8743 84.2408 94.3197C84.0822 94.6666 83.9448 95.0239 83.8075 95.3811C83.7315 95.5863 83.6568 95.7958 83.5781 96.0067L83.5941 96.2333L83.6048 96.3145C83.5795 96.4734 83.6048 96.5197 83.7128 96.4921L83.8501 96.4958C83.9515 96.5281 84.0168 96.4734 84.0675 96.3077C84.1502 96.0401 84.2515 95.777 84.3448 95.5119C84.4568 95.1921 84.5835 94.8801 84.7288 94.5718C84.8328 94.3374 84.9168 94.1505 85.0155 93.9281C85.0928 93.7614 85.1555 93.6239 85.2355 93.4467L85.3982 93.1317L85.3995 93.1349L85.4355 93.0639H85.4328L85.4902 92.9239C85.5782 92.8197 85.6301 92.6879 85.6968 92.5666C85.7581 92.4494 85.8715 92.3598 85.8795 92.2171L85.9208 92.1639C86.0088 92.0145 86.1528 91.8983 86.1768 91.7161L86.2288 91.6467L86.3288 91.5229L86.3128 91.4983L86.3248 91.5239L86.3902 91.4494C86.4648 91.2931 86.5702 91.1587 86.6755 91.0239L86.7835 90.8983L86.9915 90.6573L87.0848 90.5291L87.0822 90.5317L87.1902 90.4666L87.1875 90.4682L87.3568 90.3374L87.3715 90.3119Z" fill="#1A1818"/>
<path d="M80.7437 92.728H80.7637C80.853 92.58 80.921 92.4358 81.0503 92.3999L81.3744 92.377C81.5717 92.3879 81.7144 92.6348 81.785 92.9134C81.9024 93.3734 81.9037 93.9024 81.8664 94.416C81.8397 94.6972 81.8251 94.9827 81.7731 95.2614C81.7131 95.5947 81.6797 95.9332 81.6024 96.265C81.553 96.5103 81.5104 96.7332 81.4664 96.9624C81.3864 97.3171 81.3197 97.6239 81.2264 98.0332L81.145 98.3734L81.0384 98.6999C81.0064 98.841 80.957 98.977 80.8997 99.1051C80.8317 99.2562 80.785 99.4092 80.745 99.5691L80.7704 99.7092C80.8291 99.7666 80.9263 99.704 80.981 99.5666L81.0477 99.428L81.0277 99.5811L81.0584 99.7707L81.205 99.7067L81.2637 99.5743L81.3584 99.3614L81.4157 99.2092C81.4717 99.004 81.5144 98.8452 81.5664 98.6546C81.6877 98.2494 81.7544 97.8332 81.861 97.4228C81.9224 97.1838 81.9571 96.9358 82.0091 96.6972C82.0677 96.4358 82.1077 96.1734 82.149 95.9108C82.1677 95.7879 82.197 95.665 82.185 95.5436C82.277 95.3171 82.257 95.0639 82.2997 94.8228C82.3557 94.4906 82.329 94.1494 82.353 93.7983C82.3663 93.5546 82.333 93.2931 82.2917 93.0348C82.2424 92.6024 81.985 91.9614 81.353 91.8838C81.1117 91.8478 80.817 91.9239 80.625 92.1015C80.429 92.2734 80.3171 92.4906 80.2371 92.6983C80.0637 93.1358 80.0184 93.5827 79.9824 94.0196C79.9277 94.7947 79.9691 95.5624 80.0344 96.3239C80.0757 96.8134 80.1424 97.2983 80.2037 97.7852C80.2517 98.1639 80.3251 98.54 80.3957 98.9144C80.4411 99.1291 80.4877 99.3478 80.533 99.5682L80.6664 99.753L80.717 99.816C80.7797 99.9639 80.8264 99.9906 80.9024 99.9076L81.0224 99.8384C81.125 99.8144 81.1531 99.7316 81.1064 99.565C81.0357 99.2947 80.9837 99.0171 80.9224 98.7426C80.8477 98.4119 80.789 98.08 80.7517 97.7426C80.717 97.4895 80.6877 97.2838 80.6544 97.0436C80.6304 96.8614 80.6117 96.7134 80.5877 96.5196L80.5597 96.1666L80.561 96.1682L80.553 96.0895L80.5517 96.0906L80.5277 95.941C80.5477 95.8067 80.521 95.6666 80.513 95.528C80.5037 95.3958 80.5517 95.2614 80.485 95.1348L80.4917 95.0666C80.489 94.8947 80.5477 94.7212 80.4717 94.5519L80.4797 94.465L80.497 94.3076L80.4717 94.2947L80.4957 94.3119L80.5117 94.2134C80.493 94.041 80.5104 93.8707 80.5304 93.7015L80.5557 93.5384L80.6037 93.2239L80.6143 93.065V93.0691L80.6717 92.9562L80.669 92.9572L80.745 92.7587L80.7437 92.728Z" fill="#1A1818"/>
<path d="M88.5325 99.14L88.5525 99.1452C88.7631 99.0102 88.9218 98.7638 89.0045 98.4613C89.0605 98.2253 89.0165 97.969 88.8831 97.7624C88.6311 97.3316 88.1418 97.2545 87.8005 97.2441C87.2072 97.2373 86.6805 97.3998 86.1592 97.5545C85.8832 97.6529 85.6218 97.7466 85.3285 97.8504C84.9978 97.9649 84.6911 98.1253 84.3685 98.2545C84.1445 98.3436 83.9338 98.4624 83.7165 98.569C83.3845 98.7348 83.0498 98.893 82.7312 99.0837L82.4232 99.2545L82.1098 99.4024C81.9845 99.48 81.8511 99.5409 81.7191 99.592C81.5631 99.6529 81.4205 99.7332 81.2778 99.8264L81.2005 99.9452C81.2058 100.029 81.3218 100.045 81.4538 99.9837L81.5991 99.9264L81.4792 100.025L81.3752 100.184L81.5232 100.237L81.6538 100.183L81.8672 100.097L82.0125 100.029C82.1738 99.9305 82.3378 99.8373 82.5071 99.7529C82.8791 99.5649 83.2285 99.3409 83.6058 99.1649C83.8272 99.0556 84.0458 98.9452 84.2592 98.8384C84.4952 98.729 84.7285 98.6196 84.9685 98.5092L85.2911 98.3493C85.5271 98.316 85.7312 98.1785 85.9618 98.1144C86.2725 98.0332 86.5658 97.88 86.8938 97.829C87.1178 97.7972 87.3512 97.7253 87.5792 97.7196C87.9872 97.693 88.4072 97.7493 88.5032 98.0733C88.6098 98.38 88.4431 98.6597 88.1071 98.8529C87.7778 99.0545 87.3818 99.192 86.9805 99.2957C86.2698 99.4758 85.5298 99.593 84.7872 99.6733C84.3098 99.7238 83.8298 99.7742 83.3498 99.7998C82.9631 99.8253 82.6005 99.8493 82.2232 99.8742C82.0072 99.8862 81.7872 99.8982 81.5672 99.9118L81.3658 100.01L81.2952 100.05C81.1392 100.084 81.1058 100.121 81.1685 100.213L81.2152 100.344C81.2178 100.449 81.2951 100.493 81.4711 100.478C81.7898 100.454 82.0325 100.438 82.3258 100.418C82.6672 100.388 83.0072 100.362 83.3512 100.35C83.5898 100.341 83.8298 100.32 84.0658 100.289C84.2511 100.269 84.4032 100.252 84.6005 100.229L84.9592 100.195L84.9578 100.197L85.0392 100.186L85.0365 100.185L85.1885 100.153C85.3271 100.165 85.4685 100.13 85.6085 100.108C85.7432 100.088 85.8872 100.117 86.0085 100.03L86.0792 100.028C86.2538 99.9982 86.4458 100.025 86.6032 99.9108L86.6925 99.8972L86.8578 99.8742L86.8645 99.8452L86.8538 99.8733L86.9592 99.8586C87.1272 99.7905 87.3058 99.74 87.4831 99.6878L87.6578 99.629C87.7578 99.569 87.8498 99.4946 87.9898 99.4862L88.1418 99.381L88.1392 99.3826L88.2831 99.3348H88.2792L88.5125 99.1758L88.5325 99.14Z" fill="#1A1818"/>
<path d="M81.4938 106.125L81.5098 106.138C81.7552 106.098 81.9992 105.934 82.1952 105.689C82.3405 105.496 82.4018 105.243 82.3618 105.001C82.3005 104.502 81.8818 104.238 81.5712 104.095C81.0298 103.853 80.4818 103.795 79.9405 103.728C79.6485 103.71 79.3725 103.693 79.0619 103.672C78.7139 103.648 78.3672 103.673 78.0205 103.664C77.7778 103.659 77.5379 103.683 77.2979 103.696C76.9272 103.716 76.5565 103.728 76.1885 103.777L75.8378 103.81L75.4911 103.824C75.3445 103.844 75.2005 103.848 75.0578 103.843C74.8898 103.836 74.7271 103.853 74.5605 103.883L74.4405 103.961C74.4125 104.04 74.5125 104.101 74.6605 104.097L74.8138 104.102L74.6645 104.145L74.5059 104.249L74.6218 104.357L74.7645 104.359L74.9938 104.364L75.1551 104.36C75.3405 104.333 75.5285 104.314 75.7165 104.302C76.1325 104.277 76.5445 104.21 76.9605 104.198C77.2058 104.184 77.4498 104.169 77.6885 104.157C77.9485 104.149 78.2072 104.143 78.4699 104.135C78.5912 104.133 78.7152 104.145 78.8298 104.116C79.0605 104.179 79.3019 104.133 79.5392 104.167C79.8565 104.214 80.1872 104.189 80.5072 104.273C80.7258 104.333 80.9685 104.359 81.1805 104.444C81.5645 104.581 81.9298 104.8 81.8885 105.135C81.8658 105.459 81.6018 105.649 81.2165 105.695C80.8338 105.748 80.4152 105.719 80.0059 105.655C79.2805 105.537 78.5565 105.352 77.8432 105.132C77.3832 104.991 76.9245 104.845 76.4725 104.679C76.1072 104.549 75.7659 104.428 75.4085 104.301C75.2059 104.226 74.9978 104.152 74.7911 104.074L74.5672 104.086L74.4872 104.095C74.3298 104.064 74.2845 104.085 74.3072 104.195L74.2965 104.333C74.2592 104.432 74.3125 104.501 74.4805 104.557C74.7805 104.664 75.0098 104.744 75.2858 104.84C75.6125 104.947 75.9365 105.059 76.2565 105.185C76.4792 105.272 76.7085 105.347 76.9365 105.412C77.1139 105.467 77.2605 105.51 77.4498 105.568L77.7952 105.679L77.7925 105.68L77.8699 105.702V105.701L78.0205 105.731C78.1445 105.797 78.2872 105.822 78.4258 105.856C78.5552 105.891 78.6778 105.976 78.8232 105.945L78.8872 105.969C79.0605 106.01 79.2258 106.112 79.4152 106.068L79.5032 106.092L79.6632 106.137L79.6805 106.112L79.6618 106.135L79.7632 106.162C79.9445 106.168 80.1285 106.191 80.3125 106.213L80.4952 106.228C80.6112 106.213 80.7258 106.181 80.8565 106.228L81.0405 106.192H81.0352L81.1872 106.205H81.1845L81.4605 106.152L81.4938 106.125Z" fill="#1A1818"/>
<path d="M75.9145 97.2119L75.9346 97.2171C76.0532 97.0895 76.1506 96.9624 76.2826 96.9561L76.6052 97.0015C76.7959 97.0556 76.8826 97.3264 76.8932 97.6133C76.9092 98.0879 76.7985 98.6067 76.6532 99.0999C76.5665 99.3691 76.4919 99.6436 76.3812 99.9051C76.2532 100.22 76.1492 100.543 76.0012 100.849C75.9026 101.08 75.8146 101.288 75.7212 101.502C75.5692 101.833 75.4372 102.117 75.2599 102.498L75.1066 102.812L74.9346 103.109C74.8732 103.241 74.7959 103.362 74.7132 103.476C74.6132 103.609 74.5359 103.749 74.4626 103.897L74.4572 104.038C74.5026 104.108 74.6106 104.067 74.6932 103.945L74.7879 103.822L74.7359 103.968L74.7266 104.16L74.8839 104.128L74.9679 104.012L75.1066 103.825L75.1945 103.686C75.2919 103.5 75.3679 103.353 75.4585 103.176C75.6639 102.807 75.8185 102.414 76.0079 102.036C76.1199 101.816 76.2066 101.58 76.3092 101.359C76.4212 101.114 76.5158 100.868 76.6118 100.62C76.6558 100.504 76.7105 100.391 76.7252 100.269C76.8639 100.067 76.8959 99.816 76.9919 99.5879C77.1159 99.2759 77.1612 98.9373 77.2599 98.5999C77.3252 98.3639 77.3479 98.1024 77.3626 97.8384C77.4052 97.4067 77.2892 96.7253 76.6892 96.5144C76.4612 96.4305 76.1572 96.4409 75.9319 96.5733C75.7039 96.6999 75.5492 96.8889 75.4266 97.0743C75.1639 97.4665 75.0239 97.892 74.8959 98.3133C74.6772 99.0572 74.5559 99.8171 74.4572 100.573C74.3932 101.061 74.3559 101.55 74.3132 102.038C74.2785 102.419 74.2719 102.801 74.2612 103.184C74.2599 103.402 74.2585 103.626 74.2559 103.85L74.3465 104.059L74.3839 104.132C74.4132 104.289 74.4518 104.326 74.5452 104.262L74.6759 104.22C74.7812 104.217 74.8266 104.143 74.8186 103.971C74.8052 103.689 74.8132 103.408 74.8118 103.126C74.8092 102.788 74.8239 102.45 74.8572 102.113C74.8772 101.857 74.8919 101.652 74.9105 101.409C74.9265 101.226 74.9399 101.077 74.9559 100.884L75.0039 100.532L75.0052 100.533L75.0145 100.455L75.0132 100.456L75.0199 100.305C75.0679 100.177 75.0732 100.036 75.0959 99.8983C75.1132 99.7691 75.1892 99.6467 75.1505 99.5076L75.1706 99.4436C75.2052 99.2759 75.2985 99.116 75.2612 98.9357L75.2879 98.8529L75.3385 98.704L75.3159 98.6852L75.3346 98.7067L75.3732 98.6133C75.3892 98.4425 75.4439 98.2785 75.4986 98.116L75.5585 97.9624L75.6719 97.6665L75.7172 97.5144L75.7159 97.5171L75.7959 97.4196L75.7932 97.4212L75.9092 97.2409L75.9145 97.2119Z" fill="#1A1818"/>
<path d="M58.7453 102.173L58.7439 102.196C58.9213 102.349 59.1346 102.445 59.32 102.604C59.4546 102.725 59.64 102.824 59.8093 102.917C60.128 103.089 60.4293 103.295 60.7506 103.46C61.2573 103.75 61.7866 103.996 62.3173 104.241C62.6013 104.384 62.9066 104.474 63.1933 104.607C63.5373 104.769 63.9053 104.853 64.2587 104.988C64.5013 105.085 64.7586 105.145 65.0133 105.205C65.4053 105.304 65.7906 105.428 66.1933 105.478C66.3186 105.498 66.4533 105.5 66.5706 105.55C66.6893 105.601 66.812 105.624 66.9387 105.641C67.0987 105.657 67.2533 105.689 67.4013 105.73C67.5773 105.778 67.7546 105.805 67.9373 105.824L68.0813 105.778C68.1306 105.712 68.0413 105.624 67.8853 105.589L67.724 105.543L67.8906 105.541L68.084 105.483L67.9893 105.345L67.8413 105.307L67.6027 105.242L67.4333 105.205C67.2307 105.181 67.028 105.166 66.8307 105.113C66.396 105.005 65.9453 104.977 65.5173 104.837C65.2613 104.773 65.004 104.707 64.756 104.642L63.9506 104.385C63.8266 104.345 63.7013 104.296 63.5747 104.276C63.3627 104.128 63.1013 104.083 62.8667 103.969C62.5493 103.819 62.212 103.702 61.8893 103.529C61.6173 103.388 61.4306 103.289 61.196 103.168C60.7746 102.938 60.3587 102.709 59.956 102.445C59.588 102.205 59.2346 101.941 58.8799 101.68C58.5333 101.381 58.1627 101.107 57.8307 100.789C57.2373 100.241 56.6586 99.6741 56.1346 99.0585C55.7866 98.6732 55.4639 98.2664 55.1519 97.8517C54.9066 97.5159 54.6746 97.1971 54.4373 96.8689L54.0466 96.2784L53.848 96.1424L53.7747 96.0971C53.6587 95.9689 53.6053 95.956 53.5613 96.0612L53.4747 96.168C53.384 96.2252 53.3907 96.3184 53.5027 96.4741C53.6853 96.7252 53.8413 96.9971 54.0307 97.2424C54.2613 97.5383 54.4706 97.8451 54.6879 98.1503C54.8413 98.3596 55.0066 98.5648 55.1733 98.7637C55.2946 98.9143 55.4199 99.0637 55.5546 99.2049L55.8106 99.5049H55.808L55.8653 99.5705V99.568L55.9866 99.6851C56.0573 99.8195 56.184 99.9169 56.2906 100.028C56.3933 100.131 56.46 100.277 56.6053 100.335L56.6533 100.395C56.7826 100.536 56.8813 100.718 57.0773 100.786L57.1439 100.857L57.2653 100.989L57.2933 100.978L57.264 100.985L57.3387 101.069C57.5 101.178 57.6359 101.321 57.788 101.445L57.9346 101.568L58.2293 101.797L58.3906 101.895L58.3866 101.892L58.4893 102.007L58.4879 102.004L58.708 102.166L58.7453 102.173Z" fill="#1A1818"/>
<path d="M50.4488 89.8614L50.4474 89.84C50.2527 89.6863 49.9674 89.6144 49.6541 89.6348C49.4128 89.6572 49.1848 89.7811 49.0314 89.9743C48.7048 90.353 48.7914 90.841 48.8914 91.1682C49.0781 91.7306 49.4021 92.177 49.7167 92.6212C49.8981 92.8504 50.0714 93.0666 50.2648 93.3103C50.4808 93.5863 50.7314 93.8254 50.9581 94.0879C51.1154 94.2718 51.2954 94.4332 51.4674 94.6024C51.7301 94.8639 51.9901 95.128 52.2714 95.3691L52.5327 95.6067L52.7741 95.8546L53.0807 96.1624C53.1887 96.2906 53.3101 96.3999 53.4421 96.504L53.5821 96.54L53.5368 96.2863L53.4368 96.1682L53.5674 96.2504L53.7514 96.2972L53.7541 96.1384L53.6607 96.0332L53.5101 95.8598L53.3981 95.7426C53.2528 95.6239 53.1127 95.4972 52.9781 95.365C52.6794 95.0743 52.3541 94.816 52.0648 94.5144C51.8901 94.3426 51.7168 94.1691 51.5461 94.0024L51.0047 93.4384L50.7488 93.1838C50.6408 92.9718 50.4447 92.8239 50.3114 92.6254C50.1314 92.3587 49.8914 92.1291 49.7381 91.8358C49.6354 91.6348 49.4928 91.4374 49.4128 91.2239C49.2568 90.8452 49.1728 90.4291 49.4488 90.2348C49.7048 90.0348 50.0221 90.1024 50.3154 90.3562C50.6114 90.604 50.8714 90.9348 51.0994 91.28C51.4981 91.8947 51.8474 92.5572 52.1634 93.2316C52.3687 93.6682 52.5687 94.1067 52.7501 94.553C52.8981 94.9108 53.0394 95.2467 53.1834 95.5947C53.2661 95.7947 53.3488 95.9999 53.4314 96.204L53.5914 96.3624L53.6501 96.416C53.7314 96.553 53.7794 96.5718 53.8447 96.4827L53.9541 96.3972C54.0528 96.3587 54.0688 96.2734 53.9981 96.1119C53.8741 95.8171 53.7794 95.5931 53.6648 95.3239C53.5261 95.0076 53.3914 94.6947 53.2701 94.3734C53.1848 94.1504 53.0861 93.9306 52.9821 93.7171C52.9021 93.5494 52.8367 93.4108 52.7527 93.2306L52.6034 92.9015H52.6061L52.5687 92.8306V92.8316L52.4887 92.6999C52.4554 92.5639 52.3781 92.441 52.3101 92.3144C52.2474 92.1958 52.2288 92.0478 52.1074 91.9614L52.0834 91.8958C51.9967 91.74 51.9621 91.5504 51.8021 91.44L51.7607 91.3587L51.6861 91.2103L51.6568 91.2134H51.6861L51.6381 91.1186C51.5194 90.9811 51.4141 90.8291 51.3074 90.677L51.1954 90.5316C51.1061 90.4562 51.0048 90.392 50.9514 90.265L50.8021 90.153L50.8061 90.1572L50.7141 90.0348L50.7154 90.0384L50.4901 89.8691L50.4488 89.8614Z" fill="#1A1818"/>
<path d="M57.2719 92.4982L57.2812 92.4785C57.1972 92.2452 56.9932 92.0347 56.7172 91.8851C56.4999 91.7769 56.2399 91.7624 56.0079 91.8452C55.5319 91.9946 55.3465 92.4529 55.2585 92.7837C55.1185 93.3613 55.1599 93.9107 55.1906 94.4529C55.2239 94.7451 55.2572 95.0196 55.2932 95.329C55.3292 95.6758 55.4173 96.0118 55.4706 96.3561C55.5066 96.5946 55.5745 96.8264 55.6305 97.0597C55.7172 97.4212 55.7959 97.7826 55.9093 98.1373L56.0052 98.4758L56.0799 98.8143C56.1266 98.9545 56.1559 99.0971 56.1759 99.2373C56.1999 99.4039 56.2466 99.5597 56.3039 99.7195L56.4039 99.8238C56.4866 99.8373 56.5279 99.7264 56.4972 99.5837L56.4746 99.4316L56.5439 99.569L56.6746 99.7076L56.7612 99.5733L56.7373 99.4357L56.7012 99.2076L56.6679 99.0504C56.6066 98.8717 56.5546 98.6905 56.5106 98.5066C56.4119 98.1024 56.2719 97.7102 56.1852 97.3024C56.1279 97.0638 56.0705 96.8264 56.0145 96.5946C55.9612 96.3384 55.9079 96.0862 55.8532 95.829L55.7706 95.4769C55.7906 95.24 55.7039 95.0102 55.6932 94.7717C55.6826 94.4493 55.6012 94.129 55.6239 93.7982C55.6439 93.5717 55.6266 93.3305 55.6719 93.1076C55.7386 92.704 55.8879 92.3066 56.2252 92.2851C56.5492 92.2518 56.7826 92.4769 56.8959 92.8466C57.0172 93.2143 57.0626 93.6315 57.0733 94.0466C57.0893 94.7785 57.0359 95.5253 56.9466 96.2665C56.8892 96.7441 56.8292 97.2222 56.7452 97.6972C56.6839 98.0785 56.6252 98.4384 56.5639 98.8102C56.5279 99.0238 56.4906 99.24 56.4519 99.4586L56.5039 99.6769L56.5266 99.7545C56.5239 99.9133 56.5532 99.9545 56.6572 99.9133L56.7945 99.8982C56.8985 99.9185 56.9572 99.8529 56.9839 99.6785C57.0332 99.3638 57.0705 99.1238 57.1172 98.8348C57.1639 98.4946 57.2172 98.1571 57.2826 97.8195C57.3292 97.5851 57.3612 97.3451 57.3839 97.1091C57.4065 96.9238 57.4239 96.7733 57.4466 96.5758L57.4945 96.217L57.4959 96.2185L57.5026 96.1384L57.5012 96.14L57.5039 95.9851C57.5479 95.8518 57.5466 95.7066 57.5546 95.5638C57.5652 95.4305 57.6279 95.2946 57.5706 95.1586L57.5839 95.0894C57.5945 94.9118 57.6625 94.7305 57.5865 94.5529L57.5945 94.4613L57.6093 94.2957L57.5826 94.2826L57.6066 94.2982L57.6159 94.193C57.5892 94.0133 57.5799 93.829 57.5692 93.6436L57.5505 93.4613C57.5145 93.3493 57.4625 93.2425 57.4865 93.1066L57.4172 92.9332L57.4186 92.9373L57.4039 92.7837V92.7878L57.3026 92.5253L57.2719 92.4982Z" fill="#1A1818"/>
<path d="M49.3338 98.7239L49.3378 98.7051C49.2138 98.5838 49.0884 98.4852 49.0831 98.3519L49.1338 98.0306C49.1885 97.84 49.4605 97.7587 49.7485 97.7504C50.2218 97.74 50.7391 97.8587 51.2311 98.0103C51.4991 98.0999 51.7725 98.18 52.0338 98.2931C52.3445 98.4264 52.6658 98.5348 52.9725 98.6852C53.2018 98.7863 53.4084 98.88 53.6218 98.9743C53.9484 99.1306 54.2324 99.2682 54.6111 99.4494L54.9231 99.6067L55.2164 99.7827C55.3484 99.8452 55.4698 99.9254 55.5804 100.009C55.7138 100.11 55.8525 100.19 55.9991 100.265L56.1405 100.273L56.0498 100.035L55.9285 99.94L56.0738 99.9931L56.2645 100.004L56.2365 99.8467L56.1205 99.7614L55.9351 99.6196L55.7978 99.5306C55.6111 99.4306 55.4671 99.3519 55.2925 99.2587C54.9258 99.0494 54.5351 98.8906 54.1591 98.6947C53.9391 98.58 53.7058 98.4906 53.4858 98.3852C53.2444 98.2707 52.9965 98.1707 52.7511 98.0718C52.6365 98.0264 52.5218 97.9707 52.4005 97.953C52.2018 97.8134 51.9498 97.777 51.7231 97.6786C51.4138 97.5504 51.0752 97.5015 50.7392 97.3972C50.5032 97.3291 50.2431 97.3024 49.9818 97.2838C49.5485 97.2348 48.8658 97.341 48.6471 97.94C48.5591 98.1682 48.5645 98.4718 48.6951 98.6983C48.8191 98.928 49.0045 99.0852 49.1898 99.2119C49.5778 99.4786 50.0018 99.6228 50.4218 99.7572C51.1631 99.9863 51.9205 100.117 52.6752 100.225C53.1618 100.296 53.6512 100.34 54.1392 100.391C54.5178 100.429 54.9005 100.443 55.2818 100.456C55.5018 100.461 55.7258 100.467 55.9498 100.471L56.1604 100.383L56.2325 100.347C56.3911 100.32 56.4271 100.28 56.3645 100.188L56.3244 100.056C56.3231 99.9494 56.2498 99.9051 56.0765 99.9108C55.7965 99.9196 55.5152 99.9076 55.2338 99.9051C54.8938 99.9024 54.5565 99.8863 54.2205 99.8452C53.9658 99.8239 53.7604 99.8051 53.5164 99.7838C53.3338 99.765 53.1858 99.7504 52.9925 99.7306L52.6418 99.677L52.6431 99.6759L52.5645 99.6682H52.5658L52.4151 99.6598C52.2871 99.6092 52.1458 99.604 52.0098 99.5786C51.8791 99.5587 51.7578 99.4811 51.6191 99.5196L51.5551 99.4983C51.3858 99.4614 51.2298 99.365 51.0498 99.3999L50.9672 99.3734L50.8178 99.3196L50.7991 99.341L50.8205 99.3228L50.7271 99.2838C50.5564 99.265 50.3938 99.2076 50.2325 99.1519L50.0804 99.0895L49.7831 98.9734L49.6338 98.9254L49.6365 98.9264L49.5405 98.8436L49.5418 98.8478L49.3631 98.7291L49.3338 98.7239Z" fill="#1A1818"/>
<path d="M56.1832 105.612L56.1791 105.592C56.0165 105.53 55.8618 105.49 55.8058 105.369L55.7231 105.054C55.6991 104.859 55.9165 104.674 56.1778 104.554C56.6085 104.355 57.1299 104.26 57.6432 104.207C57.9245 104.181 58.2072 104.147 58.4912 104.148C58.8298 104.145 59.1672 104.117 59.5085 104.136C59.7592 104.138 59.9858 104.14 60.2192 104.142C60.5818 104.159 60.8952 104.171 61.3165 104.188L61.6632 104.207L62.0045 104.254C62.1498 104.26 62.2911 104.284 62.4285 104.318C62.5885 104.357 62.7485 104.376 62.9138 104.386L63.0458 104.337C63.0925 104.269 63.0125 104.184 62.8685 104.155L62.7192 104.114L62.8739 104.107L63.0538 104.043L62.9658 103.909L62.8272 103.876L62.5992 103.821L62.4392 103.792C62.2272 103.774 62.0632 103.76 61.8658 103.742C61.4445 103.696 61.0232 103.705 60.6018 103.673C60.3552 103.655 60.1058 103.666 59.8605 103.657C59.5938 103.647 59.3285 103.654 59.0618 103.66C58.9391 103.664 58.8112 103.657 58.6938 103.689C58.4538 103.64 58.2098 103.707 57.9632 103.707C57.6272 103.71 57.2978 103.798 56.9472 103.837C56.7045 103.868 56.4539 103.947 56.2072 104.033C55.7899 104.161 55.2058 104.528 55.2418 105.164C55.2512 105.407 55.3778 105.684 55.5858 105.84C55.7898 106.002 56.0245 106.074 56.2432 106.116C56.7059 106.207 57.1525 106.172 57.5898 106.129C58.3618 106.047 59.1085 105.866 59.8458 105.668C60.3218 105.538 60.7872 105.388 61.2552 105.238C61.6178 105.124 61.9751 104.985 62.3311 104.847C62.5351 104.765 62.7418 104.68 62.9498 104.596L63.1072 104.431L63.1605 104.371C63.2952 104.281 63.3125 104.231 63.2178 104.171L63.1285 104.066C63.0858 103.969 63.0005 103.957 62.8445 104.03C62.5912 104.15 62.3285 104.252 62.0685 104.36C61.7565 104.493 61.4405 104.61 61.1138 104.707C60.8712 104.786 60.6752 104.852 60.4432 104.929C60.2699 104.984 60.1259 105.029 59.9405 105.088L59.5978 105.177L59.5992 105.176L59.5231 105.198H59.5245L59.3832 105.25C59.2458 105.254 59.1125 105.305 58.9791 105.337C58.8498 105.371 58.7085 105.347 58.5965 105.437L58.5298 105.442C58.3605 105.476 58.1778 105.448 58.0258 105.554L57.9405 105.56L57.7805 105.572L57.7739 105.6L57.7845 105.573H57.6845C57.5191 105.624 57.3472 105.636 57.1778 105.648L57.0125 105.652L56.6951 105.662L56.5379 105.677H56.5418L56.4192 105.641L56.4218 105.643L56.2125 105.605L56.1832 105.612Z" fill="#1A1818"/>
<path d="M62.0403 96.8851L62.0469 96.8638C61.9136 96.6529 61.6683 96.4905 61.3683 96.4023C61.1323 96.3425 60.8763 96.3851 60.667 96.5143C60.2323 96.7613 60.1496 97.2503 60.1336 97.5919C60.1203 98.1837 60.2749 98.7143 60.4229 99.2373C60.5176 99.5143 60.607 99.7769 60.7083 100.071C60.819 100.402 60.975 100.713 61.1003 101.037C61.1856 101.262 61.3016 101.474 61.4056 101.692C61.5656 102.026 61.7203 102.362 61.9056 102.684L62.0723 102.996L62.2176 103.31C62.2923 103.437 62.3509 103.569 62.4016 103.704C62.4603 103.86 62.5389 104.004 62.6283 104.147L62.7483 104.226C62.8309 104.224 62.8482 104.108 62.7882 103.973L62.7336 103.829L62.8296 103.949L62.9896 104.057L63.0442 103.908L62.9923 103.777L62.9083 103.562L62.8416 103.416C62.7456 103.253 62.6563 103.088 62.5723 102.917C62.3896 102.544 62.1696 102.19 61.9989 101.81C61.8923 101.589 61.7856 101.369 61.6816 101.154C61.5749 100.916 61.4696 100.68 61.3616 100.441L61.2056 100.114C61.175 99.8785 61.0416 99.6717 60.9816 99.4425C60.9029 99.129 60.7536 98.8347 60.7069 98.505C60.6776 98.2799 60.6096 98.0466 60.6056 97.8195C60.587 97.4107 60.6483 96.9919 60.9736 96.8998C61.2803 96.7971 61.5576 96.9681 61.7483 97.305C61.9443 97.6383 62.0763 98.0373 62.175 98.4399C62.3456 99.1529 62.4523 99.8919 62.5229 100.636C62.5683 101.113 62.6109 101.595 62.6309 102.076C62.6509 102.462 62.6696 102.826 62.6896 103.204C62.6989 103.42 62.7096 103.64 62.7176 103.86L62.8149 104.062L62.8522 104.133C62.8842 104.289 62.9229 104.325 63.0149 104.262L63.1469 104.218C63.2522 104.216 63.2962 104.138 63.2829 103.962C63.2656 103.645 63.2523 103.402 63.2349 103.109C63.2096 102.766 63.1882 102.426 63.1802 102.081C63.1749 101.842 63.1576 101.602 63.1296 101.366C63.1109 101.181 63.0976 101.029 63.0776 100.833C63.0616 100.717 63.0336 100.592 63.0483 100.471L63.0496 100.472L63.0403 100.392L63.039 100.393L63.0069 100.242C63.0216 100.104 62.9909 99.9613 62.9683 99.8211C62.9496 99.6862 62.9829 99.5425 62.8976 99.4195L62.8949 99.3503C62.8683 99.1742 62.8976 98.9837 62.7843 98.8253L62.7723 98.7347L62.7522 98.569L62.7229 98.5623L62.7509 98.5733L62.7376 98.4681C62.6723 98.2971 62.6243 98.1195 62.5736 97.9409L62.5176 97.7665C62.4589 97.6665 62.3843 97.5717 62.3789 97.4331L62.275 97.2785L62.2763 97.281L62.2309 97.1357V97.1399L62.0763 96.9039L62.0403 96.8851Z" fill="#1A1818"/>
</svg>
