<svg width="56" height="56" viewBox="0 0 56 56" fill="none" xmlns="http://www.w3.org/2000/svg">
<rect width="56" height="56" rx="28" fill="#E8F1F5"/>
<path d="M28.0009 30.17C25.8709 30.17 24.1309 28.44 24.1309 26.3C24.1309 24.16 25.8709 22.44 28.0009 22.44C30.1309 22.44 31.8709 24.17 31.8709 26.31C31.8709 28.45 30.1309 30.17 28.0009 30.17ZM28.0009 23.94C26.7009 23.94 25.6309 25 25.6309 26.31C25.6309 27.62 26.6909 28.68 28.0009 28.68C29.3109 28.68 30.3709 27.62 30.3709 26.31C30.3709 25 29.3009 23.94 28.0009 23.94Z" fill="#136A99"/>
<path d="M27.9997 38.76C26.5197 38.76 25.0297 38.2 23.8697 37.09C20.9197 34.25 17.6597 29.72 18.8897 24.33C19.9997 19.44 24.2697 17.25 27.9997 17.25C27.9997 17.25 27.9997 17.25 28.0097 17.25C31.7397 17.25 36.0097 19.44 37.1197 24.34C38.3397 29.73 35.0797 34.25 32.1297 37.09C30.9697 38.2 29.4797 38.76 27.9997 38.76ZM27.9997 18.75C25.0897 18.75 21.3497 20.3 20.3597 24.66C19.2797 29.37 22.2397 33.43 24.9197 36C26.6497 37.67 29.3597 37.67 31.0897 36C33.7597 33.43 36.7197 29.37 35.6597 24.66C34.6597 20.3 30.9097 18.75 27.9997 18.75Z" fill="#136A99"/>
</svg>
