<svg width="56" height="56" viewBox="0 0 56 56" fill="none" xmlns="http://www.w3.org/2000/svg">
<rect width="56" height="56" rx="28" fill="#E8F1F5"/>
<path d="M33 37.25H23C19.35 37.25 17.25 35.15 17.25 31.5V24.5C17.25 20.85 19.35 18.75 23 18.75H33C36.65 18.75 38.75 20.85 38.75 24.5V31.5C38.75 35.15 36.65 37.25 33 37.25ZM23 20.25C20.14 20.25 18.75 21.64 18.75 24.5V31.5C18.75 34.36 20.14 35.75 23 35.75H33C35.86 35.75 37.25 34.36 37.25 31.5V24.5C37.25 21.64 35.86 20.25 33 20.25H23Z" fill="#136A99"/>
<path d="M27.9988 28.87C27.1588 28.87 26.3088 28.61 25.6588 28.08L22.5288 25.58C22.2088 25.32 22.1488 24.85 22.4088 24.53C22.6688 24.21 23.1388 24.15 23.4588 24.41L26.5888 26.91C27.3488 27.52 28.6388 27.52 29.3988 26.91L32.5288 24.41C32.8488 24.15 33.3288 24.2 33.5788 24.53C33.8388 24.85 33.7888 25.33 33.4588 25.58L30.3288 28.08C29.6888 28.61 28.8388 28.87 27.9988 28.87Z" fill="#136A99"/>
</svg>
