<svg width="136" height="136" viewBox="0 0 136 136" fill="none" xmlns="http://www.w3.org/2000/svg">
<path d="M136 67.9999C136 105.555 105.555 136 68 136C30.4451 136 0 105.555 0 67.9999C0 30.4449 30.4451 -0.000106812 68 -0.000106812C105.555 -0.000106812 136 30.4449 136 67.9999Z" fill="#F3EDE6"/>
<path d="M112.291 62.8557L112.257 62.6851C110.318 60.5797 108.163 58.7731 106.146 56.5864C105.397 55.7757 104.563 54.9304 103.699 54.0864C102.761 53.2704 101.804 52.4397 100.883 51.6371C100.049 50.8597 99.1099 50.2091 98.1739 49.5531C97.2339 48.9037 96.3405 48.1877 95.3685 47.5904C93.3858 46.4584 91.4725 45.2011 89.3672 44.3331C82.6992 41.2264 75.3526 39.6611 68.0112 39.6597C64.0352 39.7877 60.0338 40.1757 56.1912 41.1757C53.8458 41.6117 51.6525 42.5464 49.4165 43.3184C47.2898 44.3611 45.0792 45.2304 43.0672 46.4984L40.9312 47.7464C40.2352 48.1891 39.5965 48.7184 38.9312 49.2051L36.9579 50.6984C36.3085 51.2051 35.7339 51.8024 35.1179 52.3451C33.1925 54.0371 31.4632 55.7944 29.7232 57.5531C27.9752 59.3077 26.2352 61.0691 24.5259 62.8597C23.9979 63.4291 23.4525 64.0131 22.9099 64.5944C22.6379 64.8837 22.3619 65.1677 22.0792 65.4411C21.7152 65.7784 21.3525 66.1117 20.9925 66.4451C20.5099 66.8904 20.0352 67.3317 19.5605 67.7704L20.5939 68.8424L21.5832 69.8424C22.0032 70.2517 22.4232 70.6624 22.8459 71.0744C24.2659 72.4384 25.5979 73.8504 26.8539 75.2557C28.3379 76.9131 29.8779 78.4571 31.5019 80.0131C32.2699 80.7504 32.6365 80.9384 32.9485 80.9771C33.5899 81.0571 33.0059 79.9197 31.6592 78.4797C31.1752 77.9597 30.6552 77.4491 30.2885 76.9384C30.7952 77.2717 31.3219 77.8344 31.8419 78.2944C32.6445 79.0077 33.4912 79.7131 33.7859 79.5944C34.0485 79.4877 33.7552 78.8904 33.2645 78.1571C32.9445 77.6757 32.4472 77.2064 31.9885 76.7477C31.2165 75.9771 30.4725 75.2264 29.9152 74.4464C29.5299 73.9091 28.9459 73.3637 28.4205 72.8584L25.6819 70.1757L23.3419 67.8171L23.3045 67.7704L27.7992 63.1904C29.6419 61.2984 31.4859 59.4077 33.3765 57.5504C34.5405 56.3571 35.7285 55.2851 36.9059 54.1944C37.5085 53.6651 38.0499 53.0571 38.7032 52.5957C39.3472 52.1197 39.9885 51.6464 40.6245 51.1744C41.9845 50.0904 43.5032 49.2677 44.9726 48.3704L46.0765 47.7024C46.4565 47.5024 46.8512 47.3291 47.2379 47.1397L49.5699 46.0291C50.2806 45.6531 51.0618 45.4277 51.8138 45.1491C52.5658 44.8757 53.3059 44.5851 54.0059 44.2517C55.5112 43.9037 57.0552 43.6291 58.5739 43.1997C60.1099 42.8437 61.6939 42.6451 63.2645 42.4357C64.3365 42.3424 65.4192 42.3477 66.4992 42.2704L68.1232 42.1691L69.7565 42.2117C70.8472 42.2544 71.9512 42.2411 73.0498 42.3451C74.1432 42.4971 75.2432 42.6611 76.3459 42.8517C77.1125 42.9531 77.8712 43.1611 78.6392 43.3544C79.4112 43.5371 80.1912 43.7224 80.9752 43.9064C82.5419 44.2784 84.0566 44.8944 85.5779 45.4037C91.0006 47.5931 96.1085 50.6117 100.407 54.6584L101.898 56.0251L103.357 57.4917L106.285 60.4224L112.121 66.3144L113.239 67.4571L113.53 67.7704C110.47 70.7811 107.402 73.7984 104.338 76.8157L101.618 79.4771L98.8446 81.9397C97.9619 82.8091 96.8899 83.4451 95.9099 84.1944L94.4125 85.2811C93.9059 85.6331 93.3525 85.9131 92.8259 86.2331C91.7459 86.8291 90.7245 87.5331 89.6005 88.0424L86.2352 89.5799C83.9179 90.4107 81.6072 91.2919 79.1845 91.7689C73.0192 93.2013 66.5632 93.4347 60.3325 92.3279C55.4925 91.4347 50.7446 89.9237 46.3339 87.6891L42.6032 85.5237C41.3912 84.7544 40.2592 83.8584 39.0805 83.0331C38.5059 82.6517 38.0072 82.2277 37.6005 81.9451C37.1899 81.6704 36.8659 81.5424 36.7045 81.6757C36.5805 81.7784 36.2552 81.4877 35.8699 81.1917C34.2165 79.9184 33.7125 79.7397 33.9965 80.6584C34.1325 81.0984 34.1045 81.3664 33.9432 81.5584C33.5752 81.9877 34.1845 82.8571 36.0192 84.4384C36.7445 85.0984 37.6005 85.5984 38.3805 86.1891C39.1832 86.7517 39.9619 87.3491 40.7819 87.8877L43.3245 89.3612C44.1712 89.8517 45.0085 90.3585 45.9192 90.7221L49.1459 92.168C50.2432 92.5904 51.3672 92.9424 52.4739 93.3372C53.0312 93.5211 53.5779 93.7408 54.1446 93.8981L55.8552 94.3263C57.0018 94.5851 58.1245 94.9648 59.2925 95.1383C60.9112 95.3664 62.5326 95.7184 64.1752 95.8039L66.6379 95.9132C67.4565 95.9451 68.2752 96.0013 69.0858 95.9227L72.7605 95.744C73.9792 95.6159 75.1912 95.4143 76.4059 95.2263C77.9872 95.0476 79.6392 94.4356 81.2578 94.2263L81.2392 94.2408C81.5726 94.0705 81.9365 94.0132 82.3072 93.9784L82.2858 93.9768C83.0765 93.8784 83.4538 93.4304 84.2658 93.2347C85.1712 93.0075 86.0872 92.7132 87.0072 92.3929C87.8872 91.9825 88.7779 91.5664 89.6592 91.156C91.3645 90.4503 93.1072 89.6904 94.5086 88.4757C94.6206 88.3771 95.0645 88.2037 95.3459 88.0411C96.3832 87.4131 97.3832 86.7051 98.4018 86.0277C98.9059 85.6797 99.4019 85.3224 99.8765 84.9424C100.319 84.5237 100.729 84.0691 101.109 83.5931C101.254 83.4077 101.725 83.0611 102.042 82.8064C102.618 82.3424 103.203 81.9077 103.763 81.3611L103.787 81.1384C104.137 80.9117 103.825 81.2371 103.725 81.3864C104.067 81.1584 104.391 80.8597 104.747 80.4624C106.328 78.7024 108.042 77.0264 109.755 75.3504C110.311 74.8077 110.885 74.3637 111.431 73.7117C112.383 72.5744 113.309 71.4384 114.646 70.4584C114.859 70.3717 116.494 68.6011 117.137 67.7664L117.075 67.8344L117.139 67.7704C116.703 67.3291 116.261 66.8797 115.851 66.4651C115.654 66.2571 115.467 66.0531 115.301 65.8557L115.08 65.5824L114.995 65.4211L115.016 65.4571C114.206 64.6971 113.553 63.7691 112.654 63.1024C112.558 63.0651 112.477 63.0771 112.291 62.8557Z" fill="#1A1818"/>
<path d="M42.6871 58.5332L42.5618 58.6092C42.0911 59.6146 41.9431 60.7132 41.6831 61.7799C41.4898 62.8639 41.3844 63.9719 41.1764 65.0986C41.0911 65.9426 41.0364 66.8572 41.0098 67.7866C41.0778 68.7132 41.1484 69.6559 41.2178 70.5639C41.6684 73.9399 42.6204 77.2652 44.1257 80.2999C45.3671 82.7386 46.8964 85.0546 48.8138 87.0172C50.7204 88.9852 52.8831 90.6972 55.2604 92.0718C57.8631 93.5291 60.7324 94.4682 63.6338 95.0384C67.1311 95.7134 70.7205 95.4786 74.1765 94.7426C76.6071 94.2624 78.8604 93.1827 81.0204 92.028C84.2951 90.141 87.2138 87.5999 89.3711 84.5092C89.6991 84.0186 90.0311 83.5106 90.3458 82.9999C90.6338 82.4692 90.9378 81.9546 91.2911 81.4906C92.0298 80.5546 92.4418 79.4412 92.9138 78.3572C93.1471 77.6452 93.3991 76.9466 93.6671 76.2599C93.9244 75.5706 94.0991 74.8626 94.3364 74.1799C94.6351 73.3786 94.7511 72.5412 94.8938 71.7066C95.0564 70.8732 95.0965 70.0239 95.1018 69.1626C95.1191 68.3452 95.0058 68.0452 94.8218 67.8572C94.4431 67.4772 94.0085 68.3866 93.8711 69.8172C93.8418 70.3372 93.7697 70.8679 93.5951 71.3026C93.5444 70.8599 93.6498 70.3079 93.6138 69.7999C93.5871 69.0146 93.5258 68.2199 93.2378 68.1279C92.9818 68.0479 92.7418 68.4919 92.5418 69.0852C92.4071 69.4732 92.4111 69.9479 92.3804 70.3986C92.2684 71.1466 92.1551 71.8759 91.9058 72.4946C91.7538 72.9239 91.6018 73.4506 91.5071 73.9439L91.2125 75.2306L90.7817 76.4786C90.5244 77.3239 90.1378 78.1159 89.7458 78.9079C88.0445 82.3839 85.6644 85.5759 82.5191 87.9066C81.6418 88.6316 80.6377 89.1852 79.6924 89.8254C78.6737 90.3332 77.6924 90.9332 76.6151 91.2734C75.4764 91.7546 74.2818 92.0196 73.1058 92.3598C71.8991 92.5504 70.7045 92.8374 69.4738 92.8587C68.3351 92.9838 67.1764 92.8358 66.0698 92.9467C63.9364 92.4092 61.6404 92.28 59.5671 91.3144C56.7778 90.0999 53.9471 88.6718 51.6978 86.3692C50.8898 85.6172 50.1804 84.7252 49.3924 83.8866C48.7164 82.9599 47.9365 82.0812 47.4071 81.0572C46.2938 79.2786 45.5165 77.3279 44.8045 75.3586C44.2325 73.3492 43.7444 71.2826 43.7111 69.1652C43.5538 65.3146 44.1324 61.3919 45.6671 57.8346C47.2978 54.1706 49.7151 50.8399 52.7951 48.2892C55.5311 46.0692 58.7231 44.4372 62.1111 43.5666C65.4964 42.6946 69.0751 42.5892 72.4965 43.2519C74.6818 43.7159 76.8471 44.3799 78.8191 45.4532C79.8444 45.9106 80.7471 46.5946 81.6991 47.1799C82.5711 47.8852 83.4951 48.5252 84.2698 49.3426C86.7858 51.7532 88.8738 54.6479 90.2604 57.8706C91.0191 59.7626 91.6698 61.7146 91.9724 63.7412C92.1418 64.7052 92.3218 65.5732 92.7111 65.5919C92.8711 65.5959 92.8885 65.9106 92.9431 66.2559C93.1805 67.7426 93.4031 68.0999 93.8644 67.4786C94.0858 67.1786 94.2977 67.0519 94.5484 67.0332C95.0897 66.9986 95.3578 66.2052 95.1138 64.4106C94.7298 61.5066 93.8657 58.6666 92.6311 56.0319C91.1098 52.8559 89.0591 49.9772 86.5724 47.4839C84.8844 45.7066 82.7911 44.3066 80.6618 43.1479C79.0284 42.3172 77.3498 41.5532 75.5685 41.0812C74.9925 40.9426 74.3858 40.7946 73.7778 40.6479C73.1658 40.5186 72.5431 40.4239 71.9551 40.2519L71.9711 40.2452C71.6885 40.2879 71.4231 40.2159 71.1578 40.1186L71.1724 40.1279C70.6018 39.9159 70.2057 40.2039 69.5897 40.0852C68.2084 39.7852 66.7138 39.9906 65.2644 40.0812C63.9058 40.2852 62.4311 40.1932 61.2004 40.9252C61.1018 40.9812 60.7404 40.9972 60.5058 41.0572C59.6271 41.2919 58.7551 41.5826 57.8751 41.8586C57.0138 42.1746 56.2098 42.6399 55.4978 43.2092C55.3538 43.3079 54.9617 43.4972 54.6897 43.6359C54.1991 43.8906 53.7058 44.1226 53.2164 44.4546L53.1804 44.6439C52.8658 44.7386 53.1551 44.5466 53.2511 44.4452C52.9337 44.5332 52.6631 44.7412 52.3498 45.0119C50.9564 46.2026 49.5578 47.4092 48.3125 48.7786C47.9151 49.2252 47.4605 49.5706 47.1098 50.1292C46.5618 51.1506 45.9551 52.0746 45.1405 53.0559C44.8311 53.4092 44.5098 54.1252 44.3778 54.6479L44.3951 54.6119C44.1711 55.0879 43.9578 55.5946 43.6631 55.8372L43.6844 55.8119C43.5231 56.2092 43.2965 56.5786 43.1071 56.9652C42.9405 57.3612 42.7871 57.7652 42.7231 58.1946C42.7377 58.2772 42.7871 58.3346 42.6871 58.5332Z" fill="#1A1818"/>
<path d="M74.4992 67.7705C74.4992 71.2585 71.6725 74.0852 68.1831 74.0852C64.6951 74.0852 61.8672 71.2585 61.8672 67.7705C61.8672 64.2812 64.6951 61.4532 68.1831 61.4532C71.6725 61.4532 74.4992 64.2812 74.4992 67.7705Z" fill="#1A1818"/>
<path d="M16.5124 63.6159L16.4844 63.6519C16.5377 63.7959 16.7191 63.8212 16.7764 63.9692L17.0244 64.2225C17.2124 64.3505 17.3644 64.5132 17.5124 64.6759C17.7551 64.9399 18.0231 65.1785 18.2564 65.4492C18.3831 65.5959 18.5404 65.7172 18.6511 65.8772C18.7831 66.0692 18.9884 66.1932 19.1164 66.3892C19.2057 66.5239 19.3471 66.6119 19.4618 66.7252C19.6378 66.8999 19.7858 67.0999 19.9924 67.2465L20.1631 67.4092L20.2857 67.6119L20.4364 67.8652C20.4657 67.9865 20.5377 68.0679 20.6297 68.1372L20.8084 68.0905C20.9671 67.9825 21.0657 67.8119 21.0231 67.7172L20.9991 67.6025L21.1164 67.6345L21.3551 67.5719L21.5391 67.3132L21.5084 67.2132L21.4631 67.0465L21.4137 66.9452L21.1484 66.6679C20.9804 66.4412 20.7204 66.2972 20.5484 66.0719C20.4497 65.9412 20.2978 65.8519 20.1951 65.7252C20.0818 65.5892 19.9444 65.4759 19.8151 65.3545L19.6044 65.2145C19.6071 65.0012 19.3924 64.9732 19.3151 64.8252C19.2097 64.6212 18.9524 64.5545 18.8457 64.3412C18.7737 64.1945 18.6124 64.1119 18.5111 63.9825C18.3284 63.7452 18.0657 63.5785 17.8817 63.3399C17.7124 63.1212 17.5097 62.9332 17.3484 62.7065C17.1804 62.4705 16.9911 62.2545 16.8204 62.0212C16.5177 61.6119 16.1897 61.2239 15.8751 60.8252C15.6724 60.5665 15.4497 60.3292 15.2524 60.0665C15.1004 59.8625 14.9097 59.6892 14.7324 59.5065L14.4124 59.1959C14.3604 59.1479 14.2911 59.1225 14.1417 59.2545L14.0377 59.2825C13.9084 59.2572 13.8204 59.3052 13.6751 59.4945L13.4431 59.7412C13.2431 59.9239 13.1924 60.0372 13.2911 60.1065C13.4511 60.2185 13.5751 60.3612 13.7258 60.4825C13.9044 60.6292 14.0644 60.7919 14.1911 60.9865C14.2791 61.1212 14.3897 61.2385 14.5084 61.3439L14.7537 61.6052L14.8977 61.7999L14.8938 61.8025L14.9284 61.8412L14.9311 61.8385L15.0217 61.8945C15.0217 62.0159 15.1124 62.0639 15.1751 62.1345C15.2324 62.2025 15.1897 62.3639 15.3684 62.3225L15.3804 62.3732C15.4524 62.4665 15.4097 62.6665 15.6337 62.6212L15.6578 62.6785L15.6991 62.7879L15.7551 62.7492L15.7017 62.7825L15.7231 62.8572C15.8457 62.9039 15.9164 63.0012 15.9871 63.0985L16.0578 63.1945C16.1524 63.2079 16.2551 63.2132 16.2204 63.3545L16.3444 63.3959L16.3431 63.3932L16.3537 63.5079L16.3551 63.5039L16.4697 63.6252L16.5124 63.6159Z" fill="#1A1818"/>
<path d="M26.5512 53.8425L26.5218 53.8785C26.5712 54.0252 26.7538 54.0572 26.8085 54.2105L27.0552 54.4772C27.2405 54.6145 27.3898 54.7852 27.5365 54.9559C27.7752 55.2319 28.0392 55.4865 28.2698 55.7692C28.3938 55.9225 28.5499 56.0519 28.6565 56.2185C28.7859 56.4172 28.9898 56.5519 29.1152 56.7545C29.2018 56.8945 29.3432 56.9905 29.4552 57.1105C29.6285 57.2932 29.7752 57.5012 29.9792 57.6585L30.1472 57.8305L30.2685 58.0385L30.4125 58.3012C30.4418 58.4265 30.5112 58.5119 30.6032 58.5852L30.7845 58.5452C30.9472 58.4425 31.0498 58.2745 31.0098 58.1759L30.9858 58.0585L31.1032 58.0972L31.3445 58.0452L31.5378 57.7892L31.5098 57.6865L31.4658 57.5172L31.4192 57.4119L31.1579 57.1212C30.9925 56.8852 30.7325 56.7292 30.5658 56.4945C30.4672 56.3572 30.3178 56.2612 30.2165 56.1292C30.1058 55.9865 29.9698 55.8665 29.8432 55.7372L29.6325 55.5879C29.6392 55.3719 29.4245 55.3345 29.3485 55.1812C29.2472 54.9732 28.9912 54.8919 28.8885 54.6732C28.8178 54.5225 28.6579 54.4332 28.5592 54.2959C28.3779 54.0492 28.1192 53.8705 27.9378 53.6212C27.7725 53.3932 27.5712 53.1945 27.4138 52.9585C27.2498 52.7145 27.0645 52.4865 26.8965 52.2439C26.6005 51.8172 26.2792 51.4105 25.9698 50.9945C25.7712 50.7252 25.5525 50.4759 25.3592 50.2025C25.2099 49.9892 25.0218 49.8079 24.8472 49.6145L24.5312 49.2879C24.4805 49.2359 24.4112 49.2092 24.2565 49.3345L24.1525 49.3599C24.0218 49.3279 23.9325 49.3732 23.7805 49.5572L23.5418 49.7985C23.3365 49.9745 23.2845 50.0865 23.3805 50.1612C23.5392 50.2799 23.6632 50.4305 23.8098 50.5585C23.9885 50.7159 24.1445 50.8879 24.2685 51.0879C24.3538 51.2279 24.4632 51.3505 24.5805 51.4625L24.8218 51.7359L24.9619 51.9399L24.9579 51.9425L24.9939 51.9839L24.9965 51.9812L25.0858 52.0412C25.0832 52.1639 25.1738 52.2159 25.2338 52.2892C25.2925 52.3612 25.2445 52.5225 25.4272 52.4879L25.4378 52.5399C25.5085 52.6372 25.4605 52.8359 25.6872 52.8012L25.7098 52.8599L25.7498 52.9719L25.8072 52.9359L25.7512 52.9665L25.7712 53.0425C25.8965 53.0959 25.9645 53.1972 26.0325 53.2985L26.1018 53.3972C26.1965 53.4145 26.2992 53.4252 26.2619 53.5665L26.3872 53.6132L26.3858 53.6119L26.3939 53.7265L26.3965 53.7239L26.5085 53.8505L26.5512 53.8425Z" fill="#1A1818"/>
<path d="M37.7194 45.9864L37.754 45.9558C37.7327 45.8158 37.5647 45.7704 37.5394 45.6251L37.3514 45.3598C37.1994 45.2185 37.0874 45.0478 36.978 44.8798C36.7994 44.6051 36.5927 44.3504 36.4234 44.0704C36.3327 43.9198 36.2074 43.7878 36.134 43.6251C36.0474 43.4318 35.8767 43.2905 35.7914 43.0945C35.734 42.9571 35.6167 42.8571 35.53 42.7384C35.398 42.5558 35.2954 42.3518 35.1287 42.1904L34.9993 42.0184L34.922 41.8171L34.83 41.5611L34.6993 41.2851L34.5194 41.3078C34.346 41.3904 34.218 41.5371 34.238 41.6304L34.2394 41.7398L34.134 41.6971C34.082 41.6704 34.014 41.6558 33.894 41.7251L33.666 41.9451L33.674 42.0424L33.6834 42.2024L33.71 42.3038L33.9087 42.5918C34.0234 42.8251 34.242 42.9891 34.3607 43.2184C34.43 43.3531 34.5567 43.4531 34.6287 43.5824C34.71 43.7238 34.818 43.8451 34.9167 43.9744L35.0887 44.1291C35.0447 44.3291 35.2434 44.3798 35.2874 44.5278C35.3474 44.7278 35.578 44.8224 35.6367 45.0331C35.6767 45.1784 35.814 45.2744 35.8847 45.4064C36.0114 45.6504 36.2287 45.8358 36.3567 46.0798C36.4727 46.3038 36.6287 46.5038 36.7367 46.7331C36.85 46.9731 36.9874 47.1971 37.1047 47.4344C37.3087 47.8518 37.5447 48.2531 37.7647 48.6625C37.906 48.9251 38.07 49.1731 38.206 49.4424C38.31 49.6504 38.4567 49.8344 38.5887 50.0251L38.8327 50.3518C38.8727 50.4038 38.9327 50.4344 39.1034 50.3304L39.2074 50.3158C39.3247 50.3558 39.4193 50.3211 39.598 50.1625L39.8687 49.9584C40.0967 49.8131 40.1674 49.7144 40.086 49.6371C39.9567 49.5131 39.866 49.3651 39.7487 49.2344C39.606 49.0771 39.4874 48.9065 39.4047 48.7105C39.3474 48.5745 39.266 48.4518 39.1754 48.3384L38.9927 48.0678L38.8954 47.8691L38.8993 47.8678L38.874 47.8265L38.8714 47.8291L38.794 47.7664L38.698 47.5238C38.6553 47.4531 38.73 47.3091 38.55 47.3265L38.5487 47.2785C38.4994 47.1811 38.5794 47.0011 38.358 47.0158L38.346 46.9598L38.3287 46.8531L38.2674 46.8824L38.326 46.8571L38.3207 46.7864L38.1167 46.5291L38.0687 46.4331C37.9807 46.4091 37.8847 46.3904 37.9474 46.2638L37.8354 46.2105L37.8367 46.2131L37.8487 46.1051L37.846 46.1091L37.762 45.9811L37.7194 45.9864Z" fill="#1A1818"/>
<path d="M48.0284 38.7959L47.9871 38.8159C47.9697 38.9572 48.1205 39.0479 48.1045 39.1945L48.2138 39.5039C48.3231 39.6852 48.3844 39.8812 48.4444 40.0759C48.5418 40.3905 48.6738 40.6945 48.7604 41.0132C48.8071 41.1852 48.8938 41.3479 48.9191 41.5252C48.9524 41.7385 49.0778 41.9225 49.1058 42.1372C49.1231 42.2852 49.2111 42.4145 49.2617 42.5545C49.3404 42.7692 49.3844 42.9945 49.5018 43.1972L49.5791 43.3999L49.6004 43.6172L49.6204 43.8905L49.6711 44.1945L49.8498 44.2239C50.0391 44.1919 50.2031 44.0839 50.2071 43.9879L50.2351 43.8812L50.3271 43.9519C50.3698 43.9919 50.4298 44.0252 50.5658 43.9919C50.6871 43.9599 50.7791 43.9025 50.8444 43.8412L50.8631 43.7452L50.8977 43.5865L50.8991 43.4812L50.7858 43.1465C50.7378 42.8892 50.5697 42.6679 50.5177 42.4119C50.4884 42.2639 50.3951 42.1305 50.3578 41.9852C50.3191 41.8252 50.2471 41.6759 50.1871 41.5252L50.0631 41.3265C50.1591 41.1452 49.9818 41.0412 49.9791 40.8865C49.9751 40.6732 49.7791 40.5185 49.7791 40.2972C49.7791 40.1452 49.6725 40.0145 49.6405 39.8665C49.5831 39.5945 49.4244 39.3545 49.3671 39.0825C49.3151 38.8332 49.2191 38.5959 49.1765 38.3412C49.1325 38.0785 49.0604 37.8239 49.0111 37.5599C48.9271 37.0985 48.8085 36.6439 48.7071 36.1852C48.6405 35.8905 48.5497 35.6039 48.4924 35.3065C48.4471 35.0745 48.3551 34.8572 48.2804 34.6345C48.2351 34.5039 48.1831 34.3772 48.1324 34.2492C48.1098 34.1879 48.0591 34.1425 47.8671 34.1959L47.7631 34.1799C47.6591 34.1105 47.5591 34.1159 47.3431 34.2225L47.0284 34.3439C46.7697 34.4225 46.6764 34.4999 46.7324 34.5959C46.8231 34.7505 46.8698 34.9199 46.9498 35.0799C47.0431 35.2719 47.1125 35.4705 47.1378 35.6839C47.1565 35.8319 47.2031 35.9732 47.2604 36.1079L47.3617 36.4225L47.4018 36.6425H47.3991L47.4125 36.6892L47.4151 36.6879L47.4711 36.7705L47.5004 37.0319C47.5217 37.1119 47.4111 37.2319 47.5897 37.2639L47.5765 37.3119C47.5991 37.4185 47.4724 37.5705 47.6911 37.6172L47.6858 37.6759L47.6751 37.7839L47.7418 37.7732L47.6791 37.7812L47.6658 37.8519L47.7924 38.1585L47.8111 38.2652L47.8844 38.4625L47.9778 38.5452L47.9765 38.5439L47.9351 38.6452L47.9391 38.6412L47.9858 38.7879L48.0284 38.7959Z" fill="#1A1818"/>
<path d="M60.6327 35.8851L60.5887 35.8958C60.546 36.0384 60.6767 36.1611 60.6327 36.3091L60.682 36.6491C60.7566 36.8558 60.782 37.0691 60.8033 37.2798C60.842 37.6224 60.9126 37.9611 60.9393 38.3051C60.954 38.4918 61.0086 38.6744 61.0006 38.8624C60.9926 39.0878 61.082 39.3011 61.0687 39.5264C61.0607 39.6824 61.1207 39.8331 61.1447 39.9864C61.182 40.2224 61.182 40.4611 61.2607 40.6931L61.2993 40.9171L61.2794 41.1438L61.2473 41.4278L61.2407 41.7491L61.4127 41.8158C61.6047 41.8224 61.786 41.7451 61.8073 41.6478L61.8553 41.5438L61.9313 41.6344C61.966 41.6838 62.0193 41.7304 62.1593 41.7238C62.2846 41.7171 62.3846 41.6758 62.462 41.6264L62.498 41.5318L62.5607 41.3758L62.5807 41.2691C62.5473 41.1478 62.5313 41.0264 62.5327 40.9011C62.534 40.6291 62.41 40.3691 62.406 40.0971C62.4046 39.9384 62.338 39.7824 62.33 39.6251C62.3207 39.4531 62.278 39.2878 62.246 39.1184L62.162 38.8904C62.29 38.7251 62.134 38.5824 62.1607 38.4224C62.1967 38.2051 62.0313 38.0051 62.0726 37.7784C62.102 37.6224 62.022 37.4678 62.018 37.3091C62.0126 37.0184 61.9007 36.7411 61.8967 36.4491C61.8913 36.1838 61.842 35.9211 61.846 35.6531C61.8514 35.3744 61.83 35.0984 61.8313 34.8198C61.834 34.3278 61.8006 33.8384 61.7873 33.3478C61.778 33.0331 61.7393 32.7211 61.7393 32.4038C61.738 32.1584 61.6886 31.9158 61.6566 31.6718C61.6366 31.5304 61.61 31.3904 61.5833 31.2478C61.5713 31.1798 61.53 31.1224 61.3327 31.1384L61.2327 31.1024C61.1447 31.0078 61.0447 30.9958 60.814 31.0584L60.4807 31.1198C60.2113 31.1478 60.1047 31.2078 60.142 31.3171C60.202 31.4958 60.218 31.6784 60.2646 31.8571C60.322 32.0744 60.3526 32.2918 60.3393 32.5144C60.3286 32.6704 60.3473 32.8251 60.3807 32.9744L60.4206 33.3171L60.4193 33.5518L60.4153 33.5504L60.4206 33.6011L60.4233 33.5998L60.4633 33.6958L60.4434 33.9691C60.45 34.0558 60.318 34.1571 60.4873 34.2251L60.466 34.2731C60.4673 34.3864 60.3153 34.5171 60.5206 34.6104L60.5073 34.6678L60.474 34.7771L60.542 34.7784L60.4794 34.7744L60.4527 34.8424L60.5206 35.1824L60.5193 35.2958L60.554 35.5144L60.63 35.6171V35.6144L60.57 35.7104L60.574 35.7078L60.5926 35.8678L60.6327 35.8851Z" fill="#1A1818"/>
<path d="M118.476 62.7024L118.437 62.6771C118.298 62.7451 118.293 62.9291 118.152 63.0011L117.925 63.2758C117.817 63.4758 117.672 63.6424 117.525 63.8078C117.288 64.0758 117.077 64.3678 116.833 64.6278C116.7 64.7691 116.597 64.9371 116.449 65.0638C116.272 65.2158 116.169 65.4318 115.988 65.5798C115.862 65.6824 115.789 65.8344 115.688 65.9584C115.533 66.1518 115.35 66.3211 115.226 66.5411L115.081 66.7264L114.894 66.8704L114.657 67.0464L114.406 67.2678L114.47 67.4411C114.596 67.5864 114.776 67.6678 114.865 67.6144L114.977 67.5771L114.957 67.6984L115.042 67.9291L115.32 68.0864L115.417 68.0464L115.577 67.9824L115.674 67.9238L115.921 67.6291C116.129 67.4398 116.245 67.1664 116.452 66.9718C116.572 66.8584 116.644 66.6998 116.758 66.5838C116.884 66.4571 116.982 66.3091 117.089 66.1678L117.206 65.9451C117.42 65.9238 117.424 65.7078 117.565 65.6144C117.754 65.4891 117.796 65.2264 117.997 65.0998C118.134 65.0104 118.2 64.8424 118.318 64.7278C118.536 64.5211 118.674 64.2438 118.893 64.0358C119.092 63.8438 119.258 63.6238 119.466 63.4398C119.682 63.2478 119.88 63.0371 120.093 62.8424C120.469 62.4998 120.822 62.1331 121.186 61.7784C121.42 61.5504 121.634 61.3038 121.876 61.0811C122.064 60.9078 122.214 60.7011 122.378 60.5051L122.653 60.1558C122.696 60.0984 122.713 60.0278 122.568 59.8904L122.529 59.7918C122.541 59.6611 122.484 59.5771 122.281 59.4504L122.01 59.2464C121.808 59.0664 121.69 59.0291 121.632 59.1344C121.537 59.3038 121.406 59.4438 121.302 59.6051C121.176 59.7984 121.029 59.9744 120.849 60.1198C120.725 60.2224 120.621 60.3438 120.526 60.4731L120.293 60.7438L120.114 60.9064L120.112 60.9024L120.076 60.9438L120.078 60.9451L120.033 61.0411C119.912 61.0544 119.873 61.1491 119.809 61.2184C119.748 61.2838 119.582 61.2571 119.644 61.4318L119.594 61.4478C119.509 61.5291 119.306 61.5064 119.374 61.7238L119.318 61.7558L119.214 61.8078L119.258 61.8598L119.22 61.8091L119.149 61.8371C119.116 61.9664 119.025 62.0464 118.936 62.1264L118.848 62.2051C118.844 62.3011 118.849 62.4038 118.705 62.3838L118.677 62.5118L118.678 62.5104L118.566 62.5331L118.57 62.5358L118.461 62.6611L118.476 62.7024Z" fill="#1A1818"/>
<path d="M108.409 52.9626L108.369 52.9386C108.232 53.0119 108.23 53.1986 108.089 53.2772L107.866 53.5639C107.762 53.7706 107.618 53.9452 107.474 54.1186C107.241 54.3999 107.037 54.7026 106.794 54.9759C106.665 55.1239 106.565 55.2986 106.417 55.4332C106.241 55.5932 106.142 55.8172 105.964 55.9746C105.841 56.0839 105.77 56.2386 105.672 56.3706C105.518 56.5706 105.338 56.7492 105.217 56.9772L105.074 57.1706L104.89 57.3252L104.654 57.5119L104.406 57.7465L104.476 57.9186C104.605 58.0599 104.788 58.1346 104.877 58.0786L104.989 58.0359L104.972 58.1586L105.064 58.3892L105.345 58.5359L105.444 58.4906L105.604 58.4199L105.7 58.3559L105.942 58.0492C106.148 57.8479 106.258 57.5666 106.461 57.3612C106.581 57.2426 106.65 57.0786 106.764 56.9572C106.888 56.8239 106.982 56.6692 107.088 56.5226L107.201 56.2906C107.414 56.2612 107.414 56.0439 107.554 55.9452C107.742 55.8092 107.78 55.5426 107.978 55.4039C108.116 55.3092 108.177 55.1372 108.294 55.0159C108.509 54.7972 108.642 54.5106 108.857 54.2919C109.056 54.0906 109.218 53.8599 109.424 53.6666C109.638 53.4626 109.832 53.2412 110.042 53.0359C110.414 52.6732 110.761 52.2879 111.12 51.9146C111.352 51.6746 111.562 51.4159 111.8 51.1812C111.985 50.9986 112.133 50.7826 112.294 50.5786C112.389 50.4599 112.476 50.3345 112.565 50.2132C112.606 50.1532 112.621 50.0812 112.472 49.9492L112.43 49.8506C112.441 49.7186 112.381 49.6359 112.173 49.5159L111.897 49.3226C111.688 49.1492 111.569 49.1146 111.512 49.2239C111.42 49.3986 111.292 49.5465 111.19 49.7132C111.066 49.9145 110.924 50.0986 110.745 50.2532C110.621 50.3612 110.518 50.4892 110.428 50.6226L110.197 50.9066L110.021 51.0786L110.017 51.0746L109.984 51.1159L109.986 51.1172L109.942 51.2186C109.821 51.2359 109.785 51.3332 109.721 51.4052C109.661 51.4746 109.494 51.4546 109.558 51.6279L109.509 51.6479C109.424 51.7319 109.22 51.7199 109.292 51.9372L109.237 51.9692L109.133 52.0266L109.178 52.0772L109.138 52.0279L109.068 52.0586C109.037 52.1906 108.949 52.2759 108.86 52.3612L108.773 52.4452C108.773 52.5426 108.78 52.6452 108.633 52.6306L108.608 52.7626L108.61 52.7599L108.497 52.7866L108.501 52.7879L108.394 52.9199L108.409 52.9626Z" fill="#1A1818"/>
<path d="M99.4363 46.7172L99.4777 46.7345C99.595 46.6558 99.5643 46.4838 99.6843 46.3998L99.8444 46.1172C99.9084 45.9185 100.014 45.7452 100.12 45.5732C100.292 45.2958 100.435 44.9998 100.616 44.7278C100.714 44.5812 100.779 44.4118 100.895 44.2772C101.034 44.1132 101.087 43.8998 101.231 43.7398C101.33 43.6292 101.368 43.4812 101.44 43.3518C101.55 43.1545 101.688 42.9758 101.764 42.7558L101.864 42.5638L102.014 42.4078L102.206 42.2172L102.399 41.9811L102.303 41.8278C102.155 41.7065 101.966 41.6532 101.892 41.7118L101.792 41.7598L101.787 41.6452L101.659 41.4398L101.362 41.3278L101.279 41.3758L101.138 41.4532L101.058 41.5198L100.88 41.8238C100.72 42.0252 100.666 42.2931 100.507 42.4998C100.415 42.6185 100.378 42.7758 100.291 42.8958C100.198 43.0305 100.134 43.1798 100.06 43.3238L99.9937 43.5465C99.7937 43.5905 99.8337 43.7918 99.7177 43.8945C99.5617 44.0345 99.5751 44.2838 99.4097 44.4265C99.2951 44.5252 99.2671 44.6892 99.1764 44.8105C99.0111 45.0292 98.9363 45.3038 98.7697 45.5238C98.6177 45.7252 98.5031 45.9505 98.3404 46.1478C98.1724 46.3505 98.027 46.5705 97.863 46.7785C97.5724 47.1425 97.3097 47.5251 97.0337 47.8985C96.8563 48.1385 96.7017 48.3932 96.5164 48.6292C96.3737 48.8145 96.2697 49.0238 96.1524 49.2252C96.0844 49.3425 96.023 49.4638 95.9604 49.5852C95.931 49.6425 95.9297 49.7118 96.0964 49.8212L96.1537 49.9078C96.1683 50.0318 96.239 50.1038 96.4577 50.1971L96.7577 50.3545C96.987 50.4985 97.107 50.5198 97.1417 50.4145C97.199 50.2451 97.2937 50.0998 97.3617 49.9385C97.4443 49.7412 97.5483 49.5612 97.6897 49.4025C97.7883 49.2932 97.8644 49.1678 97.927 49.0358L98.095 48.7558L98.2324 48.5838L98.2363 48.5865L98.263 48.5452H98.259L98.2843 48.4478L98.4617 48.2572C98.507 48.1892 98.6711 48.1945 98.5764 48.0398L98.6203 48.0172C98.6857 47.9318 98.8844 47.9291 98.7764 47.7331L98.8217 47.6985L98.911 47.6372L98.8577 47.5945L98.9044 47.6372L98.967 47.6025C98.9737 47.4785 99.043 47.3918 99.1137 47.3078L99.1804 47.2238C99.1644 47.1332 99.139 47.0385 99.2817 47.0412V46.9172L99.2804 46.9185L99.3843 46.8852L99.3791 46.8838L99.4577 46.7532L99.4363 46.7172Z" fill="#1A1818"/>
<path d="M86.666 38.4064L86.6193 38.3997L86.51 38.7811L86.4326 39.1011C86.4246 39.3117 86.3699 39.5091 86.3139 39.7051C86.2233 40.0224 86.166 40.3491 86.0646 40.6637C86.0086 40.8331 85.9926 41.0144 85.9166 41.1784C85.8273 41.3744 85.834 41.5984 85.738 41.7917C85.674 41.9264 85.6753 42.0824 85.6406 42.2264C85.59 42.4491 85.5033 42.6624 85.49 42.8958L85.4447 43.1091L85.342 43.3024L85.21 43.5411L85.0859 43.8237L85.2206 43.9451C85.3966 44.0224 85.5913 44.0224 85.6486 43.9451L85.7313 43.8704L85.7673 43.9797C85.7833 44.0357 85.8139 44.0984 85.9473 44.1437L86.262 44.1704L86.3313 44.0997L86.446 43.9851L86.5046 43.8971L86.5926 43.5571C86.6926 43.3144 86.674 43.0384 86.7713 42.7958C86.8273 42.6544 86.8206 42.4931 86.8713 42.3504C86.926 42.1957 86.9473 42.0317 86.9793 41.8717L86.9833 41.6371C87.1633 41.5384 87.0713 41.3544 87.154 41.2224C87.2673 41.0437 87.1873 40.8051 87.3073 40.6211C87.3913 40.4944 87.3739 40.3264 87.4299 40.1837C87.5299 39.9264 87.5286 39.6384 87.6286 39.3784C87.722 39.1411 87.7727 38.8904 87.8753 38.6544C87.982 38.4104 88.062 38.1571 88.1646 37.9104C88.346 37.4771 88.4966 37.0317 88.662 36.5931C88.7673 36.3104 88.8473 36.0197 88.962 35.7397C89.0513 35.5211 89.0939 35.2877 89.1526 35.0597C89.1859 34.9277 89.214 34.7931 89.2406 34.6584C89.254 34.5944 89.2366 34.5277 89.0473 34.4677L88.9673 34.3971C88.9207 34.2811 88.8326 34.2331 88.5953 34.2037L88.2646 34.1331C88.006 34.0571 87.8846 34.0691 87.8793 34.1797C87.87 34.3611 87.8166 34.5291 87.7953 34.7051C87.77 34.9184 87.7179 35.1211 87.6219 35.3144C87.5579 35.4477 87.5179 35.5917 87.4939 35.7357L87.406 36.0557L87.3206 36.2611L87.3166 36.2584L87.302 36.3064H87.306L87.3087 36.4051L87.1886 36.6397C87.1646 36.7197 87.006 36.7597 87.1353 36.8851L87.1007 36.9171C87.0607 37.0184 86.8699 37.0771 87.0273 37.2357L86.9926 37.2824L86.9233 37.3664L86.9846 37.3931L86.9286 37.3664L86.878 37.4171C86.9047 37.5384 86.8606 37.6411 86.8166 37.7424L86.7753 37.8424C86.8153 37.9264 86.8646 38.0104 86.7273 38.0491L86.7593 38.1677H86.7606L86.6713 38.2278H86.6753L86.634 38.3771L86.666 38.4064Z" fill="#1A1818"/>
<path d="M74.0114 35.7518L73.9661 35.7545C73.8967 35.8865 74.0007 36.0318 73.9301 36.1678L73.9114 36.5105C73.9447 36.7279 73.9261 36.9425 73.9074 37.1545C73.8781 37.4972 73.8834 37.8425 73.8421 38.1852C73.8194 38.3718 73.8367 38.5612 73.7927 38.7439C73.7407 38.9625 73.7874 39.1905 73.7327 39.4079C73.6927 39.5598 73.7234 39.7199 73.718 39.8745C73.7074 40.1119 73.662 40.3478 73.6927 40.5905L73.6874 40.8185L73.6234 41.0372L73.5381 41.3079L73.4688 41.6225L73.6234 41.7212C73.8114 41.7638 74.0034 41.7238 74.0447 41.6318L74.1128 41.5398L74.1674 41.6452C74.1927 41.6985 74.2354 41.7559 74.3741 41.7759C74.4994 41.7932 74.6047 41.7732 74.69 41.7398L74.7434 41.6532L74.8354 41.5119L74.8768 41.4105C74.8674 41.2865 74.8754 41.1639 74.8994 41.0425C74.9541 40.7759 74.8834 40.4972 74.934 40.2265C74.962 40.0705 74.926 39.9065 74.9487 39.7505C74.9727 39.5798 74.9634 39.4092 74.9661 39.2372L74.926 38.9972C75.0847 38.8598 74.9594 38.6892 75.0167 38.5372C75.0954 38.3318 74.9714 38.1038 75.0567 37.8905C75.1154 37.7425 75.0661 37.5745 75.0941 37.4185C75.1447 37.1318 75.0901 36.8372 75.1408 36.5518C75.1861 36.2892 75.1888 36.0225 75.2461 35.7599C75.3061 35.4879 75.3381 35.2118 75.3941 34.9398C75.4914 34.4572 75.5554 33.9718 75.6354 33.4878C75.6874 33.1758 75.7127 32.8625 75.7727 32.5532C75.8194 32.3105 75.8181 32.0625 75.8327 31.8185C75.8421 31.6745 75.8434 31.5318 75.8434 31.3892C75.8448 31.3198 75.8167 31.2545 75.6194 31.2318L75.5274 31.1759C75.4594 31.0665 75.3634 31.0358 75.1247 31.0532L74.7874 31.0492C74.5167 31.0225 74.4007 31.0599 74.4167 31.1759C74.4421 31.3625 74.4207 31.5452 74.4327 31.7292C74.4474 31.9532 74.4341 32.1719 74.3768 32.3905C74.3381 32.5399 74.326 32.6945 74.3287 32.8478L74.3021 33.1919L74.2554 33.4212L74.2514 33.4185L74.2461 33.4705L74.2501 33.4692L74.2714 33.5705L74.1967 33.8358C74.1861 33.9225 74.038 33.9959 74.19 34.0959L74.162 34.1372C74.1407 34.2492 73.9647 34.3479 74.1487 34.4785L74.1221 34.5345L74.0701 34.6345L74.1367 34.6492L74.0754 34.6318L74.0354 34.6945L74.0367 35.0412L74.0141 35.1532C74.0687 35.2292 74.1341 35.3065 74.0061 35.3732L74.0607 35.4892V35.4865L73.9834 35.5678L73.9887 35.5665L73.9754 35.7265L74.0114 35.7518Z" fill="#1A1818"/>
<path d="M17.5269 73.2972L17.5656 73.3225C17.7042 73.2545 17.7096 73.0705 17.8509 72.9998L18.0776 72.7239C18.1856 72.5239 18.3322 72.3572 18.4776 72.1919C18.7149 71.9239 18.9242 71.6318 19.1696 71.3719C19.3016 71.2305 19.4056 71.0612 19.5549 70.9358C19.7323 70.7838 19.8349 70.5665 20.0136 70.4198C20.1402 70.3172 20.2136 70.1665 20.3149 70.0412C20.4696 69.8479 20.6522 69.6785 20.7776 69.4585L20.9216 69.2732L21.1096 69.1279L21.3456 68.9532L21.5963 68.7318L21.5309 68.5585C21.4069 68.4132 21.2282 68.3332 21.1376 68.3852L21.0256 68.4212L21.0456 68.3012L20.9589 68.0692L20.6829 67.9132L20.5856 67.9532L20.4256 68.0172L20.3296 68.0759L20.0816 68.3692C19.8736 68.5598 19.7576 68.8345 19.5522 69.0279C19.4309 69.1412 19.3589 69.2998 19.2442 69.4158C19.1189 69.5425 19.0202 69.6905 18.9136 69.8332L18.7949 70.0559C18.5829 70.0759 18.5776 70.2918 18.4389 70.3852C18.2482 70.5105 18.2069 70.7732 18.0069 70.8998C17.8682 70.9892 17.8029 71.1572 17.6842 71.2719C17.4669 71.4785 17.3296 71.7558 17.1109 71.9638C16.9109 72.1545 16.7442 72.3759 16.5362 72.5599C16.3189 72.7519 16.1229 72.9625 15.9096 73.1572C15.5336 73.4999 15.1802 73.8665 14.8162 74.2212C14.5816 74.4478 14.3683 74.6958 14.1269 74.9185C13.9403 75.0918 13.7883 75.2985 13.6243 75.4945L13.3496 75.8439C13.3056 75.9012 13.2882 75.9719 13.4349 76.1079L13.4736 76.2079C13.4616 76.3385 13.5189 76.4225 13.7229 76.5492L13.9936 76.7518C14.1949 76.9318 14.3122 76.9705 14.3709 76.8652C14.4656 76.6958 14.5949 76.5559 14.7002 76.3945C14.8282 76.2012 14.9736 76.0252 15.1536 75.8798C15.2789 75.7785 15.3829 75.6559 15.4762 75.5265L15.7096 75.2559L15.8896 75.0932L15.8923 75.0959L15.9269 75.0572L15.9243 75.0559L15.9696 74.9572C16.0909 74.9452 16.1283 74.8505 16.1936 74.7812C16.2536 74.7158 16.4189 74.7425 16.3589 74.5678L16.4082 74.5518C16.4949 74.4705 16.6963 74.4919 16.6283 74.2745L16.6842 74.2439L16.7883 74.1919L16.7442 74.1399L16.7842 74.1905L16.8536 74.1625C16.8882 74.0332 16.9776 73.9519 17.0669 73.8732L17.1549 73.7932C17.1589 73.6972 17.1536 73.5958 17.2976 73.6145L17.3256 73.4865L17.3243 73.4892L17.4376 73.4652L17.4322 73.4638L17.5416 73.3385L17.5269 73.2972Z" fill="#1A1818"/>
<path d="M27.5914 83.0371L27.6314 83.0598C27.7687 82.9864 27.7714 82.8011 27.9114 82.7238L28.134 82.4358C28.238 82.2278 28.3834 82.0544 28.526 81.8811C28.7594 81.5997 28.9634 81.2958 29.206 81.0224C29.3367 80.8744 29.4367 80.6998 29.5834 80.5664C29.7594 80.4051 29.8567 80.1824 30.0367 80.0251C30.1607 79.9158 30.2314 79.7611 30.33 79.6291C30.482 79.4291 30.662 79.2504 30.7847 79.0224L30.9247 78.8278L31.1114 78.6744L31.346 78.4878L31.594 78.2531L31.5247 78.0811C31.3967 77.9397 31.2127 77.8651 31.1234 77.9211L31.0114 77.9637L31.0287 77.8411L30.938 77.6118L30.6554 77.4637L30.558 77.5091L30.398 77.5797L30.3007 77.6438L30.0594 77.9491C29.8527 78.1518 29.742 78.4331 29.5394 78.6371C29.4194 78.7571 29.35 78.9211 29.2367 79.0424C29.114 79.1758 29.018 79.3304 28.9127 79.4771L28.7994 79.7091C28.5847 79.7371 28.586 79.9558 28.4474 80.0558C28.258 80.1904 28.222 80.4571 28.022 80.5958C27.886 80.6904 27.8234 80.8624 27.706 80.9838C27.4914 81.2024 27.358 81.4878 27.1434 81.7078C26.946 81.9078 26.7834 82.1384 26.5754 82.3344C26.362 82.5371 26.17 82.7584 25.958 82.9624C25.586 83.3264 25.238 83.7104 24.8794 84.0851C24.6487 84.3251 24.438 84.5838 24.2007 84.8184C24.0154 85.0011 23.8674 85.2171 23.706 85.4211C23.6127 85.5398 23.5247 85.6638 23.4367 85.7864C23.3954 85.8451 23.3794 85.9184 23.5287 86.0504L23.57 86.1491C23.5607 86.2811 23.6194 86.3638 23.8287 86.4824L24.1047 86.6771C24.3127 86.8504 24.4314 86.8851 24.4887 86.7771C24.5807 86.6011 24.7087 86.4531 24.81 86.2864C24.934 86.0851 25.0767 85.9011 25.2554 85.7464C25.3794 85.6384 25.482 85.5104 25.5727 85.3771L25.802 85.0931L25.9794 84.9211L25.982 84.9251L26.0167 84.8838L26.014 84.8824L26.0594 84.7811C26.1794 84.7637 26.2167 84.6664 26.2807 84.5944C26.3407 84.5251 26.5074 84.5451 26.4434 84.3718L26.4914 84.3518C26.5754 84.2678 26.7807 84.2798 26.7087 84.0624L26.7634 84.0304L26.866 83.9731L26.8207 83.9224L26.8607 83.9718L26.9327 83.9398C26.9634 83.8091 27.0527 83.7238 27.1407 83.6384L27.2287 83.5558C27.2287 83.4571 27.222 83.3544 27.3674 83.3691L27.394 83.2371L27.3914 83.2398L27.5047 83.2131L27.5007 83.2104L27.6074 83.0784L27.5914 83.0371Z" fill="#1A1818"/>
<path d="M36.5662 89.2826L36.5249 89.2648C36.4075 89.3435 36.4395 89.5143 36.3182 89.5998L36.1582 89.8826C36.0942 90.081 35.9889 90.2544 35.8822 90.4263C35.7102 90.7039 35.5675 90.9998 35.3875 91.2716C35.2889 91.4184 35.2249 91.5878 35.1089 91.7238C34.9689 91.8851 34.9142 92.0998 34.7729 92.2596C34.6742 92.3706 34.6342 92.5184 34.5635 92.6476C34.4542 92.8451 34.3142 93.0238 34.2382 93.244L34.1382 93.4356L33.9889 93.5904L33.7969 93.7826L33.6035 94.0184L33.6995 94.1716C33.8475 94.293 34.0355 94.3466 34.1115 94.2878L34.2102 94.2399L34.2155 94.3544L34.3435 94.5586L34.6409 94.6716L34.7249 94.6238L34.8648 94.5466L34.9462 94.4784L35.1209 94.1758C35.2835 93.9742 35.3382 93.705 35.4969 93.5014C35.5875 93.381 35.6249 93.2238 35.7115 93.1039C35.8049 92.969 35.8689 92.8195 35.9435 92.6742L36.0102 92.4528C36.2089 92.4091 36.1702 92.2075 36.2849 92.105C36.4409 91.9648 36.4275 91.7159 36.5929 91.5716L36.8262 91.1894C36.9915 90.9706 37.0662 90.6956 37.2328 90.4758C37.3862 90.2742 37.5009 90.0492 37.6622 89.8518C37.8315 89.6476 37.9742 89.429 38.1395 89.2222C38.4302 88.8571 38.6928 88.4742 38.9688 88.1011C39.1462 87.8611 39.3009 87.6064 39.4862 87.3691C39.6289 87.1851 39.7329 86.9744 39.8502 86.7744C39.9182 86.6571 39.9795 86.5358 40.0422 86.4144C40.0715 86.3558 40.0729 86.2878 39.9062 86.1784L39.8489 86.0904C39.8355 85.9678 39.7635 85.8958 39.5435 85.8024L39.2449 85.6451C39.0142 85.5011 38.8969 85.4798 38.8609 85.5851C38.8035 85.7544 38.7089 85.8984 38.6409 86.0611C38.5595 86.2584 38.4542 86.4384 38.3129 86.5958C38.2142 86.7064 38.1382 86.8331 38.0755 86.9624L37.9062 87.2424L37.7688 87.4158L37.7662 87.4131L37.7395 87.4531L37.7435 87.4544L37.7195 87.5518L37.5409 87.7411C37.4969 87.8104 37.3329 87.8051 37.4262 87.9598L37.3822 87.9811C37.3169 88.0664 37.1195 88.0704 37.2275 88.2664L37.1809 88.2998L37.0915 88.3624L37.1449 88.4038L37.0969 88.3624L37.0355 88.3971C37.0288 88.5211 36.9582 88.6075 36.8902 88.6919L36.8222 88.7758C36.8395 88.8664 36.8635 88.9596 36.7222 88.9586V89.0826L36.7235 89.0799L36.6195 89.1143L36.6235 89.1159L36.5449 89.2451L36.5662 89.2826Z" fill="#1A1818"/>
<path d="M49.3353 97.593L49.3806 97.5998L49.49 97.2185L49.5673 96.8982C49.574 96.6878 49.63 96.4905 49.686 96.2946C49.778 95.9769 49.8353 95.6504 49.9353 95.3357C49.9913 95.1665 50.0087 94.9837 50.082 94.8212C50.174 94.6238 50.1673 94.4014 50.262 94.2076C50.3273 94.0717 50.326 93.917 50.3593 93.7733C50.41 93.5504 50.498 93.3373 50.51 93.104L50.5567 92.8905L50.658 92.6972L50.79 92.4586L50.9139 92.1758L50.7806 92.0545C50.6046 91.9769 50.4073 91.9769 50.3513 92.0556L50.27 92.129L50.2326 92.0196C50.218 91.9638 50.186 91.9014 50.054 91.8561L49.7367 91.829L49.67 91.8998L49.5553 92.0133L49.4966 92.1014L49.4073 92.4436C49.3073 92.6852 49.3273 92.9597 49.23 93.204C49.174 93.3452 49.1793 93.5066 49.1287 93.6493C49.074 93.804 49.054 93.9681 49.0207 94.128L49.0166 94.3624C48.838 94.4597 48.9287 94.6452 48.8447 94.7769C48.7327 94.9561 48.8127 95.1946 48.6927 95.3785C48.6087 95.505 48.626 95.6733 48.57 95.816C48.47 96.0733 48.4713 96.3613 48.3713 96.6212C48.2793 96.8586 48.2286 97.1102 48.1246 97.3436C48.018 97.5894 47.9393 97.8425 47.8367 98.0894C47.654 98.5228 47.5047 98.9665 47.3393 99.4066C47.2313 99.6894 47.1526 99.98 47.038 100.26C46.9486 100.478 46.906 100.712 46.8473 100.94C46.814 101.072 46.786 101.207 46.7593 101.341C46.746 101.405 46.7633 101.472 46.9526 101.532L47.0313 101.602C47.0793 101.718 47.1687 101.766 47.4033 101.796L47.7353 101.866C47.9953 101.942 48.1167 101.93 48.1207 101.818C48.13 101.638 48.1833 101.471 48.2046 101.295C48.2313 101.081 48.2833 100.878 48.3766 100.685C48.4433 100.552 48.4806 100.408 48.5073 100.264L48.594 99.9452L48.6793 99.7384L48.6833 99.74L48.698 99.693H48.694L48.6913 99.5946L48.8113 99.3586C48.8367 99.28 48.9953 99.24 48.8647 99.1144L48.8993 99.0826C48.9406 98.981 49.1287 98.9228 48.9727 98.7638L49.0087 98.717L49.0766 98.6332L49.0153 98.6066L49.0713 98.6332L49.122 98.5826C49.0953 98.4597 49.1393 98.3586 49.1833 98.2561L49.226 98.1572C49.1847 98.0733 49.1353 97.9894 49.274 97.9504L49.2406 97.8316L49.2393 97.8332L49.33 97.7717H49.3246L49.366 97.6228L49.3353 97.593Z" fill="#1A1818"/>
<path d="M61.9903 100.248L62.0356 100.245C62.1063 100.113 62.0023 99.9682 62.0716 99.8317L62.0903 99.4896C62.0583 99.2718 62.0756 99.0573 62.0942 98.8453C62.1236 98.5015 62.1196 98.1562 62.1609 97.8145C62.1822 97.6281 62.165 97.4385 62.209 97.2562C62.261 97.0374 62.2143 96.8093 62.2703 96.5906C62.309 96.4401 62.2783 96.2801 62.2849 96.1254C62.2943 95.888 62.341 95.6519 62.309 95.4093L62.3142 95.1811L62.3783 94.9625L62.4636 94.6921L62.5329 94.377L62.3783 94.2786C62.1903 94.2358 61.9983 94.276 61.9569 94.3666L61.8903 94.4598L61.8343 94.3546C61.809 94.3015 61.7662 94.2442 61.6276 94.224C61.5036 94.2068 61.3983 94.2254 61.3116 94.2598L61.2582 94.3467L61.1676 94.488L61.1236 94.5896C61.1343 94.7134 61.1263 94.8349 61.1023 94.9573C61.0476 95.224 61.1196 95.5025 61.0676 95.7718C61.0396 95.9292 61.0756 96.0932 61.0529 96.2494C61.0276 96.4186 61.0383 96.5906 61.0356 96.7614L61.0743 97.0015C60.9169 97.1401 61.0423 97.3104 60.9849 97.4625C60.9063 97.6682 61.0303 97.8958 60.9463 98.1104C60.8876 98.2573 60.9356 98.4254 60.9076 98.5811C60.8569 98.8666 60.9116 99.1625 60.8609 99.4478C60.8142 99.7103 60.8129 99.977 60.7556 100.238C60.6956 100.512 60.665 100.786 60.609 101.06C60.5103 101.543 60.4476 102.028 60.3663 102.512C60.3143 102.822 60.2889 103.137 60.2303 103.447C60.1823 103.689 60.1836 103.937 60.1689 104.181C60.1609 104.325 60.1596 104.468 60.1582 104.612C60.1569 104.68 60.1849 104.745 60.3836 104.768L60.4743 104.824C60.5423 104.932 60.6383 104.964 60.8769 104.947L61.2156 104.95C61.4836 104.976 61.6009 104.94 61.5849 104.824C61.5609 104.637 61.5809 104.455 61.5689 104.271C61.5556 104.047 61.5676 103.828 61.6249 103.61C61.6649 103.46 61.6756 103.305 61.6743 103.152L61.6996 102.808L61.7463 102.579L61.7502 102.58L61.7556 102.529L61.7516 102.531L61.7316 102.429L61.8049 102.164C61.8143 102.077 61.9636 102.004 61.8116 101.902L61.8409 101.862C61.8609 101.75 62.0356 101.652 61.8516 101.52L61.8783 101.465L61.9316 101.365L61.865 101.35L61.9263 101.367L61.9663 101.304L61.965 100.957L61.9876 100.847C61.9329 100.771 61.8676 100.693 61.9969 100.626L61.9423 100.51V100.512L62.0183 100.432L62.0129 100.433L62.0263 100.273L61.9903 100.248Z" fill="#1A1818"/>
<path d="M119.488 72.3838L119.516 72.3478C119.462 72.2038 119.282 72.1784 119.225 72.0304L118.976 71.7771C118.788 71.6491 118.636 71.4851 118.488 71.3238C118.245 71.0598 117.977 70.8211 117.744 70.5504C117.617 70.4024 117.46 70.2824 117.349 70.1224C117.218 69.9304 117.012 69.8051 116.884 69.6118C116.794 69.4758 116.653 69.3878 116.538 69.2744C116.362 69.0998 116.214 68.8998 116.009 68.7531L115.838 68.5904L115.714 68.3891L115.565 68.1344C115.534 68.0118 115.462 67.9304 115.37 67.8624L115.192 67.9091C115.033 68.0171 114.934 68.1878 114.977 68.2824L115.002 68.3971L114.885 68.3651L114.645 68.4264L114.461 68.6864L114.492 68.7864L114.537 68.9518L114.586 69.0558L114.852 69.3318C115.02 69.5584 115.281 69.7024 115.453 69.9278C115.552 70.0584 115.702 70.1478 115.805 70.2731C115.918 70.4104 116.057 70.5238 116.185 70.6451L116.397 70.7851C116.394 70.9998 116.609 71.0264 116.685 71.1744C116.79 71.3771 117.048 71.4451 117.154 71.6584C117.228 71.8051 117.389 71.8878 117.489 72.0171C117.673 72.2544 117.934 72.4211 118.12 72.6598C118.288 72.8784 118.49 73.0664 118.652 73.2931C118.82 73.5278 119.009 73.7451 119.18 73.9784C119.482 74.3891 119.81 74.7771 120.125 75.1744C120.328 75.4318 120.552 75.6704 120.748 75.9331C120.9 76.1371 121.09 76.3091 121.268 76.4931L121.588 76.8038C121.64 76.8518 121.709 76.8771 121.858 76.7451L121.961 76.7171C122.092 76.7424 122.18 76.6944 122.326 76.5051L122.558 76.2584C122.757 76.0758 122.808 75.9624 122.709 75.8931C122.55 75.7798 122.425 75.6371 122.276 75.5158C122.096 75.3704 121.937 75.2078 121.809 75.0118C121.722 74.8784 121.61 74.7611 121.492 74.6558L121.246 74.3944L121.104 74.1998L121.108 74.1971L121.072 74.1584L121.069 74.1611L120.978 74.1051C120.978 73.9838 120.889 73.9358 120.826 73.8638C120.768 73.7971 120.81 73.6344 120.632 73.6771L120.62 73.6264C120.548 73.5331 120.59 73.3344 120.366 73.3784L120.342 73.3211L120.301 73.2118L120.245 73.2504L120.298 73.2171L120.278 73.1424C120.154 73.0958 120.084 72.9984 120.012 72.8998L119.944 72.8051C119.848 72.7918 119.745 72.7864 119.781 72.6451L119.656 72.6038L119.657 72.6064L119.646 72.4918L119.645 72.4958L119.53 72.3744L119.488 72.3838Z" fill="#1A1818"/>
<path d="M109.453 82.1571L109.481 82.1211C109.432 81.9744 109.249 81.9424 109.194 81.7877L108.949 81.5224C108.762 81.3851 108.614 81.2131 108.466 81.0438C108.229 80.7678 107.964 80.5131 107.733 80.2304C107.61 80.0771 107.454 79.9477 107.346 79.7811C107.218 79.5824 107.013 79.4464 106.889 79.2451C106.801 79.1051 106.66 79.0091 106.548 78.8904C106.374 78.7064 106.229 78.4997 106.024 78.3411L105.854 78.1691L105.734 77.9611L105.59 77.6984C105.562 77.5731 105.492 77.4877 105.4 77.4144L105.22 77.4544C105.057 77.5571 104.954 77.7251 104.994 77.8237L105.017 77.9411L104.9 77.9024L104.657 77.9544L104.465 78.2104L104.494 78.3118L104.537 78.4824L104.584 78.5877L104.845 78.8784C105.01 79.1144 105.27 79.2704 105.437 79.5051C105.534 79.6424 105.684 79.7384 105.786 79.8691C105.898 80.0131 106.033 80.1331 106.161 80.2624L106.37 80.4118C106.364 80.6278 106.578 80.6651 106.654 80.8184C106.755 81.0264 107.011 81.1078 107.115 81.3264C107.185 81.4771 107.345 81.5664 107.445 81.7024C107.625 81.9504 107.885 82.1291 108.066 82.3784C108.232 82.6064 108.432 82.8051 108.589 83.0411C108.753 83.2851 108.94 83.5117 109.108 83.7557C109.402 84.1824 109.725 84.5891 110.033 85.0051C110.233 85.2731 110.452 85.5237 110.644 85.7971C110.793 86.0091 110.981 86.1917 111.156 86.3851L111.472 86.7117C111.522 86.7637 111.592 86.7904 111.746 86.6651L111.85 86.6397C111.98 86.6704 112.07 86.6264 112.224 86.4424L112.461 86.2011C112.668 86.0251 112.719 85.9131 112.621 85.8384C112.463 85.7197 112.341 85.5677 112.193 85.4411C112.014 85.2837 111.858 85.1118 111.734 84.9104C111.649 84.7718 111.54 84.6491 111.422 84.5371L111.181 84.2624L111.041 84.0584L111.045 84.0571L111.01 84.0157L111.008 84.0184L110.917 83.9584C110.918 83.8357 110.83 83.7824 110.769 83.7091C110.71 83.6384 110.757 83.4771 110.576 83.5118L110.566 83.4598C110.496 83.3624 110.542 83.1637 110.315 83.1984L110.293 83.1397L110.253 83.0278L110.196 83.0637L110.25 83.0317L110.233 82.9571C110.108 82.9037 110.038 82.8024 109.969 82.7011L109.901 82.6024C109.806 82.5851 109.704 82.5744 109.741 82.4331L109.617 82.3864L109.618 82.3891L109.61 82.2717L109.608 82.2771L109.496 82.1491L109.453 82.1571Z" fill="#1A1818"/>
<path d="M98.2847 90.0133L98.2487 90.0436C98.2714 90.1837 98.4394 90.228 98.4634 90.3742L98.6514 90.64C98.8034 90.781 98.9154 90.9504 99.0247 91.1196C99.2034 91.393 99.4101 91.6493 99.5794 91.929C99.6714 92.08 99.7954 92.2118 99.8688 92.3742C99.9554 92.5681 100.126 92.7092 100.21 92.905C100.269 93.0425 100.386 93.1425 100.473 93.2613C100.605 93.4452 100.707 93.6477 100.874 93.8092L101.005 93.981L101.081 94.1826L101.174 94.4384L101.303 94.7144L101.483 94.692C101.657 94.6102 101.786 94.4624 101.763 94.369L101.762 94.2597L101.869 94.3024C101.921 94.328 101.987 94.3436 102.109 94.2742L102.338 94.0545L102.33 93.9572L102.318 93.7972L102.291 93.6957L102.094 93.4066C101.979 93.1742 101.759 93.0102 101.642 92.78C101.573 92.6466 101.447 92.5466 101.374 92.417C101.293 92.2758 101.185 92.1529 101.086 92.0253L100.914 91.869C100.958 91.6706 100.759 91.6196 100.715 91.4717C100.655 91.2717 100.425 91.1758 100.366 90.9665C100.326 90.8212 100.189 90.7253 100.119 90.592C99.9914 90.3493 99.7754 90.1638 99.6461 89.9185C99.5288 89.6957 99.3741 89.4957 99.2661 89.2665C99.1527 89.0264 99.0154 88.8024 98.8994 88.5649C98.6927 88.1478 98.4581 87.7465 98.2381 87.3372C98.0968 87.0745 97.9327 86.8265 97.7967 86.5572C97.6927 86.3492 97.5461 86.1665 97.4141 85.9745L97.1714 85.6478C97.1301 85.5958 97.0701 85.5638 96.8994 85.6678L96.7954 85.6825C96.678 85.6438 96.5834 85.6785 96.4048 85.8372L96.1341 86.0412C95.9061 86.1865 95.8367 86.2852 95.9167 86.3625C96.0461 86.4852 96.1367 86.6332 96.254 86.7652C96.3967 86.9225 96.5154 87.0932 96.598 87.2892C96.6554 87.4252 96.7367 87.5478 96.8287 87.6612L97.0101 87.9318L97.1074 88.1305L97.1034 88.1318L97.1287 88.1732L97.1314 88.1705L97.2087 88.2332L97.3048 88.4758C97.3474 88.5452 97.274 88.6905 97.454 88.6717V88.7222C97.5047 88.817 97.4234 88.9982 97.6447 88.9826L97.6567 89.04L97.6754 89.1466L97.7354 89.116L97.6768 89.1425L97.682 89.2133L97.8874 89.469L97.9341 89.5665C98.0221 89.5905 98.1194 89.6076 98.0567 89.7357L98.1688 89.7878L98.1674 89.7862L98.154 89.8946L98.1567 89.8905L98.2408 90.017L98.2847 90.0133Z" fill="#1A1818"/>
<path d="M87.9729 97.204L88.0141 97.1837C88.0315 97.0425 87.8822 96.9518 87.8982 96.804L87.7875 96.4946C87.6782 96.3144 87.6182 96.1185 87.5568 95.9238C87.4595 95.6092 87.3288 95.304 87.2408 94.9862C87.1942 94.8144 87.1088 94.6518 87.0822 94.4733C87.0502 94.2613 86.9235 94.0774 86.8968 93.8624C86.8768 93.7144 86.7902 93.5852 86.7395 93.4452C86.6622 93.2305 86.6182 93.005 86.5008 92.8024L86.4221 92.5998L86.4008 92.3826L86.3822 92.1102L86.3315 91.805L86.1515 91.7769C85.9622 91.8076 85.7982 91.916 85.7928 92.0118L85.7661 92.1185L85.6755 92.0477C85.6315 92.0076 85.5701 91.9733 85.4355 92.0076C85.3141 92.04 85.2235 92.0972 85.1568 92.1586L85.1382 92.2545L85.1048 92.4133L85.1035 92.5185L85.2168 92.8529C85.2635 93.1118 85.4315 93.3316 85.4835 93.5862C85.5128 93.7357 85.6075 93.869 85.6435 94.0144C85.6822 94.1742 85.7541 94.3228 85.8141 94.4742L85.9395 94.6733C85.8422 94.8545 86.0195 94.9586 86.0221 95.1133C86.0261 95.3264 86.2235 95.481 86.2235 95.7024C86.2235 95.8529 86.3301 95.9852 86.3608 96.1332C86.4181 96.405 86.5768 96.6452 86.6342 96.917C86.6862 97.1681 86.7835 97.404 86.8248 97.6586C86.8688 97.9212 86.9408 98.1758 86.9902 98.44C87.0742 98.9014 87.1928 99.3561 87.2941 99.8144C87.3595 100.109 87.4529 100.395 87.5089 100.693C87.5555 100.924 87.6461 101.142 87.7221 101.365C87.7661 101.496 87.8181 101.623 87.8688 101.75C87.8928 101.812 87.9435 101.857 88.1342 101.804L88.2382 101.82C88.3422 101.89 88.4435 101.883 88.6568 101.778L88.9729 101.656C89.2315 101.577 89.3262 101.501 89.2702 101.404C89.1782 101.249 89.1301 101.08 89.0528 100.92C88.9581 100.726 88.8901 100.529 88.8635 100.316C88.8448 100.168 88.7982 100.026 88.7408 99.8905L88.6395 99.5774L88.5995 99.3572H88.6035L88.5888 99.3102L88.5861 99.3118L88.5301 99.229L88.5021 98.9681C88.4795 98.8889 88.5902 98.7681 88.4115 98.7348L88.4248 98.6878C88.4021 98.581 88.5288 98.429 88.3102 98.381L88.3141 98.3238L88.3262 98.216L88.2595 98.2253L88.3221 98.2185L88.3368 98.1477L88.2089 97.8409L88.1902 97.7348L88.1182 97.5373L88.0235 97.4529L88.0248 97.4561L88.0661 97.3545L88.0635 97.3586L88.0155 97.2118L87.9729 97.204Z" fill="#1A1818"/>
<path d="M75.3686 100.114L75.4139 100.104C75.4565 99.9612 75.3259 99.8372 75.3686 99.6904L75.3205 99.3503C75.2458 99.1435 75.2219 98.9304 75.1992 98.7195C75.1619 98.3768 75.0899 98.0383 75.0645 97.6945C75.0499 97.5065 74.9952 97.3252 75.0032 97.1372C75.0099 96.9117 74.9205 96.6981 74.9339 96.4732C74.9432 96.3169 74.8819 96.168 74.8579 96.0132C74.8205 95.7784 74.8192 95.5383 74.7419 95.3065L74.7032 95.0825L74.7245 94.8544L74.7552 94.5716L74.7618 94.2492L74.5898 94.1836C74.3992 94.1768 74.2178 94.2544 74.1952 94.3517L74.1472 94.456L74.0712 94.3637C74.0366 94.3159 73.9832 94.268 73.8432 94.2757C73.7192 94.2825 73.6192 94.3237 73.5406 94.3732L73.5059 94.468L73.4432 94.6237L73.4219 94.7304C73.4539 94.8517 73.4712 94.9732 73.4699 95.0971C73.4685 95.3705 73.5925 95.6289 73.5965 95.9023C73.5979 96.0612 73.6659 96.2169 73.6739 96.3741C73.6819 96.5465 73.7258 96.7117 73.7565 96.8799L73.8419 97.1091C73.7125 97.2741 73.8686 97.4169 73.8432 97.5773C73.8059 97.7945 73.9699 97.9945 73.9299 98.2211C73.9005 98.3757 73.9805 98.5315 73.9845 98.6904C73.9898 98.9799 74.1019 99.2585 74.1072 99.5503C74.1126 99.8159 74.1618 100.078 74.1565 100.345C74.1512 100.625 74.1739 100.901 74.1725 101.18C74.1699 101.672 74.2005 102.161 74.2165 102.65C74.2259 102.966 74.2632 103.278 74.2632 103.596C74.2645 103.841 74.3139 104.084 74.3459 104.328C74.3659 104.469 74.3939 104.61 74.4192 104.752C74.4312 104.818 74.4726 104.877 74.6712 104.86L74.7712 104.897C74.8579 104.992 74.9579 105.004 75.1885 104.941L75.5219 104.88C75.7912 104.85 75.8992 104.792 75.8605 104.681C75.8005 104.504 75.7859 104.321 75.7379 104.142C75.6806 103.925 75.6499 103.707 75.6645 103.484C75.6752 103.329 75.6552 103.174 75.6219 103.025L75.5818 102.683L75.5832 102.448L75.5872 102.449L75.5818 102.397L75.5779 102.398L75.5392 102.304L75.5605 102.03C75.5525 101.943 75.6832 101.842 75.5152 101.774L75.5365 101.726C75.5339 101.613 75.6872 101.483 75.4818 101.39L75.4965 101.331L75.5285 101.224L75.4605 101.221L75.5232 101.225L75.5512 101.156L75.4818 100.817L75.4832 100.702L75.4499 100.485L75.3725 100.383V100.385L75.4326 100.288L75.4285 100.29L75.4099 100.131L75.3686 100.114Z" fill="#1A1818"/>
</svg>
