<svg width="64" height="64" viewBox="0 0 64 64" fill="none" xmlns="http://www.w3.org/2000/svg">
<g filter="url(#filter0_b_18_1094)">
<path d="M0 32C0 14.3269 14.3269 0 32 0C49.6731 0 64 14.3269 64 32C64 49.6731 49.6731 64 32 64C14.3269 64 0 49.6731 0 32Z" fill="white" fill-opacity="0.88"/>
<path d="M31.9999 36.33C29.6099 36.33 27.6699 34.39 27.6699 32C27.6699 29.61 29.6099 27.67 31.9999 27.67C34.3899 27.67 36.3299 29.61 36.3299 32C36.3299 34.39 34.3899 36.33 31.9999 36.33ZM31.9999 29.17C30.4399 29.17 29.1699 30.44 29.1699 32C29.1699 33.56 30.4399 34.83 31.9999 34.83C33.5599 34.83 34.8299 33.56 34.8299 32C34.8299 30.44 33.5599 29.17 31.9999 29.17Z" fill="#136A99"/>
<path d="M32.0001 41.02C28.2401 41.02 24.6901 38.82 22.2501 35C21.1901 33.35 21.1901 30.66 22.2501 29C24.7001 25.18 28.2501 22.98 32.0001 22.98C35.7501 22.98 39.3001 25.18 41.7401 29C42.8001 30.65 42.8001 33.34 41.7401 35C39.3001 38.82 35.7501 41.02 32.0001 41.02ZM32.0001 24.48C28.7701 24.48 25.6801 26.42 23.5201 29.81C22.7701 30.98 22.7701 33.02 23.5201 34.19C25.6801 37.58 28.7701 39.52 32.0001 39.52C35.2301 39.52 38.3201 37.58 40.4801 34.19C41.2301 33.02 41.2301 30.98 40.4801 29.81C38.3201 26.42 35.2301 24.48 32.0001 24.48Z" fill="#136A99"/>
</g>
<defs>
<filter id="filter0_b_18_1094" x="-12" y="-12" width="88" height="88" filterUnits="userSpaceOnUse" color-interpolation-filters="sRGB">
<feFlood flood-opacity="0" result="BackgroundImageFix"/>
<feGaussianBlur in="BackgroundImageFix" stdDeviation="6"/>
<feComposite in2="SourceAlpha" operator="in" result="effect1_backgroundBlur_18_1094"/>
<feBlend mode="normal" in="SourceGraphic" in2="effect1_backgroundBlur_18_1094" result="shape"/>
</filter>
</defs>
</svg>
