<svg width="136" height="136" viewBox="0 0 136 136" fill="none" xmlns="http://www.w3.org/2000/svg">
<path d="M136 68.0007C136 105.556 105.556 136 68.0007 136C30.444 136 0 105.556 0 68.0007C0 30.4439 30.444 -0.00140381 68.0007 -0.00140381C105.556 -0.00140381 136 30.4439 136 68.0007Z" fill="#F3EDE6"/>
<path d="M26.0602 76.2031L26.0148 76.2377C25.9962 76.8644 26.1602 77.4671 26.1442 78.1191C26.1188 78.6044 26.2282 79.1511 26.3202 79.6617C26.5055 80.6111 26.5895 81.5818 26.7908 82.5244C26.9388 83.2898 27.0748 84.0578 27.2482 84.8178L27.8188 87.0871C28.0082 87.9124 28.3362 88.6991 28.5468 89.5164C28.7908 90.4991 29.2415 91.4044 29.5575 92.3617C29.7695 93.0311 30.0775 93.6617 30.3855 94.2924C30.8415 95.2684 31.2375 96.2751 31.8122 97.1924C31.9828 97.4831 32.2108 97.7657 32.3028 98.0924C32.3988 98.4244 32.5575 98.7178 32.7348 99.0084C32.9735 99.3644 33.1655 99.7404 33.3322 100.119C33.5295 100.564 33.7735 100.974 34.0468 101.38C34.1775 101.574 34.2748 101.612 34.3828 101.606C34.6068 101.592 34.6348 101.26 34.4441 100.88C34.3748 100.743 34.2922 100.61 34.2668 100.468L34.5535 100.811C34.7002 100.991 34.8642 101.166 35.0002 101.11C35.1215 101.059 35.1442 100.886 35.1215 100.683C35.1068 100.548 35.0242 100.43 34.9522 100.311C34.8322 100.114 34.7188 99.9204 34.6815 99.7071C34.6562 99.5617 34.5575 99.4231 34.4721 99.2951C34.1788 98.8377 33.8708 98.3897 33.6455 97.8951C33.1348 96.8124 32.4322 95.8338 31.9962 94.7111C31.7255 94.0684 31.3802 93.4458 31.1135 92.8071C30.8535 92.0951 30.5642 91.4057 30.2855 90.7057C30.1548 90.3804 30.0455 90.0404 29.8775 89.7458C29.8215 89.0564 29.4762 88.4364 29.3135 87.7617C29.0842 86.8524 28.7575 85.9577 28.5735 84.9977C28.4388 84.3377 28.2695 83.6418 28.1495 82.9511C27.9122 81.6964 27.6802 80.4444 27.5495 79.1671C27.4202 78.0017 27.3708 76.8231 27.3081 75.6471C27.3428 74.4231 27.2842 73.1978 27.3775 71.9751C27.5108 69.8204 27.7042 67.6658 28.0908 65.5431C28.3015 64.1711 28.5988 62.8151 28.9282 61.4684L29.7508 58.3284L30.3122 56.5231C30.4002 56.2351 30.4535 55.9644 30.2615 55.8831L30.2322 55.6551C30.2975 55.1978 30.2335 55.0658 29.9455 55.1551C29.8068 55.1978 29.6935 55.1951 29.5735 55.1551C29.3055 55.0671 29.1255 55.2351 28.9895 55.7297C28.7775 56.5337 28.4828 57.3138 28.2908 58.1191C28.0695 59.0964 27.7895 60.0498 27.5255 61.0151C27.3535 61.6871 27.2082 62.3764 27.0802 63.0538C26.9722 63.5618 26.8722 64.0711 26.8108 64.5898C26.7708 64.9244 26.7442 65.2951 26.6202 65.6231L26.6162 65.6191L26.5788 65.8484L26.5842 65.8444C26.4895 66.0004 26.6108 66.1218 26.5442 66.2911C26.3882 66.6684 26.4002 67.0937 26.3508 67.5031C26.3095 67.8911 26.1228 68.2724 26.2508 68.6738L26.2041 68.8697C26.1321 69.3777 25.9242 69.8884 26.1122 70.4111L26.0788 70.6684C26.0495 70.8231 26.0095 70.9738 26.0122 71.1404L26.0802 71.1818L26.0175 71.1311L25.9682 71.4297C26.0162 71.9484 25.9495 72.4684 25.9522 72.9911C25.9495 73.1618 25.9042 73.3177 25.9442 73.5031C26.0108 73.8257 26.0895 74.1431 25.9668 74.5017C25.9215 74.6337 25.9748 74.8524 26.0401 75.0004V74.9884C26.0415 75.1391 26.0548 75.2951 25.9721 75.3937L25.9775 75.3844C25.9908 75.6271 25.9162 75.8738 26.0135 76.1124L26.0602 76.2031Z" fill="#1A1818"/>
<path d="M37.5037 38.2377L37.5464 38.1977C37.5344 37.5351 37.1997 36.8258 36.6304 36.2098C36.1771 35.7498 35.5317 35.4884 34.8757 35.4991C34.2571 35.4671 33.6357 35.7284 33.205 36.0711C32.7517 36.4084 32.437 36.8177 32.1704 37.2257C31.3197 38.5617 30.9464 39.9858 30.5571 41.3858C30.3637 42.1484 30.2264 42.9244 30.0611 43.6858C29.8531 44.5964 29.7851 45.5217 29.6224 46.4337C29.5104 47.0684 29.4811 47.7151 29.4197 48.3551C29.3237 49.3404 29.2144 50.3244 29.1931 51.3138C29.1864 51.6244 29.2331 51.9551 29.1437 52.2538C29.0517 52.5578 29.0451 52.8644 29.0411 53.1764C29.0384 53.5698 28.9877 53.9551 28.9197 54.3284C28.8357 54.7684 28.8171 55.2044 28.8264 55.6564C28.8317 55.8698 28.8931 55.9497 28.9877 56.0031C29.1837 56.1111 29.3851 55.8698 29.4304 55.4804C29.4491 55.3404 29.4504 55.1964 29.5064 55.0751C29.5637 55.1951 29.5451 55.3471 29.5611 55.4844C29.5851 55.6978 29.6291 55.9178 29.7744 55.9458C29.9051 55.9698 30.0157 55.8498 30.1064 55.6818C30.1664 55.5724 30.1611 55.4378 30.1664 55.3098C30.1731 55.0964 30.185 54.8884 30.2704 54.7044C30.3304 54.5791 30.3237 54.4204 30.3237 54.2778C30.3251 53.7738 30.3504 53.2711 30.3944 52.7684C30.4931 51.6617 30.4797 50.5498 30.6131 49.4444C30.6904 48.8004 30.7077 48.1417 30.7931 47.5057C30.8771 46.8111 30.9611 46.1244 31.0451 45.4324C31.0891 45.1124 31.1704 44.7911 31.1384 44.4737C31.3944 43.8897 31.3731 43.2351 31.5531 42.6231C31.8051 41.8018 31.8717 40.9191 32.2197 40.1044C32.4637 39.5511 32.629 38.9217 32.9357 38.3964C33.453 37.4364 34.1744 36.5604 35.0437 36.8004C35.8891 36.9911 36.2877 37.7617 36.2557 38.7977C36.2451 39.8297 35.9984 40.9231 35.669 41.9791C35.0717 43.8471 34.2944 45.6871 33.4304 47.4831C32.8744 48.6404 32.3104 49.7964 31.6891 50.9231C31.2144 51.8124 30.7424 52.6964 30.269 53.5831L29.4277 55.1244C29.2931 55.3684 29.1957 55.6044 29.3677 55.7218L29.3571 55.9351C29.2144 56.3364 29.2531 56.4671 29.5504 56.4511C29.6917 56.4431 29.8024 56.4711 29.9117 56.5324C30.1571 56.6724 30.3637 56.5591 30.5784 56.1391C30.9397 55.4537 31.2877 54.7951 31.6451 54.1191C32.0584 53.3004 32.4824 52.4924 32.9397 51.6964C33.2571 51.1431 33.5464 50.5658 33.8104 49.9911C34.0104 49.5578 34.2424 49.1391 34.4277 48.6964C34.5504 48.4124 34.6584 48.0871 34.8571 47.8297L34.8597 47.8351L34.9491 47.6404L34.9437 47.6417C35.0704 47.5311 34.9811 47.3858 35.0811 47.2524C35.3064 46.9538 35.4291 46.5844 35.5744 46.2324C35.7171 45.9017 35.9917 45.6151 35.9637 45.2191L36.0571 45.0578C36.2357 44.6164 36.5677 44.2204 36.5277 43.7017L36.6237 43.4804C36.6904 43.3498 36.7691 43.2257 36.8064 43.0737L36.7504 43.0178L36.7984 43.0818L36.9131 42.8218C36.9984 42.3418 37.1344 41.8684 37.2664 41.3911C37.3037 41.2338 37.3784 41.0951 37.3784 40.9138C37.3837 40.6018 37.3451 40.2857 37.5224 39.9591C37.5931 39.8417 37.5477 39.6124 37.4971 39.4631V39.4737C37.5064 39.3258 37.5091 39.1724 37.5944 39.0764L37.5891 39.0858C37.5624 38.8364 37.6637 38.5831 37.5584 38.3337L37.5037 38.2377Z" fill="#1A1818"/>
<path d="M31.5895 46.4899L31.5401 46.4858C31.4281 46.6552 31.4921 46.8725 31.3761 47.0485C31.2908 47.1778 31.2722 47.3525 31.2548 47.5138C31.2228 47.8178 31.1388 48.1085 31.0548 48.3952C30.9202 48.8618 30.8201 49.3365 30.6735 49.7992C30.5948 50.0498 30.5548 50.3125 30.4535 50.5565C30.3335 50.8485 30.3135 51.1685 30.1882 51.4579C30.1015 51.6592 30.0855 51.8818 30.0322 52.0925C29.9495 52.4192 29.8308 52.7338 29.7895 53.0712L29.7148 53.3818L29.5815 53.6712C29.5628 53.8045 29.4975 53.9218 29.4108 54.0298C29.3081 54.1552 29.2641 54.2965 29.2441 54.4485L29.3748 54.6098C29.5548 54.6992 29.7655 54.6765 29.8362 54.5579L29.9335 54.4418L29.9602 54.5952C29.9695 54.6738 29.9962 54.7592 30.1335 54.8098C30.2575 54.8538 30.3735 54.8432 30.4721 54.8112L30.5535 54.7018L30.6908 54.5245L30.7642 54.3925C30.7922 54.2205 30.8388 54.0539 30.9015 53.8912C31.0375 53.5325 31.0495 53.1392 31.1815 52.7805C31.2601 52.5698 31.2721 52.3378 31.3428 52.1285C31.4201 51.8992 31.4615 51.6632 31.5161 51.4285C31.5415 51.3192 31.5975 51.2179 31.5495 51.0912C31.7548 50.9299 31.6775 50.6752 31.7828 50.4765C31.9255 50.2058 31.8681 49.8738 32.0188 49.5952C32.1241 49.4032 32.1255 49.1645 32.2028 48.9538C32.3415 48.5712 32.3735 48.1592 32.5135 47.7752C32.6415 47.4232 32.7242 47.0578 32.8642 46.7072C33.0082 46.3432 33.1242 45.9712 33.2642 45.6058C33.5122 44.9618 33.7255 44.3072 33.9562 43.6565C34.1042 43.2392 34.2255 42.8125 34.3815 42.3965C34.5041 42.0738 34.5775 41.7338 34.6682 41.4005C34.7202 41.2058 34.7641 41.0085 34.8095 40.8125C34.8321 40.7192 34.8215 40.6245 34.6242 40.5605L34.5468 40.4712C34.5095 40.3098 34.4202 40.2498 34.1682 40.2338C34.0482 40.2258 33.9401 40.2058 33.8188 40.1712C33.5481 40.0925 33.4162 40.1245 33.3975 40.2845C33.3668 40.5445 33.2895 40.7912 33.2455 41.0472C33.1921 41.3552 33.1121 41.6538 32.9868 41.9418C32.9015 42.1418 32.8428 42.3512 32.7975 42.5618C32.7642 42.7205 32.6935 42.8685 32.6668 43.0298L32.5495 43.3352L32.5441 43.3325L32.5242 43.4018H32.5282L32.5188 43.5445C32.4028 43.6378 32.4002 43.7725 32.3615 43.8952C32.3255 44.0112 32.1495 44.0872 32.2761 44.2512L32.2335 44.3032C32.1788 44.4525 31.9668 44.5592 32.1175 44.7685L32.0735 44.8392L31.9895 44.9685L32.0535 45.0005L31.9948 44.9672L31.9348 45.0458C31.9495 45.2178 31.8908 45.3685 31.8308 45.5205L31.7735 45.6698C31.8068 45.7832 31.8495 45.9005 31.6975 45.9698L31.7188 46.1392L31.7201 46.1352L31.6148 46.2352L31.6201 46.2338L31.5588 46.4512L31.5895 46.4899Z" fill="#1A1818"/>
<path d="M43.5803 56.8031L43.6376 56.7911C43.9776 56.2218 44.0683 55.4418 43.9109 54.6191C43.7683 53.9884 43.3589 53.4258 42.7963 53.0871C42.2883 52.7338 41.6216 52.6285 41.0763 52.6911C40.5123 52.7378 40.0296 52.9204 39.5869 53.1231C38.1589 53.8098 37.0896 54.8218 36.0203 55.8044C35.4523 56.3498 34.9256 56.9364 34.3829 57.4938C33.7269 58.1578 33.1789 58.9071 32.5589 59.5964C32.1283 60.0764 31.7616 60.6084 31.3722 61.1191C30.7696 61.9058 30.1563 62.6831 29.6163 63.5124C29.4469 63.7738 29.3123 64.0791 29.0776 64.2844C28.8389 64.4938 28.6709 64.7511 28.5029 65.0138C28.2922 65.3458 28.0469 65.6471 27.7909 65.9271C27.4869 66.2564 27.2416 66.6164 27.0109 67.0058C26.9016 67.1898 26.9109 67.2911 26.9643 67.3871C27.0736 67.5804 27.3723 67.4818 27.6163 67.1764L27.8949 66.8711C27.8789 67.0031 27.7843 67.1231 27.7243 67.2484C27.6323 67.4431 27.5536 67.6511 27.6629 67.7524C27.7603 67.8418 27.9176 67.7978 28.0843 67.7044L28.3309 67.4204C28.4496 67.2418 28.5696 67.0711 28.7389 66.9618C28.8562 66.8858 28.9336 66.7484 29.0109 66.6271C29.2776 66.1991 29.5643 65.7858 29.8683 65.3818C30.5363 64.4951 31.1109 63.5431 31.8096 62.6751C32.2149 62.1698 32.5776 61.6191 32.9856 61.1258C33.4256 60.5804 33.8589 60.0404 34.2963 59.4978C34.5029 59.2498 34.7403 59.0191 34.8816 58.7324C35.4083 58.3724 35.7349 57.8058 36.2109 57.3818C36.8603 56.8164 37.3816 56.1031 38.1083 55.5938C38.6083 55.2538 39.0816 54.8071 39.6189 54.5245C40.5656 53.9818 41.6403 53.6191 42.2523 54.2818C42.8696 54.8898 42.7989 55.7551 42.2256 56.6178C41.6723 57.4884 40.8843 58.2858 40.0456 59.0084C38.5523 60.2791 36.9202 61.4298 35.2376 62.5004C34.1549 63.1871 33.0643 63.8711 31.9403 64.5004L29.3296 66.0071L27.8016 66.8711C27.5576 67.0084 27.3509 67.1564 27.4362 67.3471L27.3136 67.5231C26.9816 67.7871 26.9442 67.9204 27.2042 68.0631C27.3296 68.1311 27.4083 68.2138 27.4683 68.3244C27.6029 68.5724 27.8389 68.5844 28.2416 68.3404C28.9123 67.9498 29.5549 67.5751 30.2149 67.1911C30.9989 66.7124 31.7856 66.2511 32.5949 65.8178C33.1563 65.5151 33.7069 65.1778 34.2349 64.8298C34.6349 64.5671 35.0523 64.3338 35.4429 64.0564C35.6976 63.8791 35.9616 63.6604 36.2656 63.5471L36.2643 63.5524L36.4443 63.4351L36.4389 63.4338C36.6042 63.4058 36.6056 63.2351 36.7616 63.1751C37.1096 63.0404 37.4096 62.7924 37.7189 62.5711C38.0136 62.3658 38.3989 62.2658 38.5856 61.9164L38.7496 61.8271C39.1336 61.5484 39.6256 61.3871 39.8643 60.9258L40.0643 60.7884C40.1896 60.7124 40.3216 60.6484 40.4336 60.5391L40.4149 60.4618L40.4229 60.5418L40.6576 60.3818C40.9829 60.0204 41.3483 59.6898 41.7136 59.3538C41.8283 59.2391 41.9656 59.1631 42.0603 59.0084C42.2309 58.7458 42.3643 58.4578 42.6869 58.2738C42.8083 58.2111 42.8923 57.9924 42.9283 57.8378L42.9216 57.8471C43.0083 57.7271 43.0909 57.5991 43.2136 57.5618L43.2056 57.5671C43.3149 57.3418 43.5349 57.1791 43.5763 56.9124L43.5803 56.8031Z" fill="#1A1818"/>
<path d="M34.1973 60.682L34.1587 60.654C33.9733 60.738 33.9133 60.9553 33.7227 61.0446C33.5813 61.1099 33.472 61.2473 33.372 61.3753C33.184 61.6153 32.96 61.818 32.7373 62.018C32.376 62.342 32.04 62.6926 31.672 63.0073C31.472 63.1793 31.2987 63.3819 31.0853 63.5353C30.828 63.7193 30.6426 63.9793 30.3826 64.1593C30.204 64.2846 30.072 64.466 29.9146 64.6166C29.6733 64.85 29.4053 65.054 29.192 65.318C29.124 65.4006 29.088 65.5286 28.964 65.5433C28.8387 65.5593 28.768 65.638 28.6987 65.7193C28.612 65.822 28.4947 65.8873 28.364 65.9326C28.2107 65.9859 28.0987 66.0819 28 66.2006L28.0267 66.4059C28.132 66.5779 28.324 66.6699 28.4466 66.6059L28.5907 66.5593L28.532 66.7019L28.5667 66.9766L28.8507 67.158L28.9786 67.1073L29.1893 67.0286L29.3213 66.9566C29.436 66.8246 29.564 66.7073 29.7026 66.6019C30.008 66.3699 30.2253 66.0419 30.5293 65.8073C30.7053 65.6699 30.8386 65.4793 31.0093 65.3393C31.196 65.1859 31.356 65.0073 31.5267 64.8366C31.6053 64.7579 31.7067 64.7006 31.732 64.5686C31.992 64.5393 32.0613 64.2819 32.256 64.1699C32.5187 64.0153 32.6453 63.7019 32.9227 63.5459C33.1133 63.4379 33.24 63.2366 33.416 63.0979C33.736 62.8473 33.9813 62.5139 34.304 62.2606C34.5973 62.0313 34.8613 61.7633 35.164 61.5406C35.4787 61.3086 35.7747 61.0526 36.0867 60.8166C36.6373 60.4006 37.1653 59.9579 37.704 59.5273C38.0506 59.2513 38.3787 58.9526 38.7307 58.6833C39.0053 58.4726 39.2467 58.2233 39.5 57.9873C39.648 57.85 39.7893 57.7073 39.9307 57.5646C40 57.4966 40.04 57.4113 39.9066 57.2526L39.8893 57.1339C39.9427 56.9779 39.8987 56.8793 39.692 56.7339L39.4293 56.4966C39.2413 56.2859 39.112 56.2433 39.0106 56.3686C38.848 56.5739 38.652 56.7419 38.48 56.9366C38.2706 57.1699 38.0453 57.3819 37.788 57.5593C37.6093 57.6833 37.448 57.8313 37.2987 57.986C37.1867 58.1033 37.048 58.1913 36.94 58.3139C36.872 58.3926 36.8066 58.4939 36.6786 58.5113L36.6773 58.5059L36.6227 58.5553L36.6267 58.5566L36.5426 58.6726C36.396 58.6899 36.3213 58.8046 36.224 58.8873C36.132 58.9673 35.9427 58.9393 35.964 59.1446L35.9 59.1659C35.7747 59.2646 35.5387 59.2419 35.556 59.5006L35.4813 59.5366L35.3413 59.6019L35.3786 59.6633L35.3466 59.6046L35.2533 59.6393C35.176 59.7926 35.0453 59.89 34.9146 59.9873L34.7867 60.0833C34.7547 60.198 34.7307 60.3193 34.564 60.2979L34.4933 60.4526L34.496 60.45L34.3533 60.4793L34.36 60.4806L34.192 60.6326L34.1973 60.682Z" fill="#1A1818"/>
<path d="M17.2903 50.9097L17.3396 50.8857C17.3783 50.4217 17.3703 49.9964 17.6383 49.7617C17.8103 49.623 18.105 49.3871 18.3863 49.3217C18.8716 49.1151 19.5036 49.5391 20.0049 50.1204C20.8263 51.0844 21.4569 52.3524 21.9716 53.6284C22.2409 54.3324 22.5383 55.0324 22.7423 55.7631C22.9956 56.6324 23.3156 57.4817 23.5183 58.3684C23.6596 58.9844 23.8623 59.5871 24.021 60.2004C24.2676 61.1444 24.4543 62.1044 24.709 63.0497C24.789 63.3457 24.9236 63.6484 24.913 63.9577C24.9036 64.2724 24.9703 64.5671 25.0436 64.8657C25.1356 65.2444 25.177 65.6271 25.189 66.0017C25.205 66.4431 25.2756 66.8671 25.3703 67.2991C25.4143 67.5031 25.4876 67.5697 25.5903 67.6017C25.8023 67.6697 25.9596 67.4057 25.929 67.0137C25.9183 66.8724 25.893 66.7297 25.9223 66.6004C26.0023 66.7071 26.0143 66.8604 26.057 66.9924C26.1223 67.1977 26.2063 67.4044 26.3543 67.4071C26.4863 67.4097 26.5743 67.2671 26.6316 67.0831C26.669 66.9617 26.6383 66.8271 26.617 66.6991C26.581 66.4844 26.5463 66.2764 26.5916 66.0764C26.6223 65.9377 26.581 65.7831 26.549 65.6417C26.437 65.1417 26.3383 64.6417 26.2543 64.1351C26.0676 63.0217 25.737 61.9457 25.5063 60.8377C25.373 60.1924 25.1623 59.5564 25.0076 58.9217C24.8396 58.2271 24.625 57.5524 24.413 56.8737C24.3143 56.5591 24.237 56.2284 24.0663 55.9511C24.0196 55.2991 23.6716 54.7191 23.4903 54.0871C23.233 53.2257 22.7636 52.4444 22.4076 51.5737C22.153 50.9711 21.7663 50.3871 21.3623 49.8137C21.009 49.2871 20.5476 48.7924 19.9383 48.4204C19.3449 48.0351 18.4703 47.8924 17.753 48.1644C17.1343 48.3657 16.5143 48.8924 16.265 49.5444C15.9996 50.1884 15.9876 50.8404 16.041 51.4337C16.145 52.6884 16.561 53.8111 16.9916 54.9031C17.773 56.8244 18.781 58.6137 19.8316 60.3604C20.5103 61.483 21.2423 62.5697 21.9636 63.6617C22.5263 64.5124 23.1463 65.3271 23.761 66.1417L24.8583 67.5444C25.037 67.7657 25.2236 67.9471 25.3956 67.8297L25.593 67.9191C25.9183 68.2004 26.0583 68.2097 26.145 67.9244C26.1863 67.7884 26.253 67.6951 26.349 67.6151C26.5663 67.4337 26.5356 67.207 26.2316 66.8604C25.7383 66.295 25.2863 65.6937 24.817 65.1097C24.2503 64.4017 23.7156 63.6751 23.229 62.9124C22.8903 62.3831 22.5289 61.8604 22.1689 61.3511C21.9076 60.9577 21.6543 60.5751 21.3903 60.1764C21.213 59.9297 21.0103 59.6617 20.9063 59.3617H20.913L20.801 59.1844L20.7996 59.1897C20.7783 59.0271 20.6143 59.0177 20.5636 58.8617C20.4516 58.5137 20.2263 58.2097 20.0436 57.8884C19.8663 57.5844 19.821 57.2017 19.509 56.9804L19.445 56.8111C19.2343 56.4004 19.1703 55.9137 18.7903 55.5991L18.709 55.3831C18.669 55.2484 18.637 55.1137 18.5663 54.9844L18.4876 54.9831L18.565 54.995L18.489 54.7377C18.2383 54.3511 18.081 53.9204 17.9276 53.4911C17.885 53.3511 17.8836 53.2084 17.7956 53.0697C17.6356 52.8297 17.4996 52.5844 17.5383 52.2604L17.381 51.8684L17.3823 51.8777C17.3596 51.7564 17.3183 51.6284 17.389 51.5377L17.385 51.5457C17.3516 51.3577 17.4183 51.1564 17.3303 50.9777L17.2903 50.9097Z" fill="#1A1818"/>
<path d="M21.4959 58.9272L21.4559 58.9553C21.4812 59.1579 21.6719 59.2806 21.6985 59.4886C21.7185 59.6433 21.8172 59.7873 21.9092 59.9219C22.0825 60.1726 22.2092 60.4486 22.3332 60.7206C22.5345 61.1619 22.7679 61.5872 22.9585 62.0339C23.0612 62.2752 23.2039 62.5019 23.2852 62.7513C23.3839 63.0513 23.5772 63.3072 23.6719 63.6072C23.7359 63.8166 23.8692 63.9966 23.9665 64.1913C24.1172 64.4926 24.2319 64.8086 24.4199 65.0913C24.4785 65.1806 24.5892 65.2539 24.5665 65.3766C24.5439 65.5006 24.5972 65.5913 24.6532 65.6819C24.7265 65.7953 24.7532 65.9272 24.7572 66.0646C24.7625 66.2272 24.8212 66.3632 24.9052 66.4926L25.1079 66.5286C25.3039 66.4792 25.4492 66.3246 25.4252 66.1886L25.4239 66.0366L25.5425 66.1366C25.6012 66.1899 25.6785 66.2366 25.8145 66.1846C25.9359 66.1393 26.0172 66.0552 26.0719 65.9672L26.0625 65.8312L26.0505 65.6072L26.0212 65.4579C25.9292 65.3099 25.8559 65.1526 25.7972 64.9886C25.6679 64.6286 25.4199 64.3219 25.2865 63.9619C25.2092 63.7539 25.0679 63.5686 24.9839 63.3646C24.8932 63.1406 24.7705 62.9326 24.6599 62.7206L24.4652 62.4432C24.5145 62.1859 24.2905 62.0433 24.2412 61.8246C24.1732 61.5273 23.9132 61.3126 23.8465 61.0019C23.7999 60.7872 23.6465 60.6059 23.5679 60.3966C23.4225 60.0166 23.1785 59.6819 23.0345 59.2992C22.9012 58.9486 22.7265 58.6166 22.6039 58.2619C22.4772 57.8926 22.3212 57.5326 22.1905 57.1646C21.9572 56.5152 21.6932 55.8792 21.4439 55.2352C21.2852 54.8219 21.0972 54.4206 20.9465 54.0032C20.8279 53.6779 20.6625 53.3726 20.5132 53.0606C20.4265 52.8792 20.3319 52.7006 20.2385 52.5219C20.1932 52.4366 20.1252 52.3726 19.9332 52.4526L19.8159 52.4339C19.6825 52.3366 19.5759 52.3486 19.3745 52.5019L19.0692 52.6806C18.8119 52.7979 18.7332 52.9086 18.8225 53.0419C18.9679 53.2592 19.0705 53.4966 19.2039 53.7193C19.3652 53.9886 19.4999 54.2672 19.5919 54.5659C19.6559 54.7739 19.7492 54.9726 19.8519 55.1606C19.9305 55.3032 19.9719 55.4606 20.0572 55.6006C20.1132 55.6912 20.1892 55.7819 20.1679 55.9086L20.1625 55.9099L20.1919 55.9766L20.1959 55.9739L20.2812 56.0873C20.2532 56.2339 20.3399 56.3379 20.3905 56.4553C20.4385 56.5673 20.3545 56.7393 20.5572 56.7819L20.5585 56.8486C20.6145 56.9979 20.5239 57.2166 20.7745 57.2779L20.7879 57.3592L20.8079 57.5126L20.8759 57.4952L20.8119 57.5072L20.8172 57.6072C20.9399 57.7272 20.9932 57.8806 21.0479 58.0352L21.0999 58.1859C21.2012 58.2499 21.3092 58.3099 21.2385 58.4632L21.3652 58.5766L21.3639 58.5726L21.3492 58.7166L21.3519 58.7126L21.4479 58.9179L21.4959 58.9272Z" fill="#1A1818"/>
<path d="M14.6191 76.7097L14.6525 76.6697C14.5058 76.2297 14.3298 75.8417 14.4831 75.5204C14.5858 75.3244 14.7631 74.9897 14.9951 74.8191C15.3605 74.4377 16.1071 74.5777 16.7978 74.9124C17.9338 75.4711 19.0151 76.3857 19.9925 77.3551C20.5191 77.8937 21.0698 78.4204 21.5471 79.0084C22.1231 79.7057 22.7525 80.3604 23.2911 81.0937C23.6645 81.6044 24.0884 82.0764 24.4778 82.5777C25.0778 83.3471 25.6284 84.1537 26.2378 84.9204C26.4284 85.1604 26.6725 85.3857 26.7845 85.6737C26.9005 85.9657 27.0791 86.2097 27.2645 86.4564C27.4978 86.7671 27.6871 87.1017 27.8471 87.4404C28.0378 87.8404 28.2698 88.2004 28.5271 88.5604C28.6485 88.731 28.7431 88.7617 28.8498 88.7524C29.0711 88.7311 29.1125 88.4244 28.9285 88.0777C28.8618 87.9524 28.7818 87.8324 28.7591 87.7004L29.0378 88.0071C29.1778 88.1697 29.3378 88.3257 29.4751 88.2697C29.5964 88.2191 29.6218 88.0551 29.6005 87.8631C29.5871 87.7364 29.5058 87.6257 29.4338 87.5177C29.3165 87.3337 29.2031 87.1551 29.1645 86.9537C29.1391 86.8151 29.0391 86.6897 28.9538 86.5724C28.6525 86.1564 28.3645 85.7364 28.0871 85.3071C27.4751 84.3577 26.7431 83.4991 26.0938 82.5737C25.7151 82.0337 25.2698 81.5324 24.8764 81.0124C24.4471 80.4417 23.9831 79.9071 23.5205 79.3671C23.3045 79.1177 23.1031 78.8444 22.8364 78.6564C22.5364 78.0777 21.9858 77.6831 21.5685 77.1737C20.9911 76.4844 20.2511 75.9524 19.5804 75.295C19.1084 74.8417 18.5205 74.4577 17.9231 74.0924C17.3898 73.7497 16.7698 73.4764 16.0631 73.3777C15.3658 73.2577 14.5071 73.4737 13.9551 74.0071C13.4671 74.4377 13.1071 75.1671 13.1364 75.8644C13.1471 76.5604 13.3951 77.1644 13.6778 77.6884C14.2698 78.7991 15.0965 79.6644 15.9258 80.4964C17.4031 81.9524 19.0365 83.1951 20.6938 84.3817C21.7618 85.1457 22.8645 85.8537 23.9591 86.5697C24.8138 87.1284 25.7045 87.6311 26.5911 88.1351L28.1551 88.9884C28.4058 89.1217 28.6498 89.2137 28.7605 89.0364L28.9778 89.0417C29.3884 89.1724 29.5205 89.1244 29.4858 88.8284C29.4711 88.6871 29.4951 88.5764 29.5511 88.4644C29.6791 88.2111 29.5618 88.0151 29.1444 87.8164C28.4684 87.4937 27.8151 87.1204 27.1525 86.7684C26.3511 86.3457 25.5738 85.8884 24.8231 85.3804C24.3045 85.0284 23.7645 84.6924 23.2325 84.3671C22.8365 84.1097 22.4525 83.8591 22.0525 83.5964C21.7911 83.4404 21.5005 83.2737 21.2858 83.0391L21.2911 83.0377L21.1191 82.9191L21.1205 82.9231C21.0351 82.7831 20.8804 82.8404 20.7724 82.7164C20.5324 82.4417 20.2044 82.2524 19.9098 82.0297C19.6258 81.8191 19.4338 81.4871 19.0591 81.4071L18.9338 81.2777C18.5778 80.9831 18.3258 80.5617 17.8525 80.4231L17.6925 80.2564L17.4018 79.9484L17.3311 79.9764L17.4044 79.9577L17.2338 79.7524C16.8511 79.4951 16.5365 79.1617 16.2258 78.8284C16.1298 78.7177 16.0724 78.587 15.9378 78.4937C15.6951 78.3377 15.4738 78.1657 15.3791 77.8537C15.3404 77.7417 15.2071 77.6217 15.0804 77.5551L15.0858 77.5631L14.9578 77.2497L14.9565 77.2577C14.8511 77.0977 14.8324 76.8871 14.6804 76.7577L14.6191 76.7097Z" fill="#1A1818"/>
<path d="M21.6548 82.4099L21.6294 82.4499C21.7321 82.6259 21.9548 82.6632 22.0628 82.8432C22.1428 82.9765 22.2894 83.0712 22.4281 83.1579C22.6868 83.3192 22.9108 83.5232 23.1334 83.7232C23.4921 84.0485 23.8761 84.3472 24.2268 84.6819C24.4174 84.8632 24.6374 85.0152 24.8121 85.2112C25.0214 85.4472 25.2987 85.6059 25.5054 85.8445C25.6481 86.0112 25.8414 86.1232 26.0081 86.2632C26.2641 86.4805 26.4948 86.7245 26.7801 86.9112C26.8694 86.9699 26.9988 86.9925 27.0281 87.1139C27.0574 87.2379 27.1414 87.3005 27.2294 87.3605C27.3401 87.4352 27.4174 87.5459 27.4761 87.6712C27.5441 87.8179 27.6521 87.9205 27.7801 88.0059L27.9814 87.9579C28.1414 87.8352 28.2134 87.6352 28.1374 87.5205L28.0761 87.3805L28.2254 87.4245L28.4934 87.3632L28.6441 87.0605L28.5814 86.9392L28.4828 86.7379L28.3961 86.6125C28.2534 86.5125 28.1227 86.3979 28.0041 86.2712C27.7427 85.9899 27.3948 85.8085 27.1294 85.5312C26.9748 85.3685 26.7721 85.2552 26.6148 85.1005C26.4428 84.9299 26.2481 84.7899 26.0614 84.6392C25.9748 84.5685 25.9067 84.4725 25.7721 84.4618C25.7174 84.2045 25.4548 84.1632 25.3214 83.9819C25.1428 83.7352 24.8174 83.6419 24.6334 83.3819C24.5068 83.2032 24.2934 83.0979 24.1374 82.9379C23.8547 82.6445 23.4974 82.4352 23.2134 82.1419C22.9534 81.8712 22.6614 81.6365 22.4081 81.3592C22.1441 81.0698 21.8601 80.8019 21.5934 80.5152C21.1228 80.0112 20.6281 79.5312 20.1454 79.0392C19.8348 78.7232 19.5041 78.4272 19.1988 78.1045C18.9614 77.8539 18.6894 77.6392 18.4281 77.4112C18.2761 77.2779 18.1201 77.1512 17.9628 77.0258C17.8881 76.9645 17.7988 76.9325 17.6548 77.0832L17.5401 77.1112C17.3787 77.0752 17.2854 77.1285 17.1614 77.3485L16.9521 77.6352C16.7628 77.8432 16.7334 77.9765 16.8694 78.0632C17.0894 78.2045 17.2774 78.3819 17.4868 78.5339C17.7414 78.7165 17.9748 78.9205 18.1788 79.1579C18.3201 79.3232 18.4841 79.4685 18.6534 79.6005C18.7814 79.6992 18.8828 79.8285 19.0161 79.9232C19.1014 79.9832 19.2081 80.0378 19.2387 80.1632L19.2348 80.1659L19.2881 80.2139L19.2894 80.2112L19.4134 80.2819C19.4468 80.4272 19.5681 80.4885 19.6601 80.5765C19.7494 80.6592 19.7401 80.8525 19.9427 80.8099L19.9707 80.8699C20.0814 80.9859 20.0841 81.2219 20.3387 81.1792L20.3828 81.2499L20.4614 81.3819L20.5174 81.3379L20.4628 81.3752L20.5081 81.4659C20.6681 81.5272 20.7788 81.6459 20.8894 81.7659L20.9974 81.8832C21.1148 81.9045 21.2388 81.9165 21.2348 82.0845L21.3948 82.1392L21.3921 82.1365L21.4361 82.2739L21.4374 82.2672L21.6054 82.4192L21.6548 82.4099Z" fill="#1A1818"/>
<path d="M42.5681 74.0805L42.6215 74.0565C42.8335 73.4271 42.7561 72.6458 42.4268 71.8765C42.1535 71.2898 41.6348 70.8271 41.0134 70.6165C40.4401 70.3791 39.7681 70.4178 39.2481 70.5938C38.7068 70.7591 38.2734 71.0404 37.8841 71.3338C36.6348 72.3071 35.8041 73.5231 34.9681 74.7098C34.5295 75.3645 34.1388 76.0485 33.7281 76.7085C33.2268 77.4978 32.8508 78.3458 32.3921 79.1498C32.0721 79.7111 31.8268 80.3098 31.5548 80.8911C31.1335 81.7885 30.7001 82.6778 30.3468 83.6031C30.2361 83.8938 30.1708 84.2205 29.9854 84.4725C29.7961 84.7271 29.6868 85.0138 29.5788 85.3071C29.4441 85.6751 29.2668 86.0218 29.0761 86.3498C28.8508 86.7365 28.6854 87.1418 28.5428 87.5698C28.4761 87.7724 28.5068 87.8685 28.5788 87.9511C28.7281 88.1178 28.9974 87.9591 29.1721 87.6071C29.2348 87.4805 29.2854 87.3458 29.3788 87.2511C29.3921 87.3818 29.3228 87.5205 29.2908 87.6551C29.2428 87.8645 29.2108 88.0858 29.3388 88.1604C29.4534 88.2271 29.5974 88.1511 29.7401 88.0245L29.9215 87.6951C30.0001 87.4938 30.0801 87.3031 30.2228 87.1591C30.3215 87.0604 30.3694 86.9098 30.4174 86.7751C30.5868 86.3005 30.7801 85.8351 30.9895 85.3765C31.4548 84.3658 31.8148 83.3151 32.3121 82.3191C32.6014 81.7391 32.8401 81.1245 33.1335 80.5538C33.4468 79.9271 33.7561 79.3098 34.0681 78.6858C34.2161 78.3991 34.4001 78.1245 34.4774 77.8125C34.9148 77.3511 35.1148 76.7271 35.4895 76.2098C36.0041 75.5218 36.3628 74.7124 36.9641 74.0618C37.3801 73.6218 37.7481 73.0858 38.2121 72.6951C39.0228 71.9644 39.9961 71.3804 40.7335 71.8991C41.4668 72.3618 41.5814 73.2231 41.2041 74.1871C40.8481 75.1551 40.2481 76.1018 39.5828 76.9858C38.3934 78.5445 37.0428 80.0165 35.6255 81.4205C34.7135 82.3205 33.7921 83.2205 32.8295 84.0751L30.5975 86.1018L29.2881 87.2698C29.0788 87.4564 28.9081 87.6445 29.0321 87.8125L28.9494 88.0111C28.6801 88.3405 28.6721 88.4764 28.9575 88.5618C29.0948 88.6018 29.1881 88.6658 29.2708 88.7604C29.4548 88.9751 29.6868 88.9365 30.0308 88.6125C30.6015 88.0885 31.1508 87.5871 31.7134 87.0698C32.3788 86.4364 33.0481 85.8178 33.7481 85.2218C34.2321 84.8085 34.6988 84.3618 35.1414 83.9085C35.4748 83.5671 35.8335 83.2511 36.1575 82.8964C36.3681 82.6698 36.5801 82.4005 36.8521 82.2231L36.8534 82.2298L37.0028 82.0765H36.9975C37.1535 82.0151 37.1188 81.8471 37.2588 81.7551C37.5695 81.5498 37.8095 81.2444 38.0655 80.9618C38.3108 80.6978 38.6654 80.5191 38.7721 80.1378L38.9134 80.0165C39.2308 79.6618 39.6774 79.3991 39.8121 78.8991L39.9788 78.7218C40.0854 78.6205 40.2001 78.5311 40.2868 78.4004L40.2521 78.3284L40.2774 78.4045L40.4721 78.1978C40.7134 77.7751 41.0001 77.3751 41.2854 76.9698C41.3734 76.8338 41.4908 76.7285 41.5508 76.5578C41.6614 76.2658 41.7308 75.9551 42.0068 75.7071C42.1121 75.6205 42.1481 75.3884 42.1508 75.2311L42.1468 75.2418C42.2054 75.1045 42.2588 74.9618 42.3708 74.8991L42.3641 74.9071C42.4228 74.6631 42.6041 74.4578 42.5881 74.1885L42.5681 74.0805Z" fill="#1A1818"/>
<path d="M34.2225 79.8646L34.1785 79.8446C34.0158 79.9659 34.0038 80.1913 33.8358 80.318C33.7118 80.4126 33.6345 80.57 33.5639 80.7166C33.4319 80.9913 33.2559 81.2366 33.0799 81.4793C32.7959 81.8726 32.5412 82.2873 32.2492 82.6726C32.0905 82.8819 31.9639 83.1179 31.7879 83.3126C31.5759 83.5473 31.4492 83.8406 31.2345 84.0726C31.0852 84.2326 30.9945 84.4366 30.8732 84.618C30.6865 84.8966 30.4692 85.154 30.3159 85.458L30.1425 85.7259L29.9199 85.954L29.6385 86.2326C29.4998 86.3179 29.4105 86.4353 29.3398 86.5726L29.4092 86.7673C29.5492 86.9126 29.7559 86.9619 29.8612 86.8739L29.9919 86.7979L29.9652 86.95L30.0572 87.2099L30.3745 87.3259L30.4879 87.2513L30.6772 87.1299L30.7905 87.0313C30.8745 86.8766 30.9745 86.7353 31.0879 86.6033C31.3372 86.3113 31.4799 85.946 31.7265 85.6513C31.8705 85.4793 31.9599 85.2646 32.0972 85.0913C32.2465 84.902 32.3652 84.694 32.4959 84.4913C32.5559 84.398 32.6438 84.3193 32.6398 84.1846C32.8878 84.1006 32.8999 83.8353 33.0665 83.6846C33.2905 83.4766 33.3479 83.1446 33.5852 82.9326C33.7492 82.7873 33.8292 82.5633 33.9718 82.3913C34.2318 82.078 34.4012 81.6993 34.6612 81.3846C34.8999 81.0953 35.1012 80.7793 35.3505 80.4966C35.6079 80.2019 35.8439 79.8913 36.0972 79.5939C36.5479 79.0713 36.9692 78.526 37.4038 77.99C37.6838 77.646 37.9412 77.2859 38.2292 76.9473C38.4519 76.6833 38.6359 76.3886 38.8319 76.1046C38.9479 75.9393 39.0559 75.7686 39.1639 75.5993C39.2159 75.5179 39.2385 75.4259 39.0732 75.3006L39.0319 75.1886C39.0505 75.0246 38.9865 74.9366 38.7545 74.8379L38.4465 74.6619C38.2172 74.4966 38.0825 74.4819 38.0105 74.6273C37.8945 74.8619 37.7385 75.0686 37.6118 75.2939C37.4572 75.5659 37.2825 75.8206 37.0679 76.05C36.9199 76.2086 36.7932 76.3873 36.6812 76.5713C36.5959 76.7086 36.4799 76.8233 36.3999 76.9673C36.3492 77.0593 36.3079 77.1713 36.1865 77.2153L36.1839 77.2113L36.1412 77.2699L36.1452 77.2713L36.0892 77.4019C35.9479 77.4513 35.8999 77.5779 35.8225 77.6793C35.7492 77.7766 35.5585 77.79 35.6225 77.986L35.5652 78.0206C35.4625 78.1433 35.2279 78.1726 35.2985 78.4206L35.2332 78.4726L35.1118 78.5659L35.1612 78.6166L35.1172 78.5659L35.0332 78.6206C34.9892 78.7873 34.8825 78.9099 34.7758 79.0313L34.6718 79.1526C34.6652 79.2726 34.6665 79.3966 34.4999 79.4113L34.4625 79.5766L34.4652 79.5739L34.3332 79.6326L34.3385 79.6339L34.2065 79.8166L34.2225 79.8646Z" fill="#1A1818"/>
<path d="M108.323 76.135L108.275 76.163C108.175 76.7643 108.259 77.3657 108.156 77.9897C108.095 78.455 108.048 78.9897 108.017 79.4923C107.947 80.4283 107.872 81.3763 107.68 82.295L107.279 84.5377L106.748 86.755C106.556 87.5577 106.307 88.3483 106.051 89.1297C105.755 90.067 105.448 90.9963 105.072 91.9057C104.819 92.5403 104.608 93.1924 104.323 93.8137C103.904 94.7804 103.477 95.743 103.013 96.691C102.876 96.991 102.777 97.3337 102.565 97.5884C102.348 97.847 102.212 98.143 102.065 98.4417C101.867 98.8097 101.628 99.1483 101.376 99.4657C101.08 99.8377 100.84 100.232 100.613 100.654C100.507 100.854 100.517 100.96 100.571 101.056C100.681 101.258 100.98 101.142 101.227 100.796C101.315 100.671 101.393 100.535 101.507 100.448C101.492 100.59 101.396 100.726 101.336 100.864C101.244 101.079 101.164 101.31 101.273 101.411C101.371 101.502 101.532 101.443 101.703 101.327C101.813 101.252 101.881 101.119 101.955 100.998C102.077 100.795 102.199 100.599 102.371 100.463C102.491 100.368 102.569 100.212 102.647 100.072C102.908 99.579 103.216 99.1137 103.475 98.6177C104.053 97.5297 104.591 96.427 105.084 95.2977C105.388 94.6457 105.643 93.963 105.929 93.3137C106.212 92.5884 106.457 91.8603 106.715 91.1337C106.833 90.7963 106.992 90.4617 107.007 90.1057C107.355 89.495 107.425 88.7683 107.676 88.1043C108.028 87.2017 108.067 86.2097 108.383 85.2603C108.609 84.6043 108.651 83.863 108.8 83.1617C109.091 81.8843 109.152 80.5817 109.333 79.283C109.508 78.0964 109.511 76.8897 109.639 75.6923C109.673 74.443 109.741 73.187 109.705 71.9337C109.676 69.723 109.513 67.5057 109.185 65.3137C109.012 63.8964 108.695 62.5043 108.417 61.1043C108.197 60.0137 107.839 58.9524 107.545 57.8804C107.355 57.2604 107.123 56.6537 106.909 56.043C106.805 55.751 106.683 55.4977 106.481 55.5537L106.321 55.3884C106.099 54.9804 105.971 54.9204 105.797 55.1777C105.715 55.3004 105.623 55.371 105.505 55.4164C105.243 55.5204 105.2 55.7617 105.384 56.2257C105.672 56.979 105.956 57.7404 106.203 58.5084C106.487 59.4417 106.78 60.3697 106.967 61.3283C107.084 61.9963 107.233 62.6644 107.393 63.319C107.525 63.8097 107.572 64.3164 107.672 64.815C107.737 65.1364 107.827 65.4883 107.809 65.8297L107.804 65.827L107.839 66.051L107.843 66.0457C107.8 66.2164 107.953 66.2977 107.943 66.4737C107.929 66.863 107.988 67.267 108.035 67.6657C108.072 68.0457 107.965 68.4443 108.171 68.8017L108.165 68.9977C108.216 69.4963 108.08 70.0123 108.299 70.495L108.289 70.747C108.275 70.9004 108.249 71.051 108.267 71.2124L108.339 71.2457L108.271 71.2017L108.251 71.495C108.328 71.9937 108.368 72.5017 108.337 73.0097C108.332 73.175 108.284 73.327 108.32 73.507C108.383 73.819 108.455 74.131 108.324 74.4764C108.277 74.603 108.327 74.8163 108.389 74.9643V74.9537C108.387 75.099 108.397 75.2524 108.315 75.3444L108.319 75.335C108.34 75.5723 108.223 75.8044 108.289 76.0417L108.323 76.135Z" fill="#1A1818"/>
<path d="M99.7149 38.4071L99.7655 38.3897C99.8642 37.9351 99.9109 37.5111 100.207 37.3124C100.395 37.1977 100.719 37.0017 101.006 36.9737C101.514 36.8311 102.086 37.3324 102.508 37.9737C103.2 39.0337 103.662 40.3724 104.008 41.7044C104.186 42.4364 104.39 43.1697 104.499 43.9204C104.639 44.8151 104.847 45.6977 104.935 46.603C104.995 47.2324 105.119 47.8564 105.199 48.4844C105.32 49.4524 105.383 50.4284 105.515 51.3977C105.556 51.7017 105.65 52.0204 105.6 52.3257C105.551 52.6364 105.58 52.9377 105.614 53.2431C105.655 53.6297 105.648 54.0137 105.612 54.3884C105.572 54.8271 105.587 55.2564 105.624 55.6977C105.643 55.9057 105.707 55.9804 105.806 56.0257C106.006 56.1217 106.198 55.8791 106.216 55.4857C106.224 55.3444 106.215 55.2004 106.262 55.0764C106.328 55.1911 106.32 55.3444 106.346 55.4817C106.384 55.6937 106.442 55.9097 106.588 55.931C106.719 55.9497 106.823 55.8204 106.904 55.6444C106.958 55.5297 106.943 55.3924 106.938 55.263C106.93 55.0444 106.923 54.8351 106.994 54.6417C107.042 54.5084 107.02 54.3497 107.007 54.2044C106.96 53.695 106.927 53.1857 106.908 52.6737C106.867 51.5457 106.675 50.4351 106.59 49.3084C106.539 48.6497 106.412 47.9924 106.34 47.3431C106.262 46.6324 106.136 45.9364 106.014 45.2364C105.955 44.9124 105.923 44.5737 105.788 44.2764C105.826 43.6231 105.555 43.0031 105.456 42.3537C105.311 41.4671 104.946 40.6311 104.706 39.7231C104.531 39.0924 104.222 38.4631 103.894 37.8431C103.611 37.2751 103.216 36.7257 102.659 36.2791C102.122 35.8191 101.272 35.5657 100.526 35.7431C99.8855 35.8644 99.2042 36.3084 98.8735 36.9217C98.5269 37.5271 98.4309 38.1724 98.4082 38.767C98.3509 40.0244 98.6189 41.191 98.9069 42.3297C99.4335 44.335 100.206 46.2377 101.023 48.1057C101.551 49.307 102.139 50.4777 102.714 51.6537C103.163 52.5684 103.672 53.4564 104.178 54.3417L105.087 55.8751C105.235 56.1177 105.396 56.3204 105.583 56.2257L105.766 56.3404C106.052 56.663 106.191 56.6897 106.314 56.4177C106.372 56.2871 106.45 56.2044 106.555 56.1364C106.794 55.9857 106.794 55.7564 106.536 55.3724C106.119 54.7497 105.748 54.0951 105.358 53.4551C104.886 52.6817 104.45 51.8924 104.064 51.0724C103.798 50.503 103.504 49.9391 103.212 49.3884C103.004 48.9644 102.803 48.5524 102.594 48.1231C102.447 47.8564 102.282 47.5631 102.216 47.2537H102.223L102.135 47.063L102.134 47.0684C102.134 46.9044 101.971 46.8751 101.94 46.7137C101.874 46.3551 101.69 46.0244 101.55 45.6804C101.414 45.3564 101.418 44.9724 101.136 44.7124L101.094 44.5364C100.939 44.103 100.938 43.6111 100.6 43.2511L100.548 43.0257C100.526 42.887 100.511 42.7497 100.456 42.6124L100.38 42.6004L100.455 42.6217L100.412 42.3577C100.214 41.9417 100.114 41.4937 100.016 41.0484C99.9909 40.9044 100.008 40.7631 99.9389 40.6137C99.8122 40.3551 99.7069 40.0937 99.7869 39.7777C99.8109 39.6617 99.7575 39.491 99.6829 39.3697V39.3791C99.6749 39.2551 99.6509 39.1244 99.7322 39.0431L99.7269 39.0511C99.7189 38.8591 99.8109 38.6684 99.7455 38.4791L99.7149 38.4071Z" fill="#1A1818"/>
<path d="M102.854 46.8978L102.812 46.9205C102.81 47.1245 102.981 47.2712 102.982 47.4805C102.982 47.6365 103.062 47.7925 103.137 47.9378C103.276 48.2085 103.366 48.4979 103.454 48.7832C103.596 49.2472 103.773 49.6992 103.905 50.1658C103.977 50.4192 104.089 50.6619 104.138 50.9205C104.197 51.2299 104.356 51.5072 104.41 51.8179C104.449 52.0339 104.557 52.2298 104.629 52.4352C104.738 52.7538 104.813 53.0819 104.962 53.3872L105.072 53.6872C105.034 53.8085 105.074 53.9045 105.12 54.0018C105.176 54.1232 105.186 54.2578 105.173 54.3952C105.156 54.5565 105.198 54.6992 105.264 54.8378L105.461 54.8992C105.661 54.8752 105.825 54.7405 105.818 54.6032L105.836 54.4525L105.942 54.5658C105.993 54.6272 106.064 54.6832 106.205 54.6499C106.332 54.6192 106.425 54.5472 106.489 54.4672L106.497 54.3298L106.514 54.1058L106.504 53.9552C106.432 53.7965 106.378 53.6312 106.342 53.4618C106.26 53.0872 106.053 52.7525 105.968 52.3778C105.917 52.1605 105.8 51.9592 105.744 51.7458C105.684 51.5112 105.589 51.2898 105.505 51.0645L105.348 50.7658C105.429 50.5178 105.225 50.3472 105.204 50.1232C105.176 49.8192 104.944 49.5739 104.918 49.2565C104.901 49.0379 104.77 48.8379 104.718 48.6205C104.625 48.2245 104.425 47.8618 104.332 47.4632C104.245 47.1005 104.114 46.7485 104.037 46.3792C103.96 45.9965 103.852 45.6205 103.768 45.2392C103.621 44.5645 103.44 43.8992 103.276 43.2298C103.17 42.7992 103.037 42.3765 102.94 41.9445C102.865 41.6058 102.74 41.2819 102.632 40.9539C102.569 40.7619 102.498 40.5739 102.428 40.3845C102.394 40.2939 102.334 40.2218 102.136 40.2765L102.021 40.2432C101.901 40.1285 101.793 40.1272 101.574 40.2539L101.249 40.3925C100.978 40.4752 100.885 40.5739 100.957 40.7192C101.074 40.9525 101.146 41.2005 101.249 41.4392C101.373 41.7258 101.472 42.0205 101.525 42.3285C101.562 42.5432 101.629 42.7512 101.706 42.9512C101.766 43.1019 101.788 43.2645 101.854 43.4139C101.897 43.5099 101.961 43.6112 101.924 43.7338H101.92L101.94 43.8032L101.942 43.8018L102.013 43.9258C101.968 44.0672 102.038 44.1818 102.074 44.3045C102.108 44.4218 102.002 44.5819 102.2 44.6485L102.192 44.7152C102.228 44.8712 102.109 45.0765 102.35 45.1698L102.353 45.2525V45.4058L102.424 45.3978L102.357 45.4018L102.349 45.5018C102.457 45.6365 102.489 45.7965 102.524 45.9552L102.557 46.1112C102.648 46.1885 102.748 46.2618 102.658 46.4045L102.769 46.5325L102.768 46.5298L102.736 46.6698L102.74 46.6658L102.806 46.8819L102.854 46.8978Z" fill="#1A1818"/>
<path d="M93.5142 56.1978L93.5475 56.1578C93.3915 55.7205 93.2062 55.3365 93.3542 55.0111C93.4528 54.8138 93.6235 54.4764 93.8515 54.3004C94.2075 53.9111 94.9595 54.0351 95.6555 54.3551C96.8035 54.8911 97.9035 55.7831 98.9009 56.7311C99.4382 57.2591 99.9995 57.7725 100.489 58.3525C101.081 59.0378 101.724 59.6778 102.277 60.4004C102.66 60.9031 103.094 61.3658 103.494 61.8591C104.11 62.6151 104.678 63.4111 105.302 64.1644C105.498 64.4004 105.746 64.6204 105.865 64.9071C105.986 65.1964 106.17 65.4378 106.362 65.6791C106.601 65.9858 106.798 66.3151 106.965 66.6511C107.162 67.0458 107.402 67.4031 107.666 67.7565C107.793 67.9245 107.888 67.9538 107.993 67.9404C108.214 67.9164 108.249 67.6084 108.058 67.2644C107.989 67.1418 107.906 67.0231 107.88 66.8924L108.165 67.1924C108.312 67.3511 108.473 67.5058 108.608 67.4471C108.729 67.3938 108.75 67.2271 108.725 67.0364C108.709 66.9111 108.625 66.8018 108.552 66.6951C108.43 66.5124 108.314 66.3378 108.271 66.1378C108.242 65.9991 108.14 65.8751 108.052 65.7591C107.742 65.3511 107.445 64.9365 107.158 64.5111C106.528 63.5765 105.778 62.7338 105.11 61.8218C104.72 61.2898 104.264 60.7991 103.861 60.2858C103.42 59.7245 102.943 59.1991 102.47 58.6698C102.25 58.4244 102.041 58.1551 101.771 57.9738C101.458 57.3991 100.901 57.0165 100.474 56.5178C99.8808 55.8405 99.1302 55.3245 98.4448 54.6791C97.9648 54.2378 97.3702 53.8658 96.7635 53.5125C96.2235 53.1805 95.5982 52.9218 94.8888 52.8364C94.1902 52.7311 93.3342 52.9645 92.7942 53.5098C92.3155 53.9511 91.9715 54.6871 92.0155 55.3831C92.0395 56.0791 92.3009 56.6778 92.5942 57.1951C93.2089 58.2938 94.0542 59.1418 94.8995 59.9565C96.4089 61.3818 98.0675 62.5898 99.7488 63.7418C100.832 64.4831 101.949 65.1684 103.06 65.8618C103.925 66.4018 104.825 66.8858 105.722 67.3711L107.305 68.1924C107.558 68.3204 107.804 68.4071 107.91 68.2284H108.128C108.54 68.3498 108.672 68.3004 108.633 68.0044C108.614 67.8631 108.636 67.7511 108.69 67.6378C108.813 67.3831 108.69 67.1898 108.269 67.0004C107.586 66.6911 106.926 66.3311 106.256 65.9938C105.446 65.5871 104.658 65.1458 103.898 64.6551C103.372 64.3125 102.825 63.9885 102.286 63.6751C101.885 63.4245 101.496 63.1818 101.092 62.9284C100.826 62.7778 100.532 62.6178 100.313 62.3885L100.317 62.3858L100.144 62.2711L100.145 62.2765C100.057 62.1365 99.9035 62.1965 99.7929 62.0751C99.5462 61.8058 99.2142 61.6231 98.9155 61.4058C98.6275 61.2018 98.4275 60.8738 98.0515 60.8018L97.9249 60.6751C97.5622 60.3885 97.3022 59.9725 96.8249 59.8431L96.6609 59.6805L96.3662 59.3778L96.2942 59.4085L96.3689 59.3871L96.1942 59.1858C95.8062 58.9365 95.4822 58.6098 95.1649 58.2831C95.0675 58.1738 95.0075 58.0445 94.8715 57.9551C94.6248 57.8031 94.3995 57.6364 94.2995 57.3258C94.2582 57.2138 94.1222 57.0964 93.9942 57.0338L93.9995 57.0418L93.8649 56.7298V56.7391C93.7569 56.5818 93.7328 56.3711 93.5782 56.2458L93.5142 56.1978Z" fill="#1A1818"/>
<path d="M100.666 61.7499L100.644 61.7912C100.749 61.9646 100.973 61.9979 101.085 62.1752C101.166 62.3085 101.316 62.3979 101.457 62.4819C101.718 62.6392 101.946 62.8365 102.173 63.0325C102.538 63.3512 102.928 63.6419 103.286 63.9685C103.481 64.1445 103.704 64.2926 103.881 64.4859C104.096 64.7166 104.377 64.8699 104.589 65.1045C104.734 65.2672 104.929 65.3752 105.1 65.5125C105.361 65.7245 105.596 65.9645 105.885 66.1432C105.977 66.1992 106.105 66.2205 106.137 66.3405C106.169 66.4645 106.254 66.5246 106.344 66.5832C106.457 66.6566 106.537 66.7646 106.596 66.8886C106.669 67.0339 106.778 67.1339 106.909 67.2166L107.108 67.1659C107.265 67.0392 107.333 66.8379 107.256 66.7246L107.19 66.5872L107.341 66.6272L107.608 66.5592L107.753 66.2539L107.688 66.1339L107.584 65.9352L107.494 65.8125C107.35 65.7152 107.217 65.6032 107.096 65.4779C106.829 65.2032 106.477 65.0286 106.205 64.7566C106.048 64.5979 105.842 64.4899 105.682 64.3365C105.506 64.1712 105.309 64.0339 105.12 63.8859C105.032 63.8179 104.962 63.7246 104.826 63.7152C104.766 63.4606 104.502 63.4245 104.368 63.2459C104.181 63.0032 103.856 62.9165 103.666 62.6605C103.536 62.4845 103.318 62.3832 103.161 62.2259C102.872 61.9392 102.51 61.7366 102.22 61.4486C101.954 61.1859 101.657 60.9566 101.398 60.6832C101.129 60.3992 100.84 60.1379 100.566 59.8579C100.086 59.3632 99.5811 58.8939 99.0877 58.4125C98.7704 58.1019 98.4331 57.8139 98.1224 57.4979C97.8797 57.2512 97.6024 57.0419 97.337 56.8192C97.1837 56.6912 97.0237 56.5672 96.8651 56.4445C96.7877 56.3845 96.6997 56.3552 96.5571 56.5072L96.4424 56.5392C96.281 56.5059 96.1891 56.5606 96.0691 56.7832L95.8664 57.0739C95.6811 57.2872 95.6544 57.4205 95.7917 57.5045C96.0144 57.6419 96.2064 57.8152 96.4211 57.9619C96.6784 58.1405 96.9157 58.3379 97.1251 58.5712C97.2691 58.7339 97.4357 58.8752 97.6077 59.0032C97.7384 59.1005 97.8424 59.2272 97.9784 59.3192C98.065 59.3779 98.173 59.4299 98.205 59.5552L98.2024 59.5579L98.2557 59.6045L98.2584 59.6005L98.3824 59.6699C98.4184 59.8139 98.5397 59.8739 98.6357 59.9592C98.7251 60.0405 98.7211 60.2326 98.9224 60.1859L98.9517 60.2472C99.0637 60.3592 99.0717 60.5952 99.3251 60.5472L99.3717 60.6166L99.4531 60.7472L99.509 60.7019L99.4544 60.7419L99.5011 60.8299C99.6624 60.8885 99.7757 61.0059 99.8877 61.1232L99.9984 61.2379C100.117 61.2552 100.241 61.2645 100.241 61.4325L100.402 61.4846L100.4 61.4819L100.445 61.6179L100.446 61.6139L100.618 61.7605L100.666 61.7499Z" fill="#1A1818"/>
<path d="M119.937 50.9232L119.984 50.8898C120.058 50.2298 119.817 49.4831 119.332 48.8005C118.94 48.2845 118.334 47.9445 117.682 47.8685C117.073 47.7591 116.424 47.9392 115.953 48.2218C115.46 48.4992 115.094 48.8645 114.777 49.2338C113.762 50.4511 113.209 51.8152 112.645 53.1538C112.356 53.8858 112.118 54.6378 111.857 55.3698C111.536 56.2471 111.349 57.1551 111.07 58.0391C110.877 58.6551 110.765 59.2925 110.622 59.9192C110.401 60.8845 110.165 61.8458 110.018 62.8245C109.972 63.1325 109.977 63.4658 109.849 63.7512C109.717 64.0405 109.672 64.3432 109.629 64.6525C109.576 65.0418 109.477 65.4178 109.36 65.7792C109.221 66.2045 109.146 66.6352 109.097 67.0845C109.074 67.2965 109.126 67.3845 109.213 67.4498C109.394 67.5805 109.624 67.3672 109.72 66.9885C109.756 66.8512 109.776 66.7071 109.846 66.5938C109.886 66.7205 109.849 66.8698 109.848 67.0085C109.844 67.2245 109.861 67.4458 110.001 67.4925C110.126 67.5338 110.252 67.4285 110.365 67.2738C110.437 67.1725 110.449 67.0392 110.47 66.9125C110.505 66.7005 110.542 66.4965 110.652 66.3258C110.726 66.2085 110.741 66.0512 110.76 65.9098C110.825 65.4098 110.914 64.9152 111.024 64.4205C111.262 63.3365 111.392 62.2325 111.665 61.1525C111.825 60.5245 111.926 59.8738 112.093 59.2538C112.266 58.5752 112.437 57.9045 112.609 57.2298C112.694 56.9178 112.816 56.6098 112.824 56.2898C113.153 55.7445 113.216 55.0925 113.474 54.5085C113.829 53.7258 114.008 52.8605 114.457 52.0951C114.77 51.5778 115.017 50.9765 115.388 50.4951C116.024 49.6085 116.852 48.8325 117.682 49.1818C118.496 49.4792 118.792 50.2952 118.628 51.3178C118.485 52.3392 118.1 53.3925 117.638 54.3978C116.806 56.1738 115.8 57.8978 114.712 59.5698C114.013 60.6445 113.304 61.7192 112.542 62.7578L110.794 65.2125L109.761 66.6338C109.596 66.8591 109.47 67.0805 109.626 67.2178L109.589 67.4285C109.396 67.8085 109.417 67.9431 109.713 67.9658C109.856 67.9765 109.961 68.0178 110.061 68.0925C110.288 68.2631 110.506 68.1765 110.772 67.7872C111.22 67.1538 111.649 66.5458 112.09 65.9218C112.604 65.1618 113.129 64.4165 113.685 63.6845C114.07 63.1778 114.43 62.6418 114.766 62.1045C115.021 61.7005 115.305 61.3151 115.545 60.8991C115.704 60.6338 115.853 60.3258 116.082 60.0951L116.085 60.1018L116.198 59.9192L116.193 59.9205C116.332 59.8272 116.261 59.6712 116.378 59.5512C116.64 59.2845 116.81 58.9351 116.998 58.6045C117.182 58.2951 117.49 58.0445 117.516 57.6485L117.628 57.5005C117.862 57.0871 118.244 56.7352 118.268 56.2178L118.393 56.0098C118.477 55.8885 118.569 55.7751 118.626 55.6298L118.577 55.5671L118.617 55.6365L118.764 55.3925C118.91 54.9285 119.105 54.4765 119.298 54.0192C119.356 53.8685 119.448 53.7405 119.47 53.5605C119.516 53.2525 119.518 52.9338 119.734 52.6325C119.82 52.5258 119.806 52.2911 119.774 52.1365L119.772 52.1472C119.801 52.0018 119.822 51.8511 119.92 51.7658L119.913 51.7752C119.92 51.5245 120.053 51.2845 119.98 51.0245L119.937 50.9232Z" fill="#1A1818"/>
<path d="M113.012 58.3484L112.964 58.3377C112.831 58.4911 112.867 58.7137 112.729 58.8737C112.629 58.9924 112.587 59.1618 112.548 59.3204C112.479 59.6178 112.359 59.8951 112.239 60.1697C112.044 60.6137 111.884 61.0724 111.68 61.5124C111.568 61.7511 111.495 62.0071 111.364 62.2351C111.207 62.5084 111.147 62.8231 110.984 63.0937C110.873 63.2831 110.828 63.5017 110.749 63.7044C110.625 64.0164 110.468 64.3137 110.381 64.6431L110.268 64.9431L110.1 65.2124C110.064 65.3418 109.983 65.4498 109.884 65.5458C109.765 65.6578 109.705 65.7911 109.664 65.9404L109.773 66.1151C109.941 66.2271 110.153 66.2324 110.239 66.1244L110.351 66.0218L110.356 66.1764C110.356 66.2551 110.372 66.3444 110.501 66.4111L110.836 66.4578L110.931 66.3591L111.091 66.2004L111.18 66.0791C111.229 65.9124 111.297 65.7524 111.379 65.5991C111.561 65.2617 111.623 64.8724 111.801 64.5324C111.905 64.3351 111.948 64.1071 112.044 63.9084C112.149 63.6911 112.223 63.4617 112.307 63.2364C112.345 63.1311 112.415 63.0377 112.381 62.9057C112.607 62.7724 112.563 62.5097 112.692 62.3257C112.869 62.0764 112.855 61.7391 113.04 61.4818C113.169 61.3058 113.201 61.0684 113.304 60.8697C113.489 60.5084 113.576 60.1031 113.763 59.7404C113.935 59.4084 114.065 59.0564 114.248 58.7257C114.437 58.3844 114.6 58.0298 114.787 57.6858C115.115 57.0791 115.411 56.4564 115.723 55.8417C115.924 55.4471 116.097 55.0391 116.307 54.6471C116.469 54.3418 116.585 54.0137 116.717 53.6951C116.795 53.5084 116.865 53.3191 116.933 53.1311C116.968 53.0404 116.971 52.9471 116.783 52.8578L116.717 52.7564C116.701 52.5924 116.62 52.5217 116.372 52.4751L116.035 52.3671C115.776 52.2537 115.641 52.2697 115.601 52.4257C115.537 52.6791 115.429 52.9137 115.353 53.1617C115.26 53.4604 115.144 53.7471 114.983 54.0164C114.872 54.2031 114.785 54.4044 114.715 54.6071C114.661 54.7604 114.572 54.8978 114.525 55.0538L114.369 55.3417L114.365 55.3391L114.335 55.4057H114.339L114.312 55.5458C114.185 55.6231 114.164 55.7564 114.111 55.8737C114.06 55.9844 113.876 56.0364 113.981 56.2151L113.931 56.2604C113.857 56.4031 113.635 56.4804 113.757 56.7084L113.705 56.7737L113.604 56.8898L113.663 56.9297L113.609 56.8898L113.539 56.9604C113.533 57.1324 113.455 57.2751 113.375 57.4178L113.3 57.5578C113.317 57.6751 113.347 57.7964 113.187 57.8458L113.185 58.0164L113.187 58.0124L113.071 58.0977H113.076L112.985 58.3057L113.012 58.3484Z" fill="#1A1818"/>
<path d="M122.488 77.2871L122.544 77.2738C122.873 76.6978 122.948 75.9178 122.772 75.0964C122.617 74.4698 122.197 73.9165 121.628 73.5898C121.111 73.2471 120.444 73.1551 119.9 73.2284C119.336 73.2871 118.857 73.4791 118.42 73.6924C117.005 74.4084 115.957 75.4418 114.909 76.4471C114.352 77.0044 113.837 77.6004 113.308 78.1711C112.664 78.8484 112.133 79.6084 111.528 80.3098C111.107 80.7991 110.752 81.3391 110.372 81.8591C109.787 82.6564 109.191 83.4471 108.667 84.2871C108.503 84.5511 108.373 84.8591 108.145 85.0711C107.909 85.2844 107.748 85.5444 107.585 85.8098C107.381 86.1471 107.143 86.4538 106.892 86.7391C106.596 87.0751 106.357 87.4404 106.135 87.8338C106.029 88.0204 106.041 88.1204 106.095 88.2151C106.209 88.4071 106.505 88.3031 106.744 87.9911L107.016 87.6804C107.003 87.8124 106.909 87.9338 106.853 88.0604C106.764 88.2564 106.692 88.4684 106.803 88.5658C106.901 88.6538 107.057 88.6071 107.221 88.5098L107.463 88.2204C107.579 88.0391 107.695 87.8658 107.863 87.7538C107.977 87.6751 108.052 87.5364 108.127 87.4138C108.384 86.9791 108.661 86.5604 108.957 86.1511C109.607 85.2498 110.161 84.2871 110.841 83.4044C111.237 82.8898 111.589 82.3324 111.985 81.8298C112.415 81.2751 112.836 80.7271 113.261 80.1751C113.463 79.9218 113.696 79.6884 113.832 79.3978C114.351 79.0284 114.665 78.4538 115.133 78.0204C115.769 77.4404 116.276 76.7164 116.992 76.1938C117.484 75.8418 117.948 75.3858 118.48 75.0911C119.415 74.5311 120.481 74.1444 121.107 74.7951C121.737 75.3898 121.685 76.2564 121.129 77.1311C120.593 78.0124 119.823 78.8271 119 79.5671C117.535 80.8671 115.925 82.0525 114.265 83.1565C113.197 83.8671 112.121 84.5738 111.012 85.2258L108.432 86.7871L106.924 87.6831C106.681 87.8244 106.479 87.9764 106.567 88.1658L106.448 88.3444C106.121 88.6164 106.087 88.7498 106.351 88.8871C106.477 88.9524 106.557 89.0324 106.62 89.1431C106.759 89.3871 106.995 89.3938 107.393 89.1431C108.055 88.7391 108.691 88.3498 109.343 87.9524C110.116 87.4578 110.892 86.9791 111.693 86.5298C112.248 86.2151 112.791 85.8658 113.313 85.5071C113.705 85.2364 114.119 84.9951 114.504 84.7084C114.755 84.5271 115.015 84.3031 115.315 84.1831V84.1885L115.491 84.0671L115.485 84.0658C115.651 84.0338 115.648 83.8644 115.804 83.8004C116.148 83.6591 116.443 83.4044 116.748 83.1764C117.039 82.9658 117.423 82.8578 117.6 82.5031L117.761 82.4124C118.141 82.1244 118.631 81.9524 118.859 81.4871L119.055 81.3471C119.18 81.2671 119.311 81.1991 119.42 81.0885L119.4 81.0124L119.409 81.0911L119.641 80.9258C119.959 80.5578 120.316 80.2204 120.675 79.8764C120.787 79.7604 120.923 79.6805 121.015 79.5245C121.179 79.2578 121.307 78.9671 121.625 78.7764C121.745 78.7111 121.824 78.4911 121.859 78.3364L121.852 78.3458C121.935 78.2231 122.016 78.0938 122.137 78.0538L122.129 78.0591C122.233 77.8324 122.451 77.6644 122.487 77.3978L122.488 77.2871Z" fill="#1A1818"/>
<path d="M113.189 81.363L113.149 81.3337C112.966 81.4203 112.91 81.6417 112.722 81.7337C112.582 81.8017 112.477 81.9403 112.378 82.0723C112.197 82.315 111.977 82.523 111.758 82.727C111.403 83.059 111.074 83.4177 110.711 83.739C110.515 83.915 110.347 84.1204 110.137 84.279C109.883 84.4684 109.703 84.7324 109.449 84.9177C109.27 85.0457 109.143 85.2297 108.989 85.3844C108.753 85.6217 108.489 85.8323 108.281 86.1003C108.215 86.1857 108.182 86.311 108.058 86.331C107.933 86.3497 107.865 86.4284 107.797 86.511C107.711 86.6164 107.595 86.6843 107.467 86.7323C107.315 86.7883 107.205 86.887 107.107 87.0083L107.139 87.211C107.249 87.3817 107.442 87.4697 107.562 87.4043L107.705 87.3537L107.649 87.4977L107.69 87.771L107.979 87.947L108.105 87.8937L108.314 87.811L108.445 87.7363C108.557 87.6017 108.682 87.4803 108.818 87.3737C109.119 87.1363 109.329 86.8043 109.629 86.5617C109.802 86.4203 109.93 86.2284 110.098 86.0844C110.282 85.9257 110.438 85.7443 110.605 85.571C110.682 85.4897 110.783 85.431 110.806 85.2977C111.065 85.263 111.129 85.0057 111.319 84.8884C111.581 84.7297 111.701 84.4137 111.974 84.2524C112.162 84.1404 112.285 83.935 112.458 83.7937C112.773 83.535 113.011 83.1977 113.327 82.9377C113.617 82.7003 113.875 82.4283 114.174 82.1977C114.483 81.9603 114.773 81.6977 115.081 81.4564C115.622 81.0297 116.141 80.575 116.67 80.1337C117.011 79.851 117.333 79.5443 117.679 79.2683C117.95 79.0523 118.186 78.7977 118.434 78.5564C118.579 78.4177 118.717 78.2697 118.857 78.1244C118.925 78.055 118.963 77.9697 118.825 77.8124L118.806 77.6963C118.855 77.5377 118.81 77.4403 118.601 77.3003L118.333 77.067C118.141 76.8617 118.01 76.8204 117.913 76.9497C117.753 77.1564 117.561 77.3297 117.393 77.527C117.189 77.7643 116.967 77.9803 116.713 78.1643C116.538 78.2923 116.379 78.443 116.234 78.6017C116.123 78.7203 115.987 78.8097 115.882 78.9363C115.815 79.0177 115.753 79.119 115.625 79.139L115.623 79.135L115.57 79.1844L115.573 79.1857L115.491 79.3043C115.345 79.3243 115.273 79.439 115.178 79.5257C115.089 79.6057 114.898 79.583 114.923 79.787L114.861 79.8097C114.735 79.911 114.499 79.8937 114.522 80.151L114.449 80.1897L114.31 80.2564L114.349 80.3164L114.315 80.259L114.223 80.2963C114.149 80.451 114.021 80.551 113.891 80.651L113.765 80.751C113.737 80.8644 113.714 80.987 113.547 80.971L113.481 81.1257L113.482 81.123L113.341 81.155L113.347 81.1564L113.182 81.3124L113.189 81.363Z" fill="#1A1818"/>
<path d="M94.6267 73.7632L94.6681 73.7299C94.6067 73.2699 94.5094 72.8553 94.7214 72.5686C94.86 72.3979 95.0974 72.1033 95.3601 71.9806C95.7907 71.6753 96.4974 71.9553 97.1107 72.4179C98.1187 73.1833 99.0027 74.2899 99.7774 75.4272C100.189 76.0579 100.629 76.6793 100.984 77.3499C101.416 78.1446 101.909 78.9072 102.296 79.7312C102.564 80.3032 102.891 80.8486 103.176 81.4153C103.617 82.2846 104.003 83.1833 104.453 84.0513C104.595 84.3233 104.789 84.5912 104.845 84.8966C104.904 85.2046 105.032 85.4793 105.165 85.7553C105.335 86.1059 105.457 86.4713 105.549 86.8339C105.659 87.2619 105.817 87.6619 106 88.0646C106.088 88.2539 106.175 88.3033 106.281 88.3126C106.503 88.3353 106.6 88.0432 106.487 87.6659C106.447 87.5312 106.391 87.3979 106.393 87.2646L106.608 87.6179C106.715 87.8059 106.841 87.9899 106.985 87.9606C107.116 87.9339 107.172 87.7766 107.188 87.5859C107.2 87.4579 107.14 87.3339 107.092 87.2139C107.011 87.0113 106.933 86.8139 106.935 86.6099C106.936 86.4686 106.863 86.3259 106.801 86.1939C106.585 85.7299 106.383 85.2606 106.195 84.7846C105.775 83.7366 105.223 82.7539 104.763 81.7219C104.495 81.1193 104.153 80.5419 103.869 79.9553C103.556 79.3113 103.204 78.6979 102.853 78.0806C102.689 77.7953 102.543 77.4859 102.317 77.2526C102.135 76.6246 101.669 76.1326 101.359 75.5526C100.925 74.7659 100.3 74.1019 99.7667 73.3272C99.3907 72.7926 98.888 72.3032 98.372 71.8286C97.9147 71.3899 97.3587 71.0033 96.684 70.7699C96.0227 70.5193 95.1387 70.5659 94.4934 70.9833C93.9321 71.3126 93.4387 71.9593 93.3347 72.6473C93.2107 73.3339 93.3374 73.9739 93.516 74.5419C93.8827 75.7459 94.5294 76.7539 95.1814 77.7312C96.3534 79.4419 97.7174 80.9766 99.116 82.4592C100.017 83.4139 100.964 84.3193 101.901 85.2339C102.632 85.9446 103.409 86.6086 104.183 87.2739L105.553 88.4126C105.775 88.5913 105.996 88.7273 106.139 88.5766L106.351 88.6233C106.728 88.8286 106.868 88.8086 106.891 88.5113C106.904 88.3686 106.948 88.2632 107.025 88.1646C107.2 87.9419 107.121 87.7273 106.751 87.4526C106.149 87.0059 105.579 86.5126 104.996 86.0406C104.292 85.4726 103.616 84.8739 102.977 84.2326C102.535 83.7859 102.069 83.3539 101.609 82.9326C101.271 82.6019 100.943 82.2819 100.6 81.9486C100.373 81.7459 100.12 81.5273 99.9534 81.2553L99.9601 81.2539L99.8147 81.1046V81.1099C99.7587 80.9553 99.5947 80.9806 99.512 80.8406C99.3294 80.5246 99.0441 80.2752 98.7987 79.9979C98.5601 79.7392 98.4347 79.3766 98.0827 79.2259L97.984 79.0739C97.692 78.7179 97.5267 78.2539 97.088 78.0286L96.9627 77.8339C96.8934 77.7113 96.8347 77.5873 96.7374 77.4766L96.6601 77.4899L96.7374 77.4846L96.6094 77.2513C96.2827 76.9259 96.0387 76.5366 95.7974 76.1513C95.7241 76.0246 95.6934 75.8846 95.5787 75.7673C95.372 75.5673 95.1867 75.3566 95.1534 75.0312L94.9187 74.6819L94.9227 74.6913L94.856 74.3579L94.8534 74.3659C94.7814 74.1886 94.8027 73.9779 94.6787 73.8233L94.6267 73.7632Z" fill="#1A1818"/>
<path d="M100.435 80.7059L100.403 80.7432C100.47 80.9339 100.682 81.0139 100.752 81.2112C100.806 81.3592 100.931 81.4779 101.051 81.5899C101.274 81.7993 101.455 82.0406 101.634 82.2806C101.924 82.6686 102.243 83.0352 102.524 83.4312C102.676 83.6446 102.863 83.8366 102.996 84.0632C103.155 84.3352 103.399 84.5433 103.555 84.8179C103.663 85.0086 103.831 85.1552 103.968 85.3259C104.178 85.5872 104.358 85.8712 104.6 86.1086C104.678 86.1832 104.8 86.2313 104.806 86.3566C104.811 86.4819 104.88 86.5592 104.956 86.6366C105.05 86.7312 105.104 86.8553 105.139 86.9886C105.178 87.1459 105.263 87.2659 105.372 87.3752L105.579 87.3659C105.759 87.2766 105.87 87.0939 105.816 86.9686L105.783 86.8193L105.922 86.8913C105.988 86.9299 106.074 86.9606 106.196 86.8806L106.403 86.6139L106.364 86.4819L106.306 86.2659L106.244 86.1272C106.123 86.0006 106.018 85.8646 105.926 85.7166C105.723 85.3913 105.416 85.1446 105.208 84.8206C105.09 84.6339 104.911 84.4832 104.786 84.3006C104.65 84.1006 104.486 83.9246 104.332 83.7406C104.26 83.6539 104.212 83.5486 104.083 83.5112C104.078 83.2499 103.827 83.1579 103.732 82.9553C103.603 82.6779 103.304 82.5246 103.172 82.2339C103.083 82.0339 102.892 81.8899 102.771 81.7019C102.548 81.3619 102.24 81.0872 102.018 80.7432C101.814 80.4286 101.572 80.1419 101.376 79.8206C101.174 79.4859 100.946 79.1686 100.739 78.8366C100.374 78.2512 99.9817 77.6859 99.6004 77.1099C99.3577 76.7406 99.0897 76.3859 98.8524 76.0112C98.667 75.7179 98.4404 75.4553 98.2284 75.1833C98.1057 75.0233 97.9764 74.8686 97.8457 74.7139C97.7844 74.6406 97.7044 74.5912 97.5337 74.7112L97.415 74.7179C97.263 74.6513 97.1617 74.6859 96.9977 74.8779L96.7377 75.1179C96.511 75.2873 96.4564 75.4126 96.5737 75.5246C96.7604 75.7046 96.9124 75.9152 97.0897 76.1032C97.3044 76.3326 97.4937 76.5766 97.6484 76.8499C97.7564 77.0379 97.8884 77.2112 98.0297 77.3739C98.1364 77.4966 98.2097 77.6432 98.3231 77.7606C98.3964 77.8366 98.4897 77.9112 98.4964 78.0379L98.4911 78.0406L98.5351 78.0992L98.5377 78.0952L98.6457 78.1899C98.6484 78.3379 98.7564 78.4206 98.8297 78.5259C98.9017 78.6246 98.8564 78.8099 99.0631 78.8086L99.0777 78.8726C99.1644 79.0086 99.1217 79.2406 99.379 79.2472L99.411 79.3246L99.4631 79.4699L99.5257 79.4379L99.4644 79.4646L99.4911 79.5606C99.6377 79.6512 99.7217 79.7912 99.8084 79.9286L99.8911 80.0646C100.003 80.1072 100.122 80.1432 100.086 80.3072L100.232 80.3913L100.231 80.3886L100.247 80.5312L100.25 80.5272L100.386 80.7072L100.435 80.7059Z" fill="#1A1818"/>
<path d="M74.8118 96.4871L74.6971 96.5324C73.0211 98.0124 71.4945 99.5858 69.7531 101.124C69.3465 101.492 68.9238 101.875 68.4905 102.268L67.8411 102.871L67.7024 103.003L67.6971 103.01L67.6851 103.027C67.8758 103.218 67.1038 102.494 66.6558 102.08C64.1198 99.7284 61.5985 97.3204 59.1011 94.9377L52.2251 88.3991L52.2171 81.6324C52.2145 78.5977 52.2118 75.5551 52.2104 72.5311C52.2091 68.9097 52.2078 65.3151 52.2064 61.6977C52.2304 59.1857 52.1851 56.6698 52.1771 54.1564L52.1625 46.1871L54.4104 43.9297C55.2624 43.0657 56.1278 42.1204 57.0238 41.3297C57.9331 40.5271 58.7811 39.6777 59.6384 38.8111C60.7211 37.7191 61.8198 36.6737 62.9024 35.6764C64.1784 34.5004 65.3958 33.3044 66.6305 32.0551C67.2158 31.4631 67.3931 31.2057 67.4665 31.0057C67.6198 30.5924 66.8145 31.1311 65.6958 32.1884C65.2918 32.5711 64.8891 32.9724 64.5091 33.2777C64.7998 32.9111 65.2371 32.4977 65.6091 32.1044C66.1851 31.4937 66.7624 30.8591 66.7358 30.6937C66.7118 30.5457 66.2891 30.8191 65.7518 31.2364C65.3998 31.5097 65.0251 31.8911 64.6638 32.2471C64.0571 32.8457 63.4678 33.4231 62.8891 33.8911C62.4905 34.2124 62.0558 34.6604 61.6545 35.0631C60.2318 36.4711 58.8158 37.8711 57.3931 39.2804C55.2425 41.4178 53.1011 43.5457 50.9531 45.6804C50.9545 47.2404 50.9571 48.8031 50.9598 50.3711C50.9705 52.9444 50.9811 55.5537 50.9905 58.1004C51.0011 60.8884 51.0118 63.6431 51.0225 66.4097C51.0291 67.6937 51.0065 69.0111 51.0838 70.2404C50.9425 72.7111 51.0811 75.2671 51.0384 77.8111C50.9838 81.2671 51.1251 84.7511 51.0638 88.3337C51.0625 88.5177 51.0598 88.7004 51.0585 88.8977C52.8371 90.5911 54.7185 92.3844 56.5611 94.1404C59.9611 97.3724 63.3425 100.588 66.7585 103.838L67.6731 104.715C70.7611 101.863 73.8585 99.0004 76.9611 96.1337C79.6531 93.6591 82.3491 91.1804 85.0465 88.7004L85.0278 85.6644C84.9718 77.7271 84.9158 69.7804 84.8598 61.8377L84.7331 46.5071L84.7225 44.9858C81.9398 42.5524 79.1491 40.1111 76.3625 37.6724L71.1078 33.1017C70.2691 32.3737 69.4945 31.7391 69.3278 31.8524C69.2625 31.8951 69.0011 31.6671 68.7011 31.4257C67.4065 30.3924 67.0651 30.2217 67.4118 30.8324C67.5784 31.1244 67.6064 31.2844 67.5384 31.3818C67.3851 31.5991 67.9038 32.2017 69.2998 33.3924C71.5518 35.3364 73.8051 37.2831 76.0531 39.2257C77.3131 40.3177 78.5691 41.4071 79.8238 42.4951C81.0011 43.5337 82.1771 44.5724 83.3571 45.6138L83.3558 46.0977C83.3811 48.5897 83.4091 51.1084 83.4345 53.5831C83.4585 55.4484 83.4811 57.3098 83.5051 59.1818C83.5304 60.3884 83.5758 61.7178 83.5238 62.9498L83.5185 62.9351C83.5625 63.2124 83.5505 63.4911 83.5278 63.7697L83.5318 63.7538C83.4745 64.3524 83.6078 64.7257 83.5784 65.3604C83.5158 66.7751 83.5651 68.2804 83.5811 69.7564C83.5958 71.1591 83.4744 72.5857 83.6465 73.9697C83.6611 74.0817 83.6278 74.4378 83.6305 74.6844C83.6411 76.5271 83.5011 78.3964 83.7131 80.2191C83.7331 80.3938 83.7104 80.8364 83.7024 81.1458C83.6891 81.7071 83.6638 82.2538 83.6798 82.8511L83.7478 82.9858C83.7105 83.3058 83.7025 82.9524 83.6851 82.8151C83.6505 83.1311 83.6465 83.4751 83.6638 83.8911L83.7305 86.1657L83.7518 88.1444L83.2238 88.6257C82.7758 89.0351 82.3344 89.3871 81.8718 89.8644C81.0664 90.6937 80.2798 91.5204 79.2598 92.3044C78.8865 92.5897 78.3425 93.1604 77.9905 93.5684L78.0198 93.5404C77.6278 93.9044 77.2238 94.2951 76.9145 94.4764L76.9424 94.4564C76.3158 95.0591 75.6145 95.5871 75.0318 96.2324C74.9918 96.2964 74.9838 96.3444 74.8118 96.4871Z" fill="#1A1818"/>
<path d="M69.9639 50.0965L69.9412 50.0512C69.4919 49.9819 69.0452 50.0859 68.5785 50.0152C68.2305 49.9646 67.8292 49.9819 67.4545 49.9992C66.7532 50.0312 66.0492 50.0139 65.3505 49.9965L61.9599 49.9326C61.3479 49.9112 60.7319 49.9286 60.1212 49.8859C59.8759 49.8686 59.6319 49.8632 59.3865 49.8605L59.0199 49.8579L58.8132 49.8592C58.8412 49.8819 58.5065 49.6672 58.3452 49.5526C57.9305 49.2579 57.4772 49.0232 57.0439 48.7566C56.3772 48.3472 55.7292 47.9086 55.0412 47.5312C54.8252 47.4139 54.5719 47.3312 54.4039 47.1459C54.2332 46.9579 54.0239 46.8366 53.8079 46.7152C53.5359 46.5632 53.2919 46.3766 53.0679 46.1752C52.8039 45.9379 52.5132 45.7512 52.2026 45.5779C52.0546 45.4966 51.9705 45.5139 51.8892 45.5686C51.7212 45.6819 51.7852 45.9406 52.0306 46.1339L52.2732 46.3566L51.9652 46.2352C51.8066 46.1699 51.6345 46.1166 51.5439 46.2219C51.4639 46.3152 51.4932 46.4539 51.5666 46.5952L51.7946 46.7939C51.9399 46.8859 52.0799 46.9766 52.1666 47.1192L52.4399 47.3312C52.7919 47.5312 53.1332 47.7446 53.4679 47.9726C54.2052 48.4752 55.0039 48.8712 55.7439 49.3712C56.1759 49.6632 56.6479 49.9032 57.0785 50.1859L57.6919 50.5726L58.4532 51.0326L58.8505 51.0379C59.1105 51.0379 59.3759 51.0699 59.6252 50.9992C60.1212 51.1539 60.6425 51.0312 61.1545 51.0872C61.8519 51.1632 62.5599 51.0419 63.2812 51.1246C63.7812 51.1806 64.3159 51.1339 64.8346 51.1605C65.7826 51.2099 66.7279 51.1552 67.6799 51.2046C68.5532 51.2392 69.4132 51.2739 70.2959 51.3086C71.2092 51.3566 72.1105 51.4032 73.0225 51.4512C74.0025 51.4992 74.9772 51.5472 75.9532 51.5952L77.8839 50.3259C78.7465 49.7539 79.6026 49.1899 80.4692 48.6166C81.1479 48.1819 81.7999 47.7059 82.4612 47.2459L83.6079 46.4285C83.7905 46.2979 83.9385 46.1552 83.8385 45.9886L83.9105 45.8259C84.1439 45.5739 84.1505 45.4526 83.9105 45.3366L83.6492 45.1166C83.4945 44.9019 83.3012 44.9005 83.0105 45.1299C82.5372 45.5032 82.0372 45.8406 81.5572 46.2019C80.9785 46.6406 80.3866 47.0539 79.7666 47.4326C79.3372 47.6966 78.9185 47.9872 78.5145 48.2819C78.2105 48.5046 77.8852 48.6965 77.5839 48.9259C77.3892 49.0739 77.1839 49.2512 76.9412 49.3352V49.3299L76.8012 49.4246L76.8065 49.4259C76.6705 49.4419 76.6799 49.5912 76.5545 49.6339C76.2732 49.7286 76.0412 49.9285 75.7932 50.0952L75.5732 50.2152L75.5439 50.1979C75.5225 50.1926 75.5946 50.2086 75.4252 50.2699L75.2812 50.2406C74.9092 50.2206 74.5359 50.0485 74.1612 50.2285L73.9745 50.2032C73.8625 50.1806 73.7532 50.1459 73.6319 50.1526L73.6026 50.2179L73.6385 50.1579L73.4225 50.1179C73.0479 50.1672 72.6692 50.1432 72.2905 50.1192C72.1692 50.1126 72.0572 50.0659 71.9212 50.0979C71.6865 50.1512 71.4546 50.2152 71.1986 50.0886L70.8359 50.1432H70.8439L70.5532 50.0672L70.5599 50.0726C70.3839 50.0846 70.2092 49.9885 70.0332 50.0605L69.9639 50.0965Z" fill="#1A1818"/>
<path d="M70.0057 92.5486L69.983 92.5046C69.5377 92.4406 69.099 92.5486 68.6363 92.4833C68.2923 92.4366 67.8964 92.4579 67.5257 92.4793C66.835 92.5206 66.139 92.5099 65.4497 92.5006L62.1004 92.4753L60.7404 92.4646L60.567 92.3699C59.931 92.0273 59.2564 91.7726 58.623 91.4246C58.183 91.1833 57.711 91.0033 57.2577 90.7913C56.5577 90.4646 55.8724 90.1046 55.155 89.8126C54.9297 89.7219 54.671 89.6699 54.4857 89.5059C54.2977 89.3406 54.079 89.2446 53.8537 89.15C53.5697 89.0313 53.3097 88.8753 53.067 88.7019C52.7817 88.4979 52.4764 88.3473 52.151 88.2126C51.9977 88.1499 51.9164 88.1766 51.8417 88.2406C51.6884 88.3726 51.779 88.6206 52.0417 88.7833L52.3043 88.9766L51.9884 88.8926C51.8244 88.8459 51.6497 88.8126 51.5724 88.9273C51.5044 89.0299 51.5484 89.1633 51.6337 89.2953L51.8804 89.4646C52.0337 89.5393 52.1804 89.6139 52.2817 89.7446L52.5724 89.9206C52.9404 90.078 53.3004 90.2499 53.6537 90.4353C54.4324 90.8459 55.2617 91.1446 56.0444 91.5526C56.499 91.79 56.9897 91.9739 57.4444 92.2019C57.9404 92.4539 58.4457 92.6726 58.9484 92.9019C59.1817 93.0086 59.407 93.1446 59.6617 93.1833L59.9844 93.4086L60.159 93.4979L60.4577 93.6366L60.9537 93.6259C61.075 93.6246 61.1964 93.6259 61.3177 93.6379C62.007 93.7059 62.7044 93.578 63.4177 93.6513C63.911 93.702 64.439 93.6486 64.9524 93.6699C65.8884 93.7086 66.8217 93.6433 67.7617 93.6833C68.6244 93.7073 69.475 93.7326 70.3457 93.7566C71.2484 93.7953 72.139 93.8326 73.039 93.8699L74.4924 93.9299L77.7684 92.4286C78.6964 92.0006 79.6164 91.5766 80.547 91.1459C81.2737 90.8233 81.9817 90.4553 82.695 90.1033L83.9363 89.4766C84.1337 89.3739 84.299 89.2566 84.2244 89.0779L84.319 88.9273C84.583 88.7166 84.6084 88.5979 84.3897 88.4473L84.1644 88.19C84.0457 87.954 83.8563 87.9219 83.5377 88.1033C83.0203 88.3979 82.4817 88.6526 81.9604 88.9353C81.3297 89.2766 80.691 89.5926 80.0297 89.8699C79.571 90.0646 79.119 90.2859 78.6804 90.5139C78.351 90.6859 78.0044 90.8246 77.6764 91.0033C77.4644 91.1193 77.239 91.2619 76.9884 91.3086V91.3033L76.839 91.3739L76.843 91.3766C76.707 91.3699 76.6964 91.5193 76.5657 91.5419C76.2777 91.5926 76.0217 91.7539 75.755 91.8793C75.5017 91.9993 75.1857 91.9979 75.0057 92.2593L74.8657 92.2993C74.731 92.3606 74.5844 92.3993 74.4417 92.4446L74.231 92.5246L74.1937 92.5606L74.151 92.6366L73.967 92.6126L73.6284 92.5646L73.599 92.6299L73.635 92.5699L73.4204 92.5326C73.051 92.5859 72.6777 92.5673 72.3043 92.5473C72.183 92.5406 72.071 92.4953 71.939 92.5286C71.707 92.5859 71.479 92.6513 71.2244 92.5299L70.867 92.5873H70.8737L70.587 92.5153L70.5937 92.5193C70.4204 92.5326 70.247 92.4379 70.0723 92.5126L70.0057 92.5486Z" fill="#1A1818"/>
<path d="M62.4737 97.1805L62.491 97.2885C63.5124 98.9752 64.6564 100.533 65.7204 102.285C65.931 102.622 66.1484 102.971 66.371 103.327C66.803 103.997 67.2444 104.679 67.6897 105.367C68.303 104.362 68.9257 103.341 69.5284 102.354C71.0937 99.7379 72.7164 97.1285 74.323 94.5432L74.9817 93.4832L75.407 79.6099C75.4937 76.9365 75.5804 74.2565 75.6671 71.5912C75.7711 68.4005 75.875 65.2352 75.9804 62.0485C76.0764 59.8352 76.1057 57.6165 76.1697 55.4019L76.315 50.8272C75.5404 49.0192 74.7657 47.2139 73.9897 45.4032C73.559 44.4232 73.0617 43.4099 72.7124 42.4152C72.3604 41.4045 71.9404 40.4339 71.5097 39.4499C70.967 38.2072 70.4724 36.9645 70.015 35.7499C69.475 34.3179 68.8924 32.9325 68.271 31.5139C67.9764 30.8405 67.8164 30.6152 67.6684 30.4939C67.3604 30.2419 67.5164 31.0859 68.0137 32.3485C68.1937 32.8045 68.391 33.2659 68.5124 33.6779C68.3017 33.3232 68.1057 32.8299 67.903 32.3965C67.5897 31.7272 67.2524 31.0485 67.0924 31.0232C66.951 31.0019 67.0257 31.4405 67.183 32.0205C67.287 32.4005 67.4777 32.8325 67.651 33.2445C67.943 33.9365 68.223 34.6072 68.4084 35.2365C68.5364 35.6699 68.7617 36.1725 68.9617 36.6325C69.6497 38.2565 70.335 39.8725 71.0244 41.4992C72.3844 44.6872 73.7377 47.8605 75.1004 51.0512L75.0644 52.0272C74.9991 54.2938 74.9324 56.5925 74.8697 58.8379C74.7977 61.2939 74.7284 63.7205 74.659 66.1592C74.627 67.2912 74.5657 68.4512 74.6084 69.5365C74.395 71.7085 74.4577 73.9659 74.343 76.2045C74.1857 79.2485 74.2257 82.3205 74.059 85.4765C73.9444 87.6552 73.9297 89.9819 73.843 92.2499L73.811 93.1285C71.8444 96.3112 69.8857 99.4832 67.9084 102.685L67.671 103.057C65.9897 100.438 64.3044 97.8125 62.615 95.1832L61.147 92.8725C61.0257 89.9232 60.9044 86.9699 60.783 84.0165C60.4937 77.0232 60.203 70.0245 59.9137 63.0299L59.3777 50.5725L59.6631 49.9258C61.0511 46.7019 62.4431 43.4699 63.8324 40.2405L66.239 34.5925C66.6217 33.6925 66.9404 32.8672 66.7804 32.7499C66.7177 32.7032 66.839 32.4219 66.9564 32.1045C67.4644 30.7352 67.5044 30.3979 67.0617 30.8432C66.8497 31.0565 66.7111 31.1192 66.5991 31.0832C66.3457 31.0005 65.9697 31.5939 65.3524 33.0885C64.3337 35.5059 63.3151 37.9245 62.2977 40.3365C61.0751 43.2552 59.8364 46.1472 58.5497 49.0379L57.9844 50.3179C58.0724 52.1512 58.159 53.9939 58.2457 55.8085C58.3244 57.4512 58.4017 59.0885 58.4804 60.7379C58.5417 61.7992 58.627 62.9699 58.6097 64.0579L58.6044 64.0445C58.6564 64.2872 58.6537 64.5325 58.639 64.7805L58.6417 64.7659C58.6017 65.2939 58.747 65.6179 58.7364 66.1792C58.715 67.4272 58.8097 68.7525 58.8697 70.0525C58.9244 71.2872 58.8444 72.5485 59.059 73.7605C59.0764 73.8605 59.0551 74.1739 59.0631 74.3912C59.1284 76.0139 59.043 77.6672 59.3097 79.2645C59.335 79.4192 59.3244 79.8099 59.3257 80.0832C59.3284 80.5779 59.3204 81.0592 59.3537 81.5845L59.4257 81.7019C59.3977 81.9845 59.379 81.6739 59.3577 81.5539C59.3324 81.8325 59.3377 82.1365 59.3684 82.5019C59.5031 84.1259 59.5657 85.7752 59.6297 87.4245C59.6497 87.9605 59.6297 88.4565 59.6924 89.0392C59.8004 90.0525 59.9164 91.0525 59.8497 92.1859C59.843 92.3059 59.8444 92.4472 59.8524 92.6005C59.8684 92.8112 59.8844 93.0379 59.9004 93.2712L60.103 93.5605L60.2217 93.7165L60.4284 93.9712L60.4097 93.9419C60.6644 94.3379 60.943 94.7485 61.0444 95.0485L61.0324 95.0219C61.4617 95.6552 61.803 96.3539 62.2817 96.9525C62.3337 96.9952 62.3764 97.0085 62.4737 97.1805Z" fill="#1A1818"/>
</svg>
