<svg width="56" height="56" viewBox="0 0 56 56" fill="none" xmlns="http://www.w3.org/2000/svg">
<rect width="56" height="56" rx="28" fill="white"/>
<path fill-rule="evenodd" clip-rule="evenodd" d="M26.386 24.3569C26.1543 24.2179 25.8657 24.2143 25.6306 24.3474C25.3955 24.4805 25.2501 24.7298 25.2501 25V31C25.2501 31.2702 25.3955 31.5196 25.6306 31.6527C25.8657 31.7858 26.1543 31.7822 26.386 31.6432L31.386 28.6432C31.6119 28.5076 31.7501 28.2635 31.7501 28C31.7501 27.7366 31.6119 27.4925 31.386 27.3569L26.386 24.3569ZM29.5424 28L26.7501 29.6754V26.3247L29.5424 28Z" fill="#136A99"/>
<path fill-rule="evenodd" clip-rule="evenodd" d="M33.0308 20.6413C29.6821 20.3793 26.3182 20.3793 22.9695 20.6413L20.7288 20.8166C19.3662 20.9232 18.2516 21.9444 18.0263 23.2925C17.5056 26.4092 17.5056 29.5908 18.0263 32.7076C18.2516 34.0556 19.3662 35.0768 20.7288 35.1834L22.9695 35.3587C26.3182 35.6207 29.6821 35.6207 33.0308 35.3587L35.2715 35.1834C36.6341 35.0768 37.7488 34.0556 37.974 32.7076C38.4948 29.5908 38.4948 26.4092 37.974 23.2925C37.7488 21.9444 36.6341 20.9232 35.2715 20.8166L33.0308 20.6413ZM23.0865 22.1367C26.3573 21.8809 29.643 21.8809 32.9138 22.1367L35.1545 22.312C35.8301 22.3649 36.3828 22.8713 36.4945 23.5397C36.9879 26.4928 36.9879 29.5073 36.4945 32.4604C36.3828 33.1288 35.8301 33.6352 35.1545 33.688L32.9138 33.8633C29.643 34.1192 26.3573 34.1192 23.0865 33.8633L20.8458 33.688C20.1702 33.6352 19.6175 33.1288 19.5058 32.4604C19.0124 29.5073 19.0124 26.4928 19.5058 23.5397C19.6175 22.8713 20.1702 22.3649 20.8458 22.312L23.0865 22.1367Z" fill="#136A99"/>
</svg>
